<svg width="91" height="90" viewBox="0 0 91 90" fill="none" xmlns="http://www.w3.org/2000/svg">
<g clip-path="url(#clip0_831_4375)">
<path d="M45.2 88.7C20.9 88.7 1.10001 68.9 1.10001 44.6C1.10001 29.1 9.90001 18 11.6 16C13 14.4 25.4 0.5 44.3 0.5C44.6 0.5 44.8 0.5 45.1 0.5C66.4 1 89.2 18.8 89.2 44.6C89.2 68.9 69.5 88.7 45.2 88.7Z" fill="#92A1F4"/>
<path d="M44.3 1C44.6 1 44.8 1 45.1 1C55.6 1.2 66.4 5.7 74.7 13.3C83.7 21.6 88.7 32.7 88.7 44.6C88.7 68.6 69.2 88.2 45.1 88.2C21 88.2 1.60001 68.6 1.60001 44.6C1.60001 29.3 10.3 18.4 12 16.3C13.3 14.7 25.6 1 44.3 1ZM44.3 0C25 0 12.3 14.4 11.2 15.7C9.10001 18.2 0.600006 29.2 0.600006 44.6C0.600006 69.2 20.6 89.2 45.2 89.2C69.8 89.2 89.8 69.2 89.8 44.6C89.7 18.3 66.4 0.4 45.2 0C44.9 0 44.6 0 44.3 0Z" fill="black"/>
<path d="M75.2 13.4C57.3 -3.2 51.9 10.4 49.6 19.5C47.8 26.5 44.6 31.6 39.9 19.4C34.2 4.9 29.7 -0.800002 14.3 12.7C-1.80001 26.9 0.599994 48 0.599994 48C0.599994 48 7.59999 63.5 12.2 48C16.8 32.5 18.5 29 18.5 29C18.5 29 25.8 18.7 32.7 31.1C36.4 37.8 39.3 41.1 43.1 42.4C46.7 43.6 50.7 42.5 53.1 39.5C54.7 37.5 56.5 34.5 58.4 30C63.6 17.7 71.4 24.8 72.3 28.7C73.3 33.1 78.5 48.4 78.5 48.4C78.5 48.4 82.4 62.7 89.7 48C89.8 48 91.8 28.8 75.2 13.4Z" fill="#F9F9F2" stroke="black" stroke-miterlimit="10"/>
<path d="M27.1 46C29 46 29 43 27.1 43C25.2 43 25.2 46 27.1 46Z" fill="black"/>
<path d="M63.2 45.5C65.1 45.5 65.1 42.5 63.2 42.5C61.2 42.5 61.2 45.5 63.2 45.5Z" fill="black"/>
<path d="M46.8 57.7C47.1 58.9 47.5 60 47.8 61.2C48.1 62.3 48.5 63.4 48.8 64.6C48.9 65 48.9 65.1 48.5 65.1C48 65.2 47.5 65.1 47 65.1C45.8 65.1 44.6 65.1 43.3 65.1C42.3 65.1 42.3 66.6 43.3 66.6C44.7 66.6 46.1 66.6 47.5 66.6C48.6 66.6 50.2 66.6 50.4 65.2C50.5 64.6 50.3 64 50.1 63.4C49.9 62.7 49.7 62.1 49.5 61.4C49.1 60 48.7 58.7 48.3 57.3C48 56.4 46.5 56.8 46.8 57.7Z" fill="black"/>
<path d="M51.2 75.3C48.8 75.3 46.3 75.3 43.9 75.3C42.9 75.3 42.9 76.8 43.9 76.8C46.3 76.8 48.8 76.8 51.2 76.8C52.2 76.8 52.2 75.3 51.2 75.3Z" fill="black"/>
</g>
<defs>
<clipPath id="clip0_831_4375">
<rect width="90.4" height="89.2" fill="white"/>
</clipPath>
</defs>
</svg>
