<svg width="91" height="90" viewBox="0 0 91 90" fill="none" xmlns="http://www.w3.org/2000/svg">
<g clip-path="url(#clip0_831_4396)">
<path d="M45.2 88.7C20.9 88.7 1.10001 68.9 1.10001 44.6C1.10001 29.1 9.90001 18 11.6 16C13 14.4 25.4 0.5 44.3 0.5C44.6 0.5 44.8 0.5 45.1 0.5C66.4 1 89.2 18.8 89.2 44.6C89.2 68.9 69.5 88.7 45.2 88.7Z" fill="#F4EC5B"/>
<path d="M44.3 1C44.6 1 44.8 1 45.1 1C55.6 1.2 66.4 5.7 74.7 13.3C83.7 21.6 88.7 32.7 88.7 44.6C88.7 68.6 69.2 88.2 45.1 88.2C21 88.2 1.60001 68.6 1.60001 44.6C1.60001 29.3 10.3 18.4 12 16.3C13.3 14.7 25.6 1 44.3 1ZM44.3 0C25 0 12.3 14.4 11.2 15.7C9.10001 18.2 0.600006 29.2 0.600006 44.6C0.600006 69.2 20.6 89.2 45.2 89.2C69.8 89.2 89.8 69.2 89.8 44.6C89.7 18.3 66.4 0.4 45.2 0C44.9 0 44.6 0 44.3 0Z" fill="black"/>
<path d="M75.2 13.4C57.3 -3.2 51.9 10.4 49.6 19.5C47.8 26.5 44.6 31.6 39.9 19.4C34.2 4.9 29.7 -0.800002 14.3 12.7C-1.79999 26.9 0.60001 48 0.60001 48C0.60001 48 7.60001 63.5 12.2 48C16.8 32.5 18.5 29 18.5 29C18.5 29 25.8 18.7 32.7 31.1C36.4 37.8 39.3 41.1 43.1 42.4C46.7 43.6 50.7 42.5 53.1 39.5C54.7 37.5 56.5 34.5 58.4 30C63.6 17.7 71.4 24.8 72.3 28.7C73.3 33.1 78.5 48.4 78.5 48.4C78.5 48.4 82.4 62.7 89.7 48C89.8 48 91.8 28.8 75.2 13.4Z" fill="#11D3AE" stroke="black" stroke-miterlimit="10"/>
<path d="M27.1 46C29 46 29 43 27.1 43C25.2 43 25.2 46 27.1 46Z" fill="black"/>
<path d="M63.2 45.5C65.1 45.5 65.1 42.5 63.2 42.5C61.2 42.5 61.2 45.5 63.2 45.5Z" fill="black"/>
<path d="M46.6 58.8C43.9 60.7 44.5 65.4 47.7 66.4C48.1 66.5 48.5 66.3 48.6 65.9C48.7 65.5 48.5 65.1 48.1 65L47.9 64.9C48 64.9 47.8 64.8 47.7 64.8C47.6 64.7 47.5 64.7 47.4 64.6C47.5 64.7 47.3 64.5 47.3 64.5L47.2 64.4L47.1 64.3C47 64.2 47.1 64.4 47.1 64.2C47 64.1 46.9 63.9 46.9 63.8C46.9 63.7 46.8 63.7 46.8 63.6C46.7 63.4 46.8 63.7 46.8 63.5C46.7 63.4 46.7 63.2 46.7 63C46.7 62.9 46.7 62.9 46.7 62.8C46.7 62.8 46.7 62.5 46.7 62.6C46.7 62.7 46.7 62.5 46.7 62.4C46.7 62.3 46.7 62.3 46.7 62.2C46.7 62.1 46.7 61.9 46.7 61.8C46.7 61.8 46.7 61.5 46.7 61.7C46.7 61.6 46.7 61.6 46.7 61.5C46.7 61.4 46.8 61.2 46.8 61.1C46.8 61.1 46.9 60.9 46.8 61C46.8 60.9 46.9 60.9 46.9 60.8C47 60.7 47 60.6 47.1 60.4L47.2 60.3L47.3 60.2L47.4 60.1C47.5 60 47.5 60 47.4 60.1L47.5 60C47.8 59.8 48 59.3 47.8 59C47.5 58.7 47 58.5 46.6 58.8Z" fill="black"/>
<path d="M47.8 77.3C52.1 77.9 56.7 76.3 59.4 72.8C59.7 72.5 59.7 72.1 59.4 71.7C59.1 71.4 58.6 71.4 58.3 71.7C55.9 74.7 52 76.4 48.2 75.8C47.8 75.7 47.4 75.9 47.3 76.3C47.2 76.7 47.4 77.2 47.8 77.3Z" fill="black"/>
</g>
<defs>
<clipPath id="clip0_831_4396">
<rect width="90.4" height="89.2" fill="white"/>
</clipPath>
</defs>
</svg>
