<?xml version="1.0" encoding="utf-8"?>
<!-- Generator: Adobe Illustrator 24.2.3, SVG Export Plug-In . SVG Version: 6.00 Build 0)  -->
<svg version="1.1" id="Capa_1" xmlns="http://www.w3.org/2000/svg" xmlns:xlink="http://www.w3.org/1999/xlink" x="0px" y="0px"
	 viewBox="0 0 250 200" style="enable-background:new 0 0 250 200;" xml:space="preserve">
<style type="text/css">
	.st0{fill:#FFFFFF;}
	.st1{fill-rule:evenodd;clip-rule:evenodd;fill:#ECFDF5;}
	.st2{fill-rule:evenodd;clip-rule:evenodd;fill:#FFFFFF;}
	.st3{fill:none;stroke:#00BDAB;stroke-width:2.5;stroke-linecap:round;}
	.st4{fill-rule:evenodd;clip-rule:evenodd;fill:#FFFFFF;stroke:#00BDAB;stroke-width:2.5;}
</style>
<rect y="0" class="st0" width="250" height="200"/>
<path class="st1" d="M63,134h91c0.5,0,1-0.1,1.5-0.2c0.5,0.1,1,0.2,1.5,0.2h52c3.9,0,7-3.1,7-7c0-3.9-3.1-7-7-7h-6c-3.9,0-7-3.1-7-7
	s3.1-7,7-7h19c3.9,0,7-3.1,7-7s-3.1-7-7-7h-22c3.9,0,7-3.1,7-7s-3.1-7-7-7h-64c3.9,0,7-3.1,7-7s-3.1-7-7-7H79c-3.9,0-7,3.1-7,7
	s3.1,7,7,7H39c-3.9,0-7,3.1-7,7s3.1,7,7,7h25c3.9,0,7,3.1,7,7s-3.1,7-7,7H24c-3.9,0-7,3.1-7,7s3.1,7,7,7h39c-3.9,0-7,3.1-7,7
	C56,130.9,59.1,134,63,134z M226,134c3.9,0,7-3.1,7-7c0-3.9-3.1-7-7-7s-7,3.1-7,7C219,130.9,222.1,134,226,134z"/>
<path class="st2" d="M168.9,126.1c-2.6,1.9-5.1,3.7-7.9,5.3l0.2,14c0,0.6-0.2,1.2-0.7,1.6c-0.8,0.7-1.8,0.6-2.5,0.1l-12.7-9.7
	c-4.7,1.1-9.8,1.7-14.9,1.7c-30.4,0-55-20.1-55-45c0-24.9,24.6-45,55-45c30.4,0,55,20.1,55,45c0,6.9-1.9,13.4-5.3,19.2
	c-0.6,1.1-1.3,2.1-2,3.2c0,0-1.4,2.1-4.2,5.1S168.9,126.1,168.9,126.1z"/>
<path class="st3" d="M168.4,126.1c-2.6,1.9-5.1,3.7-7.9,5.3l0.2,14c0,0.6-0.2,1.2-0.7,1.6c-0.8,0.7-1.8,0.6-2.5,0.1l-12.7-9.7
	c-4.7,1.1-9.8,1.7-14.9,1.7c-30.4,0-55-20.1-55-45c0-24.9,24.6-45,55-45c30.4,0,55,20.1,55,45c0,6.9-1.9,13.4-5.3,19.2
	c-0.6,1.1-1.3,2.1-2,3.2c0,0-1.4,2.1-4.2,5.1S168.4,126.1,168.4,126.1z"/>
<path class="st1" d="M162.4,81.6c5.3,0,10.4-0.6,15.2-1.8c1.9,4.3,2.9,9,2.9,13.9c0,6.3-1.7,12.3-4.9,17.7c-0.6,1-1.2,2-1.9,2.9
	c-1.1,1.5-1.8,2.5-2.5,3.4c-1.6,2-2.6,2.8-6,5.5c-2.3,1.8-4.7,3.4-7.4,4.9l0.2,13c0,1,0.3,2.9-0.7,2.9c-0.4,0-2-1.2-2.3-1.4
	l-10.2-9.1c-4.4,1-10.6,1.7-15.4,1.7c-28.2,0-51-18.6-51-41.4c0-18.7,15.3-34.6,36.3-39.7C120.4,69.9,139.6,81.6,162.4,81.6z
	 M110.3,88.1c-3.3,0-6,2.7-6,6c0,3.3,2.7,6,6,6s6-2.7,6-6C116.3,90.8,113.6,88.1,110.3,88.1z M129.2,88.1c-3.3,0-6,2.7-6,6
	c0,3.3,2.7,6,6,6c3.3,0,6-2.7,6-6C135.2,90.8,132.5,88.1,129.2,88.1z M148.2,88.1c-3.3,0-6,2.7-6,6c0,3.3,2.7,6,6,6c3.3,0,6-2.7,6-6
	C154.2,90.8,151.5,88.1,148.2,88.1z"/>
<path class="st4" d="M110,88c3.3,0,6,2.7,6,6s-2.7,6-6,6s-6-2.7-6-6S106.7,88,110,88z M129,88c3.3,0,6,2.7,6,6s-2.7,6-6,6
	c-3.3,0-6-2.7-6-6S125.7,88,129,88z M148,88c3.3,0,6,2.7,6,6s-2.7,6-6,6s-6-2.7-6-6S144.7,88,148,88z"/>
<path class="st3" d="M89.7,79.3c-0.9,1.5-1.7,3.1-2.4,4.8"/>
<path class="st3" d="M108,63.1c-6.6,3.1-12.1,7.6-16.1,12.8"/>
</svg>
