<?xml version="1.0" encoding="UTF-8"?>
<svg width="180px" height="100px" viewBox="0 0 250 200" version="1.1" xmlns="http://www.w3.org/2000/svg" xmlns:xlink="http://www.w3.org/1999/xlink">
    <!-- Generator: Sketch 52.6 (67491) - http://www.bohemiancoding.com/sketch -->
    <title>bg-icon</title>
    <desc>Created with Sketch.</desc>
    <g id="Page-1" stroke="none" stroke-width="1" fill="none" fill-rule="evenodd">
        <g id="bg-icon">
            <rect id="Rectangle" fill="#FFFFFF" x="0" y="0" width="250" height="200"></rect>
            <path d="M63,134 L154,134 C154.515,134 155.017,133.944 155.5,133.839 C155.983,133.944 156.485,134 157,134 L209,134 C212.866,134 216,130.866 216,127 C216,123.134 212.866,120 209,120 L203,120 C199.134,120 196,116.866 196,113 C196,109.134 199.134,106 203,106 L222,106 C225.866,106 229,102.866 229,99 C229,95.134 225.866,92 222,92 L200,92 C203.866,92 207,88.866 207,85 C207,81.134 203.866,78 200,78 L136,78 C139.866,78 143,74.866 143,71 C143,67.134 139.866,64 136,64 L79,64 C75.134,64 72,67.134 72,71 C72,74.866 75.134,78 79,78 L39,78 C35.134,78 32,81.134 32,85 C32,88.866 35.134,92 39,92 L64,92 C67.866,92 71,95.134 71,99 C71,102.866 67.866,106 64,106 L24,106 C20.134,106 17,109.134 17,113 C17,116.866 20.134,120 24,120 L63,120 C59.134,120 56,123.134 56,127 C56,130.866 59.134,134 63,134 Z M226,134 C229.866,134 233,130.866 233,127 C233,123.134 229.866,120 226,120 C222.134,120 219,123.134 219,127 C219,130.866 222.134,134 226,134 Z" id="Shape" fill="#ECFDF5"></path>
        </g>
    </g>
</svg>