<?xml version="1.0" encoding="utf-8"?>
<!-- Generator: Adobe Illustrator 24.2.3, SVG Export Plug-In . SVG Version: 6.00 Build 0)  -->
<svg version="1.1" id="Capa_1" xmlns="http://www.w3.org/2000/svg" xmlns:xlink="http://www.w3.org/1999/xlink" x="0px" y="0px"
	 viewBox="0 0 1830 602" style="enable-background:new 0 0 1830 602;" xml:space="preserve">
<style type="text/css">
	.st0{opacity:0.3;}
	.st1{fill:none;stroke:#D5F2E8;stroke-width:15;stroke-miterlimit:10;}
	.st2{fill:none;stroke:#D5F2E8;stroke-width:20;stroke-miterlimit:10;}
	.st3{fill:none;stroke:#3C4973;stroke-width:2;stroke-miterlimit:10;}
	.st4{fill:#FFCE83;}
	.st5{fill:none;stroke:#3C4973;stroke-width:2;stroke-linecap:round;stroke-linejoin:round;stroke-miterlimit:10;}
	.st6{fill:none;stroke:#FFCE83;stroke-width:2;stroke-miterlimit:10;}
	.st7{fill:#D5F2E8;}
</style>
<g class="st0">
	<path class="st1" d="M609,88c7-7,7-18.3,0-25.3c-7-7-18.3-7-25.3,0c-7,7-7,18.3,0,25.3C590.7,95,602,95,609,88z"/>
	<path class="st2" d="M832.8,585.6c22.5,0,40.8-18.3,40.8-40.8S855.3,504,832.8,504c-22.5,0-40.8,18.3-40.8,40.8
		S810.3,585.6,832.8,585.6z"/>
	<path class="st3" d="M1557,467c6.8,0,6.8,4,13.4,4c6.8,0,6.8-4,13.5-4c6.8,0,6.8,4,13.4,4c6.8,0,6.8-4,13.5-4c6.8,0,6.8,4,13.5,4
		c6.8,0,6.8-4,13.4-4c6.8,0,6.8,4,13.5,4c6.8,0,6.8-4,13.5-4c6.8,0,6.8,4,13.4,4c6.8,0,6.8-4,13.5-4c6.8,0,6.8,4,13.4,4
		c6.8,0,6.8-4,13.4-4c6.8,0,6.8,4,13.5,4c6.8,0,6.8-4,13.4-4c6.8,0,6.8,4,13.5,4c6.8,0,6.8-4,13.5-4c6.8,0,6.8,4,13.4,4
		c6.8,0,6.8-4,13.5-4"/>
	<path class="st3" d="M1557,484.5c6.8,0,6.8,4,13.4,4c6.8,0,6.8-4,13.5-4c6.8,0,6.8,4,13.4,4c6.8,0,6.8-4,13.5-4c6.8,0,6.8,4,13.5,4
		c6.8,0,6.8-4,13.4-4c6.8,0,6.8,4,13.5,4c6.8,0,6.8-4,13.5-4c6.8,0,6.8,4,13.4,4c6.8,0,6.8-4,13.5-4c6.8,0,6.8,4,13.4,4
		c6.8,0,6.8-4,13.4-4c6.8,0,6.8,4,13.5,4c6.8,0,6.8-4,13.4-4c6.8,0,6.8,4,13.5,4c6.8,0,6.8-4,13.5-4c6.8,0,6.8,4,13.4,4
		c6.8,0,6.8-4,13.5-4"/>
	<path class="st3" d="M1557,501.9c6.8,0,6.8,4,13.4,4c6.8,0,6.8-4,13.5-4c6.8,0,6.8,4,13.4,4c6.8,0,6.8-4,13.5-4c6.8,0,6.8,4,13.5,4
		c6.8,0,6.8-4,13.4-4c6.8,0,6.8,4,13.5,4c6.8,0,6.8-4,13.5-4c6.8,0,6.8,4,13.4,4c6.8,0,6.8-4,13.5-4c6.8,0,6.8,4,13.4,4
		c6.8,0,6.8-4,13.4-4c6.8,0,6.8,4,13.5,4c6.8,0,6.8-4,13.4-4c6.8,0,6.8,4,13.5,4c6.8,0,6.8-4,13.5-4c6.8,0,6.8,4,13.4,4
		c6.8,0,6.8-4,13.5-4"/>
	<path class="st3" d="M1557,519.3c6.8,0,6.8,4,13.4,4c6.8,0,6.8-4,13.5-4c6.8,0,6.8,4,13.4,4c6.8,0,6.8-4,13.5-4c6.8,0,6.8,4,13.5,4
		c6.8,0,6.8-4,13.4-4c6.8,0,6.8,4,13.5,4c6.8,0,6.8-4,13.5-4c6.8,0,6.8,4,13.4,4c6.8,0,6.8-4,13.5-4c6.8,0,6.8,4,13.4,4
		c6.8,0,6.8-4,13.4-4c6.8,0,6.8,4,13.5,4c6.8,0,6.8-4,13.4-4c6.8,0,6.8,4,13.5,4c6.8,0,6.8-4,13.5-4c6.8,0,6.8,4,13.4,4
		c6.8,0,6.8-4,13.5-4"/>
	<path class="st3" d="M280.9,120.7c-2.6-6.7,0.7-14.2,7.4-16.8c6.7-2.6,14.2,0.7,16.8,7.4c2.6,6.7-0.7,14.2-7.4,16.8"/>
	<path class="st3" d="M28.2,592c5.1-5.1,5.1-13.3,0-18.3c-5.1-5.1-13.3-5.1-18.3,0c-5.1,5.1-5.1,13.3,0,18.3
		C14.9,597,23.1,597,28.2,592z"/>
	<path class="st4" d="M873.3,109.9l64-87.2v-0.1h-0.1l-7.5-18l-19.5-1.8l-63.9,87.2l7.5,17.9l19.5,1.9V109.9z"/>
	<path class="st5" d="M845.5,106.1l-7.5-18L901.9,1l7.6,17.9l-51.7,70.4"/>
	<path class="st5" d="M845.5,106.1l19.6,1.9L929,20.8l-19.5-1.9l-51.7,70.4"/>
	<path class="st5" d="M865,108.2l-7.2-18.8L838,88.1L901.9,1l19.5,1.8l7.5,18.1L865,108.2z"/>
	<path class="st6" d="M1761,188.9c37.7-11.3,59.1-50.9,47.9-88.6c-11.3-37.7-50.9-59.1-88.6-47.9c-37.7,11.3-59.1,50.9-47.9,88.6
		C1683.6,178.7,1723.3,200.1,1761,188.9z"/>
	<path class="st6" d="M1803.6,126.1c3-34.8-22.8-65.6-57.6-68.6c-34.8-3-65.5,22.8-68.6,57.6c-3,34.8,22.8,65.6,57.6,68.6
		C1769.9,186.7,1800.6,160.9,1803.6,126.1z"/>
	<path class="st6" d="M1795.6,128.4c4.3-30.4-16.8-58.5-47.2-62.8c-30.4-4.3-58.5,16.8-62.8,47.2c-4.3,30.4,16.8,58.5,47.2,62.8
		C1763.2,179.9,1791.3,158.8,1795.6,128.4z"/>
	<path class="st6" d="M1740.6,168.4c26.4,0,47.7-21.4,47.7-47.8c0-26.4-21.4-47.8-47.7-47.8s-47.7,21.4-47.7,47.8
		C1692.9,147,1714.2,168.4,1740.6,168.4z"/>
	<path class="st6" d="M1745,160.3c21.9-2.4,37.7-22.1,35.2-44c-2.4-21.9-22.1-37.7-44-35.2c-21.9,2.4-37.6,22.1-35.2,44
		C1703.4,146.9,1723.1,162.7,1745,160.3z"/>
	<path class="st6" d="M1766.6,139.4c10.4-14.4,7.1-34.4-7.2-44.8c-14.3-10.4-34.4-7.2-44.8,7.2c-10.4,14.4-7.1,34.4,7.2,44.8
		S1756.2,153.8,1766.6,139.4z"/>
	<path class="st6" d="M1761.6,132.5c6.6-11.6,2.6-26.4-9-33c-11.6-6.6-26.4-2.6-33,9.1c-6.6,11.6-2.5,26.4,9.1,33
		C1740.2,148.2,1755,144.2,1761.6,132.5z"/>
	<path class="st6" d="M1746.4,136c8.5-3.2,12.7-12.7,9.5-21.1c-3.2-8.5-12.7-12.7-21.1-9.5c-8.5,3.2-12.7,12.7-9.5,21.1
		C1728.5,134.9,1737.9,139.2,1746.4,136z"/>
	<path class="st6" d="M1732.9,124.6c-2.1-4.2-0.5-9.4,3.6-11.5c4.2-2.1,9.4-0.5,11.5,3.6c2.1,4.2,0.5,9.4-3.7,11.5
		C1740.3,130.4,1735.1,128.8,1732.9,124.6z"/>
	<path class="st7" d="M31.6,6.1L20,17.6l36.7,36.7l11.6-11.6L31.6,6.1z"/>
	<path class="st7" d="M20,42.7l11.6,11.6l36.7-36.7L56.7,6L20,42.7z"/>
	<path class="st4" d="M522.7,536.9l-32.1-5.6l-10.3-30.6l40.9-48.3l42.4,36.1L522.7,536.9z"/>
	<path class="st5" d="M486.9,519.1l-10.3-30.6l40.9-48.3l10.3,30.6L486.9,519.1z"/>
	<path class="st5" d="M486.9,519.1l32.2,5.5l40.9-48.4l-32.2-5.4L486.9,519.1z"/>
	<path class="st5" d="M518.9,524.6l-42.4-36.1l40.9-48.3l42.4,36.1L518.9,524.6z"/>
	<path class="st4" d="M1299.9,383.7c17.6,0,31.9-14.3,31.9-31.9c0-17.6-14.3-31.9-31.9-31.9c-17.6,0-31.9,14.3-31.9,31.9
		C1268,369.5,1282.3,383.7,1299.9,383.7z"/>
</g>
</svg>
