<svg width="1870" height="395" viewBox="0 0 1870 395" fill="none" xmlns="http://www.w3.org/2000/svg">
<g opacity="0.4">
<g clip-path="url(#clip0_324_446)">
<path d="M89.2373 197.282V194.808C109.038 194.808 125.121 178.729 125.121 159H127.6C127.631 180.12 110.402 197.282 89.2373 197.282Z" fill="#FF9B71"/>
<path d="M87.3162 176.1L82.3582 171.152L87.1303 166.39L84.9301 164.195L80.1581 168.957L75.386 164.195L73.1859 166.39L77.958 171.152L73 176.1L75.2001 178.296L80.1581 173.348L85.1161 178.296L87.3162 176.1Z" fill="#7DD2B7"/>
<path d="M166.427 277C163.111 277 159.888 276.351 156.851 275.083C153.939 273.846 151.305 272.083 149.043 269.826C146.781 267.569 145.014 264.94 143.775 262.034C142.504 259.003 141.854 255.787 141.854 252.479C141.854 249.17 142.504 245.954 143.775 242.923C145.014 240.017 146.781 237.388 149.043 235.131C151.305 232.874 153.939 231.111 156.851 229.874C159.888 228.606 163.111 227.957 166.427 227.957C169.742 227.957 172.965 228.606 176.002 229.874C178.914 231.111 181.548 232.874 183.81 235.131C186.073 237.388 187.839 240.017 189.078 242.923C190.349 245.954 191 249.17 191 252.479C191 255.787 190.349 259.003 189.078 262.034C187.839 264.94 186.073 267.569 183.81 269.826C181.548 272.083 178.914 273.846 176.002 275.083C172.965 276.351 169.742 277 166.427 277ZM166.427 237.141C157.936 237.141 151.026 244.037 151.026 252.509C151.026 260.982 157.936 267.878 166.427 267.878C174.917 267.878 181.827 260.982 181.827 252.509C181.827 244.006 174.917 237.141 166.427 237.141Z" fill="#7DD2B7"/>
</g>
<mask id="mask0_324_446" style="mask-type:alpha" maskUnits="userSpaceOnUse" x="452" y="101" width="102" height="102">
<ellipse cx="502.96" cy="152.182" rx="50.8539" ry="50.7273" fill="#C4C4C4"/>
</mask>
<g mask="url(#mask0_324_446)">
<path d="M550.256 104.754L550.228 104.809L550.174 104.864L536.411 118.623L536.356 118.678L536.301 118.706L522.539 132.493L522.484 132.547L522.429 132.575L508.666 146.362L508.612 146.389L508.557 146.444L494.794 160.204L494.739 160.259L494.712 160.313L480.895 174.128L480.84 174.183L467.077 187.943L467.022 187.997L466.968 188.052L453.205 201.812L453.15 201.867L453.096 201.894L447.268 207.721H448.198L453.561 202.359L453.615 202.304L453.67 202.277L467.433 188.49L467.488 188.462L467.515 188.408L481.332 174.593L481.387 174.538L495.177 160.778L495.205 160.724L495.259 160.669L509.022 146.909L509.077 146.854L509.132 146.8L522.894 133.04L522.949 132.985L523.004 132.958L536.766 119.171L536.821 119.143L536.849 119.089L550.639 105.329L550.693 105.274L550.721 105.219L559.203 96.739V95.8362L550.256 104.754Z" fill="#FF9B71"/>
<path d="M554.852 109.432L554.798 109.487L541.035 123.247L540.98 123.302L540.925 123.329L527.163 137.116L527.108 137.144L527.053 137.198L513.29 150.986L513.236 151.013L499.418 164.828L499.363 164.882L499.336 164.937L485.546 178.697L485.519 178.752L485.464 178.806L471.674 192.566L471.646 192.621L471.592 192.648L457.829 206.435L457.774 206.463L457.72 206.518L456.516 207.721H457.446L458.185 206.983L458.239 206.928L458.294 206.901L472.057 193.113L472.112 193.086L472.139 193.031L485.929 179.271L485.956 179.217L486.011 179.162L499.774 165.402L499.829 165.347L499.883 165.293L513.646 151.533L513.701 151.478L527.518 137.663L527.573 137.609L527.628 137.581L541.39 123.794L541.445 123.767L541.473 123.712L555.263 109.925L555.29 109.897L555.345 109.843L559.203 105.986V105.083L554.88 109.378L554.852 109.432Z" fill="#FF9B71"/>
<path d="M557.151 111.73L557.096 111.785L543.333 125.545L543.278 125.6L543.224 125.654L529.461 139.414L529.406 139.469L529.379 139.524L515.589 153.283L515.561 153.338L515.507 153.366L501.744 167.153L501.689 167.207L501.634 167.235L487.817 181.049L487.762 181.104L473.999 194.864L473.945 194.919L473.89 194.973L461.14 207.721H462.07L474.355 195.438L474.41 195.384L474.465 195.329L488.282 181.514L488.337 181.46L502.1 167.7L502.154 167.645L502.182 167.618L515.972 153.831L516.026 153.803L516.054 153.749L529.844 139.989L529.871 139.934L529.926 139.879L543.689 126.119L543.743 126.065L543.798 126.01L557.561 112.25L557.616 112.195L557.67 112.141L559.203 110.609V109.706L557.205 111.703L557.151 111.73Z" fill="#FF9B71"/>
<path d="M552.472 107.162L538.654 120.976L538.627 121.031L524.837 134.791L524.782 134.846L524.755 134.901L510.965 148.66L510.937 148.715L510.883 148.77L497.12 162.53L497.065 162.584L497.01 162.612L483.248 176.399L483.193 176.426L483.138 176.481L469.375 190.241L469.321 190.296L469.293 190.35L455.503 204.11L455.449 204.165L455.421 204.22L451.892 207.721H452.822L455.886 204.685L455.914 204.63L455.968 204.575L469.731 190.815L469.786 190.761L469.841 190.706L483.603 176.946L483.658 176.891L483.713 176.864L497.476 163.077L497.53 163.022L497.585 162.995L511.348 149.207L511.402 149.18L511.43 149.125L525.22 135.366L525.247 135.311L525.302 135.256L539.119 121.442L539.174 121.387L552.992 107.572L553.046 107.545L559.203 101.363V100.46L552.527 107.107L552.472 107.162Z" fill="#FF9B71"/>
<path d="M550.228 132.548L550.173 132.575L536.411 146.363L536.356 146.39L536.301 146.445L522.538 160.204L522.484 160.259L522.429 160.314L508.666 174.074L508.611 174.128L508.557 174.183L494.794 187.943L494.739 187.998L494.712 188.052L480.894 201.867L480.84 201.894L475.012 207.721H475.942L481.332 202.305L481.387 202.277L495.177 188.49L495.204 188.463L495.259 188.408L509.022 174.648L509.077 174.593L509.131 174.539L522.894 160.779L522.949 160.724L523.003 160.669L536.766 146.91L536.821 146.855L536.848 146.8L550.638 133.04L550.693 132.986L550.72 132.958L559.202 124.478V123.548L550.255 132.493L550.228 132.548Z" fill="#FF9B71"/>
<path d="M547.902 130.223L547.848 130.277L534.085 144.037L534.03 144.092L520.213 157.907L520.185 157.961L506.368 171.776L506.313 171.803L506.258 171.858L492.496 185.645L492.441 185.673L492.386 185.727L478.623 199.487L478.569 199.542L478.514 199.597L470.388 207.721H471.318L478.979 200.062L479.034 200.007L479.089 199.952L492.851 186.192L492.906 186.138L492.961 186.083L506.724 172.323L506.778 172.268L506.806 172.241L520.596 158.454L520.623 158.426L534.441 144.612L534.495 144.557L548.313 130.742L548.367 130.688L548.422 130.633L559.203 119.855V118.925L547.957 130.168L547.902 130.223Z" fill="#FF9B71"/>
<path d="M554.852 137.144L554.797 137.198L541.035 150.986L540.98 151.013L527.162 164.828L527.108 164.882L527.053 164.937L513.29 178.697L513.235 178.752L513.181 178.806L499.418 192.566L499.363 192.621L499.336 192.648L485.546 206.435L485.518 206.463L485.464 206.517L484.26 207.721H485.19L485.929 206.983L485.956 206.928L486.011 206.9L499.774 193.113L499.828 193.086L499.883 193.031L513.646 179.271L513.701 179.217L513.755 179.162L527.518 165.402L527.573 165.347L527.627 165.293L541.39 151.533L541.445 151.478L555.262 137.663L555.29 137.609L555.344 137.581L559.202 133.724V132.794L554.879 137.116L554.852 137.144Z" fill="#FF9B71"/>
<path d="M557.15 139.469L557.096 139.524L543.333 153.283L543.278 153.338L543.223 153.366L529.461 167.153L529.406 167.207L529.379 167.235L515.588 181.022L515.561 181.049L515.506 181.104L501.744 194.864L501.689 194.919L501.634 194.973L488.884 207.721H489.814L502.099 195.438L502.154 195.384L502.181 195.329L515.971 181.569L516.026 181.514L516.054 181.46L529.844 167.7L529.871 167.645L529.926 167.618L543.689 153.831L543.743 153.803L543.798 153.749L557.561 139.989L557.615 139.934L557.67 139.879L559.202 138.347V137.417L557.205 139.414L557.15 139.469Z" fill="#FF9B71"/>
<path d="M545.549 127.952L531.787 141.739L531.732 141.767L531.677 141.821L517.914 155.581L517.86 155.636L517.805 155.691L504.042 169.451L503.987 169.505L503.96 169.56L490.17 183.32L490.115 183.375L490.088 183.429L476.298 197.189L476.27 197.244L476.216 197.271L465.764 207.721H466.694L476.681 197.736L476.736 197.709L476.763 197.654L490.553 183.867L490.58 183.84L490.635 183.785L504.398 170.025L504.453 169.97L504.507 169.916L518.27 156.156L518.325 156.101L518.379 156.046L532.142 142.286L532.197 142.232L532.252 142.204L546.069 128.362L546.097 128.335L559.203 115.232V114.302L545.604 127.925L545.549 127.952Z" fill="#FF9B71"/>
<path d="M552.472 134.901L538.654 148.715L538.627 148.77L524.837 162.53L524.782 162.584L524.755 162.612L510.964 176.399L510.937 176.426L510.882 176.481L497.12 190.241L497.065 190.296L497.01 190.35L483.247 204.11L483.193 204.165L483.138 204.22L479.636 207.721H480.566L483.603 204.685L483.658 204.63L483.713 204.575L497.475 190.815L497.53 190.761L497.585 190.706L511.348 176.946L511.402 176.891L511.43 176.864L525.22 163.077L525.247 163.022L525.302 162.995L539.119 149.18L539.174 149.125L552.991 135.311L553.046 135.256L559.202 129.101V128.171L552.526 134.846L552.472 134.901Z" fill="#FF9B71"/>
<path d="M550.229 160.259L550.174 160.314L536.411 174.074L536.357 174.128L536.302 174.183L522.539 187.943L522.484 187.998L522.43 188.052L508.667 201.812L508.612 201.867L508.557 201.894L502.757 207.721H503.66L509.023 202.359L509.077 202.305L509.132 202.277L522.895 188.49L522.949 188.463L523.004 188.408L536.767 174.648L536.822 174.593L536.849 174.539L550.639 160.779L550.694 160.724L550.721 160.669L559.203 152.217V151.286L550.256 160.204L550.229 160.259Z" fill="#FF9B71"/>
<path d="M547.957 157.907L547.902 157.961L534.085 171.776L534.03 171.803L534.003 171.858L520.212 185.645L520.185 185.673L520.13 185.727L506.368 199.487L506.313 199.542L506.258 199.597L498.132 207.721H499.035L506.723 200.062L506.778 200.007L506.805 199.952L520.595 186.192L520.623 186.138L520.678 186.083L534.44 172.323L534.495 172.268L534.55 172.241L548.313 158.454L548.367 158.426L559.202 147.593V146.663L547.957 157.907Z" fill="#FF9B71"/>
<path d="M554.853 164.882L554.798 164.937L541.035 178.697L540.981 178.752L540.926 178.806L527.163 192.566L527.108 192.621L527.054 192.648L513.291 206.435L513.236 206.463L513.181 206.517L511.978 207.721H512.908L513.647 206.983L513.701 206.928L513.756 206.9L527.519 193.113L527.573 193.086L527.628 193.031L541.391 179.271L541.446 179.217L541.473 179.162L555.263 165.402L555.291 165.347L555.345 165.293L559.203 161.463V160.533L554.88 164.828L554.853 164.882Z" fill="#FF9B71"/>
<path d="M557.151 167.207L557.096 167.235L543.334 181.022L543.279 181.049L543.224 181.104L529.461 194.864L529.407 194.919L529.379 194.973L516.602 207.721H517.532L529.844 195.438L529.872 195.384L529.927 195.329L543.689 181.569L543.744 181.514L543.799 181.46L557.561 167.7L557.616 167.645L557.671 167.618L559.203 166.086V165.156L557.206 167.153L557.151 167.207Z" fill="#FF9B71"/>
<path d="M545.549 155.691L531.786 169.451L531.732 169.505L531.677 169.56L517.914 183.32L517.859 183.375L517.805 183.429L504.042 197.189L503.987 197.244L503.96 197.271L493.508 207.721H494.411L504.398 197.736L504.452 197.709L504.507 197.654L518.27 183.867L518.325 183.84L518.379 183.785L532.142 170.025L532.197 169.97L532.251 169.916L546.069 156.101L546.096 156.046L559.202 142.97V142.04L545.604 155.636L545.549 155.691Z" fill="#FF9B71"/>
<path d="M552.472 162.612L538.655 176.426L538.628 176.481L524.837 190.241L524.783 190.296L524.755 190.35L510.965 204.11L510.938 204.165L510.883 204.22L507.354 207.721H508.284L511.348 204.685L511.403 204.63L511.43 204.575L525.22 190.815L525.248 190.761L525.303 190.706L539.12 176.891L539.175 176.864L552.992 163.022L553.047 162.995L559.203 156.84V155.91L552.527 162.584L552.472 162.612Z" fill="#FF9B71"/>
<path d="M550.229 187.998L550.174 188.052L536.411 201.812L536.356 201.867L536.302 201.894L530.474 207.721H531.404L536.767 202.359L536.821 202.305L536.849 202.277L550.639 188.49L550.694 188.463L550.721 188.408L559.203 179.928V179.025L550.256 187.943L550.229 187.998Z" fill="#FF9B71"/>
<path d="M547.903 185.673L547.848 185.727L534.085 199.487L534.031 199.542L534.003 199.597L525.85 207.721H526.78L534.441 200.062L534.496 200.007L534.551 199.952L548.313 186.192L548.368 186.138L548.423 186.083L559.203 175.305V174.402L547.958 185.645L547.903 185.673Z" fill="#FF9B71"/>
<path d="M554.852 192.621L554.798 192.648L541.035 206.435L540.98 206.463L540.926 206.518L539.722 207.721H540.652L541.391 206.983L541.445 206.928L541.473 206.901L555.263 193.113L555.29 193.086L555.345 193.031L559.203 189.174V188.244L554.88 192.566L554.852 192.621Z" fill="#FF9B71"/>
<path d="M557.151 194.919L557.096 194.973L544.346 207.721H545.276L557.561 195.438L557.616 195.384L557.671 195.329L559.203 193.797V192.867L557.206 194.864L557.151 194.919Z" fill="#FF9B71"/>
<path d="M458.24 96.0281L458.294 95.9734L458.513 95.7272H458.048H457.939H457.856H457.61L447.186 106.15V107.08L458.185 96.0829L458.24 96.0281Z" fill="#FF9B71"/>
<path d="M460.538 98.326L460.593 98.2987L463.137 95.7272H462.234L460.127 97.8336L460.073 97.8883L460.045 97.9157L447.186 110.773V111.703L460.511 98.3807L460.538 98.326Z" fill="#FF9B71"/>
<path d="M452.986 95.7272L447.186 101.527V102.457L453.889 95.7272H452.986Z" fill="#FF9B71"/>
<path d="M545.55 183.429L531.787 197.189L531.732 197.244L531.678 197.271L521.226 207.721H522.156L532.143 197.736L532.197 197.709L532.252 197.654L546.07 183.84L546.097 183.785L559.203 170.682V169.779L545.605 183.375L545.55 183.429Z" fill="#FF9B71"/>
<path d="M552.472 190.35L538.655 204.165L538.627 204.22L535.098 207.721H536.028L539.12 204.63L539.175 204.575L552.992 190.761L553.047 190.706L559.203 184.551V183.621L552.527 190.296L552.472 190.35Z" fill="#FF9B71"/>
<path d="M549.9 207.721L559.203 198.42V197.49L548.97 207.721H549.9Z" fill="#FF9B71"/>
<path d="M554.524 207.721L559.203 203.043V202.113L553.594 207.721H554.524Z" fill="#FF9B71"/>
<path d="M453.615 119.144L453.67 119.089L467.433 105.329L467.488 105.274L467.515 105.22L477.009 95.7272H476.079L467.077 104.755L467.023 104.809L466.968 104.864L453.205 118.624L453.15 118.679L453.096 118.706L447.186 124.642V125.545L453.561 119.171L453.615 119.144Z" fill="#FF9B71"/>
<path d="M448.991 114.521L449.046 114.466L462.809 100.706L462.864 100.651L467.761 95.7272H466.831L462.453 100.131L462.398 100.186L448.581 114.001L448.526 114.056L448.472 114.11L447.186 115.396V116.326L448.937 114.548L448.991 114.521Z" fill="#FF9B71"/>
<path d="M451.29 116.818L451.344 116.764L465.107 103.004L465.162 102.949L465.217 102.922L472.385 95.7272H471.455L464.752 102.457L464.697 102.484L464.669 102.539L450.879 116.299L450.852 116.353L450.797 116.408L447.186 120.019V120.949L451.262 116.873L451.29 116.818Z" fill="#FF9B71"/>
<path d="M458.24 123.767L458.294 123.712L472.057 109.925L472.112 109.897L472.139 109.843L485.929 96.0829L485.957 96.0281L486.011 95.9734L486.258 95.7272H485.765H485.683H485.573H485.327L471.674 109.378L471.647 109.432L471.592 109.487L457.829 123.247L457.774 123.302L457.72 123.329L447.186 133.888V134.791L458.185 123.794L458.24 123.767Z" fill="#FF9B71"/>
<path d="M460.538 126.065L460.593 126.01L474.355 112.25L474.41 112.195L474.465 112.141L488.282 98.326L488.337 98.2987L490.882 95.7272H489.951L487.817 97.8883L487.762 97.9157L474 111.703L473.945 111.73L473.89 111.785L460.127 125.545L460.073 125.6L460.045 125.654L447.186 138.511V139.414L460.511 126.119L460.538 126.065Z" fill="#FF9B71"/>
<path d="M455.914 121.442L455.969 121.387L469.731 107.627L469.786 107.572L469.841 107.545L481.633 95.7272H480.703L469.376 107.08L469.321 107.107L469.293 107.162L455.503 120.922L455.449 120.976L455.421 121.031L447.186 129.265V130.168L455.886 121.496L455.914 121.442Z" fill="#FF9B71"/>
<path d="M451.262 144.612L451.29 144.557L465.107 130.742L465.162 130.688L465.217 130.633L478.979 116.873L479.034 116.818L479.089 116.764L492.852 103.004L492.906 102.949L492.961 102.922L500.13 95.7272H499.199L492.496 102.457L492.441 102.484L492.386 102.539L478.624 116.299L478.569 116.353L478.514 116.408L464.752 130.168L464.697 130.223L464.669 130.277L450.879 144.037L450.852 144.092L447.186 147.73V148.66L451.262 144.612Z" fill="#FF9B71"/>
<path d="M453.615 146.855L453.67 146.8L467.433 133.04L467.488 132.986L467.515 132.958L481.332 119.144L481.387 119.089L495.177 105.329L495.205 105.274L495.259 105.22L504.754 95.7272H503.823L494.794 104.755L494.74 104.809L494.712 104.864L480.895 118.679L480.84 118.706L467.077 132.493L467.023 132.548L466.968 132.575L453.205 146.363L453.15 146.39L453.096 146.445L447.186 152.353V153.283L453.561 146.91L453.615 146.855Z" fill="#FF9B71"/>
<path d="M448.991 142.232L449.046 142.204L462.809 128.417L462.864 128.362L462.918 128.335L476.681 114.548L476.736 114.521L476.763 114.466L490.553 100.706L490.581 100.651L495.506 95.7272H494.575L490.17 100.131L490.115 100.186L476.298 114.001L476.271 114.055L476.216 114.11L462.453 127.87L462.398 127.925L462.344 127.952L448.581 141.739L448.526 141.767L448.472 141.821L447.186 143.107V144.037L448.937 142.286L448.991 142.232Z" fill="#FF9B71"/>
<path d="M458.185 151.533L458.24 151.478L472.057 137.663L472.112 137.609L472.139 137.581L485.929 123.794L485.957 123.767L486.011 123.712L499.774 109.925L499.829 109.897L499.883 109.843L513.646 96.0829L513.701 96.0281L513.756 95.9734L514.002 95.7272H513.509H513.4H513.318H513.072L499.418 109.378L499.364 109.432L499.336 109.487L485.546 123.247L485.519 123.302L485.464 123.329L471.674 137.116L471.647 137.144L471.592 137.198L457.829 150.986L457.774 151.013L447.186 161.6V162.53L458.185 151.533Z" fill="#FF9B71"/>
<path d="M460.538 153.803L460.593 153.749L474.355 139.989L474.41 139.934L474.465 139.879L488.282 126.065L488.337 126.01L502.1 112.25L502.154 112.195L502.182 112.141L515.972 98.3807L516.027 98.326L516.054 98.2987L518.626 95.7272H517.696L515.589 97.8336L515.561 97.8883L515.507 97.9157L501.744 111.703L501.689 111.73L501.635 111.785L487.817 125.6L487.762 125.654L474 139.414L473.945 139.469L473.89 139.524L460.127 153.283L460.073 153.338L460.045 153.366L447.186 166.223V167.153L460.511 153.831L460.538 153.803Z" fill="#FF9B71"/>
<path d="M455.914 149.18L455.969 149.125L469.731 135.366L469.786 135.311L469.841 135.256L483.603 121.496L483.658 121.442L483.713 121.387L497.476 107.627L497.53 107.572L497.585 107.545L509.378 95.7272H508.448L497.12 107.08L497.065 107.107L497.011 107.162L483.248 120.922L483.193 120.976L483.138 121.031L469.376 134.791L469.321 134.846L469.293 134.9L455.503 148.66L455.449 148.715L455.421 148.77L447.186 156.976V157.907L455.886 149.207L455.914 149.18Z" fill="#FF9B71"/>
<path d="M453.615 174.593L453.67 174.539L467.433 160.779L467.488 160.724L467.515 160.669L481.332 146.855L481.387 146.8L495.177 133.04L495.205 132.986L495.259 132.958L509.022 119.171L509.077 119.144L509.132 119.089L522.894 105.329L522.949 105.274L523.004 105.22L532.471 95.7272H531.568L522.539 104.755L522.484 104.809L522.429 104.864L508.666 118.624L508.612 118.679L508.557 118.706L494.794 132.493L494.74 132.548L494.712 132.575L480.895 146.39L480.84 146.445L467.077 160.204L467.023 160.259L466.968 160.314L453.205 174.074L453.15 174.128L453.096 174.183L447.186 180.092V181.022L453.561 174.648L453.615 174.593Z" fill="#FF9B71"/>
<path d="M448.991 169.97L449.046 169.916L462.809 156.156L462.864 156.101L462.918 156.046L476.681 142.287L476.736 142.232L476.763 142.204L490.553 128.417L490.581 128.362L490.635 128.335L504.398 114.548L504.453 114.521L504.507 114.466L518.27 100.706L518.325 100.651L523.223 95.7272H522.32L517.915 100.131L517.86 100.186L504.042 114.001L503.988 114.056L503.96 114.11L490.17 127.87L490.115 127.925L490.088 127.952L476.298 141.739L476.271 141.767L476.216 141.821L462.453 155.581L462.398 155.636L462.344 155.691L448.581 169.451L448.526 169.505L448.472 169.56L447.186 170.846V171.776L448.937 170.025L448.991 169.97Z" fill="#FF9B71"/>
<path d="M451.29 172.268L451.344 172.241L465.107 158.454L465.162 158.426L478.979 144.612L479.034 144.557L492.852 130.742L492.906 130.688L492.961 130.633L506.724 116.873L506.779 116.818L506.806 116.764L520.596 103.004L520.623 102.949L520.678 102.922L527.847 95.7272H526.944L520.213 102.457L520.186 102.484L520.131 102.539L506.368 116.299L506.313 116.353L506.259 116.408L492.496 130.168L492.441 130.223L492.386 130.277L478.624 144.037L478.569 144.092L464.752 157.907L464.697 157.961L450.879 171.776L450.852 171.803L450.797 171.858L447.186 175.469V176.399L451.262 172.323L451.29 172.268Z" fill="#FF9B71"/>
<path d="M458.24 179.217L458.294 179.162L472.057 165.402L472.112 165.347L472.139 165.293L485.929 151.533L485.957 151.478L499.774 137.663L499.829 137.609L499.883 137.581L513.646 123.794L513.701 123.767L513.756 123.712L527.518 109.925L527.573 109.897L527.628 109.843L541.391 96.0829L541.445 96.0281L541.473 95.9734L541.719 95.7272H541.254H541.144H541.062H540.789L527.163 109.378L527.108 109.432L527.053 109.487L513.291 123.247L513.236 123.302L513.181 123.329L499.418 137.116L499.364 137.144L499.336 137.198L485.546 150.986L485.519 151.013L471.674 164.828L471.647 164.882L471.592 164.937L457.829 178.697L457.774 178.752L457.72 178.806L447.186 189.338V190.268L458.185 179.271L458.24 179.217Z" fill="#FF9B71"/>
<path d="M460.538 181.515L460.593 181.46L474.355 167.7L474.41 167.645L474.465 167.618L488.282 153.803L488.337 153.749L502.1 139.989L502.154 139.934L502.182 139.879L515.972 126.119L516.027 126.065L516.054 126.01L529.844 112.25L529.871 112.195L529.926 112.141L543.689 98.3807L543.744 98.326L543.798 98.2987L546.343 95.7272H545.413L543.333 97.8336L543.279 97.8883L543.224 97.9157L529.461 111.703L529.406 111.73L529.379 111.785L515.589 125.545L515.561 125.6L515.507 125.654L501.744 139.414L501.689 139.469L501.635 139.524L487.817 153.338L487.762 153.366L474 167.153L473.945 167.207L473.89 167.235L460.127 181.022L460.073 181.049L460.045 181.104L447.186 193.961V194.891L460.511 181.569L460.538 181.515Z" fill="#FF9B71"/>
<path d="M455.914 176.891L455.969 176.864L469.731 163.077L469.786 163.022L469.841 162.995L483.603 149.207L483.658 149.18L483.713 149.125L497.476 135.366L497.53 135.311L497.585 135.256L511.348 121.496L511.403 121.442L511.43 121.387L525.22 107.627L525.247 107.572L525.302 107.545L537.095 95.7272H536.165L524.837 107.08L524.782 107.107L524.755 107.162L510.965 120.922L510.937 120.976L510.883 121.031L497.12 134.791L497.065 134.846L497.011 134.9L483.248 148.66L483.193 148.715L483.138 148.77L469.376 162.53L469.321 162.584L469.293 162.612L455.503 176.399L455.449 176.426L455.421 176.481L447.186 184.715V185.645L455.886 176.946L455.914 176.891Z" fill="#FF9B71"/>
<path d="M448.991 197.709L449.046 197.654L462.809 183.867L462.864 183.84L462.918 183.785L476.681 170.025L476.736 169.97L476.763 169.916L490.553 156.156L490.581 156.101L490.635 156.046L504.398 142.287L504.453 142.232L504.508 142.204L518.27 128.417L518.325 128.362L518.38 128.335L532.142 114.548L532.197 114.521L532.252 114.466L546.015 100.706L546.069 100.651L546.097 100.597L550.967 95.7272H550.037L545.604 100.186L545.549 100.241L531.787 114.001L531.732 114.056L531.677 114.11L517.915 127.87L517.86 127.925L517.805 127.952L504.042 141.739L503.988 141.767L503.96 141.821L490.17 155.581L490.115 155.636L490.088 155.691L476.298 169.451L476.271 169.505L476.216 169.56L462.453 183.32L462.398 183.375L462.344 183.429L448.581 197.189L448.526 197.244L448.472 197.271L447.186 198.584V199.487L448.937 197.736L448.991 197.709Z" fill="#FF9B71"/>
<path d="M451.29 200.007L451.344 199.952L465.107 186.192L465.162 186.138L465.217 186.083L478.979 172.323L479.034 172.268L479.089 172.241L492.852 158.454L492.906 158.426L506.724 144.612L506.779 144.557L520.596 130.742L520.623 130.688L520.678 130.633L534.441 116.873L534.496 116.818L534.55 116.764L548.313 103.004L548.368 102.949L548.422 102.922L555.591 95.7272H554.661L547.957 102.457L547.903 102.484L547.848 102.539L534.085 116.299L534.03 116.353L534.003 116.408L520.213 130.168L520.186 130.223L520.131 130.277L506.368 144.037L506.313 144.092L492.496 157.907L492.441 157.961L478.624 171.776L478.569 171.803L478.514 171.858L464.752 185.645L464.697 185.673L464.669 185.727L450.879 199.487L450.852 199.542L450.797 199.597L447.186 203.207V204.11L451.262 200.062L451.29 200.007Z" fill="#FF9B71"/>
</g>
<path d="M468.851 96.6562C452.848 96.6562 439.854 83.6596 439.854 67.6533C439.854 51.6469 452.848 38.6503 468.851 38.6503L468.851 96.6562Z" fill="#E7E7EC"/>
<path d="M491.611 66.5589L491.611 68.7478C451.125 68.7478 418.188 101.691 418.188 142.186L416 142.186C416 121.993 423.878 103.004 438.158 88.6942C452.438 74.4389 471.422 66.5589 491.611 66.5589Z" fill="#FFC78B"/>
<path d="M511.964 37.6925L507.559 42.0977L503.347 37.8841L501.404 39.7994L505.644 44.013L501.404 48.254L503.347 50.1693L507.559 45.9557L511.964 50.3608L513.878 48.4182L509.502 44.013L513.878 39.6352L511.964 37.6925Z" fill="#7DD2B7"/>
<mask id="mask1_324_446" style="mask-type:alpha" maskUnits="userSpaceOnUse" x="633" y="202" width="161" height="161">
<g clip-path="url(#clip1_324_446)">
<path d="M781.141 214.978L781.101 215.057L781.023 215.096L761.242 234.916L761.163 234.955L761.084 235.034L741.304 254.815L741.225 254.894L741.146 254.972L721.365 274.753L721.287 274.832L721.208 274.911L701.427 294.691L701.349 294.77L701.309 294.849L681.45 314.708L681.371 314.748L661.59 334.568L661.511 334.607L661.433 334.686L641.652 354.467L641.573 354.545L641.495 354.624L633.118 363H634.455L642.163 355.293L642.242 355.214L642.32 355.135L662.101 335.354L662.18 335.276L662.219 335.197L682.079 315.338L682.157 315.298L701.978 295.478L702.017 295.439L702.096 295.36L721.877 275.579L721.955 275.5L722.034 275.422L741.815 255.641L741.893 255.562L741.972 255.484L761.753 235.703L761.832 235.624L761.871 235.545L781.691 215.764L781.77 215.686L781.809 215.646L794 203.455V202.118L781.141 214.978Z" fill="#FF9B71"/>
<path d="M787.747 221.663L787.669 221.742L767.888 241.562L767.809 241.601L767.73 241.68L747.949 261.461L747.871 261.539L747.792 261.618L728.011 281.399L727.933 281.478L708.073 301.337L707.994 301.416L707.955 301.455L688.135 321.275L688.096 321.315L688.017 321.393L668.197 341.213L668.157 341.253L668.079 341.331L648.298 361.112L648.219 361.191L648.14 361.27L646.41 363H647.747L648.809 361.938L648.888 361.86L648.966 361.781L668.747 342L668.826 341.921L668.865 341.843L688.685 322.062L688.725 321.983L688.803 321.944L708.584 302.124L708.663 302.084L708.742 302.006L728.523 282.225L728.601 282.146L748.461 262.287L748.539 262.208L748.618 262.129L768.399 242.348L768.478 242.27L768.517 242.191L788.337 222.41L788.376 222.331L788.455 222.292L794 216.747V215.41L787.787 221.624L787.747 221.663Z" fill="#FF9B71"/>
<path d="M791.051 225.006L790.972 225.084L771.191 244.865L771.113 244.944L771.034 244.983L751.253 264.803L751.175 264.882L751.135 264.921L731.315 284.742L731.276 284.781L731.197 284.86L711.416 304.64L711.338 304.719L711.259 304.798L691.399 324.657L691.321 324.736L671.54 344.517L671.461 344.596L671.382 344.674L653.057 363H654.394L672.051 345.303L672.13 345.264L672.208 345.185L692.068 325.326L692.147 325.247L711.927 305.466L712.006 305.388L712.045 305.309L731.866 285.528L731.944 285.449L731.984 285.371L751.804 265.59L751.843 265.511L751.922 265.472L771.703 245.652L771.781 245.612L771.86 245.534L791.641 225.753L791.72 225.674L791.798 225.596L794 223.393V222.056L791.13 224.927L791.051 225.006Z" fill="#FF9B71"/>
<path d="M784.325 218.438L764.466 238.298L764.427 238.376L744.606 258.157L744.528 258.236L744.488 258.275L724.668 278.096L724.629 278.135L724.55 278.213L704.769 297.994L704.691 298.073L704.612 298.152L684.831 317.933L684.752 318.011L684.674 318.09L664.893 337.871L664.814 337.949L664.775 338.028L644.955 357.809L644.876 357.888L644.837 357.927L639.764 363H641.101L645.505 358.596L645.545 358.556L645.623 358.478L665.404 338.657L665.483 338.618L665.561 338.539L685.342 318.758L685.421 318.68L685.5 318.601L705.281 298.82L705.359 298.742L705.438 298.663L725.219 278.882L725.297 278.803L725.337 278.764L745.157 258.944L745.196 258.865L745.275 258.826L765.134 238.966L765.213 238.888L785.073 219.028L785.151 218.949L794 210.101V208.764L784.404 218.36L784.325 218.438Z" fill="#FF9B71"/>
<path d="M781.101 254.893L781.022 254.972L761.241 274.753L761.163 274.831L761.084 274.91L741.303 294.691L741.224 294.77L741.146 294.848L721.365 314.629L721.286 314.708L721.208 314.747L701.427 334.567L701.348 334.607L701.309 334.685L681.449 354.545L681.371 354.624L672.994 363H674.331L682.078 355.213L682.157 355.135L701.977 335.354L702.017 335.275L702.095 335.197L721.876 315.416L721.955 315.337L722.033 315.298L741.814 295.478L741.893 295.438L741.972 295.36L761.753 275.579L761.831 275.5L761.871 275.421L781.691 255.64L781.769 255.562L781.809 255.483L794 243.331V241.994L781.14 254.815L781.101 254.893Z" fill="#FF9B71"/>
<path d="M777.759 251.59L777.68 251.629L757.899 271.449L757.821 271.489L737.961 291.388L737.922 291.427L718.062 311.287L717.983 311.365L717.905 311.444L698.124 331.225L698.045 331.303L697.967 331.382L678.186 351.163L678.107 351.242L678.028 351.281L666.349 363H667.686L678.697 351.949L678.776 351.91L678.854 351.831L698.635 332.051L698.714 331.972L698.792 331.893L718.573 312.112L718.652 312.034L718.691 311.955L738.512 292.174L738.551 292.096L758.41 272.236L758.489 272.157L778.349 252.298L778.427 252.258L778.506 252.18L794 236.685V235.348L777.837 251.511L777.759 251.59Z" fill="#FF9B71"/>
<path d="M787.747 261.539L787.668 261.618L767.887 281.399L767.809 281.478L747.949 301.337L747.87 301.416L747.792 301.455L728.011 321.275L727.932 321.315L727.854 321.393L708.073 341.213L707.994 341.253L707.955 341.331L688.134 361.112L688.095 361.191L688.016 361.27L686.286 363H687.623L688.685 361.938L688.724 361.86L688.803 361.781L708.584 342L708.663 341.921L708.741 341.843L728.522 322.062L728.601 321.983L728.679 321.944L748.46 302.124L748.539 302.084L748.618 302.006L768.398 282.225L768.477 282.146L788.337 262.286L788.376 262.208L788.455 262.129L794 256.624V255.286L787.786 261.461L787.747 261.539Z" fill="#FF9B71"/>
<path d="M791.051 264.882L790.972 264.921L771.191 284.742L771.112 284.781L771.034 284.86L751.253 304.64L751.174 304.719L751.135 304.798L731.315 324.579L731.275 324.657L731.197 324.736L711.416 344.517L711.337 344.595L711.258 344.674L692.933 363H694.27L711.927 345.303L712.006 345.264L712.045 345.185L731.865 325.404L731.944 325.326L731.983 325.247L751.803 305.466L751.843 305.388L751.921 305.309L771.702 285.528L771.781 285.449L771.86 285.371L791.64 265.59L791.719 265.511L791.798 265.472L794 263.27V261.933L791.129 264.803L791.051 264.882Z" fill="#FF9B71"/>
<path d="M774.376 248.326L754.595 268.107L754.517 268.185L754.438 268.264L734.657 288.045L734.579 288.124L734.5 288.202L714.719 307.983L714.64 308.062L714.601 308.101L694.781 327.921L694.702 327.961L694.663 328.039L674.843 347.82L674.803 347.899L674.725 347.978L659.702 363H661.039L675.393 348.646L675.472 348.567L675.511 348.489L695.331 328.708L695.371 328.629L695.449 328.59L715.23 308.77L715.309 308.73L715.388 308.652L735.168 288.831L735.247 288.792L735.326 288.714L755.107 268.933L755.185 268.854L755.264 268.775L775.124 248.916L775.163 248.837L794 230.039V228.702L774.455 248.247L774.376 248.326Z" fill="#FF9B71"/>
<path d="M784.326 258.275L764.466 278.135L764.427 278.213L744.607 297.994L744.528 298.073L744.489 298.152L724.669 317.933L724.629 318.011L724.551 318.09L704.77 337.871L704.691 337.949L704.613 338.028L684.832 357.809L684.753 357.888L684.674 357.927L679.641 363H680.978L685.343 358.596L685.422 358.556L685.5 358.478L705.281 338.657L705.36 338.618L705.438 338.539L725.219 318.758L725.298 318.68L725.337 318.601L745.157 298.82L745.197 298.742L745.275 298.663L765.135 278.803L765.214 278.764L785.073 258.865L785.152 258.826L794 249.978V248.64L784.405 258.236L784.326 258.275Z" fill="#FF9B71"/>
<path d="M781.101 294.77L781.023 294.848L761.242 314.629L761.163 314.708L761.085 314.747L741.304 334.567L741.225 334.607L741.146 334.685L721.365 354.466L721.287 354.545L721.208 354.624L712.871 363H714.169L721.877 355.292L721.955 355.213L722.034 355.135L741.815 335.354L741.894 335.275L741.972 335.197L761.753 315.416L761.832 315.337L761.871 315.298L781.691 295.478L781.77 295.438L781.809 295.36L794 283.169V281.871L781.141 294.691L781.101 294.77Z" fill="#FF9B71"/>
<path d="M777.837 291.388L777.758 291.427L757.899 311.287L757.82 311.365L757.781 311.444L737.961 331.225L737.921 331.303L737.843 331.382L718.062 351.163L717.983 351.242L717.904 351.281L706.225 363H707.522L718.573 351.949L718.652 351.91L718.691 351.831L738.511 332.051L738.55 331.972L738.629 331.893L758.41 312.112L758.489 312.034L758.567 311.955L778.348 292.174L778.427 292.096L794 276.522V275.225L777.837 291.388Z" fill="#FF9B71"/>
<path d="M787.748 301.416L787.669 301.455L767.888 321.275L767.809 321.315L767.731 321.393L747.95 341.213L747.871 341.253L747.793 341.331L728.012 361.112L727.933 361.191L727.854 361.27L726.124 363H727.461L728.523 361.938L728.602 361.86L728.68 361.781L748.461 342L748.54 341.921L748.618 341.843L768.399 322.062L768.478 321.983L768.517 321.944L788.338 302.124L788.377 302.084L788.455 302.006L794 296.461V295.124L787.787 301.337L787.748 301.416Z" fill="#FF9B71"/>
<path d="M791.05 304.719L790.972 304.798L771.191 324.579L771.112 324.657L771.034 324.736L751.253 344.517L751.174 344.596L751.135 344.674L732.77 363H734.107L751.803 345.303L751.843 345.264L751.921 345.185L771.702 325.404L771.781 325.326L771.859 325.247L791.64 305.466L791.719 305.388L791.798 305.309L794 303.107V301.77L791.129 304.64L791.05 304.719Z" fill="#FF9B71"/>
<path d="M774.377 288.202L754.596 307.983L754.517 308.062L754.439 308.101L734.658 327.921L734.579 327.961L734.5 328.039L714.72 347.82L714.641 347.899L714.602 347.978L699.579 363H700.877L715.231 348.646L715.309 348.567L715.388 348.489L735.169 328.708L735.248 328.629L735.326 328.59L755.107 308.77L755.186 308.73L755.264 308.652L775.124 288.792L775.163 288.713L794 269.876V268.579L774.455 288.124L774.377 288.202Z" fill="#FF9B71"/>
<path d="M784.326 298.152L764.466 318.011L764.427 318.09L744.607 337.871L744.528 337.949L744.489 338.028L724.669 357.809L724.629 357.888L724.551 357.927L719.478 363H720.815L725.219 358.596L725.298 358.556L725.337 358.478L745.157 338.657L745.197 338.618L745.275 338.539L765.135 318.68L765.213 318.601L785.073 298.742L785.152 298.663L794 289.815V288.478L784.404 298.073L784.326 298.152Z" fill="#FF9B71"/>
<path d="M781.101 334.607L781.023 334.685L761.242 354.466L761.163 354.545L761.084 354.624L752.708 363H754.045L761.753 355.292L761.832 355.213L761.871 355.135L781.691 335.354L781.77 335.275L781.809 335.197L794 323.045V321.708L781.141 334.567L781.101 334.607Z" fill="#FF9B71"/>
<path d="M777.758 331.303L777.68 331.382L757.899 351.163L757.82 351.242L757.781 351.281L746.062 363H747.399L758.41 351.949L758.488 351.91L758.567 351.832L778.348 332.051L778.427 331.972L778.505 331.893L794 316.399V315.062L777.837 331.225L777.758 331.303Z" fill="#FF9B71"/>
<path d="M787.747 341.253L787.668 341.331L767.888 361.112L767.809 361.191L767.73 361.27L766 363H767.337L768.399 361.938L768.478 361.86L768.517 361.781L788.337 342L788.376 341.921L788.455 341.843L794 336.337V335L787.786 341.213L787.747 341.253Z" fill="#FF9B71"/>
<path d="M791.051 344.596L790.972 344.674L772.646 363H773.984L791.641 345.303L791.72 345.264L791.798 345.185L794 342.983V341.646L791.13 344.517L791.051 344.596Z" fill="#FF9B71"/>
<path d="M634.691 202L633 203.691V204.989L635.989 202H634.691Z" fill="#FF9B71"/>
<path d="M648.888 202.433L648.966 202.354L649.281 202H648.612H648.455H648.337H647.983L633 216.983V218.281L648.809 202.472L648.888 202.433Z" fill="#FF9B71"/>
<path d="M652.191 205.736L652.27 205.657L655.927 202H654.629L651.601 204.989L651.522 205.067L651.483 205.146L633 223.629V224.927L652.152 205.815L652.191 205.736Z" fill="#FF9B71"/>
<path d="M641.337 202L633 210.337V211.635L642.635 202H641.337Z" fill="#FF9B71"/>
<path d="M774.377 328.039L754.596 347.82L754.517 347.899L754.438 347.978L739.416 363H740.753L755.107 348.646L755.186 348.567L755.264 348.489L775.124 328.629L775.163 328.59L794 309.753V308.416L774.455 327.961L774.377 328.039Z" fill="#FF9B71"/>
<path d="M784.325 338.028L764.466 357.888L764.427 357.927L759.354 363H760.691L765.134 358.556L765.213 358.478L785.073 338.618L785.151 338.539L794 329.691V328.354L784.404 337.949L784.325 338.028Z" fill="#FF9B71"/>
<path d="M793.921 363L794 362.921V361.584L792.584 363H793.921Z" fill="#FF9B71"/>
<path d="M780.629 363L794 349.629V348.292L779.292 363H780.629Z" fill="#FF9B71"/>
<path d="M787.276 363L794 356.275V354.938L785.938 363H787.276Z" fill="#FF9B71"/>
<path d="M642.242 235.624L642.32 235.545L662.101 215.764L662.18 215.685L662.219 215.646L675.865 202H674.528L661.59 214.978L661.511 215.056L661.433 215.096L641.652 234.916L641.573 234.955L641.494 235.034L633 243.528V244.865L642.163 235.702L642.242 235.624Z" fill="#FF9B71"/>
<path d="M635.596 228.978L635.674 228.938L655.455 209.118L655.534 209.039L662.573 202H661.236L654.944 208.331L654.865 208.41L635.006 228.27L634.927 228.309L634.848 228.388L633 230.236V231.573L635.517 229.056L635.596 228.978Z" fill="#FF9B71"/>
<path d="M638.899 232.32L638.978 232.242L658.758 212.461L658.837 212.382L658.916 212.303L669.219 202H667.882L658.247 211.635L658.169 211.713L658.129 211.792L638.309 231.573L638.27 231.652L638.191 231.73L633 236.882V238.219L638.86 232.399L638.899 232.32Z" fill="#FF9B71"/>
<path d="M648.888 242.27L648.966 242.191L668.747 222.41L668.826 222.331L668.865 222.292L688.685 202.472L688.725 202.433L688.803 202.354L689.157 202H688.449H688.331H688.174H687.82L668.197 221.624L668.157 221.663L668.079 221.742L648.298 241.562L648.219 241.601L648.14 241.68L633 256.82V258.157L648.809 242.348L648.888 242.27Z" fill="#FF9B71"/>
<path d="M652.191 245.612L652.27 245.534L672.051 225.753L672.129 225.674L672.208 225.596L692.067 205.736L692.146 205.657L695.803 202H694.466L691.399 205.067L691.32 205.146L671.539 224.927L671.461 225.006L671.382 225.084L651.601 244.865L651.522 244.944L651.483 244.983L633 263.466V264.803L652.152 245.652L652.191 245.612Z" fill="#FF9B71"/>
<path d="M645.545 238.966L645.624 238.888L665.404 219.107L665.483 219.028L665.562 218.949L682.511 202H681.174L664.893 218.281L664.815 218.36L664.775 218.438L644.955 238.219L644.876 238.298L644.837 238.376L633 250.174V251.511L645.506 239.006L645.545 238.966Z" fill="#FF9B71"/>
<path d="M638.86 272.236L638.899 272.157L658.758 252.298L658.837 252.258L658.916 252.18L678.697 232.399L678.775 232.32L678.854 232.242L698.635 212.461L698.713 212.382L698.792 212.303L709.096 202H707.758L698.124 211.635L698.045 211.713L697.966 211.792L678.185 231.573L678.107 231.652L678.028 231.73L658.247 251.511L658.169 251.59L658.129 251.629L638.309 271.449L638.27 271.489L633 276.758V278.096L638.86 272.236Z" fill="#FF9B71"/>
<path d="M642.242 275.5L642.32 275.421L662.101 255.64L662.18 255.562L662.219 255.483L682.079 235.624L682.157 235.545L701.978 215.764L702.017 215.685L702.096 215.646L715.742 202H714.404L701.427 214.978L701.348 215.056L701.309 215.096L681.449 234.955L681.371 235.034L661.59 254.815L661.511 254.893L661.433 254.972L641.652 274.753L641.573 274.831L641.494 274.91L633 283.404V284.742L642.163 275.579L642.242 275.5Z" fill="#FF9B71"/>
<path d="M635.596 268.854L635.674 268.775L655.455 248.994L655.534 248.916L655.612 248.837L675.393 229.056L675.472 228.978L675.511 228.938L695.331 209.118L695.371 209.039L702.449 202H701.112L694.781 208.331L694.702 208.41L674.843 228.27L674.803 228.309L674.725 228.388L654.944 248.169L654.865 248.247L654.787 248.326L635.006 268.107L634.927 268.185L634.848 268.264L633 270.112V271.449L635.517 268.933L635.596 268.854Z" fill="#FF9B71"/>
<path d="M648.809 282.225L648.888 282.146L668.747 262.287L668.826 262.208L668.865 262.129L688.685 242.348L688.725 242.27L688.803 242.191L708.584 222.41L708.663 222.331L708.742 222.292L728.522 202.472L728.601 202.433L728.68 202.354L729.034 202H728.326H728.169H728.051H727.697L708.073 221.624L707.994 221.663L707.955 221.742L688.135 241.562L688.096 241.601L688.017 241.68L668.197 261.461L668.157 261.539L668.079 261.618L648.298 281.399L648.219 281.478L633 296.697V298.034L648.809 282.225Z" fill="#FF9B71"/>
<path d="M652.191 285.449L652.27 285.371L672.051 265.59L672.129 265.511L672.208 265.472L692.067 245.612L692.146 245.534L711.927 225.753L712.006 225.674L712.045 225.596L731.865 205.815L731.944 205.736L731.983 205.657L735.68 202H734.343L731.315 204.989L731.275 205.067L731.197 205.146L711.416 224.927L711.337 225.006L711.258 225.084L691.399 244.944L691.32 244.983L671.539 264.803L671.461 264.882L671.382 264.921L651.601 284.742L651.522 284.781L651.483 284.86L633 303.343V304.68L652.152 285.528L652.191 285.449Z" fill="#FF9B71"/>
<path d="M645.545 278.803L645.624 278.764L665.404 258.944L665.483 258.865L665.562 258.826L685.343 239.006L685.421 238.966L685.5 238.888L705.281 219.107L705.36 219.028L705.438 218.949L722.388 202H721.051L704.77 218.281L704.691 218.36L704.612 218.438L684.831 238.219L684.753 238.298L684.674 238.376L664.893 258.157L664.815 258.236L664.775 258.275L644.955 278.096L644.876 278.135L644.837 278.213L633 290.051V291.388L645.506 278.882L645.545 278.803Z" fill="#FF9B71"/>
<path d="M642.242 315.337L642.32 315.298L662.101 295.478L662.18 295.438L662.219 295.36L682.079 275.5L682.157 275.421L701.978 255.64L702.017 255.562L702.096 255.483L721.876 235.702L721.955 235.624L722.034 235.545L741.815 215.764L741.893 215.685L741.972 215.646L755.579 202H754.281L741.303 214.978L741.225 215.056L741.146 215.096L721.365 234.916L721.287 234.955L721.208 235.034L701.427 254.815L701.348 254.893L701.309 254.972L681.449 274.831L681.371 274.91L661.59 294.691L661.511 294.77L661.433 294.848L641.652 314.629L641.573 314.708L641.494 314.747L633 323.281V324.579L642.163 315.416L642.242 315.337Z" fill="#FF9B71"/>
<path d="M635.596 308.73L635.674 308.652L655.455 288.831L655.534 288.792L655.612 288.713L675.393 268.933L675.472 268.854L675.511 268.775L695.331 248.994L695.371 248.916L695.449 248.837L715.23 229.056L715.309 228.978L715.388 228.938L735.169 209.118L735.247 209.039L742.287 202H740.989L734.657 208.331L734.579 208.41L714.719 228.27L714.64 228.309L714.601 228.388L694.781 248.169L694.702 248.247L694.663 248.326L674.843 268.107L674.803 268.185L674.725 268.264L654.944 288.045L654.865 288.124L654.787 288.202L635.006 307.983L634.927 308.062L634.848 308.101L633 309.989V311.287L635.517 308.77L635.596 308.73Z" fill="#FF9B71"/>
<path d="M638.899 312.034L638.978 311.955L658.758 292.174L658.837 292.096L678.697 272.236L678.775 272.157L698.635 252.298L698.713 252.258L698.792 252.18L718.573 232.399L718.652 232.32L718.691 232.242L738.511 212.461L738.551 212.382L738.629 212.303L748.933 202H747.635L737.961 211.635L737.921 211.713L737.843 211.792L718.062 231.573L717.983 231.652L717.904 231.73L698.124 251.511L698.045 251.59L697.966 251.629L678.185 271.449L678.107 271.489L658.247 291.388L658.169 291.427L638.309 311.287L638.27 311.365L638.191 311.444L633 316.635V317.933L638.86 312.112L638.899 312.034Z" fill="#FF9B71"/>
<path d="M648.888 321.983L648.966 321.944L668.747 302.124L668.826 302.084L668.865 302.006L688.685 282.225L688.725 282.146L708.584 262.287L708.663 262.208L708.742 262.129L728.522 242.348L728.601 242.27L728.68 242.191L748.461 222.41L748.539 222.331L748.618 222.292L768.399 202.472L768.478 202.433L768.517 202.354L768.871 202H768.202H768.045H767.927H767.534L747.949 221.624L747.871 221.663L747.792 221.742L728.011 241.562L727.933 241.601L727.854 241.68L708.073 261.461L707.994 261.539L707.955 261.618L688.135 281.399L688.096 281.478L668.197 301.337L668.157 301.416L668.079 301.455L648.298 321.275L648.219 321.315L648.14 321.393L633 336.534V337.871L648.809 322.062L648.888 321.983Z" fill="#FF9B71"/>
<path d="M652.191 325.326L652.27 325.247L672.051 305.466L672.129 305.388L672.208 305.309L692.067 285.449L692.146 285.371L711.927 265.59L712.006 265.511L712.045 265.472L731.865 245.652L731.944 245.612L731.983 245.534L751.803 225.753L751.843 225.674L751.921 225.596L771.702 205.815L771.781 205.736L771.86 205.657L775.517 202H774.18L771.191 204.989L771.112 205.067L771.034 205.146L751.253 224.927L751.174 225.006L751.135 225.084L731.315 244.865L731.275 244.944L731.197 244.983L711.416 264.803L711.337 264.882L711.258 264.921L691.399 284.781L691.32 284.86L671.539 304.64L671.461 304.719L671.382 304.798L651.601 324.579L651.522 324.657L651.483 324.736L633 343.18V344.517L652.152 325.404L652.191 325.326Z" fill="#FF9B71"/>
<path d="M645.545 318.68L645.624 318.601L665.404 298.82L665.483 298.742L665.562 298.663L685.343 278.882L685.421 278.803L685.5 278.764L705.281 258.944L705.36 258.865L705.438 258.826L725.219 239.006L725.298 238.966L725.337 238.888L745.157 219.107L745.197 219.028L745.275 218.949L762.225 202H760.888L744.607 218.281L744.528 218.36L744.489 218.438L724.669 238.219L724.629 238.298L724.551 238.376L704.77 258.157L704.691 258.236L704.612 258.275L684.831 278.096L684.753 278.135L684.674 278.213L664.893 297.994L664.815 298.073L664.775 298.152L644.955 317.933L644.876 318.011L644.837 318.09L633 329.888V331.225L645.506 318.758L645.545 318.68Z" fill="#FF9B71"/>
<path d="M635.596 348.567L635.674 348.489L655.455 328.708L655.534 328.629L655.612 328.59L675.393 308.77L675.472 308.73L675.511 308.652L695.331 288.831L695.371 288.792L695.449 288.713L715.23 268.933L715.309 268.854L715.388 268.775L735.169 248.994L735.247 248.916L735.326 248.837L755.107 229.056L755.185 228.978L755.264 228.938L775.045 209.118L775.124 209.039L775.163 209L782.163 202H780.826L774.455 208.41L774.376 208.449L754.596 228.27L754.517 228.309L754.438 228.388L734.657 248.169L734.579 248.247L734.5 248.326L714.719 268.107L714.64 268.185L714.601 268.264L694.781 288.045L694.702 288.124L694.663 288.202L674.843 307.983L674.803 308.062L674.725 308.101L654.944 327.921L654.865 327.961L654.787 328.039L635.006 347.82L634.927 347.899L634.848 347.978L633 349.826V351.163L635.517 348.646L635.596 348.567Z" fill="#FF9B71"/>
<path d="M638.899 351.91L638.978 351.831L658.758 332.051L658.837 331.972L658.916 331.893L678.697 312.112L678.775 312.034L678.854 311.955L698.635 292.174L698.713 292.096L718.573 272.236L718.652 272.157L738.511 252.298L738.551 252.258L738.629 252.18L758.41 232.399L758.489 232.32L758.567 232.242L778.348 212.461L778.427 212.382L778.506 212.303L788.809 202H787.472L777.837 211.635L777.758 211.713L777.68 211.792L757.899 231.573L757.82 231.652L757.781 231.73L737.961 251.511L737.921 251.59L737.843 251.629L718.062 271.449L717.983 271.489L698.124 291.388L698.045 291.427L678.185 311.287L678.107 311.365L678.028 311.444L658.247 331.225L658.169 331.303L658.129 331.382L638.309 351.163L638.27 351.242L638.191 351.281L633 356.472V357.809L638.86 351.949L638.899 351.91Z" fill="#FF9B71"/>
</g>
</mask>
<g mask="url(#mask1_324_446)">
<path fill-rule="evenodd" clip-rule="evenodd" d="M714.601 354.978C754.238 354.978 786.37 322.845 786.37 283.208C786.37 243.571 754.238 211.438 714.601 211.438C674.963 211.438 642.831 243.571 642.831 283.208C642.831 322.845 674.963 354.978 714.601 354.978ZM714.797 338.46C745.204 338.46 769.854 313.811 769.854 283.404C769.854 252.998 745.204 228.348 714.797 228.348C684.391 228.348 659.741 252.998 659.741 283.404C659.741 313.811 684.391 338.46 714.797 338.46Z" fill="#FFC78B"/>
</g>
<mask id="mask2_324_446" style="mask-type:alpha" maskUnits="userSpaceOnUse" x="1344" y="74" width="107" height="107">
<g clip-path="url(#clip2_324_446)">
<path d="M1442.45 82.6251L1442.43 82.6774L1442.38 82.7035L1429.23 95.8759L1429.18 95.9021L1429.13 95.9543L1415.98 109.101L1415.93 109.153L1415.87 109.205L1402.73 122.352L1402.68 122.404L1402.62 122.456L1389.48 135.602L1389.42 135.655L1389.4 135.707L1376.2 148.906L1376.15 148.932L1363 162.104L1362.95 162.13L1362.9 162.182L1349.75 175.329L1349.7 175.381L1349.65 175.433L1344.08 181H1344.97L1350.09 175.878L1350.14 175.825L1350.19 175.773L1363.34 162.627L1363.39 162.575L1363.42 162.522L1376.62 149.324L1376.67 149.298L1389.84 136.125L1389.87 136.099L1389.92 136.047L1403.07 122.9L1403.12 122.848L1403.17 122.796L1416.32 109.65L1416.37 109.597L1416.42 109.545L1429.57 96.3987L1429.62 96.3464L1429.65 96.2941L1442.82 83.1478L1442.87 83.0955L1442.9 83.0694L1451 74.9673V74.0787L1442.45 82.6251Z" fill="#FF9B71"/>
<path d="M1446.84 87.0679L1446.79 87.1202L1433.65 100.293L1433.59 100.319L1433.54 100.371L1420.39 113.517L1420.34 113.57L1420.29 113.622L1407.14 126.768L1407.09 126.82L1393.89 140.019L1393.84 140.071L1393.81 140.097L1380.64 153.27L1380.62 153.296L1380.56 153.348L1367.39 166.521L1367.37 166.547L1367.31 166.599L1354.17 179.745L1354.11 179.798L1354.06 179.85L1352.91 181H1353.8L1354.51 180.294L1354.56 180.242L1354.61 180.19L1367.76 167.043L1367.81 166.991L1367.84 166.939L1381.01 153.793L1381.03 153.74L1381.09 153.714L1394.23 140.542L1394.29 140.516L1394.34 140.463L1407.48 127.317L1407.54 127.265L1420.73 114.066L1420.79 114.014L1420.84 113.962L1433.99 100.815L1434.04 100.763L1434.06 100.711L1447.24 87.5645L1447.26 87.5122L1447.31 87.4861L1451 83.8009V82.9123L1446.87 87.0418L1446.84 87.0679Z" fill="#FF9B71"/>
<path d="M1449.04 89.2895L1448.99 89.3417L1435.84 102.488L1435.79 102.54L1435.74 102.566L1422.59 115.739L1422.54 115.791L1422.51 115.817L1409.34 128.99L1409.31 129.016L1409.26 129.068L1396.11 142.214L1396.06 142.267L1396.01 142.319L1382.81 155.518L1382.76 155.57L1369.61 168.716L1369.56 168.768L1369.51 168.821L1357.33 181H1358.22L1369.95 169.239L1370 169.213L1370.06 169.16L1383.26 155.962L1383.31 155.91L1396.45 142.763L1396.51 142.711L1396.53 142.659L1409.71 129.512L1409.76 129.46L1409.78 129.408L1422.96 116.262L1422.98 116.209L1423.03 116.183L1436.18 103.011L1436.23 102.985L1436.29 102.932L1449.43 89.7861L1449.48 89.7338L1449.54 89.6815L1451 88.2179V87.3293L1449.09 89.2372L1449.04 89.2895Z" fill="#FF9B71"/>
<path d="M1444.57 84.9247L1431.37 98.1233L1431.35 98.1756L1418.17 111.322L1418.12 111.374L1418.09 111.4L1404.92 124.573L1404.9 124.599L1404.84 124.651L1391.7 137.797L1391.65 137.85L1391.59 137.902L1378.45 151.048L1378.39 151.101L1378.34 151.153L1365.2 164.299L1365.14 164.351L1365.12 164.404L1351.95 177.55L1351.89 177.602L1351.87 177.628L1348.5 181H1349.38L1352.31 178.073L1352.34 178.047L1352.39 177.994L1365.54 164.822L1365.59 164.796L1365.64 164.743L1378.79 151.597L1378.84 151.545L1378.89 151.493L1392.04 138.346L1392.09 138.294L1392.14 138.242L1405.29 125.095L1405.34 125.043L1405.37 125.017L1418.54 111.845L1418.57 111.792L1418.62 111.766L1431.82 98.5676L1431.87 98.5153L1445.07 85.3167L1445.12 85.2645L1451 79.3839V78.4953L1444.62 84.8724L1444.57 84.9247Z" fill="#FF9B71"/>
<path d="M1442.43 109.153L1442.38 109.205L1429.23 122.351L1429.18 122.404L1429.12 122.456L1415.98 135.602L1415.93 135.654L1415.87 135.707L1402.73 148.853L1402.67 148.905L1402.62 148.931L1389.48 162.104L1389.42 162.13L1389.4 162.182L1376.2 175.381L1376.15 175.433L1370.58 181H1371.47L1376.62 175.825L1376.67 175.773L1389.84 162.627L1389.87 162.574L1389.92 162.522L1403.07 149.376L1403.12 149.323L1403.17 149.297L1416.32 136.125L1416.37 136.099L1416.42 136.046L1429.57 122.9L1429.62 122.848L1429.65 122.796L1442.82 109.649L1442.87 109.597L1442.9 109.545L1451 101.469V100.58L1442.45 109.1L1442.43 109.153Z" fill="#FF9B71"/>
<path d="M1440.21 106.957L1440.15 106.983L1427.01 120.156L1426.95 120.182L1413.76 133.407L1413.73 133.433L1400.53 146.632L1400.48 146.684L1400.43 146.736L1387.28 159.882L1387.23 159.935L1387.18 159.987L1374.03 173.133L1373.98 173.186L1373.93 173.212L1366.16 181H1367.05L1374.37 173.656L1374.42 173.63L1374.47 173.578L1387.62 160.431L1387.67 160.379L1387.73 160.327L1400.87 147.18L1400.92 147.128L1400.95 147.076L1414.12 133.93L1414.15 133.877L1427.35 120.679L1427.4 120.626L1440.6 107.428L1440.65 107.402L1440.7 107.349L1451 97.0519V96.1633L1440.26 106.905L1440.21 106.957Z" fill="#FF9B71"/>
<path d="M1446.84 113.57L1446.79 113.622L1433.65 126.768L1433.59 126.82L1420.4 140.019L1420.34 140.071L1420.29 140.097L1407.14 153.27L1407.09 153.296L1407.04 153.348L1393.89 166.521L1393.84 166.547L1393.81 166.599L1380.64 179.745L1380.62 179.798L1380.56 179.85L1379.41 181H1380.3L1381.01 180.294L1381.03 180.242L1381.09 180.19L1394.23 167.043L1394.29 166.991L1394.34 166.939L1407.48 153.793L1407.54 153.74L1407.59 153.714L1420.73 140.542L1420.79 140.516L1420.84 140.463L1433.99 127.317L1434.04 127.265L1447.24 114.066L1447.26 114.014L1447.31 113.962L1451 110.303V109.414L1446.87 113.517L1446.84 113.57Z" fill="#FF9B71"/>
<path d="M1449.04 115.791L1448.99 115.817L1435.84 128.99L1435.79 129.016L1435.74 129.068L1422.59 142.214L1422.54 142.267L1422.51 142.319L1409.34 155.465L1409.31 155.518L1409.26 155.57L1396.11 168.716L1396.06 168.768L1396.01 168.821L1383.83 181H1384.72L1396.45 169.239L1396.51 169.213L1396.53 169.16L1409.71 156.014L1409.76 155.962L1409.78 155.91L1422.96 142.763L1422.98 142.711L1423.03 142.659L1436.18 129.512L1436.23 129.46L1436.29 129.408L1449.43 116.262L1449.48 116.209L1449.54 116.183L1451 114.72V113.831L1449.09 115.739L1449.04 115.791Z" fill="#FF9B71"/>
<path d="M1437.96 104.788L1424.81 117.934L1424.76 117.987L1424.71 118.039L1411.56 131.185L1411.51 131.237L1411.46 131.29L1398.31 144.436L1398.26 144.488L1398.23 144.514L1385.06 157.687L1385.01 157.713L1384.98 157.765L1371.81 170.912L1371.78 170.964L1371.73 171.016L1361.75 181H1362.63L1372.17 171.46L1372.23 171.408L1372.25 171.356L1385.43 158.21L1385.45 158.157L1385.5 158.131L1398.65 144.959L1398.7 144.933L1398.75 144.88L1411.9 131.708L1411.95 131.682L1412.01 131.629L1425.15 118.483L1425.2 118.431L1425.26 118.379L1438.45 105.18L1438.48 105.128L1451 92.6348V91.7462L1438.01 104.736L1437.96 104.788Z" fill="#FF9B71"/>
<path d="M1444.57 111.4L1431.37 124.599L1431.35 124.651L1418.17 137.797L1418.12 137.85L1418.1 137.902L1404.92 151.048L1404.9 151.101L1404.84 151.153L1391.7 164.299L1391.65 164.351L1391.59 164.404L1378.45 177.55L1378.39 177.602L1378.34 177.628L1375 181H1375.89L1378.79 178.073L1378.84 178.047L1378.89 177.994L1392.04 164.822L1392.09 164.796L1392.14 164.743L1405.29 151.597L1405.34 151.545L1405.37 151.493L1418.54 138.346L1418.57 138.294L1418.62 138.242L1431.82 125.043L1431.87 125.017L1445.07 111.792L1445.12 111.766L1451 105.886V104.997L1444.62 111.374L1444.57 111.4Z" fill="#FF9B71"/>
<path d="M1442.43 135.654L1442.38 135.707L1429.23 148.853L1429.18 148.905L1429.12 148.931L1415.98 162.104L1415.93 162.13L1415.87 162.182L1402.73 175.329L1402.68 175.381L1402.62 175.433L1397.08 181H1397.94L1403.07 175.877L1403.12 175.825L1403.17 175.773L1416.32 162.627L1416.37 162.574L1416.42 162.522L1429.57 149.376L1429.62 149.323L1429.65 149.297L1442.82 136.125L1442.87 136.099L1442.9 136.046L1451 127.944V127.082L1442.45 135.602L1442.43 135.654Z" fill="#FF9B71"/>
<path d="M1440.26 133.407L1440.21 133.433L1427.01 146.631L1426.96 146.684L1426.93 146.736L1413.76 159.882L1413.73 159.935L1413.68 159.987L1400.53 173.133L1400.48 173.185L1400.43 173.212L1392.67 181H1393.53L1400.87 173.656L1400.92 173.63L1400.95 173.577L1414.12 160.431L1414.15 160.379L1414.2 160.327L1427.35 147.18L1427.4 147.128L1427.45 147.076L1440.6 133.929L1440.65 133.877L1451 123.527V122.665L1440.26 133.407Z" fill="#FF9B71"/>
<path d="M1446.84 140.071L1446.79 140.097L1433.65 153.27L1433.59 153.296L1433.54 153.348L1420.4 166.521L1420.34 166.547L1420.29 166.599L1407.14 179.745L1407.09 179.798L1407.04 179.85L1405.89 181H1406.78L1407.48 180.294L1407.54 180.242L1407.59 180.19L1420.73 167.043L1420.79 166.991L1420.84 166.939L1433.99 153.793L1434.04 153.74L1434.06 153.714L1447.24 140.542L1447.26 140.516L1447.31 140.463L1451 136.778V135.89L1446.87 140.019L1446.84 140.071Z" fill="#FF9B71"/>
<path d="M1449.04 142.267L1448.99 142.319L1435.84 155.465L1435.79 155.518L1435.74 155.57L1422.59 168.716L1422.54 168.768L1422.51 168.821L1410.31 181H1411.2L1422.96 169.239L1422.98 169.213L1423.03 169.161L1436.18 156.014L1436.23 155.962L1436.29 155.91L1449.43 142.763L1449.48 142.711L1449.54 142.659L1451 141.195V140.307L1449.09 142.214L1449.04 142.267Z" fill="#FF9B71"/>
<path d="M1437.96 131.29L1424.81 144.436L1424.76 144.488L1424.71 144.514L1411.56 157.687L1411.51 157.713L1411.46 157.765L1398.31 170.912L1398.26 170.964L1398.23 171.016L1388.25 181H1389.11L1398.65 171.46L1398.7 171.408L1398.75 171.356L1411.9 158.21L1411.95 158.157L1412.01 158.131L1425.15 144.959L1425.2 144.933L1425.26 144.88L1438.45 131.682L1438.48 131.629L1451 119.11V118.248L1438.01 131.237L1437.96 131.29Z" fill="#FF9B71"/>
<path d="M1444.57 137.902L1431.37 151.101L1431.35 151.153L1418.17 164.299L1418.12 164.352L1418.1 164.404L1404.92 177.55L1404.9 177.602L1404.84 177.628L1401.47 181H1402.36L1405.29 178.073L1405.34 178.047L1405.37 177.994L1418.54 164.822L1418.57 164.796L1418.62 164.744L1431.82 151.545L1431.87 151.493L1445.07 138.294L1445.12 138.242L1451 132.361V131.473L1444.62 137.85L1444.57 137.902Z" fill="#FF9B71"/>
<path d="M1442.43 162.13L1442.38 162.182L1429.23 175.328L1429.18 175.381L1429.12 175.433L1423.56 181H1424.45L1429.57 175.877L1429.62 175.825L1429.65 175.773L1442.82 162.626L1442.87 162.574L1442.9 162.522L1451 154.446V153.557L1442.45 162.104L1442.43 162.13Z" fill="#FF9B71"/>
<path d="M1440.21 159.935L1440.15 159.987L1427.01 173.133L1426.96 173.185L1426.93 173.212L1419.14 181H1420.03L1427.35 173.656L1427.4 173.63L1427.45 173.577L1440.6 160.431L1440.65 160.379L1440.7 160.327L1451 150.029V149.141L1440.26 159.882L1440.21 159.935Z" fill="#FF9B71"/>
<path d="M1446.84 166.547L1446.79 166.599L1433.65 179.745L1433.59 179.798L1433.54 179.85L1432.39 181H1433.28L1433.99 180.294L1434.04 180.242L1434.06 180.19L1447.24 167.043L1447.26 166.991L1447.32 166.939L1451 163.28V162.391L1446.87 166.521L1446.84 166.547Z" fill="#FF9B71"/>
<path d="M1449.04 168.768L1448.99 168.821L1436.81 181H1437.7L1449.43 169.239L1449.48 169.213L1449.54 169.161L1451 167.697V166.808L1449.09 168.716L1449.04 168.768Z" fill="#FF9B71"/>
<path d="M1345.12 74L1344 75.1238V75.9863L1345.99 74H1345.12Z" fill="#FF9B71"/>
<path d="M1354.56 74.2875L1354.61 74.2352L1354.82 74H1354.38H1354.27H1354.19H1353.96L1344 83.9577V84.8202L1354.51 74.3136L1354.56 74.2875Z" fill="#FF9B71"/>
<path d="M1356.75 76.4829L1356.81 76.4306L1359.24 74H1358.37L1356.36 75.9863L1356.31 76.0386L1356.28 76.0909L1344 88.3747V89.2372L1356.73 76.5352L1356.75 76.4829Z" fill="#FF9B71"/>
<path d="M1349.54 74L1344 79.5408V80.4033L1350.4 74H1349.54Z" fill="#FF9B71"/>
<path d="M1437.96 157.765L1424.81 170.912L1424.76 170.964L1424.71 171.016L1414.72 181H1415.61L1425.15 171.46L1425.2 171.408L1425.26 171.356L1438.45 158.157L1438.48 158.131L1451 145.612V144.724L1438.01 157.713L1437.96 157.765Z" fill="#FF9B71"/>
<path d="M1444.57 164.404L1431.37 177.602L1431.35 177.628L1427.97 181H1428.86L1431.82 178.047L1431.87 177.994L1445.07 164.796L1445.12 164.743L1451 158.863V157.974L1444.62 164.351L1444.57 164.404Z" fill="#FF9B71"/>
<path d="M1450.95 181L1451 180.948V180.059L1450.06 181H1450.95Z" fill="#FF9B71"/>
<path d="M1442.11 181L1451 172.114V171.225L1441.23 181H1442.11Z" fill="#FF9B71"/>
<path d="M1446.53 181L1451 176.531V175.642L1445.64 181H1446.53Z" fill="#FF9B71"/>
<path d="M1350.14 96.3461L1350.19 96.2938L1363.34 83.1475L1363.39 83.0953L1363.42 83.0691L1372.49 74H1371.6L1363 82.6248L1362.95 82.6771L1362.9 82.7032L1349.75 95.8757L1349.7 95.9018L1349.65 95.9541L1344 101.599V102.488L1350.09 96.3984L1350.14 96.3461Z" fill="#FF9B71"/>
<path d="M1345.72 91.9292L1345.78 91.903L1358.92 78.7306L1358.98 78.6783L1363.65 74H1362.77L1358.58 78.2079L1358.53 78.2601L1345.33 91.4587L1345.28 91.4849L1345.23 91.5371L1344 92.7655V93.6541L1345.67 91.9814L1345.72 91.9292Z" fill="#FF9B71"/>
<path d="M1347.92 94.1507L1347.97 94.0984L1361.12 80.9521L1361.17 80.8999L1361.22 80.8476L1368.07 74H1367.18L1360.78 80.4033L1360.73 80.4555L1360.7 80.5078L1347.53 93.6541L1347.5 93.7064L1347.45 93.7587L1344 97.1825V98.0711L1347.89 94.203L1347.92 94.1507Z" fill="#FF9B71"/>
<path d="M1354.56 100.763L1354.61 100.711L1367.76 87.5645L1367.81 87.5122L1367.84 87.4861L1381.01 74.3136L1381.03 74.2875L1381.09 74.2352L1381.32 74H1380.85H1380.77H1380.67H1380.43L1367.39 87.0418L1367.37 87.0679L1367.31 87.1202L1354.17 100.293L1354.11 100.319L1354.06 100.371L1344 110.433V111.322L1354.51 100.815L1354.56 100.763Z" fill="#FF9B71"/>
<path d="M1356.75 102.985L1356.81 102.932L1369.95 89.786L1370.01 89.7338L1370.06 89.6815L1383.26 76.4829L1383.31 76.4306L1385.74 74H1384.85L1382.81 76.0386L1382.76 76.0909L1369.61 89.2372L1369.56 89.2894L1369.51 89.3417L1356.36 102.488L1356.31 102.54L1356.28 102.566L1344 114.85V115.739L1356.73 103.011L1356.75 102.985Z" fill="#FF9B71"/>
<path d="M1352.34 98.5677L1352.39 98.5154L1365.54 85.3691L1365.59 85.3168L1365.64 85.2645L1376.9 74H1376.02L1365.2 84.8202L1365.14 84.8725L1365.12 84.9248L1351.95 98.0711L1351.89 98.1234L1351.87 98.1756L1344 106.016V106.905L1352.31 98.5938L1352.34 98.5677Z" fill="#FF9B71"/>
<path d="M1347.89 120.679L1347.92 120.626L1361.12 107.428L1361.17 107.402L1361.22 107.349L1374.37 94.203L1374.42 94.1507L1374.47 94.0984L1387.62 80.9521L1387.67 80.8999L1387.73 80.8476L1394.57 74H1393.68L1387.28 80.4033L1387.23 80.4555L1387.18 80.5078L1374.03 93.6541L1373.98 93.7064L1373.93 93.7587L1360.78 106.905L1360.73 106.957L1360.7 106.983L1347.53 120.156L1347.5 120.182L1344 123.684V124.573L1347.89 120.679Z" fill="#FF9B71"/>
<path d="M1350.14 122.848L1350.19 122.796L1363.34 109.649L1363.39 109.597L1363.42 109.545L1376.62 96.3461L1376.67 96.2938L1389.84 83.1475L1389.87 83.0953L1389.92 83.0691L1398.99 74H1398.1L1389.48 82.6248L1389.42 82.6771L1389.4 82.7032L1376.2 95.9018L1376.15 95.9541L1363 109.1L1362.95 109.153L1362.9 109.205L1349.75 122.351L1349.7 122.404L1349.65 122.456L1344 128.101V128.99L1350.09 122.9L1350.14 122.848Z" fill="#FF9B71"/>
<path d="M1345.72 118.431L1345.78 118.379L1358.92 105.232L1358.98 105.18L1359.03 105.128L1372.17 91.9814L1372.23 91.9292L1372.25 91.903L1385.43 78.7306L1385.45 78.6783L1390.16 74H1389.27L1385.06 78.2079L1385.01 78.2601L1371.81 91.4587L1371.78 91.4849L1371.73 91.5371L1358.58 104.683L1358.53 104.736L1358.48 104.788L1345.33 117.934L1345.28 117.987L1345.23 118.039L1344 119.267V120.156L1345.67 118.483L1345.72 118.431Z" fill="#FF9B71"/>
<path d="M1354.51 127.317L1354.56 127.265L1367.76 114.066L1367.81 114.014L1367.84 113.962L1381.01 100.815L1381.03 100.763L1381.09 100.711L1394.23 87.5645L1394.29 87.5122L1394.34 87.4861L1407.48 74.3136L1407.54 74.2875L1407.59 74.2352L1407.82 74H1407.35H1407.25H1407.17H1406.94L1393.89 87.0418L1393.84 87.0679L1393.81 87.1202L1380.64 100.293L1380.62 100.319L1380.56 100.371L1367.39 113.517L1367.37 113.57L1367.31 113.622L1354.17 126.768L1354.11 126.82L1344 136.935V137.824L1354.51 127.317Z" fill="#FF9B71"/>
<path d="M1356.75 129.46L1356.81 129.408L1369.95 116.262L1370.01 116.209L1370.06 116.183L1383.26 102.985L1383.31 102.932L1396.45 89.786L1396.51 89.7338L1396.53 89.6815L1409.71 76.5352L1409.76 76.4829L1409.78 76.4306L1412.24 74H1411.35L1409.34 75.9863L1409.31 76.0386L1409.26 76.0909L1396.11 89.2372L1396.06 89.2894L1396.01 89.3417L1382.81 102.54L1382.76 102.566L1369.61 115.739L1369.56 115.791L1369.51 115.817L1356.36 128.99L1356.31 129.016L1356.28 129.068L1344 141.352V142.241L1356.73 129.512L1356.75 129.46Z" fill="#FF9B71"/>
<path d="M1352.34 125.043L1352.39 125.017L1365.54 111.845L1365.59 111.792L1365.64 111.766L1378.79 98.5938L1378.84 98.5677L1378.89 98.5154L1392.04 85.3691L1392.09 85.3168L1392.14 85.2645L1403.41 74H1402.52L1391.7 84.8202L1391.65 84.8725L1391.59 84.9248L1378.45 98.0711L1378.39 98.1234L1378.34 98.1756L1365.2 111.322L1365.14 111.374L1365.12 111.4L1351.95 124.573L1351.89 124.599L1351.87 124.651L1344 132.518V133.407L1352.31 125.096L1352.34 125.043Z" fill="#FF9B71"/>
<path d="M1350.14 149.323L1350.19 149.297L1363.34 136.125L1363.39 136.099L1363.42 136.046L1376.62 122.848L1376.67 122.796L1389.84 109.649L1389.87 109.597L1389.92 109.545L1403.07 96.3984L1403.12 96.3461L1403.17 96.2938L1416.32 83.1475L1416.37 83.0953L1416.42 83.0691L1425.47 74H1424.6L1415.98 82.6248L1415.93 82.6771L1415.87 82.7032L1402.73 95.8757L1402.67 95.9018L1402.62 95.9541L1389.48 109.1L1389.42 109.153L1389.4 109.205L1376.2 122.404L1376.15 122.456L1363 135.602L1362.95 135.654L1362.9 135.707L1349.75 148.853L1349.7 148.905L1349.65 148.931L1344 154.603V155.465L1350.09 149.376L1350.14 149.323Z" fill="#FF9B71"/>
<path d="M1345.72 144.933L1345.78 144.88L1358.92 131.708L1358.98 131.682L1359.03 131.629L1372.17 118.483L1372.23 118.431L1372.25 118.379L1385.43 105.232L1385.45 105.18L1385.5 105.128L1398.65 91.9814L1398.7 91.9292L1398.75 91.903L1411.9 78.7306L1411.95 78.6783L1416.63 74H1415.77L1411.56 78.2079L1411.51 78.2601L1398.31 91.4587L1398.26 91.4849L1398.23 91.5371L1385.06 104.683L1385.01 104.736L1384.98 104.788L1371.81 117.934L1371.78 117.987L1371.73 118.039L1358.58 131.185L1358.53 131.237L1358.48 131.29L1345.33 144.436L1345.28 144.488L1345.23 144.514L1344 145.769V146.631L1345.67 144.959L1345.72 144.933Z" fill="#FF9B71"/>
<path d="M1347.92 147.128L1347.97 147.076L1361.12 133.929L1361.17 133.877L1374.37 120.679L1374.42 120.626L1387.62 107.428L1387.67 107.402L1387.73 107.349L1400.87 94.203L1400.92 94.1507L1400.95 94.0984L1414.12 80.9521L1414.15 80.8999L1414.2 80.8476L1421.05 74H1420.19L1413.76 80.4033L1413.73 80.4555L1413.68 80.5078L1400.53 93.6541L1400.48 93.7064L1400.43 93.7587L1387.28 106.905L1387.23 106.957L1387.18 106.983L1374.03 120.156L1373.98 120.182L1360.78 133.407L1360.73 133.433L1347.53 146.631L1347.5 146.684L1347.45 146.736L1344 150.186V151.048L1347.89 147.18L1347.92 147.128Z" fill="#FF9B71"/>
<path d="M1354.56 153.74L1354.61 153.714L1367.76 140.542L1367.81 140.516L1367.84 140.463L1381.01 127.317L1381.03 127.265L1394.23 114.066L1394.29 114.014L1394.34 113.962L1407.48 100.815L1407.54 100.763L1407.59 100.711L1420.73 87.5645L1420.79 87.5122L1420.84 87.4861L1433.99 74.3136L1434.04 74.2875L1434.06 74.2352L1434.3 74H1433.85H1433.75H1433.67H1433.41L1420.39 87.0418L1420.34 87.0679L1420.29 87.1202L1407.14 100.293L1407.09 100.319L1407.04 100.371L1393.89 113.517L1393.84 113.57L1393.81 113.622L1380.64 126.768L1380.62 126.82L1367.39 140.019L1367.37 140.071L1367.31 140.097L1354.17 153.27L1354.11 153.296L1354.06 153.348L1344 163.411V164.299L1354.51 153.793L1354.56 153.74Z" fill="#FF9B71"/>
<path d="M1356.75 155.962L1356.81 155.91L1369.95 142.763L1370.01 142.711L1370.06 142.659L1383.26 129.46L1383.31 129.408L1396.45 116.262L1396.51 116.209L1396.53 116.183L1409.71 103.011L1409.76 102.985L1409.78 102.932L1422.96 89.786L1422.98 89.7338L1423.03 89.6815L1436.18 76.5352L1436.23 76.4829L1436.29 76.4306L1438.72 74H1437.83L1435.84 75.9863L1435.79 76.0386L1435.74 76.0909L1422.59 89.2372L1422.54 89.2894L1422.51 89.3417L1409.34 102.488L1409.31 102.54L1409.26 102.566L1396.11 115.739L1396.06 115.791L1396.01 115.817L1382.81 129.016L1382.76 129.068L1369.61 142.214L1369.56 142.267L1369.51 142.319L1356.36 155.465L1356.31 155.518L1356.28 155.57L1344 167.828V168.716L1356.73 156.014L1356.75 155.962Z" fill="#FF9B71"/>
<path d="M1352.34 151.545L1352.39 151.493L1365.54 138.346L1365.59 138.294L1365.64 138.242L1378.79 125.096L1378.84 125.043L1378.89 125.017L1392.04 111.845L1392.09 111.792L1392.14 111.766L1405.29 98.5938L1405.34 98.5677L1405.37 98.5154L1418.54 85.3691L1418.57 85.3168L1418.62 85.2645L1429.88 74H1428.99L1418.17 84.8202L1418.12 84.8725L1418.1 84.9248L1404.92 98.0711L1404.9 98.1234L1404.84 98.1756L1391.7 111.322L1391.65 111.374L1391.59 111.4L1378.45 124.573L1378.39 124.599L1378.34 124.651L1365.2 137.798L1365.14 137.85L1365.12 137.902L1351.95 151.048L1351.89 151.101L1351.87 151.153L1344 158.994V159.882L1352.31 151.597L1352.34 151.545Z" fill="#FF9B71"/>
<path d="M1345.72 171.408L1345.78 171.356L1358.92 158.21L1358.98 158.157L1359.03 158.131L1372.17 144.959L1372.23 144.933L1372.25 144.88L1385.43 131.708L1385.45 131.682L1385.5 131.629L1398.65 118.483L1398.7 118.431L1398.75 118.379L1411.9 105.232L1411.95 105.18L1412.01 105.128L1425.15 91.9814L1425.2 91.9292L1425.26 91.903L1438.4 78.7306L1438.45 78.6783L1438.48 78.6522L1443.13 74H1442.24L1438.01 78.2601L1437.96 78.2863L1424.81 91.4587L1424.76 91.4849L1424.71 91.5371L1411.56 104.683L1411.51 104.736L1411.46 104.788L1398.31 117.934L1398.26 117.987L1398.23 118.039L1385.06 131.185L1385.01 131.237L1384.98 131.29L1371.81 144.436L1371.78 144.488L1371.73 144.514L1358.58 157.687L1358.53 157.713L1358.48 157.765L1345.33 170.912L1345.28 170.964L1345.23 171.016L1344 172.245V173.133L1345.67 171.46L1345.72 171.408Z" fill="#FF9B71"/>
<path d="M1347.92 173.63L1347.97 173.577L1361.12 160.431L1361.17 160.379L1361.22 160.327L1374.37 147.18L1374.42 147.128L1374.47 147.076L1387.62 133.929L1387.67 133.877L1400.87 120.679L1400.92 120.626L1414.12 107.428L1414.15 107.402L1414.2 107.349L1427.35 94.203L1427.4 94.1507L1427.45 94.0984L1440.6 80.9521L1440.65 80.8999L1440.7 80.8476L1447.55 74H1446.66L1440.26 80.4033L1440.21 80.4555L1440.15 80.5078L1427.01 93.6541L1426.96 93.7064L1426.93 93.7587L1413.76 106.905L1413.73 106.957L1413.68 106.983L1400.53 120.156L1400.48 120.182L1387.28 133.407L1387.23 133.433L1374.03 146.631L1373.98 146.684L1373.93 146.736L1360.78 159.882L1360.73 159.935L1360.7 159.987L1347.53 173.133L1347.5 173.185L1347.45 173.212L1344 176.661V177.55L1347.89 173.656L1347.92 173.63Z" fill="#FF9B71"/>
</g>
</mask>
<g mask="url(#mask2_324_446)">
<path fill-rule="evenodd" clip-rule="evenodd" d="M1398.23 175.668C1424.57 175.668 1445.93 154.313 1445.93 127.97C1445.93 101.628 1424.57 80.2726 1398.23 80.2726C1371.89 80.2726 1350.53 101.628 1350.53 127.97C1350.53 154.313 1371.89 175.668 1398.23 175.668ZM1398.36 164.691C1418.57 164.691 1434.95 148.309 1434.95 128.101C1434.95 107.893 1418.57 91.5111 1398.36 91.5111C1378.15 91.5111 1361.77 107.893 1361.77 128.101C1361.77 148.309 1378.15 164.691 1398.36 164.691Z" fill="#FFC78B"/>
</g>
<g clip-path="url(#clip3_324_446)">
<path d="M1600.01 311.925C1598 311.925 1596.03 311.547 1594.17 310.752C1592.39 309.995 1590.76 308.897 1589.4 307.534C1588.03 306.171 1586.93 304.543 1586.17 302.764C1585.38 300.909 1585 298.94 1585 296.934C1585 294.927 1585.38 292.959 1586.17 291.104C1586.93 289.325 1588.03 287.697 1589.4 286.334C1590.76 284.971 1592.39 283.873 1594.17 283.116C1596.03 282.321 1598 281.942 1600.01 281.942C1602.01 281.942 1603.98 282.321 1605.84 283.116C1607.62 283.873 1609.25 284.971 1610.62 286.334C1611.98 287.697 1613.08 289.325 1613.84 291.104C1614.63 292.959 1615.01 294.927 1615.01 296.934C1615.01 298.94 1614.63 300.909 1613.84 302.764C1613.08 304.543 1611.98 306.171 1610.62 307.534C1609.25 308.897 1607.62 309.995 1605.84 310.752C1604.02 311.547 1602.05 311.925 1600.01 311.925ZM1600.01 287.545C1594.81 287.545 1590.61 291.747 1590.61 296.934C1590.61 302.12 1594.81 306.323 1600.01 306.323C1605.2 306.323 1609.4 302.12 1609.4 296.934C1609.44 291.747 1605.2 287.545 1600.01 287.545Z" fill="#FFDC7C"/>
<path d="M1839.57 307.837C1822.78 307.837 1809.1 294.208 1809.1 277.4C1809.1 260.591 1822.78 247 1839.57 247C1856.36 247 1870.04 260.629 1870.04 277.437C1870.04 294.246 1856.36 307.837 1839.57 307.837ZM1839.57 250.029C1824.45 250.029 1812.14 262.332 1812.14 277.437C1812.14 292.542 1824.45 304.846 1839.57 304.846C1854.69 304.846 1867.01 292.542 1867.01 277.437C1866.97 262.332 1854.69 250.029 1839.57 250.029Z" fill="#FF9B71"/>
<path d="M1786.56 338.35L1780.49 332.255L1786.33 326.425L1783.64 323.737L1777.8 329.567L1771.97 323.737L1769.28 326.425L1775.11 332.255L1769.05 338.35L1771.74 341L1777.8 334.943L1783.87 341L1786.56 338.35Z" fill="#FFDC7C"/>
</g>
<path d="M1633.91 75.25L1629.78 71.1026L1633.75 67.1356L1631.92 65.3067L1627.95 69.2995L1623.98 65.3067L1622.15 67.1356L1626.12 71.1026L1622 75.25L1623.83 77.0532L1627.95 72.9316L1632.08 77.0532L1633.91 75.25Z" fill="#7DD2B7"/>
</g>
<defs>
<clipPath id="clip0_324_446">
<rect width="118" height="118" fill="white" transform="translate(73 159)"/>
</clipPath>
<clipPath id="clip1_324_446">
<rect width="161" height="161" fill="white" transform="translate(633 202)"/>
</clipPath>
<clipPath id="clip2_324_446">
<rect width="107" height="107" fill="white" transform="translate(1344 74)"/>
</clipPath>
<clipPath id="clip3_324_446">
<rect width="285" height="94" fill="white" transform="translate(1585 247)"/>
</clipPath>
</defs>
</svg>
