<?xml version="1.0" encoding="utf-8"?>
<!-- Generator: Adobe Illustrator 24.2.3, SVG Export Plug-In . SVG Version: 6.00 Build 0)  -->
<svg version="1.1" id="Capa_1" xmlns="http://www.w3.org/2000/svg" xmlns:xlink="http://www.w3.org/1999/xlink" x="0px" y="0px"
	 viewBox="0 0 601.5 367.6" style="enable-background:new 0 0 601.5 367.6;" xml:space="preserve">
<style type="text/css">
	.st0{fill:#F5F5F5;}
	.st1{fill:#E0E0E0;}
	.st2{fill:none;stroke:#FFFFFF;stroke-miterlimit:10;}
	.st3{fill:#263238;}
	.st4{fill:#CBD5E1;}
	.st5{opacity:0.5;}
	.st6{fill:#F1F5F9;}
	.st7{fill:#FFFFFF;}
</style>
<g id="Background_Complete">
	
		<rect x="65.2" y="69.7" transform="matrix(0.8312 -0.556 0.556 0.8312 -71.5913 102.3284)" class="st0" width="135" height="198.8"/>
	<polygon class="st1" points="186.1,206.3 184.8,214.2 129,206.2 130.3,198.3 	"/>
	<polygon class="st1" points="158,178.2 166,179.4 157.1,234.3 149.1,233.1 	"/>
	<path class="st2" d="M142.1,111.7"/>
	<path class="st1" d="M106.7,108.4c0.1,0.1-11.2,7.8-25.1,17.1s-25.3,16.8-25.4,16.7s11.2-7.8,25.1-17.1S106.5,108.3,106.7,108.4z"
		/>
	<path class="st1" d="M147.9,98c0.1,0.1-18.6,12.8-41.8,28.2s-42,27.9-42.1,27.8s18.6-12.8,41.8-28.3S147.8,97.9,147.9,98z"/>
	<path class="st1" d="M156.2,110.4c0.1,0.1-18.6,12.8-41.8,28.3s-42,27.9-42.1,27.8s18.6-12.8,41.8-28.2S156.1,110.3,156.2,110.4z"
		/>
	<path class="st1" d="M164.4,122.8c0.1,0.1-18.6,12.8-41.8,28.2s-42,27.9-42,27.8s18.6-12.8,41.8-28.2S164.3,122.7,164.4,122.8z"/>
	<path class="st1" d="M172.7,135.2c0.1,0.1-18.6,12.8-41.8,28.2s-42,27.9-42.1,27.8s18.6-12.8,41.8-28.2S172.7,135,172.7,135.2z"/>
	
		<rect x="451.3" y="177.1" transform="matrix(0.8312 -0.556 0.556 0.8312 -59.0819 326.4487)" class="st0" width="113.4" height="166.9"/>
	<polygon class="st1" points="552.9,291.8 551.8,298.5 505,291.7 506,285.1 	"/>
	<polygon class="st1" points="529.3,268.2 536,269.2 528.5,315.3 521.8,314.4 	"/>
	<path class="st2" d="M516,212.3"/>
	<path class="st1" d="M486.1,209.7c0.1,0.1-9.3,6.6-21.1,14.4s-21.3,14.1-21.4,14s9.4-6.6,21.1-14.4S486,209.5,486.1,209.7z"/>
	<path class="st1" d="M520.8,200.9c0.1,0.1-15.6,10.8-35,23.8s-35.3,23.5-35.3,23.3s15.6-10.8,35-23.8S520.7,200.8,520.8,200.9z"/>
	<path class="st1" d="M527.7,211.3c0.1,0.1-15.6,10.8-35,23.8s-35.3,23.4-35.3,23.3s15.6-10.7,35-23.7S527.7,211.2,527.7,211.3z"/>
	<path class="st1" d="M534.7,221.7c0.1,0.1-15.6,10.8-35,23.8s-35.3,23.4-35.3,23.3s15.6-10.8,35-23.8S534.6,221.6,534.7,221.7z"/>
	<path class="st1" d="M541.7,232.1c0.1,0.1-15.6,10.8-35,23.8s-35.3,23.4-35.3,23.3s15.6-10.8,35-23.8S541.5,232,541.7,232.1z"/>
	
		<rect x="181.9" y="44.9" transform="matrix(0.4716 -0.8818 0.8818 0.4716 50.4719 290.6353)" class="st0" width="171.7" height="116.6"/>
	<polygon class="st1" points="261.1,159 254.6,161.3 238,115.5 244.5,113.2 	"/>
	<polygon class="st1" points="271.1,126.2 273.5,132.8 228,148.3 225.6,141.8 	"/>
	<path class="st2" d="M315.4,87"/>
	<path class="st1" d="M303.4,58.7c-0.1,0.1-10.5-5.3-23.3-12.1c-12.8-6.8-23.1-12.5-23-12.7c0.1-0.2,10.5,5.3,23.3,12.1
		S303.5,58.5,303.4,58.7z"/>
	<path class="st1" d="M328.1,85.9C328,86,310.7,77,289.5,65.6c-21.2-11.3-38.3-20.7-38.3-20.8s17.3,8.9,38.5,20.3
		S328.2,85.7,328.1,85.9z"/>
	<path class="st1" d="M322,97.2c-0.1,0.1-17.3-8.9-38.5-20.3c-21.2-11.3-38.3-20.7-38.3-20.8s17.3,8.9,38.5,20.3
		S322.1,97.1,322,97.2z"/>
	<path class="st1" d="M316,108.5c-0.1,0.1-17.3-8.9-38.5-20.3c-21.2-11.3-38.3-20.6-38.3-20.8s17.3,8.9,38.5,20.3
		S316,108.4,316,108.5z"/>
	<path class="st1" d="M309.9,119.9c-0.1,0.1-17.3-8.9-38.5-20.3C250.1,88.3,233,79,233.1,78.8s17.3,8.9,38.5,20.3
		S310,119.7,309.9,119.9z"/>
</g>
<g id="Floor">
	<path class="st3" d="M288.7,366.2c159.5,0,288.7,0.1,288.7,0.3c0,0.1-129.2,0.3-288.7,0.3"/>
</g>
<g id="Folder">
	<path class="st4" d="M212.7,161.2L177.3,343l-4.6,23.8l236-1.1c10.6,0,20-9.5,23.4-23.4l41.9-171.6c2.6-10.6-3.1-21.6-11.1-21.6
		l-238.9,0.2C218.7,149.2,214,154.1,212.7,161.2z"/>
	<g class="st5">
		<path class="st6" d="M211.1,161.7l-35.4,181.8l-4.6,23.8l236-1.1c10.6,0,20-9.5,23.4-23.4l41.9-171.6c2.6-10.6-3.1-21.6-11.1-21.6
			l-238.9,0.2C217.1,149.7,212.4,154.6,211.1,161.7z"/>
	</g>
	<path class="st4" d="M386.1,330.7l-25-201.4c-1-8.3-7.6-14.4-15.4-14.4l-54.8,0.2c-4.1,0-8,1.8-10.8,4.8l-26,27.7l-152.4,0.8
		c-9.3,0.1-16.5,8.9-15.2,18.8l23.2,186.1c1,8.2,7.6,14.4,15.3,14.4l265.7-0.5c29.6,0.6,32.4-8.1,32.4-8.1
		C389.1,366.5,386.1,330.7,386.1,330.7z"/>
	<g class="st5">
		<polygon class="st7" points="271.5,290.4 262.5,300 193.6,237.9 202.5,228.3 		"/>
		<polygon class="st7" points="258.8,226.2 268.7,235.1 206.3,302.1 196.4,293.2 		"/>
	</g>
</g>
</svg>
