<svg width="772" height="503" viewBox="0 0 772 503" fill="none" xmlns="http://www.w3.org/2000/svg">
<g clip-path="url(#clip0_10_18)">
<path d="M607.007 99.1015C607.007 99.1015 564.325 66.1528 491.592 78.0818C418.86 90.0108 287.23 35.9876 287.23 35.9876C287.23 35.9876 217.289 -1.29392 147.184 31.9701C77.0786 65.2341 88.163 134.23 88.163 134.23C88.8061 144.322 89.4904 193.724 179.575 318.636C212.089 363.733 246.45 393.898 287.449 410.091C372.908 443.835 477.908 431.097 552.187 379.679C588.834 354.313 628.313 318.321 651.317 271.084C702.811 165.342 607.007 99.1015 607.007 99.1015Z" fill="#F7F9FB"/>
</g>
<g clip-path="url(#clip1_10_18)">
<path d="M631.057 40.1052C631.057 40.1052 670.33 44.5533 703.647 66.3894C733.361 85.8695 746.291 104.717 750.245 110.782C751.663 112.98 753.598 114.879 755.967 116.162C759.938 118.307 763.775 116.303 762.908 104.77C762.607 100.866 756.534 77.0261 728.873 51.6386C703.18 28.062 665.225 16.7044 655.031 16.0011C652.896 15.8605 639.499 13.4343 625.819 23.5787C619.045 28.5894 622.148 38.8569 630.707 40.0876C630.824 40.0876 630.94 40.1052 631.057 40.1052Z" fill="#F7F9FB"/>
<path d="M40.441 18.7262C40.441 18.7262 56.8243 21.4689 52.2196 42.76C47.6149 64.0686 41.392 75.7075 39.5234 81.6676C37.6548 87.6276 29.5633 125.832 30.4642 159.94C31.3651 194.048 22.3727 181.67 22.3727 181.67C22.3727 181.67 2.60261 140.425 0.333636 105.736C-1.93533 71.0484 8.39181 48.7728 8.39181 48.7728C8.39181 48.7728 22.8732 18.1109 40.441 18.7262Z" fill="#F7F9FB"/>
<path d="M59.1767 243.61C59.1767 243.61 48.299 247.689 63.3142 272.707C78.3294 297.708 87.6388 302.736 87.6388 302.736C87.6388 302.736 102.154 313.812 93.5281 292.556C84.8861 271.265 66.751 247.724 59.1767 243.61Z" fill="#F7F9FB"/>
<path d="M38.7131 344.514L539.521 344.514V327.407L38.7131 327.407V344.514Z" fill="#FFCB5D"/>
<path d="M118.22 327.402H160.913L169.072 294.982H126.395L118.22 327.402Z" fill="#94B8EA"/>
<path d="M59.9275 294.984H253.04L242.78 170.877H49.6504L59.9275 294.984Z" fill="#C6DAF3"/>
<path d="M62.4801 274.307H246.267L237.741 176.431H55.2561L62.4801 274.307Z" fill="white"/>
<path d="M95.3635 261.648H188.425L185.405 198.197H92.3438L95.3635 261.648Z" fill="#4F91DB"/>
<path d="M96.7649 207.832H180.5C180.967 207.832 181.351 207.462 181.351 206.988C181.351 206.531 180.967 206.144 180.5 206.144H96.7649C96.2978 206.144 95.9141 206.513 95.9141 206.988C95.9307 207.462 96.2978 207.832 96.7649 207.832Z" fill="#C0D5F4"/>
<path d="M96.7649 218.714H167.67C168.137 218.714 168.521 218.345 168.521 217.87C168.521 217.413 168.137 217.027 167.67 217.027H96.7649C96.2978 217.027 95.9141 217.396 95.9141 217.87C95.9307 218.345 96.2978 218.714 96.7649 218.714Z" fill="#C0D5F4"/>
<path d="M96.7649 230.758H176.529C176.996 230.758 177.38 230.388 177.38 229.914C177.38 229.457 176.996 229.07 176.529 229.07H96.7649C96.2978 229.07 95.9141 229.439 95.9141 229.914C95.9307 230.388 96.2978 230.758 96.7649 230.758Z" fill="#C0D5F4"/>
<path d="M151.332 192.413H201.466V189.636H151.332V192.413Z" fill="#80AEE9"/>
<path d="M160.664 184.995H210.799V182.218H160.664V184.995Z" fill="#A9C6EE"/>
<path d="M218.021 198.601C216.92 198.355 215.786 198.197 214.601 198.197C212.883 198.197 211.248 198.496 209.729 199.076L214.601 212.262L228.198 208.324C226.814 203.542 222.926 199.814 218.021 198.601Z" fill="#BBD9EF"/>
<path d="M214.968 212.631L209.93 199.006L209.529 199.146L214.234 211.893L201.555 206.794L201.388 207.199L214.968 212.631Z" fill="#090761"/>
<path d="M214.601 212.262L212.899 226.222C213.467 226.292 214.017 226.327 214.601 226.327C215.202 226.327 215.769 226.292 216.353 226.222L214.601 212.262Z" fill="#1B297A"/>
<path d="M214.601 212.262L216.353 226.222C223.343 225.36 228.782 219.435 228.782 212.262C228.782 210.908 228.582 209.572 228.198 208.324L214.601 212.262Z" fill="#4862D3"/>
<path d="M212.883 226.433C205.675 225.571 200.22 219.47 200.22 212.262C200.22 210.434 200.57 208.64 201.271 206.917C202.539 203.788 204.908 201.203 207.944 199.603C208.595 199.287 209.129 199.058 209.646 198.865C211.214 198.285 212.883 197.986 214.601 197.986C215.736 197.986 216.87 198.127 218.071 198.39C223.026 199.621 226.997 203.401 228.415 208.253C228.799 209.554 228.999 210.891 228.999 212.244C228.999 219.435 223.577 225.536 216.37 226.415C215.786 226.485 215.202 226.52 214.601 226.52C214.017 226.538 213.45 226.503 212.883 226.433ZM209.796 199.269C209.296 199.445 208.779 199.674 208.145 199.973C205.192 201.502 202.906 204.034 201.671 207.058C200.987 208.728 200.654 210.469 200.654 212.244C200.654 219.242 205.942 225.149 212.933 225.993C214.051 226.134 215.202 226.116 216.319 225.993C223.31 225.132 228.565 219.224 228.565 212.244C228.565 210.926 228.382 209.625 227.998 208.359C226.63 203.647 222.776 199.973 217.971 198.777C216.803 198.513 215.702 198.373 214.601 198.373C212.933 198.408 211.314 198.689 209.796 199.269Z" fill="#090761"/>
<path d="M213.116 226.239L214.801 212.42L228.849 208.359L228.732 207.955L214.418 212.104L212.699 226.204L213.116 226.239Z" fill="#090761"/>
<path d="M216.136 226.257L216.553 226.204L214.818 212.227L214.401 212.28L216.136 226.257Z" fill="#090761"/>
<path d="M207.894 199.937L208.211 199.656L201.638 192.272L201.321 192.553L207.894 199.937Z" fill="black"/>
<path d="M217.838 198.707L218.038 198.636L218.222 198.531L210.997 184.888L210.614 185.099L217.838 198.707Z" fill="black"/>
<path d="M276.063 327.402H392.081C392.615 327.402 393.032 326.945 393.032 326.4V309.698C393.032 309.135 392.598 308.696 392.081 308.696H276.063C275.53 308.696 275.112 309.153 275.112 309.698V326.4C275.112 326.945 275.546 327.402 276.063 327.402Z" fill="#79AAE3"/>
<path d="M267.028 308.686H384.965V296.924H267.028V308.686Z" fill="#D0DCFE"/>
<path d="M284.689 296.934H367.323C367.857 296.934 368.274 296.477 368.274 295.932V279.229C368.274 278.667 367.84 278.227 367.323 278.227H284.689C284.155 278.227 283.738 278.684 283.738 279.229V295.932C283.721 296.477 284.155 296.934 284.689 296.934Z" fill="#AAC5ED"/>
<path d="M109.378 342.716H60.9785L20.4374 466.911H34.8186L109.378 342.716Z" fill="#FFCB5D"/>
<path d="M458.415 342.716H506.814L547.372 466.911H532.974L458.415 342.716Z" fill="#FFCB5D"/>
<path d="M220.841 295.826H253.023C253.257 295.826 253.491 295.721 253.641 295.563C253.808 295.387 253.874 295.158 253.858 294.93L251.105 261.578C251.071 261.121 250.654 260.787 250.187 260.804C249.72 260.839 249.37 261.244 249.42 261.718L252.106 294.156H220.841C220.374 294.156 219.99 294.525 219.99 295C220.007 295.457 220.374 295.826 220.841 295.826Z" fill="#090761"/>
<path d="M59.9275 295.826H180.5C180.967 295.826 181.351 295.457 181.351 294.982C181.351 294.525 180.967 294.138 180.5 294.138H60.6949L50.568 171.702H176.396C176.863 171.702 177.247 171.333 177.247 170.858C177.247 170.401 176.863 170.014 176.396 170.014H49.6504C49.4168 170.014 49.1832 170.119 49.0331 170.278C48.8663 170.454 48.7995 170.682 48.8162 170.911L59.0766 295.035C59.11 295.492 59.477 295.826 59.9275 295.826Z" fill="#090761"/>
<path d="M180.5 171.702H185.739C186.206 171.702 186.589 171.333 186.589 170.858C186.589 170.401 186.206 170.014 185.739 170.014H180.5C180.033 170.014 179.649 170.383 179.649 170.858C179.649 171.333 180.033 171.702 180.5 171.702Z" fill="#090761"/>
<path d="M193.146 171.702H208.028C208.495 171.702 208.879 171.333 208.879 170.858C208.879 170.401 208.495 170.014 208.028 170.014H193.146C192.679 170.014 192.295 170.383 192.295 170.858C192.312 171.333 192.679 171.702 193.146 171.702Z" fill="#090761"/>
<path d="M152.071 283.713C152.071 281.128 154.19 279.019 156.809 279.019C159.412 279.019 161.531 281.128 161.531 283.713C161.531 286.297 159.412 288.407 156.809 288.407C154.19 288.407 152.071 286.297 152.071 283.713ZM153.756 283.713C153.756 285.383 155.124 286.719 156.792 286.719C158.461 286.719 159.829 285.365 159.829 283.713C159.829 282.06 158.461 280.706 156.792 280.706C155.124 280.706 153.756 282.06 153.756 283.713Z" fill="#090761"/>
<path d="M57.1914 203.559C57.2081 203.559 57.2415 203.559 57.2582 203.559C57.7253 203.524 58.0757 203.12 58.0423 202.663L56.741 184.941C56.7076 184.483 56.2571 184.114 55.84 184.167C55.3729 184.202 55.0225 184.607 55.0559 185.064L56.3572 202.786C56.3906 203.225 56.7576 203.559 57.1914 203.559Z" fill="#090761"/>
<path d="M57.9254 213.51C57.9421 213.51 57.9755 213.51 57.9921 213.51C58.4593 213.475 58.8096 213.071 58.7763 212.614L58.4426 208.095C58.4092 207.638 57.9921 207.269 57.5417 207.322C57.0746 207.357 56.7242 207.761 56.7576 208.218L57.0912 212.737C57.1246 213.176 57.4916 213.51 57.9254 213.51Z" fill="#090761"/>
<path d="M62.4801 275.133H246.266C246.734 275.133 247.117 274.764 247.117 274.289C247.117 273.832 246.734 273.445 246.266 273.445H63.2642L59.11 217.115C59.0766 216.64 58.6261 216.288 58.2091 216.341C57.7419 216.376 57.3916 216.78 57.4249 217.238L61.6459 274.342C61.6792 274.799 62.0463 275.133 62.4801 275.133Z" fill="#090761"/>
<path d="M427.817 346.197H539.531C540.465 346.197 541.232 345.441 541.232 344.509V327.402C541.232 326.471 540.482 325.715 539.531 325.715H524.966C524.032 325.715 523.264 326.471 523.264 327.402C523.264 328.334 524.015 329.09 524.966 329.09H537.846V342.839H427.834C426.9 342.839 426.132 343.595 426.132 344.527C426.116 345.441 426.883 346.197 427.817 346.197Z" fill="#FDAB11"/>
<path d="M393.049 346.197H405.228C406.162 346.197 406.93 345.441 406.93 344.509C406.93 343.577 406.179 342.821 405.228 342.821H393.049C392.114 342.821 391.347 343.577 391.347 344.509C391.347 345.441 392.114 346.197 393.049 346.197Z" fill="#FDAB11"/>
<path d="M228.782 346.197H384.957C385.891 346.197 386.659 345.441 386.659 344.509C386.659 343.577 385.908 342.821 384.957 342.821H228.782C227.848 342.821 227.08 343.577 227.08 344.509C227.097 345.441 227.848 346.197 228.782 346.197Z" fill="#FDAB11"/>
<path d="M38.706 345.23H218.956C219.89 345.23 220.657 344.474 220.657 343.542C220.657 342.61 219.906 341.854 218.956 341.854H38.706C37.7717 341.854 37.0043 342.61 37.0043 343.542C37.0043 344.474 37.7717 345.23 38.706 345.23Z" fill="#FDAB11"/>
<path d="M64.8992 417.648C65.6333 417.648 66.3006 417.419 66.5175 417.05L110.996 342.962C111.263 342.505 110.762 342.048 109.861 341.907C108.961 341.766 108.026 342.03 107.743 342.47L63.2642 416.558C62.9973 417.015 63.4978 417.472 64.3987 417.612C64.5822 417.63 64.749 417.648 64.8992 417.648Z" fill="#FDAB11"/>
<path d="M20.4374 467.755H34.8187C35.753 467.755 36.5204 467.368 36.5204 466.911C36.5204 466.436 35.7697 466.067 34.8187 466.067H20.4374C19.5032 466.067 18.7357 466.454 18.7357 466.911C18.7357 467.368 19.4865 467.755 20.4374 467.755Z" fill="#FDAB11"/>
<path d="M517.742 442.367C517.909 442.367 518.076 442.349 518.226 442.332C519.127 442.191 519.627 441.717 519.36 441.277L465.305 351.243C465.039 350.786 464.088 350.54 463.187 350.68C462.286 350.821 461.785 351.296 462.052 351.735L516.107 441.769C516.341 442.121 517.008 442.367 517.742 442.367Z" fill="#FDAB11"/>
<path d="M532.974 467.754H547.372C548.306 467.754 549.074 467.368 549.074 466.911C549.074 466.436 548.323 466.067 547.372 466.067H534.242L524.182 449.312C523.915 448.855 522.964 448.608 522.063 448.749C521.162 448.89 520.662 449.364 520.929 449.804L531.339 467.157C531.573 467.508 532.223 467.754 532.974 467.754Z" fill="#FDAB11"/>
<path d="M733.544 314.885C733.544 314.902 733.544 314.902 733.544 314.885C733.544 314.902 733.544 314.902 733.544 314.885ZM730.174 315.746C730.058 316.643 730.224 317.469 730.658 318.119C731.342 319.157 732.543 319.28 733.344 318.366C733.795 317.873 734.028 317.153 734.012 316.449C734.746 314.744 738.716 308.995 745.106 304.142C745.19 304.072 745.273 304.002 745.356 303.896C745.657 303.58 752.697 295.774 745.79 279.845C741.019 268.786 744.456 261.877 747.242 256.339C747.726 255.372 748.176 254.492 748.543 253.649C749.21 252.172 750.128 251.187 750.962 250.712C751.529 250.396 752.063 250.291 752.48 250.449C753.581 250.871 754.165 253.139 754.099 256.549C754.082 257.727 754.082 258.87 754.132 259.96C754.666 271.107 758.97 278.544 760.672 281.497C761.323 282.64 762.307 283.695 763.341 284.803C766.928 288.653 770.649 292.626 766.228 301.786C765.193 303.914 764.209 305.883 763.275 307.729C758.086 318.067 754.332 325.521 756.851 336.949C757.719 340.923 758.436 345.212 758.97 349.414C759.104 350.452 759.221 351.489 759.321 352.491C760.088 359.963 760.188 366.785 759.487 370.494H736.898C735.83 370.494 734.996 371.602 734.996 372.956C734.996 374.31 735.83 375.417 736.898 375.417H760.856C761.59 375.417 762.29 374.855 762.591 373.94C764.092 369.598 763.975 361.053 763.125 352.474C763.024 351.436 762.908 350.399 762.808 349.397C762.224 344.368 761.406 339.498 760.539 335.613C758.503 326.33 761.506 320.335 766.495 310.419C767.429 308.538 768.43 306.551 769.481 304.406C775.637 291.607 769.231 284.715 765.794 281.023C764.943 280.109 764.125 279.229 763.742 278.561C760.906 273.674 757.686 266.764 757.919 256.725C758.019 252.435 757.235 249.798 756.251 248.181C755.567 247.02 754.783 246.405 754.165 246.036C753.932 245.895 753.732 245.807 753.565 245.737C750.662 244.682 747.175 246.968 745.29 251.222C744.939 251.996 744.522 252.822 744.089 253.684C741.119 259.626 736.614 268.628 742.537 282.306C747.475 293.752 743.705 299.255 743.071 300.046C736.114 305.25 730.575 312.599 730.174 315.746Z" fill="#146ECF"/>
<path d="M681.358 375.365H667.761L667.194 374.38C655.732 354.689 659.553 344.562 667.894 326.893C674.568 312.775 667.094 304.67 659.87 296.828L658.318 295.123C653.797 290.112 650.51 280.284 649.943 270.052C649.392 260.083 651.528 250.994 655.982 244.453C658.802 240.304 661.455 238.757 663.857 239.9C669.196 242.432 669.746 257.956 669.813 261.05V261.191L669.796 261.332C669.78 261.56 668.395 283.678 676.72 290.464C686.447 298.393 692.82 312.898 693.087 313.513L689.767 315.939C689.7 315.799 683.577 301.892 674.685 294.648C664.691 286.491 665.842 263.318 665.976 261.05C665.826 253.772 664.408 245.438 662.522 244.559C661.955 244.295 660.671 244.981 658.802 247.741C655.048 253.279 653.23 261.085 653.713 269.718C654.197 278.561 657.033 287.264 660.771 291.396L662.305 293.066C669.563 300.943 679.506 311.737 671.131 329.495C663.223 346.25 660.303 353.915 669.663 370.459H681.358V375.365Z" fill="#146ECF"/>
<path d="M736.848 372.903H681.375C666.827 345.652 678.689 328.176 689.45 317.012C700.227 305.83 695.906 294.648 691.602 290.464C687.298 286.28 677.371 279.405 677.054 261.824C676.787 246.458 690.701 237.368 690.701 237.368C690.701 237.368 701.295 228.982 695.923 221.299C690.534 213.616 688.382 206.618 688.382 206.618C686.363 201.537 685.546 197.001 685.496 193.063C685.412 184.993 689.249 179.174 694.021 176.765C695.372 176.097 696.824 175.675 698.259 175.587C702.78 175.218 707.418 177.855 710.021 184.202C711.272 187.244 712.189 191.164 712.607 196.14C714.759 222.688 717.995 226.89 728.773 238.757C739.551 250.625 733.628 272.988 730.391 280.689C727.155 288.372 717.995 300.96 736.848 322.62C755.7 344.245 736.848 372.903 736.848 372.903Z" fill="#146ECF"/>
<path d="M709.003 372.904C708.903 373.29 708.769 373.695 708.636 374.046C708.286 375.084 707.501 375.699 706.667 375.699C706.367 375.699 706.083 375.611 705.783 375.453C704.982 375.013 704.515 373.994 704.515 372.904C704.515 372.534 704.582 372.112 704.715 371.761C728.323 303 694.388 178.155 694.054 176.924C694.038 176.871 694.038 176.818 694.004 176.748C695.356 176.08 696.807 175.658 698.242 175.57C701.078 185.978 732.043 303.65 709.003 372.904Z" fill="white"/>
<path d="M667.945 372.903H759.821C763.809 372.903 766.545 378.089 765.11 382.907L763.025 389.869C762.174 392.7 760.088 394.563 757.736 394.563H757.252C754.616 394.563 752.314 396.937 751.73 400.277L737.315 482.47C736.731 485.811 734.429 488.184 731.793 488.184H695.94C693.304 488.184 691.018 485.828 690.417 482.505L675.619 400.242C675.018 396.919 672.733 394.563 670.097 394.563C667.794 394.563 665.709 392.735 664.841 389.957L662.673 382.995C661.188 378.16 663.924 372.903 667.945 372.903Z" fill="#AAC5ED"/>
<path d="M717.478 396.409H665.325L657.434 371.057H768.096V374.749H661.671L667.244 392.717H717.478V396.409Z" fill="#146ECF"/>
<path d="M728.489 392.717H720.147V396.427H728.489V392.717Z" fill="#146ECF"/>
<path d="M690.05 488.606L673.217 394.985L675.986 394.141L692.836 487.762L690.05 488.606Z" fill="#146ECF"/>
<path d="M448.505 502.97H314.319C313.001 502.97 311.933 501.845 311.933 500.456C311.933 499.067 313.001 497.942 314.319 497.942H448.505C449.823 497.942 450.891 499.067 450.891 500.456C450.874 501.845 449.806 502.97 448.505 502.97Z" fill="#FEA711"/>
<path d="M302.991 502.97H291.93C290.612 502.97 289.544 501.845 289.544 500.456C289.544 499.067 290.612 497.942 291.93 497.942H302.991C304.309 497.942 305.377 499.067 305.377 500.456C305.377 501.845 304.309 502.97 302.991 502.97Z" fill="#FEA711"/>
<path d="M278.85 66.7409L302.991 38.8745L301.723 33.3715L290.712 26.8312L270.558 58.4953L278.85 66.7409Z" fill="#2F55B8"/>
<path d="M260.164 68.8331L266.671 34.9538L291.496 10.8849L290.111 39.0503L260.164 68.8331Z" fill="#89A8E8"/>
<path d="M275.646 37.6438C275.463 37.6438 275.296 37.5383 275.213 37.3449C275.079 37.046 272.11 29.8025 278.7 20.0448C280.351 17.5834 280.968 15.0517 280.518 12.5024C279.717 8.01915 275.847 4.69626 274.645 3.76445C273.127 5.6105 271.142 4.97757 270.258 4.34464C270.041 4.18641 269.991 3.86994 270.141 3.64138C270.291 3.41282 270.591 3.36008 270.808 3.50073C271.008 3.64138 272.81 4.81933 274.178 2.77989C274.328 2.55134 274.612 2.49859 274.829 2.65682C275.063 2.81506 280.451 6.59505 281.469 12.309C281.969 15.1396 281.302 17.935 279.5 20.625C273.227 29.908 276.08 36.8526 276.114 36.9229C276.214 37.1691 276.114 37.468 275.88 37.591C275.78 37.6262 275.713 37.6438 275.646 37.6438Z" fill="#3E4287"/>
<path d="M270.842 3.74685C270.591 3.74685 270.374 3.53588 270.374 3.27216C270.358 2.99086 270.575 2.7623 270.825 2.74472L273.878 2.60406C273.127 0.828345 271.442 1.07448 271.225 1.12723C270.958 1.17997 270.725 0.986578 270.675 0.722857C270.625 0.459136 270.792 0.195416 271.058 0.142672C272.143 -0.068305 274.345 0.265741 274.996 2.95569C275.029 3.09634 274.996 3.25458 274.912 3.37765C274.829 3.50072 274.696 3.57104 274.545 3.57104L270.858 3.74685C270.858 3.74685 270.858 3.74685 270.842 3.74685Z" fill="#3E4287"/>
<path d="M274.545 3.58865C274.445 3.58865 274.345 3.55349 274.262 3.48316C273.444 2.83265 271.542 2.72716 270.892 2.74474C270.608 2.74474 270.408 2.53377 270.408 2.25247C270.408 1.97116 270.608 1.74261 270.875 1.74261C270.975 1.74261 273.578 1.68986 274.829 2.67442C275.046 2.85023 275.079 3.14912 274.929 3.37767C274.829 3.51832 274.679 3.58865 274.545 3.58865Z" fill="#3E4287"/>
<path d="M280.234 72.0072C280.909 67.6175 279.406 63.709 276.878 63.2773C274.349 62.8457 271.753 66.0544 271.078 70.4442C270.403 74.834 271.906 78.7425 274.434 79.1741C276.963 79.6057 279.559 76.397 280.234 72.0072Z" fill="#F7F9FB"/>
<path d="M333.172 259.855L299.321 338.936C296.101 349.115 291.312 357.414 292.013 368.121C292.23 371.514 294.649 381.36 295.834 385.122C301.072 401.684 334.957 474.611 334.957 474.611C334.957 474.611 332.171 484.14 329.201 494.39C329.201 494.39 329.902 498.047 338.977 489.467C342.214 486.408 344.4 481.222 345.351 477.916C346.685 473.257 346.118 469.882 344.733 465.24L317.739 374.837C317.122 371.092 318.14 369.352 319.374 366.925L377.667 271.722L348.837 257.974L333.172 259.855Z" fill="#0953BB"/>
<path d="M339.144 257.27L335.324 340.641C333.872 348.887 336.442 355.955 341.73 360.245C347.202 364.693 354.61 365.396 360.766 362.055L432.356 323.165C432.356 323.165 437.594 328.493 447.888 329.741C448.389 329.794 448.689 329.161 448.322 328.791L432.673 312.476L371.944 327.35L378.501 295.158C382.221 274.852 377.65 264.074 368.674 256.04C350.639 239.83 339.144 257.27 339.144 257.27Z" fill="#196ECD"/>
<path d="M373.613 174.726C371.811 171.878 369.659 168.396 367.34 164.529C364.704 160.133 359.849 157.707 355.161 156.353C349.305 154.665 343.115 154.63 337.176 155.949C329.434 157.689 324.262 158.885 324.146 158.92C319.157 160.168 314.469 160.889 310.515 158.674C302.907 154.402 291.613 144.433 283.221 121.243C276.597 102.976 277.615 77.8875 277.615 77.8875L271.743 76.8503C271.743 76.8503 268.639 88.8759 267.905 97.7018C267.071 107.969 266.754 119.925 270.374 139.264C275.697 167.64 303.091 190.338 303.091 190.338C303.408 190.637 303.758 190.918 304.125 191.217C309.231 195.261 313.018 200.869 315.17 207.216C321.593 226.046 333.188 259.855 333.188 259.855C357.997 264.496 366.739 254.369 366.739 254.369L378.534 182.356C378.518 182.374 376.566 179.42 373.613 174.726Z" fill="#232374"/>
<path d="M341.597 162.454C335.707 162.19 336.975 156.881 336.975 156.881L336.942 153.962L334.072 146.666L343.782 138.297C343.782 138.297 343.849 139.176 343.966 140.548C343.966 140.565 343.966 140.565 343.966 140.565C343.982 140.653 343.982 140.723 343.982 140.811C344.316 145.172 347.903 154.068 348.587 155.509C349.538 157.443 347.686 162.718 341.597 162.454Z" fill="#F7F9FB"/>
<path d="M343.982 140.548C342.314 147.404 336.275 152.257 336.275 152.257L334.089 146.666L343.799 138.297C343.799 138.297 343.866 139.176 343.982 140.548Z" fill="#A0BFEF"/>
<path d="M322.411 113.507C322.411 113.507 317.789 142.622 327.566 147.914C327.566 147.914 335.474 151.677 341.18 142.482C347.636 132.073 349.638 129.383 349.638 129.383C349.638 129.383 343.032 113.507 334.306 113.507C325.58 113.507 322.411 113.507 322.411 113.507Z" fill="#F7F9FB"/>
<path d="M357.997 122.333C357.897 125.041 356.478 128.329 354.693 131.106C352.124 135.115 347.803 143.747 344.75 142.499C341.713 141.233 341.046 135.818 343.999 134.148C345.701 133.181 346.118 130.737 346.168 128.838C346.185 127.748 345.834 126.711 345.184 125.92C345.167 125.902 345.15 125.885 345.15 125.885C344.683 125.34 344.083 124.935 343.382 124.742C340.846 124.039 340.646 127.309 340.646 127.309C340.646 127.309 340.779 131.353 338.527 131.106C336.275 130.86 332.054 126.061 328.083 121.753C324.112 117.428 321.993 116.69 321.993 116.69C321.309 122.351 321.309 129.137 321.309 129.137C321.309 129.137 311.166 120.663 318.24 111.556C320.142 109.094 323.295 106.598 328.216 104.207C336.875 100.005 342.948 102.853 346.351 105.736C348.137 107.231 349.455 109.235 350.356 111.45C351.24 113.648 353.042 116.637 355.361 117.657C357.346 118.501 358.063 120.241 357.997 122.333Z" fill="#FED46B"/>
<path d="M357.997 122.333C357.896 125.041 356.478 128.329 354.693 131.106C352.124 135.115 347.803 143.747 344.75 142.499C341.713 141.233 341.046 135.818 343.999 134.148C345.701 133.181 346.118 130.737 346.168 128.838C346.185 127.748 345.834 126.711 345.184 125.92C345.784 126.395 354.009 133.058 357.997 122.333Z" fill="#FEC03E"/>
<path d="M322.01 116.672C321.326 122.333 321.326 129.12 321.326 129.12C321.326 129.12 311.182 120.645 318.256 111.538C316.772 115.705 322.01 116.672 322.01 116.672Z" fill="#FEC03E"/>
<path d="M422.846 27.1829C422.846 27.1829 428.618 34.3209 429.536 40.9667C429.536 40.9667 400.456 52.6055 387.093 61.4314C373.729 70.2748 367.623 74.3361 367.623 74.3361C367.623 74.3361 359.982 65.6861 361.116 60.4293C361.116 60.4293 399.439 44.395 422.846 27.1829Z" fill="#6889D6"/>
<path d="M396.969 43.1643C396.969 43.1643 401.424 52.0253 402.458 52.9747L395.918 56.2976L391.264 46.1883L396.969 43.1643Z" fill="#F2F5FC"/>
<path d="M401.577 56.0806C402.72 54.0182 402.061 51.3695 400.104 50.1644C398.147 48.9593 395.633 49.6543 394.49 51.7167C393.346 53.779 394.006 56.4278 395.963 57.6328C397.92 58.8379 400.433 58.1429 401.577 56.0806Z" fill="#FEC03E"/>
<path d="M389.069 73.4008C391.526 72.6355 392.547 68.5578 391.351 64.293C390.154 60.0282 387.193 57.1912 384.737 57.9565C382.28 58.7218 381.259 62.7995 382.455 67.0643C383.651 71.3291 386.613 74.166 389.069 73.4008Z" fill="#F7F9FB"/>
<path d="M356.846 156.881C347.519 156.318 341.363 185.152 373.996 187.49C373.996 187.49 398.438 161.329 400.323 132.46C401.608 112.787 399.856 100.972 397.787 90.8978C396.002 82.2302 391.481 70.7144 391.481 70.7144L385.775 72.5253C385.775 72.5253 387.944 96.9282 385.408 116.285C382.872 135.66 368.524 157.602 356.846 156.881Z" fill="#232374"/>
<path d="M351.757 364.745C347.92 364.745 344.633 363.673 341.964 361.51C333.872 355.005 334.356 341.186 334.373 340.606L336.875 285.805C336.909 285.26 337.359 284.803 337.876 284.856C338.393 284.891 338.81 285.348 338.777 285.91L336.275 340.712C336.275 340.835 335.824 354.073 343.115 359.946C347.202 363.233 353.008 363.638 360.399 361.159L431.921 322.304C432.389 322.04 432.956 322.234 433.206 322.743C433.44 323.236 433.256 323.834 432.789 324.097L361.2 362.97C361.15 362.987 361.1 363.022 361.05 363.04C357.663 364.183 354.56 364.745 351.757 364.745Z" fill="#090761"/>
<path d="M344.733 466.26C344.333 466.26 343.949 465.979 343.832 465.557L317.122 376.103L311.166 378.054C310.665 378.213 310.132 377.931 309.981 377.404C309.831 376.877 310.098 376.314 310.599 376.156L317.456 373.905C317.956 373.747 318.49 374.028 318.64 374.556L345.634 464.959C345.784 465.487 345.517 466.049 345.017 466.208C344.933 466.243 344.833 466.26 344.733 466.26Z" fill="#090761"/>
<path d="M317.739 375.839C317.589 375.839 317.439 375.804 317.305 375.734L310.448 371.989C309.981 371.743 309.798 371.127 310.048 370.635C310.282 370.143 310.865 369.949 311.333 370.213L318.19 373.958C318.657 374.204 318.84 374.819 318.59 375.312C318.423 375.646 318.089 375.839 317.739 375.839Z" fill="#090761"/>
<path d="M346.435 262.316C339.361 262.316 333.455 260.962 332.971 260.839C332.654 260.769 332.387 260.523 332.287 260.206C332.287 260.206 317.472 216.939 314.269 207.568C311.199 198.584 302.574 191.217 302.49 191.129C287.575 179.332 277.415 160.626 277.315 160.432C276.981 159.922 268.105 146.068 266.721 118.958C265.353 91.9175 270.625 77.114 270.842 76.4986C271.025 75.9888 271.576 75.725 272.076 75.9184C272.56 76.1118 272.81 76.692 272.627 77.2195C272.577 77.3601 267.271 92.2867 268.623 118.852C269.974 145.347 278.833 159.237 278.916 159.377C279.067 159.641 289.043 177.978 303.658 189.547C304.059 189.881 312.801 197.353 316.054 206.882C319.041 215.638 332.204 254.035 333.889 258.993C337.342 259.714 357.496 263.371 366.038 253.701C366.405 253.297 367.006 253.279 367.39 253.649C367.773 254.018 367.79 254.668 367.44 255.073C362.318 260.857 353.742 262.316 346.435 262.316Z" fill="#0953BB"/>
<path d="M336.992 164.019C336.992 164.019 339.128 165.935 338.677 168.643C336.758 179.842 333.388 211.242 349.255 238.283C349.255 238.283 351.357 241.852 352.708 239.707C353.259 238.828 353.292 237.702 352.908 236.735C350.372 230.265 338.127 197.16 341.28 168.713C341.463 167.008 344.717 164.493 344.717 164.493L340.112 162.436L336.992 164.019Z" fill="white"/>
<path d="M340.129 162.472L336.992 164.037C336.992 164.037 339.128 165.953 338.677 168.661C336.758 179.86 333.388 211.26 349.255 238.301C349.255 238.301 350.506 240.41 351.69 240.41C352.041 240.41 352.408 240.217 352.708 239.725C353.259 238.846 353.292 237.72 352.908 236.753C350.372 230.283 338.127 197.178 341.28 168.731C341.463 167.026 344.717 164.511 344.717 164.511L340.129 162.472Z" fill="#79AAE3"/>
<path d="M349.021 153.874L352.458 155.263C353.759 155.791 354.193 157.496 353.342 158.639L346.068 168.432C345.117 169.715 343.215 169.487 342.564 168.01L340.329 163.843C339.978 163.052 340.112 162.102 340.679 161.452L346.752 154.437C347.319 153.769 348.237 153.54 349.021 153.874Z" fill="white"/>
<path d="M335.173 154.191L332.087 155.738C330.836 156.16 330.302 157.813 331.036 159.008L334.439 168.045C335.24 169.381 337.042 169.293 337.743 167.869L339.878 163.614C340.262 162.858 340.195 161.909 339.711 161.241L337.259 154.929C336.775 154.208 335.941 153.927 335.173 154.191Z" fill="white"/>
<path d="M575.784 263.6L543.535 283.502L532.624 367.33C532.624 367.33 534.092 380.744 542.851 389.113C550.542 396.48 595.204 440.504 605.998 451.14C607.5 452.617 608.451 454.516 608.718 456.573C609.151 459.755 610.97 463.131 612.371 470.286C612.522 471.025 613.723 470.902 613.956 470.181C615.124 466.559 616.809 460.37 618.311 455.149C618.995 452.775 618.578 450.226 617.176 448.187L565.624 372.798C563.889 370.266 563.589 367.066 564.823 364.271C570.813 350.891 582.791 314.322 584.71 305.039C586.996 293.822 586.528 275.977 575.784 263.6Z" fill="#090761"/>
<path d="M446.737 182.163L459.783 139.282L522.23 157.355L509.2 200.219L446.737 182.163Z" fill="white"/>
<path d="M462.669 144.486L516.908 160.168L506.314 195.032L452.075 179.35L462.669 144.486ZM456.897 134.095L441.431 184.958L512.086 205.388L527.552 154.525L456.897 134.095Z" fill="#79AAE3"/>
<path d="M499.757 188.422L460.484 177.064L468.675 150.129L507.949 161.487L499.757 188.422Z" fill="#DBE7F7"/>
<path d="M496.52 188.703C499.11 188.703 501.209 186.656 501.209 184.132C501.209 181.607 499.11 179.561 496.52 179.561C493.931 179.561 491.832 181.607 491.832 184.132C491.832 186.656 493.931 188.703 496.52 188.703Z" fill="#FED46B"/>
<path d="M581.523 179.086L575.851 264.901C560.819 277.137 536.978 269.489 536.978 269.489C536.978 269.489 535.944 267.731 534.275 264.373C531.69 259.169 527.602 250.15 523.515 237.966C521.162 230.933 519.544 222.494 518.459 214.53C516.441 199.779 516.207 186.593 516.207 186.593C516.207 186.593 520.895 163.456 549.391 161.979C577.886 160.502 581.523 179.086 581.523 179.086Z" fill="#FDC95F"/>
<path d="M535.343 164.388C535.594 162.102 535.193 158.375 534.809 155.703C534.559 153.839 534.309 152.485 534.309 152.485C534.309 152.485 541.082 146.842 543.168 152.186C543.235 152.362 543.301 152.556 543.351 152.749C545.17 159.026 547.689 161.61 547.689 161.61C548.123 165.249 535.026 167.219 535.343 164.388Z" fill="#F7F9FB"/>
<path d="M544.653 149.602C542.651 151.606 537.312 157.109 535.026 157.338C534.776 155.474 534.309 152.503 534.309 152.503C534.309 152.503 542.567 144.257 544.653 149.602Z" fill="#A0BFEF"/>
<path d="M533.441 115.266C527.752 116.285 523.615 121.103 523.281 126.729C522.68 136.768 524.432 153.417 534.442 153.417C538.213 153.417 540.215 150.323 541.333 150.147C555.213 147.914 555.03 134.095 555.03 134.095C555.03 134.095 557.966 114.721 543.552 115.002C543.001 115.019 542.45 115.019 541.883 114.949C540.515 114.791 537.245 114.58 533.441 115.266Z" fill="#F7F9FB"/>
<path d="M558.734 131.054C558.4 133.216 557.666 135.607 556.448 137.998C552.611 145.611 552.611 145.611 552.611 145.611C552.611 145.611 550.659 149.303 549.141 151.044C546.188 154.437 541.433 155.984 539.764 154.085C538.964 153.153 536.494 145.998 530.055 138.227C527.552 135.22 524.466 132.109 520.628 129.243C518.176 127.414 515.573 122.456 515.373 120.259C514.706 112.734 521.563 106.387 526.534 107.266C531.523 108.163 539.581 112.716 547.022 112.119C554.446 111.521 553.111 118.571 553.111 118.571C553.111 118.571 552.761 121.103 556.064 122.052C558.333 122.72 559.468 126.377 558.734 131.054Z" fill="#196ECD"/>
<path d="M606.216 84.2566C608.738 83.843 610.296 80.2098 609.695 76.1418C609.094 72.0738 606.563 69.1114 604.041 69.525C601.519 69.9387 599.961 73.5718 600.562 77.6398C601.163 81.7079 603.695 84.6703 606.216 84.2566Z" fill="#F7F9FB"/>
<path d="M470.631 198.435C473.084 197.892 474.457 194.37 473.698 190.569C472.94 186.768 470.337 184.127 467.884 184.671C465.432 185.215 464.058 188.736 464.817 192.537C465.575 196.338 468.178 198.979 470.631 198.435Z" fill="#F7F9FB"/>
<path d="M563.322 162.7C553.979 162.384 548.64 187.085 580.522 194.241C580.522 194.241 602.244 166.111 608.401 140.02C612.605 122.245 612.638 111.169 612.104 101.658C611.637 93.4646 608.901 82.2477 608.901 82.2477L602.995 83.0213C602.995 83.0213 601.494 105.649 596.088 122.949C590.699 140.266 577.119 163.157 563.322 162.7Z" fill="#FDC95F"/>
<path d="M539.247 200.588C539.247 200.588 535.844 221.193 534.309 263.6C534.292 263.863 534.292 264.109 534.275 264.356C531.69 259.151 527.602 250.132 523.515 237.948C521.162 230.916 519.544 222.477 518.459 214.512L539.247 200.588Z" fill="#FEC03E"/>
<path d="M517.775 181.618C517.775 181.618 521.345 171.42 534.659 176.519C547.972 181.618 537.278 203.419 537.278 203.419C537.278 203.419 497.088 267.274 477.117 239.689C474.498 236.067 468.325 220.332 466.173 196.702C466.173 196.702 470.928 195.999 473.547 194.839C473.547 194.839 487.344 251.24 509.934 200.412L517.775 181.618Z" fill="#FDC95F"/>
<path d="M536.978 269.472C536.978 269.472 563.572 275.502 575.784 263.6C575.784 263.6 578.57 287.088 561.47 320.106C550.292 341.679 544.186 353.81 541.299 359.629C539.881 362.477 539.281 365.642 539.564 368.807L549.024 477.372C549.458 482.382 547.089 487.252 542.801 490.03C540.232 491.7 536.811 493.529 532.34 495.252C531.706 495.498 531.089 494.847 531.406 494.267C532.891 491.472 535.31 486.848 537.178 482.962C538.246 480.73 538.446 478.215 537.729 475.86L507.015 375.083C505.413 369.844 505.313 364.288 506.698 358.996L536.978 269.472Z" fill="#232374"/>
<path d="M599.291 12.4497L581.573 42.7951L583.959 47.4894L596.072 51.0232L609.118 18.1109L599.291 12.4497Z" fill="#2F55B8"/>
<path d="M617.093 6.54233L617.81 38.5404L598.641 65.5806L594.103 39.859L617.093 6.54233Z" fill="#89A8E8"/>
<path d="M558.734 131.054C558.4 133.216 557.666 135.607 556.448 137.998C552.611 145.611 552.611 145.611 552.611 145.611C552.611 145.611 550.659 149.303 549.141 151.044C546.188 154.437 541.433 155.984 539.764 154.085C538.963 153.153 534.292 144.029 523.181 131.054C523.181 131.054 534.642 141.726 544.636 142.974C551.143 143.783 556.999 138.473 558.734 131.054Z" fill="#0953BB"/>
<path d="M490.281 247.583C488.312 247.583 486.427 247.179 484.642 246.387C467.808 238.863 465.305 198.461 465.222 196.755C465.205 196.492 465.305 196.245 465.489 196.052C465.672 195.859 465.923 195.753 466.206 195.771C466.24 195.771 469.943 195.876 473.063 194.048C473.514 193.784 474.098 193.925 474.365 194.364C474.632 194.804 474.481 195.366 474.031 195.63C471.478 197.124 468.676 197.511 467.191 197.599C467.675 203.805 470.995 238.247 485.443 244.7C490.448 246.932 496.42 245.491 503.177 240.427C503.211 240.41 503.227 240.392 503.261 240.375C503.411 240.287 518.042 231.32 538.997 196.245C539.264 195.806 539.848 195.648 540.298 195.911C540.749 196.175 540.899 196.738 540.649 197.177C519.777 232.094 505.396 241.271 504.295 241.939C499.257 245.702 494.569 247.583 490.281 247.583Z" fill="#FEA711"/>
<path d="M729.123 502.97H581.323C580.005 502.97 578.938 501.933 578.938 500.649C578.938 499.366 580.005 498.329 581.323 498.329H729.123C730.441 498.329 731.509 499.366 731.509 500.649C731.492 501.933 730.441 502.97 729.123 502.97Z" fill="#FEA711"/>
<path d="M571.446 502.97H492.934C491.616 502.97 490.548 501.933 490.548 500.649C490.548 499.366 491.616 498.329 492.934 498.329H571.446C572.764 498.329 573.832 499.366 573.832 500.649C573.832 501.933 572.764 502.97 571.446 502.97Z" fill="#FEA711"/>
<path d="M629.205 62.75C626.886 62.75 623.216 62.3632 620.396 60.2359C618.244 58.6008 616.976 56.2449 616.643 53.2033C615.491 42.7424 608.985 39.7536 608.918 39.7184C608.684 39.6129 608.568 39.3316 608.684 39.1031C608.784 38.8745 609.068 38.769 609.318 38.8745C609.602 38.9976 616.392 42.0919 617.593 53.0978C617.894 55.8757 619.045 58.0206 620.98 59.4975C624.4 62.0819 629.389 61.8709 630.874 61.7479C630.857 59.4799 632.726 58.636 633.793 58.5129C634.044 58.4777 634.294 58.6536 634.327 58.9173C634.361 59.1634 634.177 59.4096 633.91 59.4271C633.677 59.4623 631.574 59.7963 631.841 62.1171C631.875 62.3632 631.691 62.5918 631.441 62.6269C631.341 62.6445 630.473 62.75 629.205 62.75Z" fill="#3E4287"/>
<path d="M633.176 63.2247C632.542 63.2247 631.841 63.0313 631.107 62.5566C630.99 62.4863 630.907 62.3456 630.907 62.205C630.89 62.0643 630.94 61.9237 631.057 61.8358L633.71 59.3392C633.893 59.1634 634.194 59.1634 634.377 59.3568C634.561 59.5502 634.561 59.8315 634.36 60.0073L632.158 62.0819C633.827 62.8203 634.944 61.5545 635.078 61.3963C635.245 61.2029 635.545 61.1677 635.745 61.3259C635.945 61.4842 635.979 61.783 635.829 61.9764C635.378 62.5039 634.41 63.2247 633.176 63.2247Z" fill="#3E4287"/>
<path d="M631.374 62.627C631.124 62.627 630.923 62.4336 630.907 62.205C630.89 61.9413 631.074 61.7303 631.341 61.7127C632.375 61.6424 633.843 60.482 634.327 60.0425C634.527 59.8667 634.827 59.8842 634.994 60.0601C635.178 60.2535 635.161 60.5348 634.978 60.7106C634.894 60.7809 632.992 62.5039 631.424 62.627C631.407 62.627 631.391 62.627 631.374 62.627Z" fill="#3E4287"/>
<path d="M472.212 127.855L496.22 135.169L472.212 127.855Z" fill="white"/>
<path d="M496.22 135.677C496.17 135.677 496.137 135.677 496.087 135.66L472.079 128.346C471.829 128.276 471.679 127.994 471.762 127.731C471.829 127.467 472.096 127.309 472.346 127.397L496.354 134.711C496.604 134.781 496.754 135.062 496.671 135.326C496.604 135.537 496.42 135.677 496.22 135.677Z" fill="#3E4287"/>
<path d="M494.669 141.304C494.618 141.304 494.585 141.304 494.535 141.286L470.527 133.972C470.277 133.902 470.127 133.62 470.21 133.357C470.277 133.093 470.544 132.935 470.794 133.023L494.802 140.337C495.052 140.407 495.202 140.688 495.119 140.952C495.069 141.163 494.885 141.304 494.669 141.304Z" fill="#090761"/>
</g>
<defs>
<clipPath id="clip0_10_18">
<rect width="579" height="410.686" fill="white" transform="translate(87.5232 18.1628)"/>
</clipPath>
<clipPath id="clip1_10_18">
<rect width="772" height="502.88" fill="white" transform="translate(0 0.0899658)"/>
</clipPath>
</defs>
</svg>
