<?xml version="1.0" encoding="utf-8"?>
<!-- Generator: Adobe Illustrator 24.2.3, SVG Export Plug-In . SVG Version: 6.00 Build 0)  -->
<svg version="1.1" id="Capa_1" xmlns="http://www.w3.org/2000/svg" xmlns:xlink="http://www.w3.org/1999/xlink" x="0px" y="0px"
	 viewBox="0 0 400 400" style="enable-background:new 0 0 400 400;" xml:space="preserve">
<style type="text/css">
	.st0{fill:#F1F5F9;}
	.st1{fill:#0E1529;}
	.st2{fill-rule:evenodd;clip-rule:evenodd;fill:#0E1529;}
</style>
<rect x="1" y="1" class="st0" width="398" height="398"/>
<g id="content-media-images--content-media-images-photo-photography">
	<g id="details">
		<path id="vector" class="st1" d="M314.9,199.3c0,5.5-0.9,4,4.6,3.7c2.3-0.1,4.7,0.9,3.1,2.1c-1.2,0.9-2,1.1-6.3,1.5
			c-1.9,0.2-1.4-0.3-1.5,5.9c-0.1,6.7-0.2,6-0.3,6.7c-0.1,0.2-0.2,0.4-0.3,0.5c-0.2,0.1-0.4,0.2-0.6,0.2c-0.2,0-0.4,0-0.6-0.1
			c-0.2-0.1-0.3-0.3-0.4-0.5c-0.7-1.2-0.8-7.8-0.9-9.5c-0.1-3,0.3-2.9-0.6-3c-2.4,0,0,0.1-6-0.2c-1.7-0.1-2.3-2.7,1.7-2.9
			c5.1-0.4,4.9,0.1,5-0.8c0.9-7.5-0.6-11.5,1.5-11.8c1.2-0.2,1.5,1.3,1.6,2.4C314.7,193.8,315.1,199.4,314.9,199.3z"/>
		<path id="vector_2" class="st1" d="M171,82.1c0-1,0.2-2.1,1.2-2.1c1.3,0,1.1,1.3,1.2,7.1c0,0.9-0.1,0.8,0.8,0.8
			c1.9,0,6-0.1,4.8,0.9c-1.6,0.8-3.2,1.3-4.9,1.6c-1,0.1-0.6-0.1-0.9,6.1c-0.2,1.1-0.2,2.2-0.2,3.3c0.1,1-1.8,0.9-2.1-4.2
			c-0.2-4.5,0.1-4.7-0.6-4.7c-1.5,0.1-2.9,0-4.3-0.3c-0.3,0-0.5-0.1-0.7-0.3c-0.2-0.2-0.3-0.5-0.3-0.7c0-0.3,0.1-0.6,0.2-0.8
			c0.2-0.2,0.4-0.4,0.7-0.4C171.9,87.3,170.6,90.8,171,82.1z"/>
		<path id="vector_3" class="st1" d="M262.6,102.1c0-1.7,0.7-3.2,1.8-4.4c1.2-1.2,2.7-1.8,4.4-1.9c1.2,0,2.4,0.4,3.5,1
			c1,0.7,1.8,1.7,2.3,2.8c0.5,1.1,0.6,2.4,0.4,3.6c-0.2,1.2-0.8,2.3-1.7,3.2c-0.9,0.9-2,1.5-3.2,1.7c-1.2,0.2-2.5,0.1-3.6-0.3
			c-1.1-0.5-2.1-1.3-2.8-2.3C262.9,104.5,262.6,103.3,262.6,102.1L262.6,102.1z M268.8,97.7c-0.5,0-1.1,0.1-1.6,0.3
			c-0.5,0.2-1,0.5-1.4,0.9c-0.4,0.4-0.7,0.8-0.9,1.3c-0.2,0.5-0.3,1-0.3,1.6c0,1.1,0.5,2.1,1.2,2.9c0.8,0.8,1.8,1.2,2.9,1.3
			c0.6,0,1.1-0.1,1.6-0.2c0.5-0.2,1-0.5,1.4-0.9c0.4-0.4,0.7-0.9,1-1.4c0.2-0.5,0.3-1.1,0.3-1.6c0-0.6-0.1-1.1-0.3-1.6
			c-0.2-0.5-0.5-1-0.9-1.4c-0.4-0.4-0.9-0.7-1.4-0.9C269.9,97.8,269.4,97.7,268.8,97.7z"/>
		<path id="vector_4" class="st1" d="M171.2,311.4c6.8-0.2,7,2,6.3,1.9c-1.2,0.1-2.3,0.2-3.4,0.5c-3.4,0.4-3.4,0-3.4,0.9
			c0,4.2,0.4,5.7-0.7,5.1c-0.9-0.5-1.1-2.4-1.2-3.3c-0.4-3.3,0.6-2-2.9-2.2c-0.8,0-1.7-0.1-2.5-0.4c-0.9-0.4-1-2,1.3-2.2
			c5-0.5,3.7,0.5,4.1-3.3c0.1-0.9,0.3-1.9,0.5-2.8c0.1-0.2,0.2-0.3,0.4-0.4c0.2-0.1,0.4-0.1,0.6-0.1c0.2,0,0.4,0.1,0.5,0.3
			c0.1,0.2,0.2,0.3,0.2,0.5C170.9,311.2,170.5,311.4,171.2,311.4z"/>
		<path id="vector_5" class="st1" d="M76.9,142.1c0-0.5,0.1-1,0.3-1.5c0.2-0.5,0.5-0.9,0.9-1.3c0.4-0.4,0.8-0.7,1.3-0.9
			c0.5-0.2,1-0.3,1.5-0.3c0.5,0,1,0.1,1.5,0.3c0.5,0.2,0.9,0.5,1.3,0.9c0.4,0.4,0.7,0.8,0.9,1.3c0.2,0.5,0.3,1,0.3,1.5
			C85,147.1,77.2,147.6,76.9,142.1z M81,139.3c-3.5,0-3.3,4.9-0.1,5.1C84.1,144.7,84.3,139.4,81,139.3z"/>
	</g>
	<g id="image_3">
		<path id="Subtract" class="st2" d="M281.1,132.8c1.3,0,3,0.2,3.2,1.5c0.1,0.1,3.3,120.9,3.1,126.4c-0.1,2.9-0.5,2.9-1.9,2.9h0
			c-4.9,0.1-9.7,0.3-14.6,0.4c0-0.7,0-1.3-0.1-2.1c7.1-0.1,11.9-0.1,13.4-0.1c0.8,0,1-0.5,1-0.6c-0.1-2.1-3.3-114.7-3-125.7
			c0-0.2,0.1-0.3,0.1-0.4c-0.3-1-9.6,0.5-163,3.1c-0.1,0-0.3,0-0.5,0c-1,0-1.9,0-2,0.9c0,0.7,0.1,5.3,0.3,12.3c-0.7,0-1.4,0-2.1,0
			c-0.1-6.6-0.2-11.1-0.2-12.2c0-2.4,0.5-2.7,2-2.8C123.7,136.3,201.6,133.9,281.1,132.8z"/>
	</g>
	<g id="image_2">
		<path id="Subtract_2" class="st2" d="M267.1,146.3c1.3,0,3,0.2,3.2,1.5c0.1,0.1,3.3,120.9,3.1,126.4c-0.1,2.9-0.5,2.9-1.9,2.9h0
			c-4.5,0.1-9,0.3-13.4,0.4c0-0.7,0-1.3-0.1-2c6.4-0.1,10.8-0.1,12.2-0.1c0.8,0,1-0.5,1-0.6c-0.1-2.1-3.3-114.7-3-125.7
			c0-0.2,0.1-0.3,0.1-0.4c-0.3-1-9.6,0.5-163,3.1c-0.1,0-0.3,0-0.5,0c-1,0-1.9,0-2,0.9c0,0.6,0.1,4.9,0.2,11.6c-0.7,0-1.3,0-1.8,0
			c-0.1,0-0.1,0-0.2,0c-0.1-6.2-0.2-10.3-0.2-11.5c0-2.4,0.5-2.7,2-2.8C109.7,149.7,187.6,147.4,267.1,146.3z"/>
	</g>
	<g id="image_1">
		<path id="vector_6" class="st1" d="M256.8,161.7c0-2.8-3.5-2-9.5-2.2c-29-0.6-74.6,2.3-108.5,2.7c-25.4,0.3-47.8,0.9-48.6,1
			c-2.3,0.2-2.5,1-2.5,3.3c-0.9,33.4,2.7,124.3,3.1,126.2c0.1,0.5,0.4,0.9,0.8,1.2c0.4,0.3,0.9,0.4,1.4,0.4c7.4,0,12.6,0.1,17.9-0.1
			c41.4-2.2,143-3.4,147.4-3.9c0.9-0.1,1.2-0.3,1.3-3.1L256.8,161.7z M257,253.7c-0.7-0.4-29.7-29-44.5-33.8
			c-8-2.6-13.4,0.4-33.1,17c-24.3,20.4-41.4,38.2-52.1,48c-1.7,1.6-1.9,0.8-1.5,0.3c3.1-3.8,20.6-22.2,34.3-34.6
			c0.4-0.3,0.3-0.4,0-0.7c-4.5-4.9-10-8.9-16.1-11.7c-2.4-1.1-5-1.7-7.7-1.8c-14.1-0.6-42.9,35.8-43.5,36.1
			c-0.7-2.8-2.8-94.1-2.8-97c-0.3-11.6-0.4-10.4,0.7-10.3c16.2,1.3,14.7,0.4,159.1-3.3c4.7-0.1,4.7-0.4,4.7,0.4
			C254.5,179.7,257.5,252.8,257,253.7z"/>
		<path id="vector_7" class="st1" d="M193.2,202.1c-5.3,0-18.6,0.1-23.2-2.7c-2.2-1.4-2.7-3.4-1.6-5.2c2.4-3.6,10.6-4.3,14.9-4.5
			c0.9,0,0.9-0.3,0.6-1c-1-1.9-1.2-4-0.6-6c0.6-2,2-3.7,3.8-4.7c4.4-2.5,10.5-0.2,14,2.5c0.4,0.3,0.7,0.8,0.9,0.3
			c2.1-4.7,4.8-8.6,10.2-8.6c4.4,0,8.7,3.1,9.7,9c0.2,1.4,0.8-0.6,6.7-2.7c2.5-0.9,6.1-1.1,8.3,0.4c4.7,3.2-0.1,9.1-0.6,10.6
			c-0.1,0.2,0.1,0.3,0.4,0.3c3.1,0.6,9.2,1.5,10.2,4.7c1.4,4.6-8.8,5.6-13.3,6.1C231.6,201,193.2,202.3,193.2,202.1z M187.5,180.4
			c-2.8,2.4-3.2,5.3-0.6,9.7c0.7,1.2,0.2,1.3-1.2,1.4c-2.5,0.2-17.3,1.6-15.4,4.8c2.4,4.2,16.4,3.6,21.3,3.5
			c39.4-0.7,50.3-1.3,53.1-3.8c0.9-0.8,0.3-1.6-1.5-2.5c-4.8-2.3-8.2-1.5-10-2c-0.9-0.2-1-0.8-0.4-1.4c0.7-0.7,4.8-4.3,4.1-8.2
			c-0.3-2-3.5-2.2-5.5-1.8c-5.9,1.3-10.5,6.7-11.2,2.7c-0.9-5.4-4-8.4-7.3-8.7c-3.9-0.4-6.9,2.5-8.9,7.6c-1.2,3-1.5,2.2-2.6,1.4
			C201.2,183.2,192.5,176.1,187.5,180.4L187.5,180.4z"/>
		<path id="vector_8" class="st1" d="M137,179.9c11.2-0.2,20.2,9.6,19.6,19.8c-0.1,4-1.5,7.8-3.8,11s-5.7,5.6-9.5,6.9
			c-3.2,1-6.6,1.2-10,0.8c-3.2-0.3-9.8-3.9-12.7-9C112,194.7,124.4,178.9,137,179.9z M137.2,216c0,0.2,6.6,0.2,11.5-4.4
			c3.1-2.9,5-6.8,5.3-11c0.3-4.2-0.9-8.4-3.5-11.7c-2.6-3.3-6.3-5.6-10.5-6.3c-4.2-0.7-8.4,0.2-12,2.5
			C114,194.1,120.5,216,137.2,216z"/>
	</g>
</g>
</svg>
