<?xml version="1.0" encoding="utf-8"?>
<!-- Generator: Adobe Illustrator 24.2.3, SVG Export Plug-In . SVG Version: 6.00 Build 0)  -->
<svg version="1.1" id="Capa_1" xmlns="http://www.w3.org/2000/svg" xmlns:xlink="http://www.w3.org/1999/xlink" x="0px" y="0px"
	 viewBox="0 0 640.8 419.6" style="enable-background:new 0 0 640.8 419.6;" xml:space="preserve">
<style type="text/css">
	.st0{fill:#F1F5F9;}
	.st1{fill:#0E1529;}
	.st2{fill-rule:evenodd;clip-rule:evenodd;fill:#0E1529;}
</style>
<rect x="0" y="1.3" class="st0" width="640.8" height="418.4"/>
<g id="content-media-images--content-media-images-photo-photography">
	<g id="details">
		<path id="vector" class="st1" d="M405,209.3c0,4-0.7,2.9,3.4,2.7c1.7-0.1,3.5,0.7,2.3,1.5c-0.9,0.7-1.5,0.8-4.6,1.1
			c-1.4,0.1-1-0.2-1.1,4.3c-0.1,4.9-0.1,4.4-0.2,4.9c-0.1,0.1-0.1,0.3-0.2,0.4c-0.1,0.1-0.3,0.1-0.4,0.1s-0.3,0-0.4-0.1
			c-0.1-0.1-0.2-0.2-0.3-0.4c-0.5-0.9-0.6-5.7-0.7-7c-0.1-2.2,0.2-2.1-0.4-2.2c-1.8,0,0,0.1-4.4-0.1c-1.3-0.1-1.7-2,1.3-2.1
			c3.8-0.3,3.6,0.1,3.7-0.6c0.7-5.5-0.4-8.5,1.1-8.7c0.9-0.1,1.1,1,1.2,1.8C404.8,205.3,405.1,209.4,405,209.3z"/>
		<path id="vector_2" class="st1" d="M299.1,123.1c0-0.7,0.1-1.5,0.9-1.5c1,0,0.8,1,0.9,5.2c0,0.7-0.1,0.6,0.6,0.6
			c1.4,0,4.4-0.1,3.5,0.7c-1.2,0.6-2.4,1-3.6,1.2c-0.7,0.1-0.4-0.1-0.7,4.5c-0.1,0.8-0.1,1.6-0.1,2.4c0.1,0.7-1.3,0.7-1.5-3.1
			c-0.1-3.3,0.1-3.5-0.4-3.5c-1.1,0.1-2.1,0-3.2-0.2c-0.2,0-0.4-0.1-0.5-0.2s-0.2-0.4-0.2-0.5c0-0.2,0.1-0.4,0.1-0.6
			c0.1-0.1,0.3-0.3,0.5-0.3C299.7,126.9,298.8,129.5,299.1,123.1z"/>
		<path id="vector_3" class="st1" d="M366.5,137.8c0-1.3,0.5-2.4,1.3-3.2c0.9-0.9,2-1.3,3.2-1.4c0.9,0,1.8,0.3,2.6,0.7
			c0.7,0.5,1.3,1.3,1.7,2.1c0.4,0.8,0.4,1.8,0.3,2.6c-0.1,0.9-0.6,1.7-1.3,2.4c-0.7,0.7-1.5,1.1-2.4,1.3c-0.9,0.1-1.8,0.1-2.6-0.2
			c-0.8-0.4-1.5-1-2.1-1.7C366.7,139.6,366.5,138.7,366.5,137.8L366.5,137.8z M371,134.6c-0.4,0-0.8,0.1-1.2,0.2
			c-0.4,0.1-0.7,0.4-1,0.7c-0.3,0.3-0.5,0.6-0.7,1s-0.2,0.7-0.2,1.2c0,0.8,0.4,1.5,0.9,2.1c0.6,0.6,1.3,0.9,2.1,1
			c0.4,0,0.8-0.1,1.2-0.1c0.4-0.1,0.7-0.4,1-0.7s0.5-0.7,0.7-1c0.1-0.4,0.2-0.8,0.2-1.2c0-0.4-0.1-0.8-0.2-1.2s-0.4-0.7-0.7-1
			s-0.7-0.5-1-0.7S371.5,134.6,371,134.6z"/>
		<path id="vector_4" class="st1" d="M299.2,291.8c5-0.1,5.2,1.5,4.6,1.4c-0.9,0.1-1.7,0.1-2.5,0.4c-2.5,0.3-2.5,0-2.5,0.7
			c0,3.1,0.3,4.2-0.5,3.8c-0.7-0.4-0.8-1.8-0.9-2.4c-0.3-2.4,0.4-1.5-2.1-1.6c-0.6,0-1.3-0.1-1.8-0.3c-0.7-0.3-0.7-1.5,1-1.6
			c3.7-0.4,2.7,0.4,3-2.4c0.1-0.7,0.2-1.4,0.4-2.1c0.1-0.1,0.1-0.2,0.3-0.3c0.1-0.1,0.3-0.1,0.4-0.1s0.3,0.1,0.4,0.2
			c0.1,0.1,0.1,0.2,0.1,0.4C299,291.7,298.7,291.8,299.2,291.8z"/>
		<path id="vector_5" class="st1" d="M229.8,167.2c0-0.4,0.1-0.7,0.2-1.1c0.1-0.4,0.4-0.7,0.7-1c0.3-0.3,0.6-0.5,1-0.7
			s0.7-0.2,1.1-0.2s0.7,0.1,1.1,0.2c0.4,0.1,0.7,0.4,1,0.7c0.3,0.3,0.5,0.6,0.7,1c0.1,0.4,0.2,0.7,0.2,1.1
			C235.8,170.9,230,171.3,229.8,167.2z M232.8,165.2c-2.6,0-2.4,3.6-0.1,3.8C235.1,169.2,235.3,165.3,232.8,165.2z"/>
	</g>
	<g id="image_3">
		<path id="Subtract" class="st2" d="M380.1,160.4c1,0,2.2,0.1,2.4,1.1c0.1,0.1,2.4,89,2.3,93c-0.1,2.1-0.4,2.1-1.4,2.1l0,0
			c-3.6,0.1-7.1,0.2-10.7,0.3c0-0.5,0-1-0.1-1.5c5.2-0.1,8.8-0.1,9.9-0.1c0.6,0,0.7-0.4,0.7-0.4c-0.1-1.5-2.4-84.4-2.2-92.5
			c0-0.1,0.1-0.2,0.1-0.3c-0.2-0.7-7.1,0.4-120,2.3c-0.1,0-0.2,0-0.4,0c-0.7,0-1.4,0-1.5,0.7c0,0.5,0.1,3.9,0.2,9.1
			c-0.5,0-1,0-1.5,0c-0.1-4.9-0.1-8.2-0.1-9c0-1.8,0.4-2,1.5-2.1C264.3,163,321.6,161.2,380.1,160.4z"/>
	</g>
	<g id="image_2">
		<path id="Subtract_2" class="st2" d="M369.8,170.3c1,0,2.2,0.1,2.4,1.1c0.1,0.1,2.4,89,2.3,93c-0.1,2.1-0.4,2.1-1.4,2.1l0,0
			c-3.3,0.1-6.6,0.2-9.9,0.3c0-0.5,0-1-0.1-1.5c4.7-0.1,7.9-0.1,9-0.1c0.6,0,0.7-0.4,0.7-0.4c-0.1-1.5-2.4-84.4-2.2-92.5
			c0-0.1,0.1-0.2,0.1-0.3c-0.2-0.7-7.1,0.4-120,2.3c-0.1,0-0.2,0-0.4,0c-0.7,0-1.4,0-1.5,0.7c0,0.4,0.1,3.6,0.1,8.5
			c-0.5,0-1,0-1.3,0c-0.1,0-0.1,0-0.1,0c-0.1-4.6-0.1-7.6-0.1-8.5c0-1.8,0.4-2,1.5-2.1C254,172.8,311.3,171.1,369.8,170.3z"/>
	</g>
	<g id="image_1">
		<path id="vector_6" class="st1" d="M362.2,181.7c0-2.1-2.6-1.5-7-1.6c-21.3-0.4-54.9,1.7-79.8,2c-18.7,0.2-35.2,0.7-35.8,0.7
			c-1.7,0.1-1.8,0.7-1.8,2.4c-0.7,24.6,2,91.5,2.3,92.9c0.1,0.4,0.3,0.7,0.6,0.9c0.3,0.2,0.7,0.3,1,0.3c5.4,0,9.3,0.1,13.2-0.1
			c30.5-1.6,105.2-2.5,108.5-2.9c0.7-0.1,0.9-0.2,1-2.3L362.2,181.7z M362.4,249.4c-0.5-0.3-21.9-21.3-32.7-24.9
			c-5.9-1.9-9.9,0.3-24.4,12.5c-17.9,15-30.5,28.1-38.3,35.3c-1.3,1.2-1.4,0.6-1.1,0.2c2.3-2.8,15.2-16.3,25.2-25.5
			c0.3-0.2,0.2-0.3,0-0.5c-3.3-3.6-7.4-6.5-11.8-8.6c-1.8-0.8-3.7-1.3-5.7-1.3c-10.4-0.4-31.6,26.3-32,26.6
			c-0.5-2.1-2.1-69.3-2.1-71.4c-0.2-8.5-0.3-7.7,0.5-7.6c11.9,1,10.8,0.3,117.1-2.4c3.5-0.1,3.5-0.3,3.5,0.3
			C360.5,194.9,362.7,248.7,362.4,249.4z"/>
		<path id="vector_7" class="st1" d="M315.4,211.4c-3.9,0-13.7,0.1-17.1-2c-1.6-1-2-2.5-1.2-3.8c1.8-2.6,7.8-3.2,11-3.3
			c0.7,0,0.7-0.2,0.4-0.7c-0.7-1.4-0.9-2.9-0.4-4.4s1.5-2.7,2.8-3.5c3.2-1.8,7.7-0.1,10.3,1.8c0.3,0.2,0.5,0.6,0.7,0.2
			c1.5-3.5,3.5-6.3,7.5-6.3c3.2,0,6.4,2.3,7.1,6.6c0.1,1,0.6-0.4,4.9-2c1.8-0.7,4.5-0.8,6.1,0.3c3.5,2.4-0.1,6.7-0.4,7.8
			c-0.1,0.1,0.1,0.2,0.3,0.2c2.3,0.4,6.8,1.1,7.5,3.5c1,3.4-6.5,4.1-9.8,4.5C343.7,210.6,315.4,211.5,315.4,211.4z M311.2,195.4
			c-2.1,1.8-2.4,3.9-0.4,7.1c0.5,0.9,0.1,1-0.9,1c-1.8,0.1-12.7,1.2-11.3,3.5c1.8,3.1,12.1,2.6,15.7,2.6c29-0.5,37-1,39.1-2.8
			c0.7-0.6,0.2-1.2-1.1-1.8c-3.5-1.7-6-1.1-7.4-1.5c-0.7-0.1-0.7-0.6-0.3-1c0.5-0.5,3.5-3.2,3-6c-0.2-1.5-2.6-1.6-4-1.3
			c-4.3,1-7.7,4.9-8.2,2c-0.7-4-2.9-6.2-5.4-6.4c-2.9-0.3-5.1,1.8-6.5,5.6c-0.9,2.2-1.1,1.6-1.9,1
			C321.3,197.5,314.9,192.3,311.2,195.4L311.2,195.4z"/>
		<path id="vector_8" class="st1" d="M274,195.1c8.2-0.1,14.9,7.1,14.4,14.6c-0.1,2.9-1.1,5.7-2.8,8.1c-1.7,2.4-4.2,4.1-7,5.1
			c-2.4,0.7-4.9,0.9-7.4,0.6c-2.4-0.2-7.2-2.9-9.3-6.6C255.7,205.9,264.8,194.3,274,195.1z M274.2,221.6c0,0.1,4.9,0.1,8.5-3.2
			c2.3-2.1,3.7-5,3.9-8.1c0.2-3.1-0.7-6.2-2.6-8.6s-4.6-4.1-7.7-4.6c-3.1-0.5-6.2,0.1-8.8,1.8C257.1,205.5,261.9,221.6,274.2,221.6z
			"/>
	</g>
</g>
</svg>
