<svg viewBox="0 0 1600 1400" xmlns="http://www.w3.org/2000/svg"><rect fill="#87bfc1" height="105" rx="11" transform="matrix(.70710678 .70710678 -.70710678 .70710678 1072.33 -525.56)" width="160" x="1090.58" y="979.13"/><path d="m1247.53 1055.65h-17.53a14 14 0 0 1 -9.95-4.12l-69.4-69.4a14 14 0 0 1 -4.12-9.95v-17.5a2 2 0 0 1 4 0v17.5a10 10 0 0 0 3 7.15l69.4 69.4a10 10 0 0 0 7.15 3h17.5a2 2 0 1 1 -.05 3.92z" fill="#262424"/><circle cx="1185.07" cy="1081.01" fill="#fff" r="13.17" transform="matrix(.70710678 -.70710678 .70710678 .70710678 -417.29 1154.59)"/><rect fill="#de9244" height="127" rx="10.83" transform="matrix(.70710678 .70710678 -.70710678 .70710678 826.81 -453.51)" width="95" x="913.34" y="707.8"/><rect fill="#87bfc1" height="17.5" rx="4.75" transform="matrix(.70710678 .70710678 -.70710678 .70710678 785.42 -458.45)" width="24" x="934.11" y="710.11"/><rect fill="#87bfc1" height="17.5" rx="4.75" transform="matrix(.70710678 .70710678 -.70710678 .70710678 801.04 -420.74)" width="24" x="896.4" y="747.82"/><circle cx="960.84" cy="771.3" fill="#fff" r="22.17" transform="matrix(.70710678 -.70710678 .70710678 .70710678 -263.97 905.33)"/><rect fill="#fff" height="647.7" rx="26.49" transform="matrix(0 -1 1 0 833.44 1415.44)" width="443.7" x="902.59" y="-32.85"/><path d="m1421.79 515.35h-594.7a29 29 0 0 1 -29-29v-390.71a29 29 0 0 1 29-29h594.71a29 29 0 0 1 29 29v390.72a29 29 0 0 1 -29.01 28.99zm-594.7-443.7a24 24 0 0 0 -24 24v390.71a24 24 0 0 0 24 24h594.71a24 24 0 0 0 24-24v-390.72a24 24 0 0 0 -24-24h-594.71z" fill="#262424"/><path d="m1282.84 406.64c17.66 8.18 17.66 33.91 0 42.09a24.66 24.66 0 0 1 -10.39 2.28h-296a24.66 24.66 0 0 1 -10.45-2.29c-17.66-8.18-17.66-33.91 0-42.09a24.66 24.66 0 0 1 10.39-2.28h296a24.66 24.66 0 0 1 10.45 2.29z" fill="#de9244"/><circle cx="1124.44" cy="241.35" fill="#87bfc1" r="113.05"/><g fill="#de9244"><path d="m864.26 414.25 2.3 7.68a21.09 21.09 0 0 0 14.16 14.16l7.68 2.3-7.68 2.3a21.09 21.09 0 0 0 -14.16 14.16l-2.3 7.68-2.3-7.68a21.09 21.09 0 0 0 -14.16-14.16l-7.68-2.3 7.68-2.3a21.09 21.09 0 0 0 14.2-14.17z"/><path d="m737.82 670.6 2.3 7.68a21.09 21.09 0 0 0 14.16 14.16l7.68 2.3-7.68 2.3a21.09 21.09 0 0 0 -14.16 14.16l-2.3 7.68-2.3-7.68a21.09 21.09 0 0 0 -14.16-14.2l-7.68-2.3 7.68-2.3a21.09 21.09 0 0 0 14.16-14.16z"/><path d="m1366.73 997.67 2.3 7.68a21.09 21.09 0 0 0 14.16 14.16l7.68 2.3-7.68 2.3a21.09 21.09 0 0 0 -14.16 14.16l-2.3 7.68-2.3-7.68a21.09 21.09 0 0 0 -14.16-14.16l-7.68-2.3 7.68-2.3a21.09 21.09 0 0 0 14.16-14.16z"/><path d="m1390.86 578.22 2.59 8.67a23.81 23.81 0 0 0 16 16l8.67 2.59-8.67 2.59a23.81 23.81 0 0 0 -16 16l-2.59 8.67-2.59-8.67a23.81 23.81 0 0 0 -16-16l-8.67-2.59 8.67-2.59a23.81 23.81 0 0 0 16-16z"/><path d="m1303.54 117.86 2 6.71a18.44 18.44 0 0 0 12.39 12.43l6.71 2-6.71 2a18.44 18.44 0 0 0 -12.38 12.38l-2 6.71-2-6.71a18.44 18.44 0 0 0 -12.4-12.38l-6.71-2 6.71-2a18.44 18.44 0 0 0 12.38-12.38z"/></g><circle cx="1273.7" cy="761.59" fill="#87bfc1" r="10.59"/><circle cx="862" cy="1113.42" fill="#87bfc1" r="21.87"/><circle cx="688.57" cy="102.49" fill="#87bfc1" r="21.87"/><path d="m678.5 1171.04 26.8 94.9 32.09-10.13-12.37-92.3z" fill="#fff"/><path d="m705.3 1268.44a2.5 2.5 0 0 1 -2.41-1.82l-26.81-94.9a2.5 2.5 0 0 1 2-3.15l46.52-7.53a2.5 2.5 0 0 1 2.88 2.14l12.37 92.3a2.5 2.5 0 0 1 -1.73 2.72l-32.09 10.13a2.48 2.48 0 0 1 -.73.11zm-23.64-95.38 25.34 89.72 27.63-8.72-11.75-87.67z" fill="#262424"/><path d="m837.21 1338.9v13.77h-169.13s0-6.5.55-16.72c1.33-24.46 5.82-70.33 21.09-99.8h62.44s16.56 48.85 69.84 77.41a28.84 28.84 0 0 1 15.05 22.38 29.29 29.29 0 0 1 .16 2.96z" fill="#87bfc1"/><path d="m837.21 1338.9v13.77h-169.13s0-6.5.55-16.72h168.43a29.29 29.29 0 0 1 .15 2.95z" fill="#fff"/><path d="m837.21 1355.17h-169.13a2.5 2.5 0 0 1 -2.5-2.5c0-.07 0-6.68.55-16.86a2.5 2.5 0 0 1 2.5-2.37h168.43a2.5 2.5 0 0 1 2.49 2.25 32 32 0 0 1 .17 3.2v13.77a2.5 2.5 0 0 1 -2.51 2.51zm-166.6-5h164.1v-11.27c0-.15 0-.3 0-.45h-163.71c-.24 5.22-.35 9.29-.39 11.72z" fill="#262424"/><path d="m718.75 1116.22-110-546.06h-139.49v162.38l185.03 392.23z" fill="#87bfc1"/><path d="m613.09 634.13h-9.18a33.09 33.09 0 0 1 -32.58-27.21l-2.33-12.56a2 2 0 0 1 3.9-.71l2.27 12.56a29.14 29.14 0 0 0 28.69 24h9.18a2 2 0 1 1 .05 3.92z" fill="#262424"/><ellipse cx="627.81" cy="852.38" fill="#fff" rx="34.45" ry="51.63" transform="matrix(.9754193 -.22035696 .22035696 .9754193 -172.45 159.36)"/><path d="m654.62 1093.54a2 2 0 0 1 -1.83-1.22l-162.79-391.67a2 2 0 0 1 3.66-1.52l162.79 391.67a2 2 0 0 1 -1.83 2.74z" fill="#262424"/><path d="m732.8 1175-66.73 11.64a10.69 10.69 0 0 1 -11.87-6.83l-18-48.92a10.69 10.69 0 0 1 8.19-14.23l76-13.25a10.69 10.69 0 0 1 12.37 8.7l8.82 50.53a10.69 10.69 0 0 1 -8.78 12.36z" fill="#de9244"/><path d="m279.19 1171.04-26.81 94.9-32.09-10.13 12.37-92.3z" fill="#fff"/><path d="m252.38 1268.44a2.48 2.48 0 0 1 -.75-.12l-32.09-10.13a2.5 2.5 0 0 1 -1.73-2.72l12.37-92.3a2.5 2.5 0 0 1 2.88-2.14l46.52 7.53a2.5 2.5 0 0 1 2 3.15l-26.81 94.9a2.5 2.5 0 0 1 -2.39 1.83zm-29.38-14.38 27.63 8.72 25.37-89.73-41.22-6.67z" fill="#262424"/><path d="m122.47 1338.9v13.77h169.13s0-6.5-.55-16.72c-1.33-24.46-5.82-70.33-21.09-99.8h-62.43s-16.53 48.85-69.85 77.41a28.84 28.84 0 0 0 -15.05 22.38 29.29 29.29 0 0 0 -.16 2.96z" fill="#87bfc1"/><path d="m122.47 1338.9v13.77h169.13s0-6.5-.55-16.72h-168.42a29.29 29.29 0 0 0 -.16 2.95z" fill="#fff"/><path d="m291.6 1355.17h-169.13a2.5 2.5 0 0 1 -2.5-2.5v-13.77a31.84 31.84 0 0 1 .17-3.2 2.5 2.5 0 0 1 2.49-2.25h168.42a2.5 2.5 0 0 1 2.5 2.37c.55 10.17.55 16.79.55 16.86a2.5 2.5 0 0 1 -2.5 2.49zm-166.63-5h164.1c0-2.42-.14-6.49-.4-11.72h-163.67v.45 11.27z" fill="#262424"/><path d="m241.44 1116.22 102.99-546.06h146.5l-16.19 171.83-168.85 382.78z" fill="#87bfc1"/><path d="m349.28 634.13h-9.18a2 2 0 0 1 0-4h9.18a29.14 29.14 0 0 0 28.69-24l2.27-12.56a2 2 0 0 1 3.9.71l-2.27 12.56a33.09 33.09 0 0 1 -32.59 27.29z" fill="#262424"/><ellipse cx="332.38" cy="852.38" fill="#fff" rx="51.63" ry="34.45" transform="matrix(.22035696 -.9754193 .9754193 .22035696 -572.3 988.68)"/><path d="m305.56 1093.54a2 2 0 0 1 -1.83-2.74l162.64-391.3v-126.5a2 2 0 1 1 4 0v126.89a2 2 0 0 1 -.15.76l-162.83 391.67a2 2 0 0 1 -1.83 1.22z" fill="#262424"/><path d="m468.35 682.8a2 2 0 0 1 -1.31-.5l-10.9-9.62a40.27 40.27 0 0 1 -13.63-30.19v-64.27a2 2 0 0 1 4 0v64.28a36.31 36.31 0 0 0 12.29 27.22l10.9 9.62a2 2 0 0 1 -1.35 3.46z" fill="#262424"/><path d="m227.17 1174.65 66.64 12.15a10.69 10.69 0 0 0 11.92-6.74l18.42-48.78a10.69 10.69 0 0 0 -8.08-14.3l-75.86-13.84a10.69 10.69 0 0 0 -12.44 8.6l-9.2 50.46a10.69 10.69 0 0 0 8.6 12.45z" fill="#de9244"/><path d="m551.23 148.9c-17.86 4.09-9.57 41.21-5.32 53.24s-9.06 42.34 10.65 56.34-27 50.17 20 102.54c36.23 40.36 112 26.4 107.94-11.69s-59.61-64.28-62.88-99.16c-2.08-22.2 11.87-51.58-21.67-68.41-25.04-12.55-34.62-36.09-48.72-32.86z" fill="#262424"/><path d="m274.5 394-47.06 38.21a31.16 31.16 0 0 0 -7.66 39.23c17.6 32 54.44 88.4 107.19 115.91l8.03-29.35-40-88 37.38-21.17z" fill="#fff"/><path d="m327 589.21a1.87 1.87 0 0 1 -.86-.21c-53.36-27.83-90.55-85-108-116.67a33 33 0 0 1 8.12-41.57l47.06-38.21a1.86 1.86 0 0 1 2.46.09l57.88 54.83a1.87 1.87 0 0 1 -.36 3l-35.9 20.31 39.29 86.45a1.87 1.87 0 0 1 .1 1.26l-8 29.35a1.87 1.87 0 0 1 -1.79 1.37zm-52.59-192.73-45.78 37.18a29.28 29.28 0 0 0 -7.2 36.88c17 30.85 53 86.31 104.37 114.07l7.2-26.45-39.7-87.39a1.87 1.87 0 0 1 .78-2.4l35.18-19.93z" fill="#262424"/><path d="m387 291-120 98.5s3.5 60 63 69l54.5-31z" fill="#de9244"/><path d="m332.33 450.79a2 2 0 0 1 -1-.26c-37.25-21.11-46.89-58-47.28-59.55a2 2 0 0 1 3.84-1c.09.37 9.66 36.82 45.39 57.07a2 2 0 0 1 -.95 3.74z" fill="#262424"/><path d="m332.38 578.22s140.24 23.7 288.43-5.26l-38.81-132.77 8-162.19-203 13s-34 63-34 83 22 66.19 22 66.19z" fill="#de9244"/><path d="m356.2 563.48c.07 0 47.12 7.06 112 7.06 40.33 0 87.55-2.72 134.67-11.57a2 2 0 1 0 -.74-3.93c-46.79 8.79-93.79 11.5-133.93 11.5-32.29 0-60.16-1.76-79.95-3.51-9.89-.88-17.76-1.75-23.16-2.41-2.7-.33-4.78-.6-6.18-.79l-1.59-.22-.53-.08a2 2 0 1 0 -.59 4z" fill="#262424"/><path d="m369.69 430.36a2 2 0 0 1 -1.82-1.19c-7.69-17.79-16.87-41.79-16.87-55.17 0-16.36 21.5-59.58 30.75-77.4a2 2 0 1 1 3.51 1.82c-7.09 13.71-30.26 59.66-30.26 75.58 0 13.37 10.35 39.32 16.53 53.6a2 2 0 0 1 -1.84 2.76z" fill="#262424"/><path d="m476.22 269.83c-21.55-1.6-35.36 14.75-36.79 32.35s18 25.55 18 25.55 7.45-18.63 14.23-20.17 14.18 22.55 14.18 22.55 23.35-5.39 27.51-28.28-18.03-30.58-37.13-32z" fill="#88c0c2"/><path d="m463.09 235.78-5.2 50.15s7.31 14.29 19.24 14.86 23.47-12.29 23.47-12.29v-55.72z" fill="#fff"/><path d="m477.92 302.68h-.87c-12.86-.62-20.49-15.25-20.81-15.87a1.87 1.87 0 0 1 -.19-1l5.2-50.15a1.87 1.87 0 0 1 1.71-1.67l37.52-3a1.87 1.87 0 0 1 2 1.86v55.65a1.87 1.87 0 0 1 -.48 1.25c-.48.54-11.75 12.93-24.08 12.93zm-18.1-17.13c1.34 2.36 7.87 12.93 17.42 13.38s19.29-8.87 21.52-11.17v-53l-34 2.72z" fill="#262424"/><path d="m322.87 557.62-9.94 43.38a7.77 7.77 0 0 0 5.33 9.27l29.11 8.06a7.38 7.38 0 0 0 8.83-4.59l12.76-33a7.88 7.88 0 0 0 -3.3-9.65l-31.94-18.4a7.39 7.39 0 0 0 -10.85 4.93z" fill="#fff"/><path d="m349.29 620.42a9 9 0 0 1 -2.42-.33l-29.11-8.09a9.58 9.58 0 0 1 -6.65-11.48l9.89-43.32a9.44 9.44 0 0 1 5.44-6.64 9 9 0 0 1 8.17.46l31.94 18.4a9.77 9.77 0 0 1 4.11 11.94l-12.76 33a9.33 9.33 0 0 1 -8.61 6.06zm-24.61-62.42-9.93 43.34a5.94 5.94 0 0 0 4 7.05l29.11 8.06a5.54 5.54 0 0 0 6.6-3.47l12.76-33a6 6 0 0 0 -2.49-7.36l-31.94-18.4a5.32 5.32 0 0 0 -4.79-.22 5.75 5.75 0 0 0 -3.29 4.05z" fill="#262424"/><path d="m326.43 535.83-2.79 8.5a8.28 8.28 0 0 0 3.3 9.48l35.52 23.51a8.28 8.28 0 0 0 12.28-3.9 8.27 8.27 0 0 0 -.31-6.71c-3.93-7.87-15.43-27.16-37.08-36a8.25 8.25 0 0 0 -10.92 5.12z" fill="#fff"/><path d="m367 580.57a10.1 10.1 0 0 1 -5.58-1.69l-35.52-23.5a10.16 10.16 0 0 1 -4-11.62l2.79-8.5a10.22 10.22 0 0 1 5.4-6.07 9.91 9.91 0 0 1 8-.19c22.22 9.07 34 28.82 38 36.89a10.15 10.15 0 0 1 -9.09 14.68zm-38.8-44.15-2.79 8.5a6.43 6.43 0 0 0 2.55 7.35l35.52 23.5a6.41 6.41 0 0 0 9.27-8.22c-3.85-7.69-15.07-26.51-36.12-35.11a6.21 6.21 0 0 0 -5 .12 6.48 6.48 0 0 0 -3.43 3.85z" fill="#262424"/><path d="m897.33 156c-6 1.23-17.53 3.44-29.66 5l28.89 4a5.42 5.42 0 0 1 4.66 5.88c-.78 8.12-2.64 24.21-6.07 36.65a5.42 5.42 0 0 1 -5 4 495.12 495.12 0 0 1 -63.82-2.53s-75.83 102-93.33 118.5c-6.43 6.06-49.65 18.52-74.5 27v-80.5l48.5-13.38 99.5-81 10.38-60.33a5.55 5.55 0 0 1 5.47-4.61 5.55 5.55 0 0 1 5.52 5l3.13 29s33.84-.53 64.76-3.36a5.42 5.42 0 0 1 5.91 5.4 5.43 5.43 0 0 1 -4.34 5.28z" fill="#fff"/><path d="m658.5 357a2.5 2.5 0 0 1 -2.5-2.5v-80.5a2.5 2.5 0 0 1 1.83-2.41l48-13.24 98.37-80.09 10.22-59.41a8.05 8.05 0 0 1 15.94.5l2.89 26.7c8.1-.18 36.39-.93 62.29-3.3a7.92 7.92 0 0 1 2.3 15.65c-3 .61-7.53 1.5-12.88 2.44l12 1.64a7.9 7.9 0 0 1 6.81 8.6c-.81 8.46-2.69 24.53-6.15 37.08a7.9 7.9 0 0 1 -7.38 5.83 497 497 0 0 1 -62.69-2.36c-8.79 11.8-76.11 102-92.78 117.69-4.8 4.52-24.17 11-53.16 20.27-8.11 2.6-15.77 5.06-22.25 7.27a2.5 2.5 0 0 1 -.86.14zm2.5-81.1v75.1c5.75-1.92 12.23-4 19-6.19 20.91-6.71 46.92-15.06 51.26-19.15 17.14-16.16 92.28-117.15 93-118.17a2.49 2.49 0 0 1 2.26-1 493.26 493.26 0 0 0 63.48 2.51 2.92 2.92 0 0 0 2.72-2.16c3.36-12.18 5.2-27.92 6-36.22a2.91 2.91 0 0 0 -2.51-3.17l-28.89-4a2.5 2.5 0 0 1 0-5c12.14-1.6 23.68-3.83 29.48-5a2.94 2.94 0 0 0 2.34-2.87 2.89 2.89 0 0 0 -1-2.16 2.86 2.86 0 0 0 -2.23-.75c-30.66 2.8-64.61 3.36-64.95 3.37a2.5 2.5 0 0 1 -2.48-2.23l-3.13-29a3.05 3.05 0 0 0 -6-.19l-10.35 60.38a2.5 2.5 0 0 1 -.89 1.51l-99.5 81a2.51 2.51 0 0 1 -.91.47z" fill="#262424"/><path d="m680.5 356.5-95.49 23-.12-.13c-3-3.09-51.09-54.8 5.15-101.35l69.53-10.33 14.06-2.09 6.47 85.08z" fill="#de9244"/><path d="m579.06 374.36a2 2 0 0 1 -1.59-.8c-11.33-15.23-33.48-54.69 5.55-92a2 2 0 0 1 2.74 2.86c-36.75 35.13-15.82 72.39-5.11 86.78a2 2 0 0 1 -1.59 3.16z" fill="#262424"/><path d="m664.5 351.48a2 2 0 0 1 -2-1.86l-4.65-76.54a2 2 0 0 1 4-.24l4.65 76.54a2 2 0 0 1 -1.86 2.1z" fill="#262424"/><path d="m534 156.19 6.66-1.08a5.93 5.93 0 0 1 5.62 2.17 20 20 0 0 1 4 8 13.82 13.82 0 0 1 -1.81 9.2 5.87 5.87 0 0 1 -3.57 2.79l-7.43 2.1a6 6 0 0 1 -7.55-5.26l-.92-11.57a6 6 0 0 1 5-6.35z" fill="#fff"/><path d="m535.83 181.56a7.9 7.9 0 0 1 -7.86-7.27l-.97-11.59a7.94 7.94 0 0 1 6.61-8.42l6.66-1.08a7.89 7.89 0 0 1 7.46 2.89 22 22 0 0 1 4.4 8.83 15.67 15.67 0 0 1 -2 10.53 7.77 7.77 0 0 1 -4.74 3.72l-7.43 2.1a7.92 7.92 0 0 1 -2.13.29zm5.76-24.56a4.06 4.06 0 0 0 -.65.05l-6.66 1.08a4 4 0 0 0 -3.35 4.28l.91 11.59a4 4 0 0 0 5.08 3.54l7.43-2.1a3.91 3.91 0 0 0 2.39-1.86 11.87 11.87 0 0 0 1.61-7.87 18.16 18.16 0 0 0 -3.64-7.2 4 4 0 0 0 -3.12-1.51z" fill="#262424"/><path d="m435.73 204.4c-5 21.54-2.67 48.73 23.17 55.48 19 5 46.43-11.68 56.32-39.85s12-54.12-22.92-62.4a86.66 86.66 0 0 0 -11.37-1.73c-21.26-1.38-29.41-1.81-42.29 37.07-1.14 3.43-1.98 7.36-2.91 11.43z" fill="#fff"/><path d="m465 262.57a25.82 25.82 0 0 1 -6.58-.81c-26.39-6.89-30-34.38-24.58-57.8l.35-1.55c.81-3.59 1.58-7 2.6-10.06 13.39-40.4 22.43-39.81 44.26-38.39a1.94 1.94 0 0 1 -.25 3.88c-20.85-1.35-27.87-1.81-40.32 35.74-1 2.91-1.71 6.21-2.5 9.7l-.36 1.56c-2.43 10.51-8 45.38 21.77 53.17 5.92 1.55 13.43.43 23.62-3.53a1.94 1.94 0 0 1 1.41 3.63c-7.78 3-14.04 4.46-19.42 4.46z" fill="#262424"/><path d="m504.57 221.12a21.76 21.76 0 0 1 -7.64-20.91c.44-2.62 1.31-6.07 1.57-9.35-19.72 10.59-50.52 10.88-63.75 10.44a9.91 9.91 0 0 1 -9.3-6.94c-7.31-25.45 22.55-59.88 49.34-50.28 37.64-11.24 68.46 15.92 65.11 43.52-3.72 30.6-27.9 39.95-35.33 33.52z" fill="#262424"/><path d="m506.08 218.69s18.08-10.33 31.36-1.41-2.15 41.67-37 26.89z" fill="#fff"/><path d="m517.21 249.87a45.2 45.2 0 0 1 -17.58-3.9 1.94 1.94 0 1 1 1.52-3.58c19.68 8.33 32.22 1 37-7.77 3.34-6.17 2.6-12.78-1.77-15.71-12.1-8.14-29.14 1.38-29.31 1.48a1.94 1.94 0 0 1 -1.93-3.38c.78-.45 19.29-10.82 33.41-1.33 6.07 4.08 7.34 12.82 3 20.79-4.13 7.6-12.66 13.4-24.34 13.4z" fill="#262424"/></svg>