<?xml version="1.0" encoding="utf-8"?>
<!-- Generator: Adobe Illustrator 24.2.3, SVG Export Plug-In . SVG Version: 6.00 Build 0)  -->
<svg version="1.1" xmlns="http://www.w3.org/2000/svg" xmlns:xlink="http://www.w3.org/1999/xlink" x="0px" y="0px"
	 viewBox="0 0 600 500" style="enable-background:new 0 0 600 500;" xml:space="preserve">
<style type="text/css">
	.st0{fill:#FFFFFF;}
	.st1{fill:#F1F5F9;}
	.st2{fill:#CFFAFE;}
	.st3{fill:#DEDEDE;}
	.st4{fill:#215969;}
	.st5{fill:#348193;}
	.st6{fill:#64B0CA;}
	.st7{fill:#FFEDDE;}
	.st8{fill:#00BDAB;}
	.st9{fill:#E79979;}
	.st10{fill:none;stroke:#000000;stroke-width:0.5;stroke-miterlimit:10;}
	.st11{fill:#E8CB61;}
	.st12{fill:#FBBF24;}
	.st13{fill:#F0ECD8;}
	.st14{fill:#35A4B0;}
	.st15{fill:#E3AE3D;}
	.st16{fill:#1C0C03;}
	.st17{fill:#595959;}
	.st18{fill:#5D8CA2;}
	.st19{fill:#E84B4B;}
</style>
<g id="BACKGROUND">
</g>
<g id="OBJECTS">
	<g>
		<rect x="0.4" y="0.3" class="st0" width="600" height="500"/>
		<path class="st1" d="M483.9,216.1C587.7,88.8,386.8-51,303,88.7c-140.8-131.5-333.2,77-202.4,212.7c-16.3,30-18.4,71.1-5,102.9
			h175.1c48.6,65.4,95.9,45.2,164.5,48C530.2,421.5,559.3,282.6,483.9,216.1z"/>
		<path class="st2" d="M246.1,42.5c-62-0.8-78.4,43-13.1,50.9c-4.2,9-6,26.5,0,35.6c0.2-12.2,2.7-25.9,11.5-34.9
			C317.7,94.7,321.2,43.4,246.1,42.5z"/>
		<path d="M234.5,74.8c-7.1-1-3.5-11,0.2-14.3c-7.5-6.1-16.5,3.7-15,11.6l-1,0.2c-1.8-8.8,8.5-19.3,16.7-12.4
			c5.1-4.7,13.8-4.8,19-0.2c7.9-5.9,17.3,1.1,16.3,10.1l-1-0.1c0.9-8.1-7.4-14.6-14.6-9.3c9.1,22.8-19.4,14.4-1.6-0.2
			c-4.9-4.1-12.7-3.9-17.4,0.4C239.1,64,239.9,73.5,234.5,74.8z M235.4,61.2c-3.5,2.5-6.9,13.8,0.2,12.2
			C238.1,70.3,238,64.3,235.4,61.2z M254.3,60.9c-4.7,2.2-9,12.1-1.6,12.8C257.3,72.1,256.3,64.3,254.3,60.9z"/>
		<path class="st3" d="M39.7,459"/>
		<path class="st4" d="M514.4,156.3c36.3,1.1,25.2-0.9,27-34h-27V156.3z"/>
		<g>
			<rect x="478.4" y="103.3" class="st4" width="36" height="21"/>
			<path class="st4" d="M495,175.3c-69.7-0.2-46.8,9.2-50.6-62.3c0-3.7,3-6.7,6.7-6.7c0,0,54.3,0,54.3,0V165
				C505.4,170.7,500.7,175.3,495,175.3z"/>
			<path class="st5" d="M493.5,175.3c-130.6-6.6-112.5,34.1-113.2-95h103l0.3,83.3C483.5,174.7,493.5,175.3,493.5,175.3z"/>
			<g>
				<g>
					<rect x="384.4" y="82.3" width="13" height="11"/>
					<rect x="384.4" y="98.3" width="13" height="11"/>
					<rect x="384.4" y="114.3" width="13" height="11"/>
					<rect x="384.4" y="129.3" width="13" height="11"/>
					<rect x="384.4" y="145.3" width="13" height="11"/>
					<path d="M396.4,172.3h1v-11h-13C383.2,167.4,392.5,173,396.4,172.3z"/>
				</g>
				<g>
					<rect x="466.4" y="82.3" width="13" height="11"/>
					<rect x="466.4" y="98.3" width="13" height="11"/>
					<rect x="466.4" y="114.3" width="13" height="11"/>
					<rect x="466.4" y="129.3" width="13" height="11"/>
					<rect x="466.4" y="145.3" width="13" height="11"/>
					<rect x="466.4" y="161.3" width="13" height="11"/>
				</g>
			</g>
			<rect x="402.4" y="82.3" class="st6" width="59" height="89"/>
			<path d="M524.4,156.3V113c0-5.1-3.8-9.5-8.9-9.8c-5.5-0.3-10.1,4.1-10.1,9.5v43.7H524.4z"/>
		</g>
		<path d="M524.4,126.3c1,8.3-4.5,30.2,9.5,30h-23.5"/>
		<path class="st7" d="M147.5,304.4c-10.9,30.9-14.4,63.9-17.5,96.5c22.2,3.4,41.7,8.6,63.5,14.1c10-42.5,22.8-85.7,47.2-122.3
			c10.6-15.1,23.1-24.2,10.4-43.4c-5.3-7.9-13-13.9-20.6-19.7C195.2,209.8,156.7,276.7,147.5,304.4z"/>
		<path class="st0" d="M345.5,272.1c-0.1-20.3-9.3-40.6-3.2-60.7H293c-0.9,3.9,0.9,18.4-4.7,17.6c-4.9,68.8,1.9,137.6-1.8,206.4
			h60.9C350.2,380.9,346.4,326.5,345.5,272.1z"/>
		<path class="st8" d="M409.9,306.9c-8.5-48.9-15.3-110.6-80.1-107.1c0,2.1,11.8,11.8,11.8,13.9c-10,19.4-10.4,39-8.3,62
			c3.4,51.4-1.7,106.4,2.5,156c20.2,4.6,41.2,4,61.5,0.7c7.3-0.4,17.6,5,23.3-1.4C422.8,389.8,417,347.7,409.9,306.9z"/>
		<path class="st8" d="M300.7,340.4c0-38.6-9.8-78.6-7.2-117.3c-0.1-2.6,9.2-4.5,9.3-7.2c-1.1-5.3,0.1-11.5-0.3-17.1
			c-10.7-1.3-31.5-0.5-39.6,9.9c-9,9.3-23.2,21.4-28.9,33.1c-12.6,60.3-13.9,123.4-21,184.8c-2.3,10.8,25.7,6.6,32.3,8.4
			c8.5,0.9,17.1,1.8,25.6,1.9c7.9-0.7,21.3,1.3,27.6-3C304.2,403.5,300.2,371.3,300.7,340.4z"/>
		<path class="st7" d="M343.3,199.7c-12.2-8.7-10.4-29.5-8.3-42.3c1.9-9,3.8-9.2,0.6-18c-9.2-23.9-23.8-26.7-47.4-21.9
			c-1.7,18.1-7.9,41.3,8.1,54.6c3.5,4.1,0.4,14.4,0.6,19.8c-0.5,5.5-8.6,5.3-13,5.9c-9.1,0.1,9.9,21.7,12.3,24.4
			c18.9,16,47.1,1.8,53.9-20C347.6,202.1,345.3,201.1,343.3,199.7z"/>
		<path class="st8" d="M284.2,206.1C235.9,180,154,256,139.9,303.6c21.5,14.5,69.1,13.3,95.7,16c6.1-15.4,14.3-29.9,24.1-43.2
			c8.6-11.6,24-18.9,28-33.6C289.8,235,290.2,215.4,284.2,206.1z"/>
		<path d="M344.7,139c-0.9,10.6-8.9,17-15.8,6c-2.3-4.6,0.3-13.5-5.5-15.4c-7.8-1.6-15.7-2.3-23.6-2.1c-7.4-0.9-19.8,5.9-24.8-1.4
			c-0.9-9.5,13.7-12.7,21.1-13.3c-3.7-1.3-8.5-7.1-3.4-9.6c12.4-3.5,25.5,3.5,36.8,8.1C343,116.4,348.7,124.6,344.7,139z"/>
		<path class="st9" d="M330.3,134.4c-2.7,0-4.7,1.3-6.1,3.1c2.3,5,4.5,10.1,5,15.7C341.5,153.3,343.7,134.2,330.3,134.4z"/>
		<path d="M328.3,140.6c5.4-2.1,6.7,6.6,1.8,8.1"/>
		<path class="st10" d="M391.2,281.5"/>
		<path class="st10" d="M405.7,306.9"/>
		<path d="M303.6,174.1c-2.6,0.3-5.3-0.6-7.3-2.2l0,0.1c2.2,2.4,1.4,6.2,1.1,9.2c5.8-0.9,11.1-5.2,13-10.8
			C308.7,172.5,306.2,173.8,303.6,174.1z"/>
		<path class="st8" d="M284.9,242.2c0,0,9.1,20,9,18.6c-0.1-1.4,5.5-26.6,5.5-26.6L284.9,242.2z"/>
		<path class="st7" d="M478.1,305.9c10.9,30.9,14.4,63.9,17.5,96.5c-22.2,3.4-41.7,8.6-63.5,14.1c-10-42.5-22.8-85.7-47.2-122.3
			c-10.6-15.1-23.1-24.2-10.4-43.4c5.3-7.9,13-13.9,20.6-19.7C430.4,211.4,468.9,278.3,478.1,305.9z"/>
		<path class="st8" d="M341.3,207.6c48.3-26,129.8,49.4,143.8,97c-24.8,19.1-67.3,29-94.3,26.9c-6.3-16.3-14.7-39.6-25.1-53.7
			c-8.6-11.6-24-18.9-28-33.6C335.7,236.6,335.3,216.9,341.3,207.6z"/>
		<path class="st11" d="M403.4,332.2c-3.8-17.1-10.7-36.9-16.9-54.1l0.9-0.3c6.2,17.2,13.1,37.1,16.9,54.2L403.4,332.2z"/>
		<polygon class="st8" points="345.1,247.6 332.1,256.7 330.5,230.5 		"/>
		<path d="M347.9,227.8c1.5-8.9,1.8-18.1,3.4-27c-3.1-0.2-6-1.4-8.5-3.2c-5,10.6-9.3,21.5-12.2,32.9c5.5,5.9,9.6,12.9,14.9,19
			C346,242.2,347,235,347.9,227.8z"/>
		<path d="M295.7,223.9c-3.3-8.9-6.1-18-9.2-27c-3,0.3-6.2,1.2-9.3,0.6c-0.4,17.5,4.5,34.2,6.2,51.6c5.3-5,10.6-10,16-14.7
			C298.3,230.4,296.1,225.1,295.7,223.9z"/>
		<path class="st0" d="M291.1,156.5c4.4,6.4,15.1,4.2,16.6-3.4"/>
		<path d="M320.2,157.8c-2.3,0-4.6-0.2-6.8-0.6l0.2-1c6.6,1.2,13.7,0.6,19.9-1.9l0.4,0.9C329.6,156.9,324.9,157.8,320.2,157.8z"/>
		<path class="st12" d="M343.1,134.6c3.9-22.8-13.2-38.6-35.8-33.2c-1.4,1-0.9,2.8,0.7,3.2c16.6,1.6,29.8,12,27.2,29.8
			c-13.8,3.8-11,27.5,3.7,27C353.4,161.9,356.5,138.9,343.1,134.6z"/>
		<path d="M347.4,147.3c0.2,11.7-17.2,11.7-17,0C330.2,135.7,347.5,135.7,347.4,147.3z"/>
		<path d="M330.8,117.1c-5.6-10.2-19.2-16.4-30.4-16.7c-10.5-0.1-16.8,6.3-5.1,12.5"/>
		<path class="st11" d="M224.3,327.8l-1-0.2c3.9-17.6,15-32.7,21.1-49.5l0.9,0.3C239.3,295.2,228.2,310.3,224.3,327.8z"/>
		<path d="M319.4,157.2c0.1,6.8-10.7,6.8-10.6,0C308.7,150.3,319.5,150.3,319.4,157.2z"/>
		<rect x="31.4" y="401.3" class="st0" width="529" height="74"/>
		<path class="st13" d="M564.4,421.3c-1.2-11.2-10.5-20-21.8-20H57.4c-11.3,0-20.6,8.8-21.8,20H564.4z"/>
		<path class="st0" d="M251.9,401.3H88.4c-1.7,0-3.1-1.3-3.1-3l0,0c0-1.7,1.4-3,3.1-3h163.5c1.7,0,3.1,1.3,3.1,3l0,0
			C254.9,400,253.6,401.3,251.9,401.3z"/>
		<polygon class="st12" points="225.6,401.3 82.1,401.3 60.5,318.3 204.1,318.3 		"/>
		<path class="st0" d="M150.3,355.8c1.4,11.9-15.9,10.2-16.8,0C132.1,344,149.4,345.7,150.3,355.8z"/>
		<path class="st14" d="M395.7,220.7c0.6,3.9-12.2-1.9-14.2-2.7c-1.8,9.4,35.8,90.4,45,70.2c0,1.9,2.2,3.2,4,2.8
			c11.4-5.1-0.4-48.1-3.9-58.1c-5.6-14.9-14.2-28.6-26.6-38.2c-1.7,12.6-6.9,7.2-3.5-2.1c-11.6-5.5-16.8,7.9-15.9,20.1
			C386,214.4,391.9,216.3,395.7,220.7z M414.1,241.4c0.2-3.6,3-10.8,7.5-8.2c1.2,1.2-0.3,4.7-0.6,6.2c-0.5,2-3,11-6.3,5.8
			C414,244.1,413.9,242.7,414.1,241.4z M404.6,215.3c0.4-2.5,0.1-5.9,2-7.8c2.3-1.4,1.7,3,1.6,4
			C408.8,214.2,404.7,222.1,404.6,215.3z M402.6,236.8c0.3,0.1,0.5,0.4,0.5,0.6c5.2,5.6-15.6-2-8.5-3.4
			C397.5,234.2,400.2,235.6,402.6,236.8z"/>
		<path class="st12" d="M433.8,306.4c0.3,2.1,1.6,4.3,3.6,4.9c4.5,1.3,0.1,3.6,3,6.2c6.4,3.8,12.4-4.7,18.1-6.9
			c-1.1,0-7.7-1.7-5.4-3.6c2.7-0.9,6.5,0.3,9,1.1c59-43.9,18.9-79.4-6.6-44.5C447,276.9,435.7,290.4,433.8,306.4z M468.5,263.5
			c0.1,3.2,0.3,8.2-2.4,10.3c-2.5-1.6-3.9-6.7-4.3-9.6C463.1,257.3,467.8,254.8,468.5,263.5z M480,264.5c-4.2-2,3.7-4.8,5.7-3.8
			C487.5,262.5,481.6,264.5,480,264.5z M470.9,276.7c-3-3.1,8-4.2,9.3-2.4C480.6,277.2,472.6,278,470.9,276.7z M459.1,289.8
			c1.5-3.7,19-7.9,15.8-1.9C472.7,289.6,457.4,295.4,459.1,289.8z M454.3,274.5c1.7,1.6,4.2,7,1.6,8.9
			C454.2,280.6,452.2,277.5,454.3,274.5z M436.7,303.1c-0.6-4.5,4.2-0.5,3.5,2C439.6,309.7,437.2,305.3,436.7,303.1z"/>
		<path class="st15" d="M456.6,278c0-0.1,0-0.1,0-0.2C456.6,277.8,456.6,277.9,456.6,278c0-0.1,0-0.1,0-0.2c0,0,0,0,0,0
			c0-0.1,0-0.1,0-0.2C456.6,277.8,456.6,277.9,456.6,278z"/>
		<path class="st4" d="M358.6,269.2c-0.5,6.2,4.5,14.8,7.4,20.1c9.1,16.7,23.3,32.7,42.3,36.6c2.1,0.5,15.3,6.2,16.1,5.7
			c2.1-1.3-1.2-9.5-1.6-11.5c-1.9-8.2-5.2-18.1-11.3-24.2c-0.8,17.2-5.4,8.4-1.5-2.1c-5.7-11.7-18.6-20.6-30.2-26.2
			c-0.4,2.9,0.7,6.2-0.1,9.1c-1.3,1.9-4.2,0-4.7-1.5c-0.4-1.1,0.6-10.1,0.5-10.2c-5-1.5-11.2-5.9-16.3-3.5c-3.8,4.7-0.5,5,3.8,5.5
			c1.4,0.6,3,2.2,2.3,3.7C363.1,271.3,360.8,269.1,358.6,269.2z M388.8,310.2c2.7-3.6,13.7-0.2,14.4,4.1
			C400.2,313.1,390.3,314.5,388.8,310.2z M388.6,279.7c5.2-0.4,3.5,9.4,3.4,12.7C389.4,293.1,385.1,281.7,388.6,279.7z M368.6,287.2
			c-7.9-7.1,16.7-2.5,15.1,3C379.5,293.9,372.8,289.4,368.6,287.2z"/>
		<path class="st16" d="M428.7,354.5c0.3-30.3-20.3-39.6-39.6-57.8l0.7-0.7c19.6,18.5,40.2,27.9,39.9,58.5L428.7,354.5z"/>
		<path class="st16" d="M433.1,370.4l-1-0.2c0.9-36.3-0.7-51,20.9-82l0.8,0.5C432.2,319.9,434.1,334.1,433.1,370.4z"/>
		<path class="st16" d="M431.4,362.3c3.7-51-9.3-94.8-30-139.6l0.9-0.4C425.4,275.1,434.4,303.1,431.4,362.3L431.4,362.3z"/>
		<g>
			<g>
				<path class="st6" d="M452.9,401.5c0,0-43.9-0.5-43.9-0.8l-3.1-46.4h50.6C456.6,354.3,452.9,401.4,452.9,401.5z"/>
				<path class="st16" d="M453.2,369.2c-12.5-5.6-25.4-9.8-38-14.9h41.4l-1.4,15.8C454.5,369.8,453.8,369.5,453.2,369.2z"/>
				<path class="st6" d="M399.8,345.3c1.5,0.1,60.1-0.2,61.5,0.1v12.7c-1.4,0.4-58.6,0-60.1,0.1L399.8,345.3z"/>
			</g>
		</g>
		<polygon class="st16" points="449.3,359.3 408.4,358.8 408.4,358.3 449.4,358.9 		"/>
		<g>
			<polygon class="st17" points="534.4,89.3 532.4,89.3 532.4,52.3 491.4,52.3 491.4,50.3 534.4,50.3 			"/>
			<polygon class="st17" points="534.4,380.3 491.4,380.3 491.4,378.3 532.4,378.3 532.4,341.3 534.4,341.3 			"/>
		</g>
		<g>
			<polygon class="st17" points="112.4,89.3 110.4,89.3 110.4,50.3 153.4,50.3 153.4,52.3 112.4,52.3 			"/>
			<polygon class="st17" points="153.4,380.3 110.4,380.3 110.4,341.3 112.4,341.3 112.4,378.3 153.4,378.3 			"/>
		</g>
		<polygon points="507.9,500.3 482,402.9 480.1,403.4 505.8,500.3 		"/>
		<polygon points="95.7,500.3 121.4,403.4 119.5,402.9 93.7,500.3 		"/>
		<rect x="31.4" y="400.3" width="538" height="2"/>
		<rect x="262.4" y="303.3" width="13" height="19"/>
		<path d="M257.4,300.3c-0.7,40.7-61.3,40.7-62,0C196.1,259.6,256.7,259.6,257.4,300.3z"/>
		<rect x="219.4" y="347.3" width="14" height="76"/>
		<path d="M239.9,353.3c-0.9-0.7-30.7,1.7-29.6-1.4c0.5-1.3-1.2-7.7,1.4-7.6c0,0,28.1,0,28.1,0c2.6-0.2,1,6.3,1.4,7.6
			C241.4,352.7,240.7,353.3,239.9,353.3z"/>
		<path class="st18" d="M256.9,347.3h-83.1c-2.5,0-4.5-2-4.5-4.5v-52.1c0-2.5,2-4.5,4.5-4.5h83.1c2.5,0,4.5,2,4.5,4.5v52.1
			C261.4,345.3,259.4,347.3,256.9,347.3z"/>
		<path class="st6" d="M263.9,347.3h-83.1c-2.5,0-4.5-2-4.5-4.5v-52.1c0-2.5,2-4.5,4.5-4.5h83.1c2.5,0,4.5,2,4.5,4.5v52.1
			C268.4,345.3,266.4,347.3,263.9,347.3z"/>
		<g>
			<path class="st18" d="M244.4,313.8c-0.4,24.3-36.6,24.3-37,0C207.8,289.5,243.9,289.5,244.4,313.8z"/>
			<path d="M226.1,332.4c-24.8-0.4-24.8-37.3,0-37.8C251,295.1,251,332,226.1,332.4z M226.1,295.6c-23.5,0.4-23.5,35.4,0,35.8
				C249.6,331,249.6,296,226.1,295.6z"/>
		</g>
		<path d="M354.2,338.3l-74.7,0.6c-3.9,0-7.1-3.3-7.1-7.3v-36.8c0-4.1,3.2-7.4,7.1-7.5l74.7-0.6c3.9,0,7.1,3.3,7.1,7.3v36.8
			C361.4,335,358.2,338.3,354.2,338.3z"/>
		<polygon class="st12" points="354.4,335.3 279.4,335.8 279.4,290.3 354.4,289.8 		"/>
		<path d="M236.4,313.3c0.2,13-20.2,13-20,0C216.2,300.4,236.5,300.4,236.4,313.3z"/>
		<path class="st0" d="M223.4,308.1c0.1,4-6.3,4-6.2,0C217.1,304.1,223.4,304.1,223.4,308.1z"/>
		<g>
			<path class="st4" d="M234.4,445.3c0.2,10.4-16.2,10.4-16,0C218.2,435,234.5,435,234.4,445.3z"/>
			<path class="st4" d="M234.4,430.3c0.2,10.4-16.2,10.4-16,0C218.2,420,234.5,420,234.4,430.3z"/>
			<path class="st4" d="M234.4,462.3c0.2,10.4-16.2,10.4-16,0C218.2,452,234.5,452,234.4,462.3z"/>
			<path class="st4" d="M234.4,478.3c0.2,10.4-16.2,10.4-16,0C218.2,468,234.5,468,234.4,478.3z"/>
			<path class="st4" d="M221,500.3h10.9c5.1-4.2,2.2-13.5-4.5-14C219.7,485.2,215.3,495.5,221,500.3z"/>
		</g>
		<g>
			<path class="st4" d="M249.8,427.5c3.8,9.6-11.4,15.4-15,5.7C231,423.5,246.3,417.7,249.8,427.5z"/>
			<path class="st4" d="M256.8,441.5c3.8,9.6-11.4,15.4-15,5.7C238,437.5,253.3,431.7,256.8,441.5z"/>
			<path class="st4" d="M264.8,452.5c3.8,9.6-11.4,15.4-15,5.7C246,448.5,261.3,442.7,264.8,452.5z"/>
			<path class="st4" d="M270.8,466.5c3.8,9.6-11.4,15.4-15,5.7C252,462.5,267.3,456.7,270.8,466.5z"/>
			<path class="st4" d="M275.8,481.5c3.8,9.6-11.4,15.4-15,5.7C257,477.5,272.3,471.7,275.8,481.5z"/>
			<path class="st4" d="M283.1,500.3c1.7-12.3-17.7-12.2-15.9,0H283.1z"/>
		</g>
		<g>
			<path class="st4" d="M186.5,500.3c-1.1-8.7-14.7-8.7-15.9,0H186.5z"/>
			<path class="st4" d="M192.8,491.2c3.8-9.6-11.4-15.4-15-5.7C174,495.1,189.3,500.9,192.8,491.2z"/>
			<path class="st4" d="M200.5,477.7c3.9-9.7-11.5-15.6-15.1-5.7C181.6,481.7,197,487.6,200.5,477.7z"/>
			<path class="st4" d="M207.8,464.2c3.8-9.6-11.4-15.4-15-5.7C189,468.1,204.3,473.9,207.8,464.2z"/>
			<path class="st4" d="M214.8,450.2c3.8-9.6-11.4-15.4-15-5.7C196,454.1,211.3,459.9,214.8,450.2z"/>
			<path class="st4" d="M218.8,434.2c3.8-9.6-11.4-15.4-15-5.7C200,438.1,215.3,443.9,218.8,434.2z"/>
		</g>
		<path d="M252.2,423.3c0.2-0.1,0.1-5.7,0.1-6h-52c0,0.3-0.1,5.9,0.1,6H252.2z"/>
		<polygon points="291.4,304.3 290.4,304.3 290.4,295.3 303.4,295.3 303.4,296.3 291.4,296.3 		"/>
		<polygon points="303.4,332.3 289.4,332.3 289.4,321.3 291.4,321.3 291.4,331.3 303.4,331.3 		"/>
		<polygon points="344.4,332.3 330.4,332.3 330.4,331.3 343.4,331.3 343.4,320.3 344.4,320.3 		"/>
		<polygon points="344.4,305.3 343.4,305.3 343.4,296.3 331.4,296.3 331.4,295.3 344.4,295.3 		"/>
		<path class="st19" d="M340.2,304.9c0.1,7.7-11.7,7.9-11.6,0.1C328.5,297.3,340.3,297.2,340.2,304.9z"/>
		<path d="M186,230.3c-6.8,5.9-8.1-95.1-15.7-81.1c0,0-5.6,29.8-5.6,29.8c-0.4,2.7-4.4,3.2-5.4,0.7c-0.4-0.8-1.1-1.1-1.7-1.1
			c-2-0.4-3.6,7.4-4.4,8.5c-0.3,0.9-1.1,1.7-2.1,1.9c-2.2,0.5-3.3-1.4-3.8-3.1c-0.8-1.5-2.7-1.5-3.4,0.1c0,0-5,14.1-5,14.1
			c-0.9,2.7-5.1,2.3-5.4-0.5c0,0-5.8-32.6-5.8-32.6c-0.4-1.9-2.8-2-3.5-0.2c0,0-4,12.7-4,12.7c-0.4,1.1-1.3,2-2.5,2.1
			c-1.5,0.1-2.7-0.9-3-2.4l-2.8-17c-0.4-2-2.9-2.1-3.5-0.2c0,0-6,22-6,22c-0.6,2.5-4.4,2.8-5.3,0.3c-0.6-2-3.2-2-3.6,0.1
			c0,0-4,25.9-4,25.9c-0.6,3.2-5,3.2-5.6,0c0,0-4.6-29.5-4.6-29.5c-0.4-1.9-2.8-2.1-3.5-0.3c0,0-2.4,7.3-2.4,7.3
			c-0.8,2.7-5,2.4-5.4-0.4c0,0-10.1-55.1-10.1-55.1c-0.2-1-1-1.5-1.7-1.5c-0.7,0-1.5,0.3-1.8,1.3l-17.7,64.9l-1-0.3
			c1.3-0.9,16.5-70.2,20.5-66.9c4.2-2.6,11.6,56.3,12.8,57.4c3.1,5.7,5.1-5.3,5.9-7c0.8-2.8,5.1-2.6,5.5,0.3c0.8,0.7,3.4,33,6.4,31
			c2.9,1.8,5.1-26.5,5.8-27.3c0.3-2.8,4.3-3.4,5.4-0.8c0.5,1.9,3,2.2,3.6,0.3c0,0,6-22,6-22c0.9-2.9,4.9-2.7,5.5,0.3
			c0.8,1.3,1.7,19.2,4.4,18.5c0.7,0.1,1.5-0.3,1.9-1.3l4.1-12.8c0.8-2.8,5-2.5,5.4,0.4c0,0,5.9,32.7,5.9,32.7
			c0.4,1.9,2.8,2.1,3.5,0.3c0,0,4.9-14,4.9-14c0.7-2.4,4.4-2.6,5.3-0.3c0.3,1,1.2,2.8,2.4,2.6c3.6-0.1,3.5-15.9,9.6-8.8
			c0.8,1.7,3,1.4,3.4-0.4c0,0,5.6-29.9,5.6-29.9c0.6-3.2,5.1-3,5.5,0.2c0,0,9.4,78.5,9.4,78.5c0.3,2.2,3.3,2.1,3.6,0
			c0,0,4.6-44.3,4.6-44.3l1,0.1C192.2,185,191,233,186,230.3z"/>
		<path class="st8" d="M522.4,66.3c0.2,10.4-16.2,10.4-16,0C506.2,56,522.5,56,522.4,66.3z"/>
	</g>
</g>
</svg>
