<?xml version="1.0" encoding="utf-8"?>
<!-- Generator: Adobe Illustrator 24.2.3, SVG Export Plug-In . SVG Version: 6.00 Build 0)  -->
<svg version="1.1" id="Capa_1" xmlns="http://www.w3.org/2000/svg" xmlns:xlink="http://www.w3.org/1999/xlink" x="0px" y="0px"
	 viewBox="0 0 551 431" style="enable-background:new 0 0 551 431;" xml:space="preserve">
<style type="text/css">
	.st0{fill:#F7F9FB;}
	.st1{fill:#F1F5F9;}
	.st2{fill:#384E6B;}
	.st3{fill:#FFFFFF;}
	.st4{fill:#2E4057;}
	.st5{fill:#00A393;}
	.st6{fill:#FBBF24;}
	.st7{fill:#FFEDDE;}
	.st8{fill:#00BDAB;}
	.st9{fill:#06B6D4;}
	.st10{fill:#400F58;}
</style>
<path class="st0" d="M298.3,7.5c-2.1-8.1-13.4-8.3-21.7-6.6c-38.2,8-81,21.8-118.2,33.6c-22.1,7.3-43.5,16.4-64.1,27.2
	c-6.2,3.3-13.4,9.8-9.9,15.9c2.5,4.4,8.7,4.5,13.8,3.9c52.9-5.5,105-18.4,154.3-38.2c13.9-5.6,27.8-11.8,39-21.7
	C295.6,18,299.6,12.8,298.3,7.5z"/>
<path class="st1" d="M496.9,304.7c0.6,11.1-0.8,23.1-6.3,33.9c-0.1,0.2-0.2,0.4-0.3,0.6c-0.1,0.1-0.1,0.2-0.2,0.3
	c-0.3,0.7-0.7,1.3-1.1,2c-1.9,3.3-4.2,6.4-6.9,9.4c-3.4,3.7-7.6,7.1-12.5,10.1c-0.6,0.4-1.2,0.8-1.9,1.1c-1.4,0.8-2.8,1.6-4.3,2.4
	c-29.4,15.4-74.7,21-100.1,23c-6.3,0.1-12.6,0.5-18.8,1c-10.9,1-21.7,2.8-32.5,5.3c-36.7,8.4-71.2,25.1-108,33
	c-33,7.1-70.1,6-97.7-12.4c-5.8-3.9-10.4-9.2-13.6-15.4c-3.5-7.1-6.5-13.4-9.6-19.3c-0.5-0.9-1-1.9-1.5-2.8
	c-0.1-0.1-0.1-0.3-0.2-0.4c-3.8-7.1-7.9-13.8-13.6-20.9c-0.8-1-1.7-2.1-2.6-3.3c-0.5-0.6-0.9-1.1-1.5-1.7c-0.1-0.1-0.3-0.3-0.4-0.6
	c-1.4-1.6-2.9-3.3-4.5-4.9c-5.5-5.7-11.4-11.1-17.2-16.7c-0.5-0.5-1-1-1.5-1.5c-0.4-0.4-0.8-0.8-1.2-1.2c-1.5-1.5-3-3.1-4.6-4.7
	C7.3,291.2-5.1,248.4,2,208.6c7.1-39.8,33.6-75.7,69.6-94.2c6.6-3.4,13.4-6.2,20.4-8.6c0.9-0.3,1.9-0.6,2.8-0.9
	c23.1-7.5,47.9-10.6,71.9-15c48.9-9,96.7-23.9,142.1-44.2c7.5-3.4,15-6.9,22.6-10.5c0.9-0.4,1.9-0.8,2.8-1.3
	c24.2-11.3,48.5-22.2,74.8-26.7c11.3-1.9,22.9-2.6,34-0.1c29.6,6.8,50.5,37.3,50.5,67.6c0,34.7-22.7,66.5-22,101.2
	c0.2,12.3,3.5,24.2,8.2,35.6c4.5,10.7,10.5,21,16.8,30.7c0.4,0.6,0.8,1.2,1.2,1.9c4.2,6.6,8.7,13,12.9,19.6l-14.4,32.3
	C496.4,299,496.7,301.8,496.9,304.7z"/>
<path class="st2" d="M490.6,338.6c-0.1,0.2-0.2,0.4-0.3,0.6l-317.4,32.5h-0.3L63.9,350.6c-0.1-0.1-0.3-0.3-0.4-0.6
	c-1.4-1.6-2.9-3.3-4.5-4.9c-5.5-5.7-11.4-11.1-17.2-16.7c-0.5-0.5-1-1-1.5-1.5l285.9-13.7l132.7-6.4l33.2-1.9l4.7-0.3
	C497.5,315.9,496,327.7,490.6,338.6z"/>
<path class="st3" d="M490.1,339.5c-0.3,0.7-0.7,1.3-1.1,2c-1.9,3.3-4.2,6.4-6.9,9.4c-3.4,3.7-7.6,7.1-12.5,10.1
	c-0.6,0.4-1.2,0.8-1.9,1.1l-251.5,28.9l-39.6,4.6l-0.7-12.6l-0.5-9.3h0.1l20.8-2.3L490.1,339.5z"/>
<path class="st4" d="M201.1,202.3c-3.8-7.5-11.3-12.3-22.3-14.5c-6.7-1.3-14.7-1.7-24.1-1c-43.1,3.2-74.8,11.7-94.3,25.3
	c-13.3,9.3-18.9,26.5-13.6,42l24,70.7l0.8,2.4l62.6-4.4l14.5-1h0.3l0.2-0.2c0,0,0.1-0.1,0.1-0.2c1.8-2.1,18.3-22.2,32.5-45.9
	C202.3,241.7,208.7,217.1,201.1,202.3z M148.4,320.4l-49.6,3.5L76,325.4l-3.4,0.3l-0.3-1l-24.2-71.2c-5.1-14.9,0.3-31.5,13.1-40.4
	c14.3-10,35.5-17.2,63.2-21.5c0.1,0,0.1,0,0.1,0c9.3-1.5,19.5-2.6,30.3-3.4c3.2-0.2,6.2-0.3,9.1-0.3c18.8,0,30.9,5.1,36,15.1
	C217,236.5,152.4,315.5,148.4,320.4z"/>
<path class="st4" d="M76.3,326.5l-24.7-72.7c-5.1-15.2,0.2-32,13.4-41.1c15.3-10.7,43.1-21.3,93.9-25.1c113.1-8.4-6,133.5-6,133.5
	L76.3,326.5z"/>
<path d="M283.1,68.6c0.6-2.1,0.7-4.1,0.6-6c-0.1-1.9-0.3-3.8-0.4-5.9c-0.2-1.3-0.5-2.6-0.9-3.9c-1.5-5.1-4.6-9.8-8.7-13.2
	c-8.1-6.9-19-9.4-29.6-9.8c-15.9-0.6-33.1,4.2-42.5,17c-8.1,10.9-9.1,25.2-12.7,38.3c-6,21.5-19.7,40-35.4,55.7
	c-9.2,9.2-19.7,18.6-22.2,31.4c-2.4,12.6,4.2,25.8,14.3,33.6c3.7,2.8,7.9,5.1,12.4,6.2c4.6,1.1,9.4,1,14.1,0.3
	c14.3-2.4,26.7-11.2,38.8-19.2c1.2-0.8,2.4-1.6,3.7-2.5c8.8-6.6,9.5-18.4,16.4-26.7c1.2-1.7,2.4-2.8,3.7-3.6
	c16.3-0.6,43.3-9.6,47.6,13.5c0.4,1.2,0.9,2.6,1.4,3.7c2,4.8,4.7,8.8,10.9,9.1c1,0.1,2.1,0.1,3.3,0.1c5.4-0.1,10.9-1.5,14.7-5.3
	c4-4,5.3-10,5.3-15.7c0.1-7.9-2-15.8-6-22.6c-1.5-2.6-3.3-5.1-5.2-7.5c-1-1.2-1.9-2.3-3-3.4c-14.5-10-24.2-26.6-22.2-44.4
	c0-1.7,0.1-3.5,0.2-5.2c0.3-5.2,1.1-10.5,1.9-15.6L283.1,68.6z"/>
<path d="M276.4,71.5c-3.3,9.7,1,19.7,7.2,27.3c7.8,9.4,17.7,16.3,24.4,26.7c6.6,10.4,12,23.6,9.3,36.1c-1.1,5.1-3.9,7.3-8.8,8.6
	c-4.1,1.1-8,2.3-11.5,4.8c-0.8,0.6-0.1,1.9,0.8,1.3c4.1-2.8,8.5-3.7,13.2-5.2c2.9-1,5.3-2.6,6.6-5.3c4.6-9.5,1-22.6-3.1-31.6
	c-5.1-11.3-13-19.8-21.9-28.2c-9.1-8.7-19.2-20.5-14.6-34C278.2,70.9,276.8,70.5,276.4,71.5z"/>
<path class="st3" d="M224.2,151.8l8-5.9l10.2-4.8l31.6,10.7l13.5,142.7l-34.8,8.8l-24-72.3L224.2,151.8z"/>
<path d="M288.4,131.4c13.1,2.6,25.5,10,32.4,21.7c7.2,12.1,7.3,28-0.6,39.7c-0.6,0.8,0.8,1.6,1.3,0.8c8.1-11.9,8.1-28,1.2-40.4
	c-7-12.5-20-20.6-33.9-23.3C287.8,129.8,287.4,131.2,288.4,131.4z"/>
<path d="M182.3,113c-10.2,8-20,16.7-30.3,24.8c-8.1,6.4-17.1,12-22.8,20.9c-11.2,17.4-3,39,12.4,50.7c8.7,6.6,20.4,11.8,31.4,8.4
	c1-0.3,0.6-1.8-0.4-1.5c-10,3.1-20.8-1.5-28.9-7.4c-8.1-5.8-14.6-14.1-17.1-23.9c-2.4-9.5-0.4-19.6,5.3-27.5
	c5.6-7.7,13.8-12.8,21.2-18.6c10.2-8.1,20-16.7,30.3-24.8C184.2,113.5,183.1,112.4,182.3,113z"/>
<path class="st5" d="M317.4,333.9l-104.7-2.5c0-2.8,2.1-5.2,4.9-5.5l108.1-11.7L317.4,333.9z"/>
<path class="st3" d="M197.9,74.8c-1.2,12-3.7,24.1-8.9,35.1c-5.1,10.9-13.2,19.5-21.5,28c-7.4,7.7-14.8,15.8-18.5,26
	c-3,8.5-2.4,17.8,1.7,25.9c4,8.1,11.4,14,20.7,13.8c1,0,1-1.6,0-1.5c-9.4,0.2-16.5-6.3-20.1-14.5c-4.3-9.9-2.9-20.5,2.3-29.8
	c5.3-9.5,13.4-16.9,20.8-24.7c7.1-7.5,13.1-15.5,17.2-25c4.5-10.5,6.8-21.8,8-33.2C199.6,73.8,198,73.8,197.9,74.8z"/>
<path class="st3" d="M275.5,103.7c-0.1,13.5,11.1,22.3,19.3,31.4c4.9,5.4,9.3,11.6,9.7,19.2c0.5,7.4-2.6,14.6-8,19.5
	c-0.8,0.7,0.3,1.8,1.1,1.1c9.8-8.9,10.9-23,3.9-33.9c-8-12.3-24.5-21.1-24.4-37.4C277.1,102.6,275.5,102.6,275.5,103.7z"/>
<path class="st6" d="M269.6,150.4c3,6.4,0.3,14,1.4,21c6,40.9,4.4,82.9,5.1,124.1c0.1,6.3,0.3,13,4.3,17.9c0.8,0.9,1.7,1.8,2.8,2.1
	c0.9,0.3,1.9,0.2,2.8,0.1c13.4-0.8,26.8-1.6,40.2-2.4c-4.4-25.7-8.7-51.4-13-77.1c10.5,12.9,20.9,25.9,31.3,38.8
	c4.4-11.6,8.9-23.1,13.2-34.7c0.6-1.4,1-2.8,0.8-4.3c-0.2-1.3-0.9-2.4-1.7-3.5c-10.2-15.4-20.9-30.3-32.2-44.9
	c-6.9-8.9-14-17.7-23.1-24.2C292.2,156.6,280.7,153.1,269.6,150.4z"/>
<path class="st7" d="M320.8,307.9c0,0.9-0.7,1.7-1.4,2.1c-1.4,0.9-3,1.2-4.6,1.5c-7.3,1-14.9-0.1-21.5-3.3c2.7,3.7,5.4,7.3,8.2,10.9
	c0.3,0.5,0.8,1,0.6,1.7c-0.1,0.5-0.6,0.8-1,1c-0.6,0.3-1.1,0.6-1.7,0.9c-3.1,1.5-6.6,2-10.1,1.5c-7.3-1-13.4-6.3-20.8-7.3
	c-3.7-0.5-7.4,0.1-11.1,0.3c-3.7,0.2-7.7-0.1-10.7-2.2c-0.8-0.5-1.4-1.2-1.7-2c-0.8-2.1,0.8-4.3,2.1-6.2c0.4-0.6,0.8-1.2,1.2-1.8
	c1.9-3.1,3.2-6.6,3.8-10.2c4-0.3,9.1-1.6,13-2.6c5.7-1.5,11.8-3.9,17.1-1.5c1.2,0.6,2.4,1.3,3.5,2.1c9.4,6.3,19.7,12.7,31,12.7
	C318.2,305.7,320.8,306.1,320.8,307.9z"/>
<path class="st7" d="M299.2,322.8c-3.1,1.5-6.6,2-10.1,1.5c-7.3-1-13.4-6.3-20.8-7.3c-3.7-0.5-7.4,0.1-11.1,0.3
	c-3.7,0.2-7.7-0.1-10.7-2.2c-0.8-0.5-1.4-1.2-1.7-2c-0.8-2.1,0.8-4.3,2.1-6.2c0.4-0.6,0.8-1.2,1.2-1.8c2.6,1.9,8.2,4.2,18.8,2.9
	c16.8-2.1,13.3,7.6,25.3,11.1C295.9,320.4,298,321.7,299.2,322.8z"/>
<path d="M280,49.8c-7.1-23.1-34-28.3-54.9-23c-10.1,2.6-19.7,8-26.3,16.1c-7.9,9.6-10.9,22-12.8,34.1c-1.2,7.8-1.8,15.8-3.6,23.5
	c-1,4.5-3.5,8.5-5.1,12.8c-0.3,1,1.2,1.3,1.5,0.4c1.2-3.3,3-6.3,4.2-9.6c1.7-4.9,2.4-10.4,3-15.5c1.7-12.2,2.9-24.8,8.4-35.9
	c9.7-19.7,32.1-28.3,53.2-25.8c14.1,1.7,26.5,9.1,30.9,23.3C278.9,51.2,280.3,50.8,280,49.8z"/>
<path class="st7" d="M228.9,85.7c-7.2-2.1-10.8,0.8-11.7,5.8c-0.9,5.1,3.7,10.4,8.9,10.2c0.5,6.3,1.4,12.6,3.9,18.3
	c2.6,5.7,6.9,10.9,12.7,13.4c6.5,2.7,14.4,1.5,19.7-3.1c2.1-1.8,3.9-4.1,5.5-6.4c5-7,9.3-14.7,11.1-23.1c1.9-8.4,1.2-17.6-3.4-24.9
	c-0.5-0.8-1-1.6-1.9-2c-1.2-0.6-2.6-0.3-3.9,0C256.1,77.7,243.1,85.8,228.9,85.7z"/>
<path d="M282.5,55.2c1,3.7,2.1,7.4,1.9,11.2c-0.1,3.8-1.7,7.8-4.8,9.9c-2.5,1.7-5.7,2-8.6,3c-5.8,1.9-10.3,6.5-14.9,10.7
	c-4.3,3.9-9.7,7.8-15.4,6.7c-5.3-1-8.7-6-10.9-10.9c-1.2-2.6-2.1-5.5-1.5-8.3c0.4-1.6,1.3-3,2.3-4.4c5.7-7.5,15-11.7,24.4-13.1
	c9.3-1.5,18.9-0.5,28.3,0.5L282.5,55.2z"/>
<path d="M230.1,86c2,11.9,15.6,17.8,25.5,10.8c4.7-3.3,7.8-8.4,11.9-12.3c4.4-4.2,12-6,13.3-12.7c0.2-1-1.3-1.4-1.5-0.4
	c-1.1,6-8.1,7.8-12.2,11.4c-3.3,2.9-5.8,6.6-8.9,9.8c-4.1,4.2-9.4,6.9-15.4,5.5c-6.1-1.3-10.3-6.4-11.3-12.4
	C231.4,84.6,229.9,85.1,230.1,86z"/>
<path class="st4" d="M490.6,338.6c-0.1,0.2-0.2,0.4-0.3,0.6c-0.1,0.1-0.1,0.2-0.2,0.3c-0.3,0.7-0.7,1.3-1.1,2l-292.7,29.9l-20.8,2.1
	v0.1l0.5,9.3l0.6,12.7l39.7-4.7l253.4-30c-0.6,0.4-1.2,0.8-1.9,1.1c-1.4,0.8-2.8,1.6-4.3,2.4l-288.1,34.1c-0.1,0-0.1,0-0.1,0
	c-0.3,0-0.6-0.1-0.9-0.3c-0.3-0.2-0.5-0.6-0.5-1l-1.2-25c0-0.3,0.1-0.5,0.1-0.7c0.2-0.4,0.6-0.7,1-0.7L490.6,338.6z"/>
<path class="st4" d="M175.4,372.6c-0.1,0.6-0.7,1.1-1.4,1.1c-0.1,0-0.2,0-0.3,0l-0.9-0.2l-106.1-21l-1.3-0.3
	c-0.6-0.7-1.2-1.5-1.9-2.2c0.3-0.6,0.8-0.8,1.5-0.7l109.3,21.6C175,371.1,175.5,371.8,175.4,372.6z"/>
<path class="st4" d="M176.5,397.6c-0.1,0.6-0.7,1.1-1.4,1.1c-0.1,0-0.2,0-0.3,0l-91.7-19.1c-0.5-0.9-1-1.9-1.5-2.8
	c-0.1-0.1-0.1-0.3-0.2-0.4l92.1,19.2l1.8,0.3C176.3,396.1,176.8,396.9,176.5,397.6z"/>
<path class="st4" d="M135.4,324.1c0,0.8-0.6,1.4-1.3,1.5l-92.2,2.9c-0.9-0.9-1.8-1.8-2.7-2.7l31.7-1l1.5-0.1l3.5-0.1l23.1-0.8
	l25.6-0.8l9.6-0.3c0.1,0,0.1,0,0.2,0C134.9,322.9,135.4,323.4,135.4,324.1z"/>
<path class="st6" d="M417.2,152.9c0.9-4-1.5-8-5.5-8.9c-4-0.9-8,1.5-8.9,5.5s1.5,8,5.5,8.9C412.2,159.3,416.2,156.9,417.2,152.9z"/>
<path class="st6" d="M409.9,167c-8.7,0-15.9-7.1-15.9-15.9c0-8.7,7.1-15.9,15.9-15.9c8.7,0,15.9,7.1,15.9,15.9
	C425.8,159.9,418.7,167,409.9,167z M409.9,136c-8.4,0-15.2,6.8-15.2,15.2c0,8.4,6.8,15.2,15.2,15.2c8.4,0,15.2-6.8,15.2-15.2
	C425.1,142.8,418.3,136,409.9,136z"/>
<path class="st6" d="M310.8,70.4c1.5,0,2.8-1.2,2.8-2.8c0-1.5-1.2-2.8-2.8-2.8c-1.5,0-2.8,1.2-2.8,2.8
	C308,69.1,309.3,70.4,310.8,70.4z"/>
<path class="st6" d="M46.5,184.6c-5.7,0-10.2-4.6-10.2-10.2c0-5.7,4.6-10.2,10.2-10.2s10.2,4.6,10.2,10.2
	C56.7,180,52.1,184.6,46.5,184.6z M46.5,165.5c-4.9,0-8.9,3.9-8.9,8.9c0,4.9,3.9,8.9,8.9,8.9c4.9,0,8.9-3.9,8.9-8.9
	C55.3,169.4,51.3,165.5,46.5,165.5z"/>
<path class="st6" d="M132.9,64.8c0,2.3-1.9,4.2-4.2,4.2c-2.3,0-4.2-1.9-4.2-4.2s1.9-4.2,4.2-4.2C131,60.7,132.9,62.6,132.9,64.8z"/>
<path class="st8" d="M523.9,233.4l-13.6,30.5L496,296.2l-3.9,8.7l-10.9,24.6l-163.8,4.4l8.7-20.6l38-89.6c2.1-4.8,6.7-8.2,12-8.5
	c18.9-1.3,65.4-4.2,103.3-3.5c12.5,0.2,24.1,0.9,33.4,2.1c3.3,0.4,6.1,1.9,8.2,4.1C525,221.9,526.4,227.9,523.9,233.4z"/>
<path class="st4" d="M312.3,334.1l-1.3-0.5l8.7-22.2l38-90.5c2.2-5.2,7-8.7,12.5-9.1c18.4-1.3,65.4-4.2,103.4-3.5
	c13.5,0.3,24.8,1,33.5,2.1c3.3,0.4,6.3,1.9,8.6,4.4c4.2,4.4,5.4,10.9,2.9,16.5l-31.8,72.2l-1.2-0.6l31.8-72.2
	c2.2-5.1,1.2-10.9-2.6-15c-2.1-2.2-4.8-3.5-7.8-3.9c-8.7-1.1-19.9-1.9-33.4-2.1c-37.9-0.8-84.8,2.2-103.2,3.5
	c-5.1,0.3-9.4,3.5-11.4,8.2l-38,90.5L312.3,334.1z"/>
<path class="st3" d="M437.9,278.4c6.8-6.3,8.9-15,4.7-19.6c-4.2-4.6-13.1-3.2-19.9,3.1c-6.8,6.3-8.9,15-4.7,19.6
	S431,284.6,437.9,278.4z"/>
<path class="st3" d="M315.1,238.6c-3.3-6.4-7.5-12.3-10.2-19.1c-0.5-1.2-2.5-0.7-2,0.6c2.6,6.9,7,13,10.4,19.6
	C314,240.9,315.8,239.8,315.1,238.6z"/>
<path class="st3" d="M286.7,302.3c4.4,9.7,19,11.3,28.1,10.2c1.3-0.1,1.3-2.2,0-2.1c-8.3,1-22.2-0.2-26.3-9.2
	C287.9,300,286.1,301.1,286.7,302.3z"/>
<path class="st6" d="M252.8,294.1c-1.1-18.9-2.9-37.7-5.3-56.5c-1.9-15.2-3.8-30.5-7.5-45.3c-1.9-7.4-4.2-14.7-7.1-21.8
	c-2.8-6.7-7.3-14.1-4.5-21.5c-7.4,5.3-12.3,7.5-20.8,10.9c-6.9,2.7-14,4.6-20.8,7.5c-3.9,1.7-7.8,3.6-11,6.4
	c-3.7,3.2-6.3,7.3-8.8,11.4c-2.8,4.7-5.5,9.4-7.8,14.4c-3.7,8-6.4,16.3-9.4,24.5c-5.5,14.7-12.2,28.9-19.5,42.6
	c-4.6,8.7-9.6,17.6-10.9,27.3c-1.3,9.8,2,21,10.6,25.8c3.9,2.2,8.5,3,13,3.3c32.9,2.4,64-2.1,101.1-6.9c-1,0.4,1-0.1,0,0
	c1.1-0.4,1.7-1.6,2.2-2.6C249.1,307.5,252.3,300.9,252.8,294.1z"/>
<path class="st3" d="M199.1,238.4c-5.1,12.7-9.3,25.8-12.5,39c-0.1,0.6,0.2,1.1,0.7,1.2c17.5,5.5,35.9,6.2,53.7,9.9
	c2.4,0.5,10,1.2,10.5,3.9c0.4,1.9-0.4,4.5-0.8,6.4c-1.4,6.5-3.7,13.2-8.2,18.1c-0.9,1,0.6,2.4,1.5,1.5c4.7-5.1,7.2-12,8.7-18.7
	c0.8-3.6,2.6-8.9-1.6-10.7c-4.5-2-10.2-2.6-15.1-3.4c-5.3-0.9-10.5-1.6-15.8-2.4c-10.9-1.5-21.8-3.2-32.4-6.4
	c0.2,0.4,0.5,0.8,0.7,1.2c3.3-13.3,7.5-26.3,12.5-39C201.6,237.7,199.6,237.2,199.1,238.4z"/>
<path class="st3" d="M187.4,276.7c-5.7,0.9-11.2,2.5-16.5,4.8c-1.2,0.6-0.1,2.4,1,1.8c5.1-2.3,10.5-3.8,16.1-4.6
	C189.3,278.5,188.7,276.5,187.4,276.7z"/>
<path class="st7" d="M259.1,169.9c-4.8,1.8-10.2,1.2-15.4,0.2c-5.1-1-10.5-2.8-13.1-7.3c-3.3-5.6-0.6-12.6,0.9-18.9
	c2-8,2.1-16.5,0.2-24.6l19.1,3.7l6.5,1.2c-0.1,8.4,1.9,16.8,6.1,24c0.4,0.7,0.8,1.4,1.2,2.1c1.5,2.6,3,5.1,3.1,8
	C268.2,163.6,264.1,168.2,259.1,169.9z"/>
<path class="st7" d="M264.8,150.3c-17.9-1.3-24.7-13.8-27-19.7c1.5,1.2,3.1,2.1,4.9,2.9c4.9,2,10.7,1.8,15.4-0.3
	c0.9,5.3,2.8,10.5,5.5,15.2C264,149,264.4,149.6,264.8,150.3z"/>
<path class="st9" d="M409.9,100.8c-21.9,0-39.7-17.9-39.7-39.7c0-21.9,17.9-39.7,39.7-39.7c21.9,0,39.7,17.9,39.7,39.7
	C449.7,83,431.9,100.8,409.9,100.8z M409.9,22.1c-21.5,0-39,17.5-39,39c0,21.5,17.5,39,39,39c21.5,0,39-17.5,39-39
	C449,39.6,431.5,22.1,409.9,22.1z"/>
<path class="st9" d="M409.5,61.5l5.2-30.7l0.7,0.1l-5.1,29.8c6.6-0.8,16.3-2.1,17-2.5l0.1,0.3h0.1l0.3-0.3l0.1,0.3
	c-0.1,0.3-0.2,0.6-17.9,2.8L409.5,61.5z"/>
<path class="st0" d="M544.4,115.9c-1.6-4.8-3.6-9.6-7.3-12.9c-7-6.4-18.6-5.7-26.4-0.3c-7.8,5.5-12.3,14.6-14.5,23.9
	c-2.1,14.7-1.6,25.1,2.8,40.6c2.1,7.5,5.5,15,11.3,20.3c5.8,5.3,14.5,7.9,21.7,4.9c6.9-2.8,11.1-10,13.6-17
	C552.4,156.3,550.9,135,544.4,115.9z"/>
<path class="st3" d="M192.6,233.7c1.2,1,2.1,2.2,3.2,3.3c1.1,1,2.4,1.7,3.6,2.4c1.2,0.6,2.2-1.1,1-1.8c-1.2-0.7-2.5-1.4-3.5-2.4
	c-1-1-1.8-2.1-2.9-2.9C193,231.4,191.6,232.9,192.6,233.7z"/>
<path class="st3" d="M304.9,220.5c1.5-2,2.8-4.1,4.2-6.2c0.7-1.1-1.1-2.1-1.8-1c-1.3,2.1-2.7,4.2-4.2,6.2
	C302.3,220.5,304.1,221.6,304.9,220.5z"/>
<path class="st3" d="M225.9,102.4c0.8,10.2,3.3,24.4,12.9,30.2c4.4,2.6,10.2,4.4,15.3,3.6c5.2-0.8,8.9-4.7,12.1-8.6
	c0.6-0.8-0.5-1.9-1.1-1.1c-3,3.7-6.4,7.3-11.3,8.1c-5,0.8-11-1.2-15.2-4c-8.2-5.5-10.4-19.1-11.1-28.2
	C227.4,101.5,225.8,101.5,225.9,102.4z"/>
<path class="st3" d="M190.1,347.1h-30.5l-6.4-41.3h43.8L190.1,347.1z"/>
<path class="st3" d="M174.8,352.2c8.4,0,15.3-2.3,15.3-5.1c0-2.8-6.9-5.1-15.3-5.1c-8.4,0-15.3,2.3-15.3,5.1
	C159.5,349.9,166.4,352.2,174.8,352.2z"/>
<path class="st3" d="M175.2,310.9c12.1,0,21.9-2.3,21.9-5.1c0-2.8-9.8-5.1-21.9-5.1c-12.1,0-21.9,2.3-21.9,5.1
	C153.2,308.6,163,310.9,175.2,310.9z"/>
<path class="st10" d="M175.2,310c10.1,0,18.2-1.9,18.2-4.2c0-2.3-8.2-4.2-18.2-4.2c-10.1,0-18.2,1.9-18.2,4.2
	C157,308.1,165.1,310,175.2,310z"/>
<path class="st3" d="M156.1,310.2c-7.2,1-14.4,2-21.6,3c-1.7,0.2-1.9,2.5-0.9,3.5c4.9,5.2,9.9,10.4,14.8,15.6
	c4.3,4.4,8.7,8.7,14.1,11.8c2.3,1.3,4.4-2.2,2.1-3.6c-5.4-3.1-9.8-7.5-14.1-12c-4.7-4.9-9.3-9.8-14-14.7c-0.3,1.2-0.6,2.3-0.9,3.5
	c7.2-1,14.4-2,21.6-3C159.9,313.8,158.8,309.8,156.1,310.2z"/>
<path class="st3" d="M169.6,305.7c-0.6-0.8-1.2-1.7-1.8-2.6c-0.8-1.3-1-1.5-0.4-3c0.6-1.5,1.7-2,2.6-3.3c1-1.4,1.3-3,0.3-4.4
	c-1.2-1.6-3.7-2-5.5-1.8c-0.4,0.1-0.8,0.2-1.3,0.3c-1.4,0.3-3.8,0.1-4.7-1.2c-1.4-2,2.1-4.9,3.5-6.1c0.8-0.7-0.3-1.8-1.1-1.1
	c-2.1,1.9-4.4,3.7-4,6.9c0.3,2.5,1.9,4.1,4.4,3.7c1.9-0.2,9.8-2.6,7.3,2.6c-0.8,1.6-2.8,2.1-3.4,3.9c-0.9,2.6,1.7,5.5,3.1,7.3
	C169.1,307.6,170.2,306.5,169.6,305.7z"/>
<path class="st3" d="M176.5,303c-0.8-1-2.1-2.3-2.4-3.6c-0.3-2.8,1.6-2.8,2.8-4c0.6-0.6,1.1-1.2,1.2-2.1c0.3-3-3.1-3.3-5-4.4
	c-5.6-3.2-2.8-9.1-0.2-13.2c1.8-2.8,3.4-5.4,3.2-8.9c-0.1-1-1.6-1-1.5,0c0.5,7.5-10.5,13.4-4.7,21.2c1,1.3,2.1,2,3.6,2.6
	c1.9,0.8,3,2.1,1.3,4.2c-0.4,0.4-1,0.6-1.5,1.1c-2.3,2.7,0.1,5.9,1.9,8C176,304.9,177.1,303.8,176.5,303z"/>
<path class="st3" d="M182.8,304.2c-0.6-1.2-1.4-2.6-0.1-3.8c0.3-0.3,0.9-0.4,1.3-0.6c0.8-0.4,1.5-0.9,1.7-1.8c0.6-1.9-0.6-3.5-2.4-4
	c-1-0.3-1.4,1.2-0.4,1.5c1.2,0.3,1.9,1.9,0.7,2.8c-0.3,0.2-1,0.4-1.3,0.6c-0.6,0.3-1.1,0.7-1.5,1.2c-1,1.6-0.1,3.4,0.6,4.9
	C181.9,305.9,183.3,305.1,182.8,304.2z"/>
</svg>
