<?xml version="1.0" encoding="utf-8"?>
<!-- Generator: Adobe Illustrator 24.2.3, SVG Export Plug-In . SVG Version: 6.00 Build 0)  -->
<svg version="1.1" id="Capa_1" xmlns="http://www.w3.org/2000/svg" xmlns:xlink="http://www.w3.org/1999/xlink" x="0px" y="0px"
	 viewBox="0 0 1600 1400" style="enable-background:new 0 0 1600 1400;" xml:space="preserve">
<style type="text/css">
	.st0{fill:#FFFFFF;}
	.st1{fill:#262424;}
	.st2{fill:#2E4057;}
	.st3{fill:#00BDAB;}
	.st4{fill:#06B6D4;}
	.st5{fill:#FBBF24;}
	.st6{fill:#FBFEFF;}
</style>
<path class="st0" d="M426.5,215.8l31,146c1.6,7.6-3.2,13.8-10.8,13.8H271.2c-7.6,0-15.1-6.2-16.7-13.8l-31-146
	c-1.6-7.6,3.2-13.8,10.8-13.8h175.5C417.4,202,424.9,208.2,426.5,215.8z"/>
<path class="st1" d="M446.7,378.3H271.2c-9,0-17.5-7-19.4-16l-31-146c-1-4.2-0.1-8.7,2.6-12.1c2.7-3.3,6.7-5.1,10.9-5h175.5
	c9,0,17.5,7,19.4,15.9l31,146c1,4.2,0.1,8.7-2.6,12.1C455,376.5,451,378.4,446.7,378.3z M234.3,204.8c-2.5-0.1-5,1-6.6,2.9
	c-1.6,2.1-2.2,4.9-1.5,7.5l31,146c1.3,6.3,7.7,11.5,14,11.5h175.5c2.5,0.1,5-1,6.6-2.9c1.6-2.1,2.2-4.9,1.5-7.5l-31-146
	c-1.3-6.3-7.7-11.6-14-11.6L234.3,204.8z"/>
<path class="st2" d="M426.5,215.8l2.9,13.8h-203l-2.9-13.8c-1.6-7.6,3.2-13.8,10.8-13.8h175.5C417.4,202,424.9,208.2,426.5,215.8
	L426.5,215.8z"/>
<path class="st2" d="M429.5,232.3h-203c-1.3,0-2.4-0.9-2.7-2.2l-2.9-13.8c-1-4.2-0.1-8.7,2.6-12.1c2.7-3.3,6.7-5.1,10.9-5h175.5
	c9,0,17.5,7,19.4,15.9l2.9,13.8c0.3,1.5-0.6,3-2.1,3.3C429.9,232.2,429.7,232.3,429.5,232.3z M228.7,226.7H426l-2.2-10.4
	c-1.3-6.3-7.7-11.6-14-11.6H234.4c-2.5-0.1-5,1-6.6,2.9c-1.6,2.1-2.2,4.9-1.5,7.5L228.7,226.7z"/>
<path class="st3" d="M409.1,360.8l2.5,12H305.1l-2.5-12c-2.4-11.3,2.4-21.5,12.2-25.5l32.8-13.6l38.6,13.6
	C397.6,339.3,406.7,349.4,409.1,360.8L409.1,360.8z"/>
<path class="st1" d="M327.2,375.5c-1.3,0-2.4-0.9-2.7-2.2l-2.6-12.3c-0.2-1.5,0.8-2.9,2.3-3.2c1.4-0.2,2.8,0.6,3.1,2l2.6,12.3
	c0.3,1.5-0.6,3-2.1,3.3C327.6,375.5,327.4,375.5,327.2,375.5L327.2,375.5z"/>
<path class="st0" d="M368.5,335.2c2.6,12.4-11.1,13.3-11.1,13.3s-2.1-10.6-6.4-10.6s-1.9,10.6-1.9,10.6s-14.1-1-16.8-13.3
	c-2-9.6,3-14.7,3-14.7h23.9C363.9,324.2,367.2,329.4,368.5,335.2L368.5,335.2z"/>
<path class="st1" d="M357.4,351.3c-1.3,0-2.5-0.9-2.7-2.2c-0.7-3.7-2.3-7.2-3.4-8.2c-0.3,2.3-0.1,4.7,0.5,7c0.3,1.5-0.6,3-2.1,3.3
	c-0.3,0.1-0.5,0.1-0.8,0.1c-5.6-0.4-16.9-4.1-19.3-15.5c-2.3-11,3.5-17,3.8-17.2c0.5-0.5,1.3-0.8,2-0.8h23.9c0.6,0,1.1,0.2,1.6,0.5
	c5.3,4.1,8.9,9.9,10.4,16.4c0.9,4.3,0.3,7.9-1.9,10.8c-3.9,5.2-11.4,5.8-11.7,5.8L357.4,351.3L357.4,351.3z M351,335.1
	c4.9,0,7.4,6.1,8.5,10.2c2.1-0.5,4-1.6,5.4-3.2c1.2-1.6,1.5-3.7,0.9-6.3c-1.1-4.9-3.7-9.2-7.5-12.5h-21.6c-1,1.6-2.9,5.4-1.6,11.3
	c1.4,6.7,6.9,9.4,10.7,10.4c-0.3-2.8-0.1-6.1,1.4-8.1C348.1,335.7,349.5,335,351,335.1L351,335.1z"/>
<path class="st0" d="M358.5,328c0,0-0.4,5-8.5,5s-10.6-5-10.6-5l-0.4-9.4h16L358.5,328z"/>
<path class="st1" d="M350,335.8c-9.8,0-13-6.3-13.1-6.6c-0.2-0.3-0.3-0.7-0.3-1.1l-0.4-9.4c-0.1-1.5,1.1-2.8,2.7-2.9
	c0,0,0.1,0,0.1,0h16c1.2,0,2.2,0.7,2.6,1.8l3.6,9.4c0.1,0.4,0.2,0.8,0.2,1.2C361,330.8,358.4,335.8,350,335.8L350,335.8z M342,327.1
	c0.7,0.9,2.9,3.1,7.9,3.1c4,0,5.2-1.4,5.6-2.1l-2.5-6.7h-11.2L342,327.1z"/>
<path class="st1" d="M389.6,375.5c-1.3,0-2.4-0.9-2.7-2.2l-2.6-12.3c-0.2-1.5,0.8-2.9,2.3-3.2c1.4-0.2,2.8,0.6,3.1,2l2.6,12.3
	c0.3,1.5-0.6,3-2.1,3.3C390,375.5,389.8,375.5,389.6,375.5L389.6,375.5z"/>
<path class="st0" d="M316.5,301.5h-1.4c-3.1-0.1-5.8-2.3-6.5-5.4l-1.2-5.6c-0.6-2.2,0.7-4.6,2.9-5.2c0.4-0.1,0.9-0.2,1.3-0.2h1.4
	c3.1,0.1,5.8,2.3,6.5,5.4l1.2,5.6c0.6,2.2-0.7,4.6-2.9,5.2C317.4,301.5,317,301.5,316.5,301.5L316.5,301.5z"/>
<path class="st1" d="M316.5,304.3h-1.4c-4.4-0.1-8.2-3.2-9.2-7.6l-1.2-5.6c-0.5-2.2,0-4.4,1.4-6.2c1.4-1.7,3.4-2.6,5.6-2.6h1.4
	c4.4,0.1,8.2,3.2,9.2,7.6l1.2,5.6c0.5,2.2,0,4.4-1.4,6.2C320.7,303.4,318.7,304.3,316.5,304.3L316.5,304.3z M311.6,287.9
	c-0.5,0-0.9,0.2-1.3,0.5c-0.3,0.4-0.4,1-0.2,1.5l1.2,5.6c0.4,1.8,2,3.1,3.8,3.2h1.4c0.5,0,0.9-0.2,1.3-0.5c0.3-0.4,0.4-1,0.2-1.5
	l-1.2-5.6c-0.4-1.8-2-3.1-3.8-3.2H311.6L311.6,287.9z"/>
<path class="st0" d="M370.7,301.5h-1.4c-3.1-0.1-5.8-2.3-6.5-5.4l-1.2-5.6c-0.6-2.2,0.7-4.6,2.9-5.2c0.4-0.1,0.9-0.2,1.3-0.2h1.4
	c3.1,0.1,5.8,2.3,6.5,5.4l1.2,5.6c0.6,2.2-0.7,4.6-2.9,5.2C371.6,301.5,371.2,301.5,370.7,301.5z"/>
<path class="st1" d="M370.7,304.3h-1.4c-4.4-0.1-8.2-3.2-9.2-7.6l-1.2-5.6c-0.5-2.2,0-4.4,1.4-6.2c1.4-1.7,3.4-2.6,5.6-2.6h1.4
	c4.4,0.1,8.2,3.2,9.2,7.6l1.2,5.6c0.5,2.2,0,4.4-1.4,6.2C374.9,303.4,372.9,304.3,370.7,304.3z M365.9,287.9c-0.5,0-0.9,0.2-1.3,0.5
	c-0.3,0.4-0.4,1-0.2,1.5l1.2,5.6c0.4,1.8,2,3.1,3.8,3.2h1.4c0.5,0,0.9-0.2,1.3-0.5c0.3-0.4,0.4-1,0.2-1.5l-1.2-5.6
	c-0.4-1.8-2-3.1-3.8-3.2H365.9L365.9,287.9z"/>
<path class="st0" d="M350.4,323.7h-5.5c-11.7,0-23.3-9.5-25.8-21.2l-4.5-21.1c-2.5-11.7,5-21.2,16.7-21.2h5.5
	c11.7,0,23.3,9.5,25.8,21.2l4.5,21.1C369.6,314.2,362.1,323.7,350.4,323.7z"/>
<path class="st1" d="M350.4,326.5h-5.5c-13,0-25.7-10.5-28.5-23.5l-4.5-21.1c-1.4-6.6-0.1-12.8,3.7-17.5c3.9-4.7,9.7-7.3,15.7-7.1
	h5.5c13,0,25.7,10.5,28.5,23.5l4.5,21.1c1.4,6.6,0.1,12.8-3.7,17.5C362.2,324.1,356.4,326.7,350.4,326.5z M331.4,262.9
	c-4.4-0.2-8.6,1.7-11.4,5c-2.7,3.4-3.6,7.9-2.6,12.9l4.5,21.1c2.2,10.5,12.6,19,23,19h5.5c4.4,0.2,8.6-1.7,11.4-5
	c2.7-3.4,3.6-7.9,2.6-12.9l-4.5-21.1c-2.2-10.5-12.6-19-23-19L331.4,262.9L331.4,262.9z"/>
<path class="st1" d="M316.8,291.2c0,0-10.5-9.3-10.8-20.3s8.8-8.3,8.8-8.3s-1.9-16.2,18.7-17.1s50,21,31.8,47.8l-5.4-11.4
	c0,0-24.5,1.7-40.6-9.6C319.2,272.3,323.6,287.7,316.8,291.2L316.8,291.2z"/>
<path class="st1" d="M359.7,309c-1.4,1.9-4.3,2-6.6,0.2c-1.4-1.2-3.2-1.8-5.1-1.9h-7.9c-1.6-0.1-3.2,0.6-4.3,1.9
	c-1.5,1.8-4.5,1.7-6.7-0.2l-10.7-9.3c5.9,27.6,29.5,26.1,29.5,26.1s24.3,1.5,18.5-26.1L359.7,309z M354.1,320
	c-0.5,0.6-1.2,0.9-1.9,0.9c-0.8,0-1.6-0.3-2.3-0.9l-2.9-1.3h-1l-2.3,1.3c-0.5,0.6-1.2,0.9-1.9,0.9c-0.8,0-1.6-0.3-2.3-0.9l-4.2-3.5
	l1.2-1.6c1.3-1.6,3.2-2.5,5.3-2.4h6.6c2.3,0.1,4.5,0.9,6.3,2.4l1.9,1.6L354.1,320z"/>
<path class="st0" d="M801.3,278.1H491.2c-8.5,0-16.9-6.9-18.7-15.4s3.6-15.4,12.2-15.4h310.1c8.5,0,16.9,6.9,18.7,15.4
	C815.3,271.2,809.9,278.1,801.3,278.1L801.3,278.1z"/>
<path class="st1" d="M801.3,280.9H491.2c-9.9,0-19.3-7.8-21.4-17.6c-1.1-4.7-0.1-9.6,2.9-13.4c3-3.6,7.4-5.6,12-5.4h310.1
	c9.9,0,19.3,7.8,21.4,17.6c1.1,4.7,0.1,9.6-2.8,13.4C810.4,279.1,806,281.1,801.3,280.9L801.3,280.9z M484.7,250
	c-2.9-0.1-5.8,1.1-7.7,3.4c-1.9,2.5-2.5,5.7-1.7,8.7c1.5,7.3,8.7,13.2,16,13.2h310.1c2.9,0.1,5.7-1.1,7.7-3.3
	c1.9-2.5,2.5-5.7,1.7-8.7c-1.5-7.3-8.7-13.2-16-13.2L484.7,250L484.7,250z"/>
<path class="st0" d="M625.8,330.2H502.3c-8.5,0-16.9-6.9-18.7-15.4s3.6-15.4,12.2-15.4h123.4c8.5,0,16.9,6.9,18.7,15.4
	C639.7,323.3,634.3,330.2,625.8,330.2L625.8,330.2z"/>
<path class="st1" d="M625.8,333H502.3c-9.9,0-19.3-7.8-21.4-17.6c-1.1-4.7-0.1-9.6,2.9-13.4c3-3.6,7.4-5.6,12-5.4h123.5
	c9.9,0,19.3,7.8,21.4,17.6c1.1,4.7,0.1,9.6-2.9,13.4C634.8,331.1,630.4,333.1,625.8,333z M495.8,302.1c-2.9-0.1-5.8,1.1-7.7,3.4
	c-1.9,2.5-2.5,5.7-1.7,8.7c1.5,7.3,8.7,13.2,16,13.2h123.4c2.9,0.1,5.8-1.1,7.7-3.4c1.9-2.5,2.5-5.7,1.7-8.7
	c-1.5-7.3-8.7-13.2-16-13.2H495.8L495.8,302.1z"/>
<path class="st0" d="M482.1,477l31,146c1.6,7.6-3.2,13.8-10.8,13.8H326.8c-7.6,0-15.1-6.2-16.7-13.8l-31-146
	c-1.6-7.6,3.2-13.8,10.8-13.8h175.5C473,463.3,480.5,469.4,482.1,477L482.1,477z"/>
<path class="st1" d="M502.3,639.5H326.8c-9,0-17.5-7-19.4-16l-31-146c-1-4.2-0.1-8.7,2.6-12.1c2.7-3.3,6.7-5.1,10.9-5h175.5
	c9,0,17.5,7,19.4,16l31,146c1,4.2,0.1,8.7-2.6,12.2C510.5,637.8,506.5,639.6,502.3,639.5L502.3,639.5z M289.9,466
	c-2.5-0.1-5,1-6.6,2.9c-1.6,2.1-2.2,4.9-1.5,7.5l31,146c1.3,6.3,7.7,11.5,14,11.5h175.5c2.5,0.1,5-1,6.6-2.9
	c1.6-2.1,2.2-4.9,1.5-7.5l-31-146c-1.3-6.3-7.7-11.5-14-11.5H289.9z"/>
<path class="st2" d="M482.1,477l2.9,13.8H282l-2.9-13.8c-1.6-7.6,3.2-13.8,10.8-13.8h175.5C473,463.3,480.5,469.4,482.1,477
	L482.1,477z"/>
<path class="st2" d="M485,493.5H282c-1.3,0-2.4-0.9-2.7-2.2l-2.9-13.8c-1-4.2-0.1-8.7,2.6-12.1c2.7-3.3,6.7-5.1,10.9-5h175.5
	c9,0,17.5,7,19.4,16l2.9,13.8c0.3,1.5-0.6,3-2.1,3.3C485.4,493.5,485.2,493.5,485,493.5L485,493.5z M284.2,488h197.3l-2.2-10.4
	c-1.3-6.3-7.7-11.5-14-11.5H289.9c-2.5-0.1-5,1-6.6,2.9c-1.6,2.1-2.2,4.9-1.5,7.5L284.2,488z"/>
<path class="st3" d="M464.7,622l2.5,12H360.7l-2.5-12c-2.4-11.3,2.4-21.5,12.2-25.5l32.8-13.6l38.6,13.6
	C453.1,600.6,462.3,610.7,464.7,622z"/>
<path class="st1" d="M382.8,636.8c-1.3,0-2.4-0.9-2.7-2.2l-2.6-12.3c-0.4-1.5,0.5-3,2-3.4c1.5-0.4,3,0.5,3.4,2c0,0.1,0,0.2,0.1,0.3
	l2.6,12.3c0.3,1.5-0.6,3-2.1,3.3C383.1,636.8,383,636.8,382.8,636.8z"/>
<path class="st0" d="M424.1,596.5c2.6,12.3-11.1,13.3-11.1,13.3s-2.1-10.7-6.4-10.7s-1.9,10.7-1.9,10.7s-14.1-1-16.8-13.3
	c-2-9.6,3-14.7,3-14.7h23.9C419.5,585.4,422.8,590.6,424.1,596.5L424.1,596.5z"/>
<path class="st1" d="M413,612.5c-1.3,0-2.5-0.9-2.7-2.2c-0.7-3.7-2.3-7.2-3.4-8.2c-0.3,2.3-0.1,4.7,0.5,7c0.3,1.5-0.6,3-2.1,3.3
	c-0.3,0.1-0.5,0.1-0.8,0.1c-5.6-0.4-16.9-4.1-19.3-15.5c-2.3-11,3.5-17,3.8-17.2c0.5-0.5,1.3-0.8,2-0.8h23.9c0.6,0,1.1,0.2,1.6,0.5
	c5.3,4.1,8.9,9.9,10.4,16.4c0.9,4.3,0.3,7.9-1.9,10.8c-3.9,5.2-11.4,5.8-11.7,5.8L413,612.5L413,612.5z M406.6,596.3
	c4.9,0,7.4,6.2,8.5,10.2c2.1-0.5,4-1.6,5.4-3.2c1.2-1.6,1.5-3.7,0.9-6.3c-1.1-4.9-3.7-9.2-7.5-12.5h-21.7c-1,1.6-2.9,5.4-1.6,11.3
	c1.4,6.7,6.9,9.3,10.7,10.4c-0.3-2.8-0.1-6.2,1.4-8.1C403.6,597,405.1,596.3,406.6,596.3L406.6,596.3z"/>
<path class="st0" d="M414,589.3c0,0-0.4,5-8.5,5s-10.6-5-10.6-5l-0.4-9.4h16L414,589.3z"/>
<path class="st1" d="M405.5,597.1c-9.8,0-13-6.3-13.1-6.6c-0.2-0.3-0.3-0.7-0.3-1.1l-0.4-9.4c-0.1-1.5,1.1-2.8,2.7-2.9
	c0,0,0.1,0,0.1,0h16c1.2,0,2.2,0.7,2.6,1.8l3.6,9.3c0.1,0.4,0.2,0.8,0.2,1.2C416.6,592.1,414,597.1,405.5,597.1L405.5,597.1z
	 M397.6,588.4c0.7,0.9,2.9,3.1,7.9,3.1c4,0,5.2-1.3,5.6-2.1l-2.6-6.7h-11.2L397.6,588.4z"/>
<path class="st1" d="M445.1,636.8c-1.3,0-2.4-0.9-2.7-2.2l-2.6-12.3c-0.4-1.5,0.5-3,2-3.4c1.5-0.4,3,0.5,3.4,2c0,0.1,0,0.2,0.1,0.3
	l2.6,12.3c0.3,1.5-0.6,3-2.1,3.3C445.5,636.8,445.3,636.8,445.1,636.8z"/>
<path class="st0" d="M372.1,562.8h-1.4c-3.1-0.1-5.8-2.3-6.5-5.4l-1.2-5.6c-0.6-2.2,0.7-4.6,2.9-5.2c0.4-0.1,0.9-0.2,1.3-0.2h1.4
	c3.1,0.1,5.8,2.3,6.5,5.4l1.2,5.6c0.6,2.2-0.7,4.6-2.9,5.2C373,562.8,372.5,562.8,372.1,562.8z"/>
<path class="st1" d="M372.1,565.6h-1.4c-4.4-0.1-8.2-3.2-9.2-7.6l-1.2-5.6c-0.5-2.2,0-4.4,1.4-6.2c1.4-1.7,3.4-2.6,5.6-2.6h1.4
	c4.4,0.1,8.2,3.2,9.2,7.6l1.2,5.6c0.5,2.2,0,4.4-1.4,6.2C376.3,564.7,374.2,565.6,372.1,565.6z M367.2,549.2c-0.5,0-0.9,0.2-1.3,0.5
	c-0.3,0.4-0.4,1-0.2,1.5l1.2,5.6c0.4,1.8,2,3.1,3.8,3.2h1.4c0.5,0,0.9-0.2,1.3-0.5c0.3-0.4,0.4-1,0.2-1.5l-1.2-5.6
	c-0.4-1.8-2-3.1-3.8-3.2H367.2z"/>
<path class="st0" d="M426.3,562.8h-1.4c-3.1-0.1-5.8-2.3-6.5-5.4l-1.2-5.6c-0.6-2.2,0.7-4.6,2.9-5.2c0.4-0.1,0.9-0.2,1.3-0.2h1.4
	c3.1,0.1,5.8,2.3,6.5,5.4l1.2,5.6c0.6,2.2-0.7,4.6-2.9,5.2C427.2,562.8,426.7,562.8,426.3,562.8z"/>
<path class="st1" d="M426.3,565.6h-1.4c-4.4-0.1-8.2-3.2-9.2-7.6l-1.2-5.6c-0.5-2.2,0-4.4,1.4-6.2c1.4-1.7,3.4-2.6,5.6-2.6h1.4
	c4.4,0.1,8.2,3.2,9.2,7.6l1.2,5.6c0.5,2.2,0,4.4-1.4,6.2C430.5,564.7,428.4,565.6,426.3,565.6z M421.4,549.2c-0.5,0-0.9,0.2-1.3,0.5
	c-0.3,0.4-0.4,1-0.2,1.5l1.2,5.6c0.4,1.8,2,3.1,3.8,3.2h1.4c0.5,0,0.9-0.2,1.3-0.5c0.3-0.4,0.4-1,0.2-1.5l-1.2-5.6
	c-0.4-1.8-2-3.1-3.8-3.2H421.4z"/>
<path class="st0" d="M405.9,585h-5.5c-11.7,0-23.3-9.5-25.8-21.2l-4.5-21.1c-2.5-11.7,5-21.2,16.7-21.2h5.5
	c11.7,0,23.3,9.5,25.8,21.2l4.5,21.1C425.2,575.5,417.7,585,405.9,585z"/>
<path class="st1" d="M405.9,587.8h-5.5c-13,0-25.7-10.5-28.5-23.5l-4.5-21.1c-1.4-6.6-0.1-12.8,3.7-17.5c3.9-4.7,9.7-7.3,15.7-7.1
	h5.5c13,0,25.7,10.5,28.5,23.5l4.5,21.1c1.4,6.6,0.1,12.8-3.7,17.5C417.8,585.3,412,588,405.9,587.8z M386.9,524.2
	c-4.4-0.2-8.6,1.7-11.4,5c-2.7,3.4-3.6,7.9-2.6,12.9l4.5,21.1c2.2,10.5,12.6,19,23,19h5.5c4.4,0.2,8.6-1.7,11.4-5
	c2.7-3.4,3.6-7.9,2.6-12.9l-4.5-21.1c-2.2-10.5-12.6-19-23-19H386.9z"/>
<path class="st1" d="M372.3,552.5c0,0-10.5-9.3-10.8-20.3s8.8-8.3,8.8-8.3s-1.9-16.2,18.7-17.1s50,21,31.8,47.8l-5.4-11.4
	c0,0-24.5,1.7-40.6-9.6C374.8,533.6,379.2,549,372.3,552.5z"/>
<path class="st0" d="M856.9,539.4H546.8c-8.5,0-16.9-6.9-18.7-15.4s3.6-15.4,12.2-15.4h310.1c8.5,0,16.9,6.9,18.7,15.4
	C870.9,532.5,865.4,539.4,856.9,539.4z"/>
<path class="st1" d="M856.9,542.2H546.8c-9.9,0-19.3-7.8-21.4-17.6c-1.1-4.7-0.1-9.6,2.8-13.4c3-3.6,7.4-5.6,12-5.4h310.1
	c9.9,0,19.3,7.8,21.4,17.6c1.1,4.7,0.1,9.6-2.9,13.4C866,540.3,861.5,542.3,856.9,542.2L856.9,542.2z M540.2,511.3
	c-2.9-0.1-5.8,1.1-7.7,3.4c-1.9,2.5-2.5,5.7-1.7,8.7c1.5,7.3,8.7,13.2,16,13.2h310.1c2.9,0.1,5.8-1.1,7.7-3.4
	c1.9-2.5,2.5-5.7,1.7-8.7c-1.5-7.3-8.7-13.2-16-13.2H540.2z"/>
<path class="st0" d="M681.3,591.5H557.9c-8.5,0-16.9-6.9-18.7-15.4s3.6-15.4,12.2-15.4h123.5c8.5,0,16.9,6.9,18.7,15.4
	S689.8,591.5,681.3,591.5z"/>
<path class="st1" d="M681.3,594.3H557.9c-9.9,0-19.3-7.8-21.4-17.6c-1.1-4.7-0.1-9.6,2.9-13.4c3-3.6,7.4-5.6,12-5.4h123.5
	c9.9,0,19.3,7.8,21.4,17.6c1.1,4.7,0.1,9.6-2.9,13.4C690.4,592.4,685.9,594.4,681.3,594.3z M551.3,563.4c-2.9-0.1-5.8,1.1-7.7,3.4
	c-1.9,2.5-2.5,5.7-1.7,8.7c1.5,7.3,8.7,13.2,16,13.2h123.4c2.9,0.1,5.8-1.1,7.7-3.4c1.9-2.5,2.5-5.7,1.7-8.7
	c-1.5-7.3-8.7-13.2-16-13.2H551.3L551.3,563.4z"/>
<path class="st0" d="M537.6,738.3l31,146c1.6,7.6-3.2,13.8-10.8,13.8H382.3c-7.6,0-15.1-6.2-16.7-13.8l-31-146
	c-1.6-7.6,3.2-13.8,10.8-13.8H521C528.5,724.5,536,730.7,537.6,738.3L537.6,738.3z"/>
<path class="st1" d="M557.8,900.8H382.3c-9,0-17.5-7-19.4-16l-31-146c-1-4.2-0.1-8.7,2.6-12.2c2.7-3.3,6.7-5.1,10.9-5H521
	c9,0,17.5,7,19.4,16l31,146c1,4.2,0.1,8.7-2.6,12.2C566.1,899.1,562.1,900.9,557.8,900.8z M345.5,727.3c-2.5-0.1-5,1-6.6,2.9
	c-1.6,2.1-2.2,4.9-1.5,7.5l31,146c1.3,6.3,7.7,11.5,14,11.5h175.5c2.5,0.1,5-1,6.6-2.9c1.6-2.1,2.2-4.9,1.5-7.5l-31-146
	c-1.3-6.3-7.7-11.5-14-11.5H345.5z"/>
<path class="st2" d="M537.6,738.3l2.9,13.7h-203l-2.9-13.8c-1.6-7.6,3.2-13.8,10.8-13.8H521C528.5,724.5,536,730.7,537.6,738.3
	L537.6,738.3z"/>
<path class="st2" d="M540.5,754.8h-203c-1.3,0-2.4-0.9-2.7-2.2l-2.9-13.8c-1-4.2-0.1-8.7,2.6-12.2c2.7-3.3,6.7-5.1,10.9-5H521
	c9,0,17.5,7,19.4,16l2.9,13.8c0.3,1.5-0.6,3-2.1,3.3C541,754.8,540.8,754.8,540.5,754.8L540.5,754.8z M339.8,749.3h197.3l-2.2-10.4
	c-1.3-6.3-7.7-11.5-14-11.5H345.5c-2.5-0.1-5,1-6.6,2.9c-1.6,2.1-2.2,4.9-1.5,7.5L339.8,749.3z"/>
<path class="st1" d="M420.4,793.2l-3.3,0.2l8.8,41.2c2.6,11.1,11.4,19.8,22.5,22.3c4.4,0.9,8.8,1.3,13.3,1.2l-13.8-65H420.4z"/>
<path class="st1" d="M475.2,793.2l3.4,0.2l8.8,41.2c2.3,10.7-3.1,20.1-13,22.3c-4.2,0.9-8.5,1.3-12.8,1.2l-13.8-65H475.2
	L475.2,793.2z"/>
<path class="st4" d="M520.3,883.3l2.5,12H416.2l-2.5-12c-2.4-11.3,2.4-21.5,12.2-25.5l32.8-13.6l38.6,13.6
	C508.7,861.8,517.9,872,520.3,883.3z"/>
<path class="st1" d="M438.3,898.1c-1.3,0-2.4-0.9-2.7-2.2l-2.6-12.3c-0.2-1.5,0.8-2.9,2.3-3.2c1.4-0.2,2.7,0.7,3.1,2l2.6,12.3
	c0.3,1.5-0.6,3-2.2,3.3C438.7,898,438.5,898.1,438.3,898.1L438.3,898.1z"/>
<path class="st0" d="M479.6,857.7c2.6,12.3-11.1,13.3-11.1,13.3s-2.1-10.7-6.4-10.7s-1.9,10.6-1.9,10.6s-14.1-1-16.8-13.3
	c-2-9.6,3-14.7,3-14.7h23.9C475.1,846.7,478.3,851.9,479.6,857.7L479.6,857.7z"/>
<path class="st1" d="M468.5,873.8c-1.3,0-2.5-0.9-2.7-2.2c-0.7-3.7-2.3-7.2-3.4-8.2c-0.3,2.3-0.1,4.7,0.5,7c0.3,1.5-0.6,3-2.1,3.3
	c-0.3,0.1-0.6,0.1-0.8,0.1c-5.6-0.4-16.9-4.1-19.3-15.5c-2.3-11,3.5-17,3.8-17.2c0.5-0.5,1.3-0.8,2-0.8h23.9c0.6,0,1.1,0.2,1.6,0.5
	c5.3,4.1,8.9,9.9,10.4,16.4c0.9,4.3,0.3,7.9-1.9,10.8c-3.9,5.2-11.4,5.8-11.7,5.8L468.5,873.8L468.5,873.8z M462.1,857.6
	c4.9,0,7.4,6.2,8.5,10.2c2.1-0.5,4-1.6,5.4-3.2c1.2-1.6,1.5-3.7,0.9-6.3c-1.1-4.9-3.7-9.2-7.5-12.5h-21.6c-1,1.6-2.9,5.4-1.6,11.3
	c1.4,6.6,6.9,9.3,10.7,10.4c-0.2-2.8-0.1-6.1,1.4-8.1C459.2,858.3,460.6,857.6,462.1,857.6L462.1,857.6z"/>
<path class="st0" d="M469.6,850.5c0,0-0.4,5-8.5,5s-10.6-5-10.6-5l-0.4-9.4h16L469.6,850.5z"/>
<path class="st1" d="M461.1,858.3c-9.8,0-13-6.3-13.1-6.6c-0.2-0.3-0.3-0.7-0.3-1.1l-0.4-9.4c-0.1-1.5,1.1-2.8,2.7-2.9
	c0,0,0.1,0,0.1,0h16c1.2,0,2.2,0.7,2.6,1.8l3.6,9.3c0.1,0.4,0.2,0.8,0.2,1.2C472.2,853.4,469.5,858.3,461.1,858.3L461.1,858.3z
	 M453.1,849.7c0.7,0.9,2.9,3.1,7.9,3.1c4,0,5.2-1.3,5.6-2.1l-2.6-6.7h-11.2L453.1,849.7z"/>
<path class="st1" d="M500.7,898.1c-1.3,0-2.4-0.9-2.7-2.2l-2.6-12.3c-0.2-1.5,0.8-2.9,2.3-3.2c1.4-0.2,2.7,0.7,3.1,2l2.6,12.3
	c0.3,1.5-0.6,3-2.2,3.3C501.1,898,500.9,898.1,500.7,898.1L500.7,898.1z"/>
<path class="st0" d="M427.6,824.1h-1.4c-3.1-0.1-5.8-2.3-6.5-5.4l-1.2-5.6c-0.6-2.2,0.7-4.6,2.9-5.2c0.4-0.1,0.9-0.2,1.3-0.2h1.4
	c3.1,0.1,5.8,2.3,6.5,5.4l1.2,5.6c0.6,2.2-0.7,4.6-2.9,5.2C428.5,824,428.1,824.1,427.6,824.1z"/>
<path class="st1" d="M427.6,826.8h-1.4c-4.4-0.1-8.2-3.2-9.2-7.6l-1.2-5.6c-0.5-2.2,0-4.4,1.4-6.2c1.4-1.7,3.4-2.6,5.6-2.6h1.4
	c4.4,0.1,8.2,3.2,9.2,7.6l1.2,5.6c0.5,2.2,0,4.4-1.4,6.2C431.8,825.9,429.8,826.9,427.6,826.8z M422.8,810.5c-0.5,0-0.9,0.2-1.3,0.5
	c-0.3,0.4-0.4,1-0.2,1.5l1.2,5.6c0.4,1.8,2,3.1,3.8,3.2h1.4c0.5,0,0.9-0.2,1.3-0.5c0.3-0.4,0.4-1,0.2-1.5l-1.1-5.6
	c-0.4-1.8-2-3.1-3.8-3.2L422.8,810.5L422.8,810.5z"/>
<path class="st0" d="M481.8,824.1h-1.4c-3.1-0.1-5.8-2.3-6.5-5.4l-1.2-5.6c-0.6-2.2,0.6-4.6,2.9-5.2c0.5-0.1,0.9-0.2,1.4-0.2h1.4
	c3.1,0.1,5.8,2.3,6.5,5.4l1.2,5.6c0.6,2.2-0.6,4.6-2.9,5.2C482.8,824,482.3,824.1,481.8,824.1z"/>
<path class="st1" d="M481.8,826.8h-1.4c-4.4-0.1-8.2-3.2-9.2-7.6l-1.2-5.6c-0.5-2.2,0-4.4,1.4-6.2c1.4-1.7,3.4-2.6,5.6-2.6h1.4
	c4.4,0.1,8.2,3.2,9.2,7.6l1.2,5.6c0.5,2.2,0,4.4-1.4,6.2C486,825.9,484,826.9,481.8,826.8z M477,810.5c-0.5,0-0.9,0.2-1.3,0.5
	c-0.3,0.4-0.4,1-0.2,1.5l1.2,5.6c0.4,1.8,2,3.1,3.8,3.2h1.4c0.5,0,0.9-0.2,1.3-0.5c0.3-0.4,0.4-1,0.2-1.5l-1.2-5.6
	c-0.4-1.8-2-3.1-3.8-3.2H477z"/>
<path class="st0" d="M461.5,846.3H456c-11.7,0-23.3-9.5-25.8-21.2l-4.5-21.1c-2.5-11.7,5-21.2,16.7-21.2h5.5
	c11.7,0,23.3,9.5,25.8,21.2l4.5,21.1C480.7,836.8,473.2,846.3,461.5,846.3z"/>
<path class="st1" d="M461.5,849H456c-13,0-25.7-10.5-28.5-23.5l-4.5-21.1c-1.4-6.6-0.1-12.8,3.7-17.5c3.9-4.7,9.7-7.3,15.7-7.1h5.5
	c13,0,25.7,10.5,28.5,23.5l4.5,21.1c1.4,6.6,0.1,12.8-3.7,17.5C473.4,846.6,467.6,849.2,461.5,849z M442.5,785.5
	c-4.4-0.2-8.6,1.7-11.4,5c-2.7,3.4-3.6,7.9-2.6,12.9l4.5,21.1c2.2,10.6,12.6,19.1,23,19.1h5.5c4.4,0.2,8.6-1.7,11.4-5
	c2.7-3.4,3.6-7.9,2.6-12.9l-4.5-21.1c-2.2-10.5-12.6-19-23-19H442.5L442.5,785.5z"/>
<path class="st1" d="M477.4,813.8c0,0,6.5-9.3,2.2-20.3s-12.4-8.3-12.4-8.3s-5-16.2-25.9-17.1s-41.1,21-11.4,47.8l0.5-11.4
	c0,0,25.2,1.7,36.5-9.6C466.8,794.9,469,810.2,477.4,813.8z"/>
<path class="st0" d="M912.5,800.7H602.3c-8.5,0-16.9-6.9-18.7-15.4s3.6-15.4,12.2-15.4h310.1c8.5,0,16.9,6.9,18.7,15.4
	C926.4,793.8,921,800.7,912.5,800.7L912.5,800.7z"/>
<path class="st1" d="M912.5,803.5H602.3c-9.9,0-19.3-7.8-21.4-17.6c-1.1-4.7-0.1-9.6,2.9-13.4c3-3.6,7.4-5.6,12-5.4h310.1
	c9.9,0,19.3,7.8,21.4,17.6c1.1,4.7,0.1,9.6-2.9,13.3C921.5,801.6,917.1,803.6,912.5,803.5L912.5,803.5z M595.8,772.6
	c-2.9-0.1-5.8,1.1-7.7,3.4c-1.9,2.5-2.5,5.7-1.7,8.7c1.5,7.3,8.7,13.2,16,13.2h310.1c2.9,0.1,5.8-1.1,7.7-3.4
	c1.9-2.5,2.5-5.7,1.7-8.7c-1.5-7.3-8.7-13.2-16-13.2H595.8z"/>
<path class="st0" d="M736.9,852.8H613.4c-8.5,0-16.9-6.9-18.7-15.4s3.6-15.4,12.2-15.4h123.5c8.5,0,16.9,6.9,18.7,15.4
	C750.8,845.9,745.4,852.8,736.9,852.8L736.9,852.8z"/>
<path class="st1" d="M736.9,855.5H613.4c-9.9,0-19.3-7.8-21.4-17.6c-1.1-4.7-0.1-9.6,2.9-13.4c3-3.6,7.4-5.6,12-5.4h123.5
	c9.9,0,19.3,7.8,21.4,17.6c1.1,4.7,0.1,9.6-2.9,13.4C745.9,853.7,741.5,855.7,736.9,855.5L736.9,855.5z M606.9,824.7
	c-2.9-0.1-5.8,1.1-7.7,3.4c-1.9,2.5-2.5,5.7-1.7,8.7c1.5,7.3,8.7,13.2,16,13.2h123.4c2.9,0.1,5.8-1.1,7.7-3.4
	c1.9-2.5,2.5-5.7,1.7-8.7c-1.5-7.3-8.7-13.2-16-13.2H606.9L606.9,824.7z"/>
<path class="st0" d="M994.7,1111.4l2.2,57.3l26.2,2.1l3.6-62L994.7,1111.4z"/>
<path class="st1" d="M1023.1,1173.5h-0.2l-26.2-2.1c-1.4-0.1-2.5-1.3-2.5-2.7l-2.2-57.3c-0.1-1.5,1.1-2.8,2.5-2.9l32-2.6
	c1.5-0.1,2.9,1,3,2.5c0,0.1,0,0.3,0,0.4l-3.6,62C1025.8,1172.4,1024.6,1173.5,1023.1,1173.5L1023.1,1173.5z M999.6,1166.1l20.9,1.7
	l3.2-55.9l-26.2,2.1L999.6,1166.1z"/>
<path class="st2" d="M1078.8,771.5c-2.1,15.4-36.7,347.9-36.7,347.9l-62.2,0.4L968.3,956l-3.2-45.3l-15.9-223.9
	c-6.1-75.6,118.1-76,129-6.7C1082.7,709.1,1080.9,756.1,1078.8,771.5L1078.8,771.5z"/>
<path class="st1" d="M1029.8,1098.5h-0.2c-1.5-0.1-2.6-1.5-2.5-3l36.5-401.1c0.2-1.5,1.6-2.6,3.1-2.4c1.4,0.2,2.4,1.4,2.4,2.9
	l-36.5,401.1C1032.4,1097.4,1031.2,1098.5,1029.8,1098.5z"/>
<path class="st1" d="M1061.8,747.6c-3,0-5.8-1.3-7.7-3.6c-10.8-12.1-6.6-53.5-6.1-58.2c0.1-1.5,1.4-2.7,2.9-2.6
	c1.5,0.1,2.7,1.4,2.6,2.9c0,0.1,0,0.2,0,0.3c-1.3,12-3,45.2,4.7,53.8c0.9,1.1,2.2,1.7,3.6,1.8c1.5,0.1,2.7,1.4,2.6,2.9
	C1064.3,746.4,1063.2,747.5,1061.8,747.6z"/>
<path class="st0" d="M1013.6,930.7c0.3,19.4-11.3,35.3-26.1,35.5c-7.5,0.1-14.3-3.8-19.2-10.2l-3.2-45.3
	c4.7-8.8,12.4-14.5,21.3-14.7C1001,895.8,1013.2,911.3,1013.6,930.7z"/>
<path class="st1" d="M1037.8,1109.7l-51.2-0.2c-1.5,0.1-2.8-1.1-2.9-2.6s1.1-2.8,2.6-2.9c0.1,0,0.2,0,0.3,0l51.2,0.2
	c1.5,0.1,2.7,1.4,2.6,2.9C1040.3,1108.5,1039.2,1109.6,1037.8,1109.7z"/>
<path class="st5" d="M906.1,1265.6v12.2h125.6c0,0,0.4-6.4,0.8-17.1c0.8-21.1,1.5-59-0.8-98.1l-45.8-4c0,0-23.5,39.4-54.1,72.9
	c-3.2,3.5-11.6,9.2-15.1,12.4C909.9,1250,906.1,1257.6,906.1,1265.6z"/>
<path class="st1" d="M971.8,1234.2c-1.5,0-2.8-1.3-2.8-2.8c0-0.6,0.2-1.1,0.5-1.6c21.8-31.4,34-66.1,34.1-66.5
	c0.6-1.4,2.2-2.1,3.6-1.6c1.4,0.5,2.1,2,1.7,3.4c-0.1,0.3-12.5,35.8-34.8,67.8C973.6,1233.8,972.7,1234.2,971.8,1234.2L971.8,1234.2
	z"/>
<ellipse class="st0" cx="1017.4" cy="1214.2" rx="8.2" ry="18.7"/>
<path class="st1" d="M1017.4,1235.9c-7.5,0-11.3-10.9-11.3-21.8s3.9-21.8,11.3-21.8s11.3,10.9,11.3,21.8
	S1024.8,1235.9,1017.4,1235.9z M1017.4,1198.6c-1.5,0-5.1,5.4-5.1,15.6s3.7,15.5,5.1,15.5s5.1-5.4,5.1-15.5
	S1018.9,1198.6,1017.4,1198.6L1017.4,1198.6z"/>
<path class="st0" d="M906.1,1265.6v12.2h125.6c0,0,0.4-6.4,0.8-17.1h-57.5c0,0,3.2-32.6-43.2-29.2c-3.2,3.5-11.6,9.2-15.1,12.4
	C909.9,1250,906.1,1257.6,906.1,1265.6L906.1,1265.6z"/>
<path class="st1" d="M1031.7,1280.5H906.1c-1.5,0-2.8-1.2-2.8-2.8l0,0v-12.2c0-8.6,4.1-17,11.5-23.8c1.5-1.4,3.9-3.2,6.3-5.1
	c3-2.2,5.9-4.6,8.6-7.2c0.5-0.5,1.1-0.8,1.8-0.9c17.4-1.2,30.2,2.2,38.1,10.4c4.9,5.1,7.7,11.8,8,18.9h54.7c1.5,0,2.8,1.2,2.8,2.8
	c0,0,0,0.1,0,0.1c-0.4,10.6-0.8,17.1-0.8,17.2C1034.3,1279.4,1033.1,1280.5,1031.7,1280.5L1031.7,1280.5z M908.9,1275h120.2
	c0.1-2.4,0.3-6.3,0.5-11.5h-54.7c-1.5,0-2.8-1.3-2.8-2.8c0-0.1,0-0.2,0-0.3c0-0.1,0.8-10-6.5-17.6c-6.6-6.7-17.5-9.6-32.6-8.7
	c-2.7,2.5-5.6,4.8-8.5,7c-2.4,1.8-4.6,3.5-6,4.8c-6.2,5.7-9.7,12.7-9.7,19.7L908.9,1275L908.9,1275z"/>
<path class="st0" d="M1225.4,1112.1l8.9,56.6l-25.3,7.2l-15.6-60.1L1225.4,1112.1z"/>
<path class="st1" d="M1209,1178.6c-1.3,0-2.4-0.9-2.7-2.1l-15.6-60.1c-0.4-1.5,0.5-3,2-3.4c0.1,0,0.3-0.1,0.4-0.1l31.9-3.7
	c1.5-0.2,2.8,0.9,3.1,2.3l9,56.6c0.2,1.4-0.6,2.7-2,3.1l-25.3,7.2C1209.5,1178.6,1209.3,1178.6,1209,1178.6L1209,1178.6z
	 M1197,1118.1l14.1,54.2l20.2-5.7l-8.2-51.5L1197,1118.1z"/>
<path class="st2" d="M1076.7,795c5,14.7,103.8,334.1,103.8,334.1l61.1-11.7L1221,954.5l-5.7-45.1l-28-222.8
	c-8.7-75.3-130.6-51.5-127.8,18.5C1060.7,734.6,1071.7,780.3,1076.7,795z"/>
<path class="st1" d="M1061.6,749.1h-0.2c-1.5-0.1-2.7-1.4-2.6-3c0,0,0,0,0,0l4.7-70.2c0.2-1.5,1.6-2.6,3.1-2.4
	c1.4,0.2,2.5,1.4,2.4,2.8l-4.7,70.2C1064.3,748,1063.1,749.1,1061.6,749.1L1061.6,749.1z"/>
<path class="st1" d="M1187.9,1106.3c-1.2,0-2.3-0.8-2.7-2l-106.9-350.5c-0.5-1.4,0.2-3,1.7-3.6c1.4-0.5,3,0.2,3.6,1.7
	c0,0.1,0.1,0.2,0.1,0.3l106.9,350.5c0.5,1.5-0.3,3-1.8,3.5C1188.4,1106.2,1188.2,1106.3,1187.9,1106.3z"/>
<path class="st0" d="M1171.7,938.5c3.5,19.1,18,32.4,32.5,29.8c7.3-1.3,13.2-6.5,16.8-13.7l-5.7-45.1c-6.3-7.7-15-11.8-23.7-10.2
	C1177.2,901.8,1168.2,919.4,1171.7,938.5L1171.7,938.5z"/>
<path class="st1" d="M1182.2,1118.8c-1.5,0-2.8-1.3-2.8-2.8c0-1.3,0.9-2.4,2.2-2.7l50.2-10.2c1.5-0.2,2.9,0.8,3.2,2.3
	c0.2,1.4-0.7,2.7-2,3.1l-50.2,10.2C1182.6,1118.8,1182.4,1118.8,1182.2,1118.8L1182.2,1118.8z"/>
<path class="st5" d="M1325.2,1265.6v12.2h-125.6c0,0-0.4-6.4-0.8-17.1c-0.8-21.1-1.5-59,0.8-98.1l45.8-4c0,0,23.5,39.4,54.1,72.9
	c3.2,3.5,11.6,9.2,15.1,12.4C1321.3,1250,1325.1,1257.6,1325.2,1265.6L1325.2,1265.6z"/>
<path class="st1" d="M1259.4,1234.2c-0.9,0-1.8-0.4-2.3-1.2c-22.3-32.1-34.7-67.5-34.8-67.8c-0.5-1.5,0.4-3,1.8-3.5
	c1.4-0.4,2.9,0.3,3.4,1.7c0.1,0.3,12.3,35,34.1,66.5c0.9,1.3,0.6,3-0.7,3.9C1260.5,1234.1,1260,1234.2,1259.4,1234.2L1259.4,1234.2z
	"/>
<ellipse class="st0" cx="1213.8" cy="1214.2" rx="8.2" ry="18.7"/>
<path class="st1" d="M1213.8,1235.9c-7.5,0-11.4-10.9-11.4-21.8s3.9-21.8,11.4-21.8s11.3,10.9,11.3,21.8
	S1221.3,1235.9,1213.8,1235.9z M1213.8,1198.6c-1.5,0-5.1,5.4-5.1,15.6s3.7,15.5,5.1,15.5s5.1-5.4,5.1-15.5
	S1215.3,1198.6,1213.8,1198.6L1213.8,1198.6z"/>
<path class="st0" d="M1325.2,1265.6v12.2h-125.6c0,0-0.4-6.4-0.8-17.1h57.5c0,0-3.2-32.6,43.2-29.2c3.2,3.5,11.6,9.2,15.1,12.4
	C1321.3,1250,1325.2,1257.6,1325.2,1265.6z"/>
<path class="st1" d="M1325.2,1280.5h-125.6c-1.5,0-2.7-1.1-2.8-2.6c0-0.1-0.4-6.5-0.8-17.2c-0.1-1.5,1.1-2.8,2.7-2.9
	c0,0,0.1,0,0.1,0h54.7c0.3-7,3.1-13.8,8-18.9c7.9-8.1,20.7-11.6,38.1-10.4c0.7,0.1,1.4,0.4,1.8,0.9c2.7,2.6,5.6,5,8.6,7.2
	c2.5,1.9,4.8,3.7,6.3,5.1c7.4,6.8,11.5,15.2,11.5,23.8v12.2C1327.9,1279.3,1326.7,1280.5,1325.2,1280.5L1325.2,1280.5z M1202.2,1275
	h120.2v-9.4c0-7-3.4-14-9.7-19.7c-1.4-1.2-3.6-2.9-6-4.8c-3-2.2-5.8-4.5-8.5-7c-15.1-0.9-26.1,2-32.6,8.7
	c-7.4,7.5-6.5,17.5-6.5,17.6c0.1,1.5-1,2.9-2.6,3c-0.1,0-0.1,0-0.2,0h-54.7C1201.8,1268.6,1202,1272.6,1202.2,1275L1202.2,1275z"/>
<path class="st3" d="M980.7,381.4c-33.3,14.2-70.8,119.8-69,159.8c1.8,41.2,57.8,36.5,76.3,7.1
	C1019.6,493.8,1015.3,366.7,980.7,381.4L980.7,381.4z"/>
<path class="st3" d="M1191.2,410.3l3.6,292.7c0,0-8.2,1.1-22.4,2.4v-33.7c0-2.7-2.2-4.9-4.9-4.9c-0.3,0-0.6,0-0.9,0.1
	c-2.4,0.5-4,2.6-4,5v34.4c-46.5,3.8-136.2,7.4-219.4-10c0,0,10.6-246,37.4-314.9c0,0,47.1-26.9,101.1-25.8
	c36.6,0.7,73.7,17.9,93.9,28.8C1185.2,389.6,1191.1,399.5,1191.2,410.3L1191.2,410.3z"/>
<path class="st1" d="M955.8,526.7h-0.3c-1.5-0.2-2.6-1.5-2.5-3c6.2-60.2,13.2-104.3,21-130.9c0.5-1.5,2.1-2.2,3.5-1.7
	c1.4,0.5,2.1,1.9,1.8,3.3c-7.7,26.3-14.7,70-20.8,129.9C958.3,525.7,957.1,526.7,955.8,526.7L955.8,526.7z"/>
<path class="st1" d="M1091.2,697.6c-45.9-0.1-91.7-3.1-137.2-8.8c-1.4-0.3-2.4-1.7-2.1-3.1c0.3-1.3,1.5-2.3,2.8-2.1
	c1,0.1,101.2,14,195.3,6.7c1.5-0.1,2.7,1.1,2.8,2.6c0.1,1.4-1,2.6-2.4,2.8C1130.6,697,1110.6,697.6,1091.2,697.6L1091.2,697.6z"/>
<path class="st0" d="M1113.8,381c-7.4,17.2-21.3,29.2-30,31.9c-2.2-12.3-8.4-27.7-8.4-27.7c-6.8,9.4-10.5,21.9-11.4,27.6
	c-22.2-6.1-24.7-32.4-24.7-32.4c2.2-18.6,18.2-32.4,36.8-31.9C1111.1,349.6,1113.8,381,1113.8,381L1113.8,381z"/>
<path class="st1" d="M1083.8,415.7c-1.3,0-2.5-1-2.7-2.3c-1.6-7.5-3.7-14.9-6.3-22c-3.8,6.8-6.5,14.2-8,21.9
	c-0.2,1.5-1.7,2.6-3.2,2.3c-0.1,0-0.2,0-0.3-0.1c-23.7-6.5-26.6-33.7-26.7-34.8c0-0.2,0-0.4,0-0.6c2.3-20,19.5-34.9,39.7-34.3
	c36.9,1.2,40.2,34.7,40.3,35.1c0,0.5,0,0.9-0.2,1.3c-7.6,17.6-22,30.4-31.7,33.5C1084.4,415.6,1084.1,415.7,1083.8,415.7
	L1083.8,415.7z M1042.2,380.4c0.3,2.6,3.4,22.3,19.8,28.8c1.5-6.4,5-17,11.2-25.6c0.9-1.2,2.6-1.5,3.9-0.6c0.4,0.3,0.8,0.7,0.9,1.2
	c3.2,8.1,5.8,16.4,7.9,24.9c7.5-3.8,18.6-13.8,25.1-28.5c-0.6-4.5-5.3-28.3-34.9-29.3C1059,350.7,1044.3,363.3,1042.2,380.4
	L1042.2,380.4z"/>
<path class="st0" d="M1054.5,565.6l-41-11.1c-1.8-0.5-3.6-0.4-5.3,0.3L978.8,567c-4.1,1.7-6.2,6.4-4.5,10.6l7,18
	c1.6,4.1,6.1,6.2,10.3,4.8l13.1-4.4l17.1,4.3c6.6,1.7,13.6,0.9,19.8-2.1l13-6.4L1054.5,565.6L1054.5,565.6z"/>
<path class="st1" d="M1028.8,604c-2.6,0-5.2-0.3-7.8-1l-16.3-4.1l-12.4,4.2c-5.6,1.9-11.7-1-13.8-6.5l-7-18
	c-2.1-5.6,0.6-11.9,6.1-14.2l29.4-12.1c2.2-0.9,4.7-1.1,7.1-0.5l41,11.1c1.2,0.3,2,1.4,2.1,2.7V592c0,1.1-0.6,2-1.6,2.5l-13,6.4
	C1038.3,603,1033.6,604,1028.8,604L1028.8,604z M1004.7,593.3c0.2,0,0.5,0,0.7,0.1l17.1,4.3c6,1.5,12.3,0.9,17.9-1.9l11.4-5.6v-22.5
	l-39-10.5c-1.2-0.3-2.4-0.2-3.5,0.2l-29.4,12.1c-2.7,1.2-4,4.2-3,7l7,18c1.1,2.7,4.1,4.1,6.8,3.2l13.1-4.4
	C1004.1,593.3,1004.4,593.3,1004.7,593.3L1004.7,593.3z"/>
<path class="st3" d="M1208.8,578c-4.4,11.1-10,19.7-16.7,24.3c-8.8,6-20.1,9.4-32.5,11.1c-46.9,6.2-109.3-12.8-109.3-12.8l-1.5-40.9
	l88.3-16.1c0,0,8.7-158,38-156.2C1218.1,390,1225.5,536,1208.8,578z"/>
<path class="st0" d="M1208.8,578c-4.4,11.2-10,19.7-16.7,24.3c-8.8,6-20.1,9.4-32.5,11.1c-3.9-17.8,7.4-35.4,25.2-39.3
	C1193,572.3,1201.6,573.7,1208.8,578z"/>
<path class="st1" d="M1163.6,575.8c-0.8,0-1.5-0.3-2.1-0.9l-26.5-29.5c-1-1.2-0.9-2.9,0.3-3.9c1.1-1,2.8-0.9,3.8,0.2l26.6,29.5
	c1,1.1,0.9,2.9-0.2,3.9C1165,575.6,1164.3,575.9,1163.6,575.8L1163.6,575.8z"/>
<path class="st1" d="M1139,617.4c-42.4,0-87.4-13.5-89.6-14.2c-1.1-0.3-1.9-1.4-2-2.5l-1.5-40.9c-0.1-1.4,0.9-2.6,2.3-2.8l86.2-15.7
	c1-16.6,7.8-116.2,26.8-146.9c0.8-1.3,2.5-1.8,3.8-1c1.3,0.8,1.8,2.5,1,3.8c0,0.1-0.1,0.1-0.1,0.2c-19.6,31.5-26.1,145.3-26.2,146.5
	c-0.1,1.3-1,2.3-2.3,2.6l-86,15.7l1.4,36.5c10.4,3,61.3,16.6,101.8,12.7c1.5-0.1,2.8,1.1,2.9,2.6c0.1,1.4-1,2.7-2.4,2.9
	C1150,617.2,1144.5,617.4,1139,617.4L1139,617.4z"/>
<path class="st1" d="M1072.2,592.5c-1.5,0-2.7-1.1-2.8-2.6l-2.2-33.9c0-1.5,1.2-2.8,2.7-2.8c1.4,0,2.6,1,2.8,2.4l2.2,33.9
	c0.1,1.5-1,2.9-2.5,3c0,0,0,0,0,0L1072.2,592.5L1072.2,592.5z"/>
<ellipse transform="matrix(0.7882 -0.6154 0.6154 0.7882 -138.4683 777.4769)" class="st0" cx="1060.4" cy="589.9" rx="4.6" ry="4.5"/>
<path class="st1" d="M1060.4,597.3c-0.3,0-0.6,0-0.9-0.1c-4-0.5-6.9-4.1-6.4-8.2c0.5-4,4.1-6.9,8.2-6.4c1.9,0.2,3.7,1.2,4.9,2.8
	c2.5,3.2,1.9,7.8-1.3,10.3C1063.6,596.8,1062,597.3,1060.4,597.3z M1060.4,588.2c-1,0-1.8,0.8-1.8,1.8s0.8,1.8,1.8,1.8
	c1,0,1.8-0.8,1.8-1.8c0-0.4-0.1-0.8-0.4-1.1C1061.5,588.5,1060.9,588.2,1060.4,588.2L1060.4,588.2z"/>
<path class="st0" d="M1093.5,308.6L1093,330l-1,36.6c-12.3,8.6-24.3,9.5-35.9,0.8l1.7-17l2.6-25.8L1093.5,308.6z"/>
<path class="st1" d="M1072.9,376.4c-6.3,0-12.5-2.2-18.4-6.7c-0.8-0.6-1.2-1.5-1.1-2.5l4.3-42.8c0.1-1,0.7-1.8,1.6-2.2l33.2-16.1
	c1.4-0.7,3-0.1,3.7,1.3c0.2,0.4,0.3,0.8,0.3,1.3l-1.5,58c0,0.9-0.5,1.7-1.2,2.2C1086.5,373.9,1079.6,376.4,1072.9,376.4z
	 M1059.1,366.2c9.4,6.5,19.4,6.1,30.2-1l1.4-52.1l-27.7,13.4L1059.1,366.2z"/>
<path class="st1" d="M1082.1,314.2c-0.2,9.7,0.7,42.6-25.2,46.2l3.6-35.6L1082.1,314.2z"/>
<path class="st0" d="M1027.7,321.8c5.3,16.9,14.7,36.5,34.7,28.9c23.8-9,36-29.7,31.4-53.1s-18.2-34.4-45.7-25.8
	c-2.3,0.7-4.6,1.6-6.8,2.7c-15.2,7.7-20.5,22.8-16.2,38.3C1025.8,315.5,1026.6,318.6,1027.7,321.8L1027.7,321.8z"/>
<path class="st1" d="M1054,355.2c-3.2,0-6.4-0.7-9.3-2.2c-12.3-6.2-18-23.6-22.4-39.5c-5.6-20.2,4.4-38,24.9-44.4
	c1.4-0.5,3,0.2,3.6,1.6c0.5,1.4-0.2,3-1.6,3.6c-0.1,0-0.2,0.1-0.3,0.1c-17.7,5.5-26,20.3-21.2,37.6c2.9,10.6,8.4,30.4,19.5,36
	c4.2,2.1,8.8,2.1,14.2,0.1c8.2-2.9,15.5-8,21.2-14.6c1-1.1,2.8-1.2,3.9-0.2c1.1,1,1.2,2.6,0.4,3.7c-6.3,7.4-14.4,12.9-23.5,16.2
	C1060.4,354.5,1057.2,355.1,1054,355.2L1054,355.2z"/>
<path class="st1" d="M1102,300.4c-1.6,3.9-3.6,7.7-5.9,11.3l-12.2,3.4l-4.5-8.2c0,0-7.9,1.3-10.7-3.7c-0.1-0.1-0.1-0.2-0.2-0.4
	c-0.8-1.6-4-9.1-5.4-21.4c0,0-17.2,12.3-27.2,15.6c-3.6,1.2-8.2,0.6-12.7-0.5c-8.9-2.3-18.7-14-19.2-23.1v-0.2
	c-0.5-13.5,8.2-5.9,8.2-5.9s-0.3-10.9,6.2-13s12.6,6.7,12.6,6.7c12-5.6,24.9-8.9,38.1-9.7c26.2-1.4,23.5,17.4,23.5,17.4
	S1112.5,270.8,1102,300.4L1102,300.4z"/>
<path class="st0" d="M1086.2,313.2c-3.1-9.5,1.9-20.1,11.4-23.2c2-0.7,4.2-1,6.3-0.9c12.8,0.7,15.5,29.6-14.6,33.7L1086.2,313.2z"/>
<path class="st1" d="M1089.3,325.5c-1.5,0-2.8-1.3-2.7-2.8c0-1.4,1-2.5,2.4-2.7c16.2-2.2,21.5-11.7,21.2-19.2
	c-0.2-4.3-2.4-8.7-6.5-8.9c-1.8-0.1-3.6,0.2-5.2,0.7c-8.1,2.8-12.4,11.6-9.6,19.8c0.4,1.5-0.5,3-2,3.4c-1.4,0.4-2.8-0.4-3.3-1.7
	c-3.7-11,2.2-22.9,13.2-26.7c2.4-0.8,4.8-1.1,7.3-1c6.5,0.4,11.4,6.4,11.7,14.3c0.4,10.6-7.5,22.4-26.1,24.9L1089.3,325.5z"/>
<path class="st0" d="M1038.5,343.1l9.8,15.7l31.4-19.2c2.5-1.5,5.8-0.8,7.4,1.8c0.1,0.2,0.3,0.5,0.4,0.7c0.7,1.7,0.5,3.7-0.6,5.2
	l-4,5.6l7.6,16.4c3.1,6.6,1.2,14.4-4.4,19l-22.6,18.2l-14.1,15.8l-24.8-22.4l13.7-15l-5-12.7l-3.8-25.7c-0.4-2.4,1.1-4.7,3.4-5.5
	C1034.9,340.4,1037.3,341.2,1038.5,343.1L1038.5,343.1z"/>
<path class="st1" d="M1049.4,425.1c-0.7,0-1.3-0.3-1.9-0.7l-24.8-22.4c-1.1-1-1.2-2.8-0.2-3.9c0,0,0,0,0,0l12.5-13.7l-4.4-11.1
	c-0.1-0.2-0.1-0.4-0.2-0.6l-3.8-25.7c-0.6-4.2,2.3-8.2,6.5-8.8c3.1-0.5,6.1,0.9,7.8,3.6l8.4,13.4l29-17.8c3.8-2.3,8.8-1.1,11.2,2.7
	c1.7,2.8,1.6,6.3-0.3,9l-3.1,4.3l6.9,15c3.6,7.7,1.4,17-5.2,22.3l-22.4,18l-13.9,15.6c-0.5,0.6-1.2,0.9-1.9,0.9L1049.4,425.1
	L1049.4,425.1z M1028.5,399.7l20.7,18.6l12.2-13.7c0.1-0.1,0.2-0.2,0.3-0.3l22.6-18.2c4.7-3.7,6.2-10.2,3.7-15.6l-7.6-16.4
	c-0.4-0.9-0.3-2,0.2-2.8l4-5.6c0.8-1.2,0.5-2.8-0.6-3.6c-0.8-0.6-1.9-0.6-2.8-0.1l-31.4,19.2c-1.3,0.8-3,0.4-3.8-0.9l-9.8-15.7
	c-0.6-1-2-1.4-3-0.7c-0.7,0.5-1.1,1.3-1,2.2l3.8,25.4l4.9,12.4c0.4,1,0.2,2.1-0.5,2.9L1028.5,399.7z"/>
<path class="st3" d="M1056.3,421.9c0,0-53.1,142.8-103.7,150.8c-0.7,0.1-1.5,0.2-2.2,0.3c-25.2,2-35.6-10.2-38.1-25.7
	c-2.3-14,1.9-30.6,7.2-41.6c20.1-41.3,104.5-113.5,104.5-113.5L1056.3,421.9z"/>
<path class="st1" d="M1039.6,438.9c-0.7,0-1.4-0.3-1.9-0.7l-31.7-29.5c-1.2-1-1.3-2.7-0.3-3.9c1-1.2,2.7-1.3,3.9-0.3
	c0.1,0.1,0.1,0.1,0.2,0.2l31.7,29.4c1.1,1,1.2,2.8,0.2,3.9C1041.2,438.5,1040.4,438.9,1039.6,438.9z"/>
<ellipse transform="matrix(3.838781e-02 -0.9993 0.9993 3.838781e-02 579.243 1447.4774)" class="st0" cx="1041.7" cy="422.8" rx="4.6" ry="4.6"/>
<path class="st1" d="M1041.7,430.1h-0.3c-4.1-0.1-7.3-3.4-7.2-7.5c0.1-4.1,3.4-7.3,7.5-7.2c4.1,0.1,7.3,3.4,7.2,7.5
	C1048.8,426.9,1045.7,430,1041.7,430.1z M1041.7,421c-1,0-1.8,0.8-1.7,1.8c0,1,0.8,1.8,1.8,1.7c1,0,1.8-0.8,1.7-1.8
	C1043.5,421.8,1042.7,421,1041.7,421L1041.7,421z"/>
<path class="st1" d="M960.5,573.2c-1.5,0-2.8-1.3-2.8-2.8c0-1.1,0.7-2.1,1.7-2.5c43.5-18.1,87.7-129.8,93.7-145.2l-29-26.7
	c-12.5,10.9-84,74.1-102,111c-0.7,1.4-2.3,2-3.7,1.3c-1.4-0.7-2-2.3-1.3-3.7l0,0c20.2-41.3,101.8-111.4,105.2-114.4
	c1.1-0.9,2.7-0.9,3.7,0.1l32.2,29.7c0.8,0.8,1.1,1.9,0.7,3c-2,5.3-48.7,129.8-97.4,150.1C961.2,573.1,960.9,573.2,960.5,573.2
	L960.5,573.2z"/>
<path class="st6" d="M955.5,569.1c-0.9,1.2-1.9,2.4-2.9,3.6c-0.7,0.1-1.5,0.2-2.2,0.3c-25.2,2-35.6-10.2-38.1-25.7
	c1-2.3,2.2-4.5,3.7-6.5c9.6-13.4,26.2-17.9,37.1-10.1S965.1,555.7,955.5,569.1z"/>
<path class="st0" d="M1388.7,536.3V667c0,4-3.2,7.2-7.2,7.2h-104.2c-4,0-7.2-3.2-7.2-7.2V536.3c0-4,3.2-7.2,7.2-7.2h104.2
	C1385.4,529.1,1388.7,532.3,1388.7,536.3z"/>
<path class="st1" d="M1381.4,677h-104.2c-5.5,0-10-4.5-10-10V536.3c0-5.5,4.5-10,10-10h104.2c5.5,0,10,4.5,10,10V667
	C1391.4,672.5,1386.9,677,1381.4,677z M1277.2,531.9c-2.5,0-4.4,2-4.4,4.5V667c0,2.5,2,4.5,4.4,4.5h104.2c2.5,0,4.4-2,4.4-4.5V536.3
	c0-2.5-2-4.4-4.4-4.5H1277.2z"/>
<path class="st0" d="M1375.2,545h-82.1c-4,0-7.2,3.2-7.2,7.2v130.7c0,4,3.2,7.2,7.2,7.2h104.2c4,0,7.2-3.2,7.2-7.2V574.4L1375.2,545
	z"/>
<path class="st1" d="M1397.3,692.9h-104.2c-5.5,0-10-4.5-10-10V552.2c0-5.5,4.5-10,10-10h82.1c0.7,0,1.5,0.3,2,0.8l29.4,29.4
	c0.5,0.5,0.8,1.3,0.8,2v108.5C1407.4,688.4,1402.9,692.9,1397.3,692.9C1397.4,692.9,1397.4,692.9,1397.3,692.9L1397.3,692.9z
	 M1293.1,547.8c-2.5,0-4.5,2-4.5,4.5v130.7c0,2.5,2,4.5,4.5,4.5h104.2c2.5,0,4.5-2,4.5-4.5V575.5l-27.8-27.8L1293.1,547.8
	L1293.1,547.8z"/>
<path class="st0" d="M1311.9,594.8h66.7c2.8,0,5.2,2.3,5.2,5.2v0c0,2.8-2.3,5.2-5.2,5.2h-66.7c-2.8,0-5.2-2.3-5.2-5.2v0
	C1306.7,597.1,1309.1,594.8,1311.9,594.8z"/>
<path class="st1" d="M1378.6,607.9h-66.7c-4.4-0.2-7.8-3.8-7.7-8.2c0.1-4.2,3.5-7.5,7.7-7.7h66.7c4.4,0.2,7.8,3.8,7.7,8.2
	C1386.1,604.4,1382.7,607.8,1378.6,607.9z M1311.9,597.6c-1.3,0-2.4,1.1-2.4,2.4s1.1,2.4,2.4,2.4h66.7c1.3,0,2.4-1.1,2.4-2.4
	s-1.1-2.4-2.4-2.4H1311.9z"/>
<path class="st0" d="M1311.9,621.3h66.7c2.8,0,5.2,2.3,5.2,5.2v0c0,2.8-2.3,5.2-5.2,5.2h-66.7c-2.8,0-5.2-2.3-5.2-5.2v0
	C1306.7,623.7,1309.1,621.3,1311.9,621.3z"/>
<path class="st1" d="M1378.6,634.4h-66.7c-4.4-0.2-7.8-3.8-7.7-8.2c0.1-4.2,3.5-7.5,7.7-7.7h66.7c4.4,0.2,7.8,3.8,7.7,8.2
	C1386.1,630.9,1382.7,634.3,1378.6,634.4z M1311.9,624.1c-1.3,0-2.4,1.1-2.4,2.4s1.1,2.4,2.4,2.4h66.7c1.3,0,2.4-1.1,2.4-2.4
	s-1.1-2.4-2.4-2.4H1311.9z"/>
<path class="st0" d="M1311.9,647.8h66.7c2.8,0,5.2,2.3,5.2,5.2v0c0,2.8-2.3,5.2-5.2,5.2h-66.7c-2.8,0-5.2-2.3-5.2-5.2v0
	C1306.7,650.2,1309.1,647.8,1311.9,647.8z"/>
<path class="st1" d="M1378.6,661h-66.7c-4.4-0.2-7.8-3.8-7.7-8.2c0.1-4.2,3.5-7.5,7.7-7.7h66.7c4.4,0.2,7.8,3.8,7.7,8.2
	C1386.1,657.5,1382.7,660.8,1378.6,661z M1311.9,650.6c-1.3,0-2.4,1.1-2.4,2.4s1.1,2.4,2.4,2.4h66.7c1.3,0,2.4-1.1,2.4-2.4
	s-1.1-2.4-2.4-2.4H1311.9z"/>
<path class="st0" d="M1375.2,567.2c0,4,3.2,7.2,7.2,7.2h22.1l-29.4-29.4V567.2L1375.2,567.2z"/>
<path class="st1" d="M1404.6,577.2h-22.1c-5.5,0-10-4.5-10-10V545c0-1.5,1.2-2.8,2.8-2.8c0.7,0,1.5,0.3,2,0.8l29.4,29.4
	c1.1,1.1,1.1,2.8,0.1,3.9C1406.1,576.9,1405.3,577.2,1404.6,577.2L1404.6,577.2z M1378,551.7v15.4c0,2.5,2,4.5,4.5,4.5h15.4
	L1378,551.7z"/>
<g>
	<path class="st2" d="M1415.8,491.8c-0.6,0-1.1-0.2-1.5-0.5c-8.5-7.3-17.8-13.4-27.8-18.4c-1.2-0.5-1.7-1.9-1.2-3.1
		c0.5-1.2,1.9-1.7,3.1-1.2c10.4,5.1,20.1,11.5,28.9,19.1c1,0.8,1.1,2.3,0.3,3.3C1417.1,491.5,1416.4,491.8,1415.8,491.8
		L1415.8,491.8z"/>
	<path class="st2" d="M1423.2,503.7c-0.7,0-1.4-0.4-1.7-1l-4.8-7.7c-0.6-0.9-0.3-2.2,0.7-2.8s2.2-0.3,2.8,0.7l4.8,7.7
		c0.6,0.9,0.4,2.2-0.5,2.8C1424,503.6,1423.6,503.7,1423.2,503.7L1423.2,503.7z"/>
	<path class="st2" d="M1416.6,505.5c-1,0-1.9-0.8-2-1.8l-0.9-9.7c-0.1-1.1,0.7-2.1,1.8-2.2c1.1-0.1,2.1,0.7,2.2,1.8l0.9,9.7
		c0.1,1.1-0.7,2.1-1.8,2.2c0,0,0,0,0,0L1416.6,505.5L1416.6,505.5z"/>
	<path class="st2" d="M1427.8,498.6c-0.4,0-0.7-0.1-1.1-0.3l-8.2-5.1c-0.9-0.6-1.2-1.8-0.6-2.8c0.6-0.9,1.8-1.2,2.8-0.6l8.2,5.1
		c1,0.6,1.3,1.8,0.7,2.7C1429.2,498.2,1428.5,498.6,1427.8,498.6L1427.8,498.6z"/>
	
		<ellipse transform="matrix(0.8513 -0.5247 0.5247 0.8513 -47.1198 816.3087)" class="st2" cx="1416.4" cy="491.3" rx="3.8" ry="3.8"/>
	<path class="st2" d="M1387.4,470.8v30.6c0,0-28.6-6.7-53.6,17.8c-25-24.5-53.6-17.8-53.6-17.8v-30.6l53.6,4.7L1387.4,470.8z"/>
	<path class="st2" d="M1330.7,490.4l-83-26.8c-1.3-0.4-1.9-1.7-1.5-3c0.2-0.7,0.8-1.3,1.5-1.5l83-26.8c2-0.6,4.2-0.6,6.2,0l83,26.8
		c1.3,0.4,1.9,1.7,1.5,3c-0.2,0.7-0.8,1.3-1.5,1.5l-83,26.8C1334.8,491,1332.7,491,1330.7,490.4z"/>
</g>
<path class="st0" d="M1333.8,492.8c-1.3,0-2.5-0.2-3.7-0.6l-45.1-14.5c-1.1-0.3-1.6-1.5-1.3-2.5c0.3-1.1,1.5-1.6,2.5-1.3l0,0
	l45.1,14.5c1.6,0.5,3.3,0.5,4.9,0l45.8-14.8c1.1-0.3,2.2,0.2,2.5,1.3c0.3,1.1-0.2,2.2-1.3,2.5l0,0l-45.8,14.8
	C1336.3,492.6,1335,492.8,1333.8,492.8z"/>
<path class="st3" d="M511.2,151.5c4.5-2,8.2-5.6,10.1-10.1l2.6-6l2.6,6c2,4.5,5.6,8.2,10.2,10.1l6,2.6l-6,2.6
	c-4.5,2-8.2,5.6-10.2,10.1l-2.6,6l-2.6-6c-2-4.5-5.6-8.2-10.1-10.1l-6-2.6L511.2,151.5z"/>
<path class="st5" d="M1276.7,947.5c3.5-1.5,6.3-4.3,7.8-7.8l2-4.6l2,4.6c1.5,3.5,4.3,6.3,7.8,7.8l4.6,2l-4.6,2
	c-3.5,1.5-6.3,4.3-7.8,7.8l-2,4.6l-2-4.6c-1.5-3.5-4.3-6.3-7.8-7.8l-4.6-2L1276.7,947.5z"/>
<path class="st3" d="M1338.7,1030.7c5.5-2.4,9.9-6.8,12.3-12.3l3.2-7.2l3.2,7.2c2.4,5.5,6.8,9.9,12.3,12.3l7.2,3.2l-7.2,3.2
	c-5.5,2.4-9.9,6.8-12.3,12.3l-3.2,7.2l-3.2-7.2c-2.4-5.5-6.8-9.9-12.3-12.3l-7.2-3.2L1338.7,1030.7z"/>
<path class="st5" d="M879.6,158.7c7.7-3.4,13.9-9.6,17.3-17.3l4.5-10.2l4.5,10.2c3.4,7.7,9.6,13.9,17.3,17.3l10.2,4.4l-10.2,4.4
	c-7.7,3.4-13.9,9.6-17.3,17.3l-4.5,10.2l-4.5-10.2c-3.4-7.7-9.6-13.9-17.3-17.3l-10.2-4.4L879.6,158.7z"/>
<path class="st5" d="M1212.1,324.4c5.8-2.5,10.5-7.2,13-13l3.3-7.7l3.3,7.7c2.5,5.8,7.2,10.5,13,13l7.7,3.3l-7.6,3.3
	c-5.8,2.5-10.5,7.2-13,13l-3.3,7.7l-3.3-7.7c-2.5-5.8-7.2-10.5-13-13l-7.7-3.3L1212.1,324.4z"/>
<circle class="st3" cx="832.9" cy="396.3" r="11.4"/>
<circle class="st3" cx="569" cy="984.4" r="11.4"/>
<path class="st0" d="M850.7,989.5L788.4,924c-3-3.1-8-3.3-11.1-0.3c-1.7,1.6-2.6,3.9-2.4,6.3l6.9,90.2c0.3,4.3,4.1,7.6,8.5,7.3
	c2-0.2,3.9-1.1,5.3-2.6l14-15.8l17.6,39.6c1.8,4,6.4,5.8,10.4,4c4-1.8,5.8-6.4,4-10.4l-17.6-39.6l21.1,0.2c4.4,0,7.9-3.5,7.9-7.9
	C852.8,992.9,852.1,991,850.7,989.5z"/>
<path class="st1" d="M834.3,1056.2c-4.2,0-8-2.5-9.8-6.3l-15.9-35.7l-11.1,12.5c-3.9,4.4-10.6,4.8-15,0.9c-2.1-1.8-3.3-4.4-3.6-7.2
	l-6.9-90.2c-0.5-5.9,3.9-11,9.8-11.4c3.2-0.2,6.3,1,8.5,3.3l62.3,65.5c4.1,4.3,3.9,11-0.4,15.1c-2,1.9-4.6,2.9-7.4,2.9h-0.1
	l-16.8-0.1l15.8,35.7c2.4,5.4,0,11.7-5.4,14.1C837.2,1055.8,835.8,1056.2,834.3,1056.2L834.3,1056.2z M809.5,1006.3
	c0.1,0,0.3,0,0.4,0c0.9,0.1,1.7,0.8,2.1,1.6l17.6,39.6c1.1,2.6,4.2,3.7,6.7,2.6c2.6-1.1,3.7-4.2,2.6-6.7l0,0l-17.6-39.6
	c-0.6-1.4,0-3,1.4-3.7c0.4-0.2,0.7-0.2,1.1-0.2l21.1,0.2c2.8,0,5.1-2.3,5.1-5.1c0-1.3-0.5-2.6-1.4-3.5L786.4,926
	c-1.9-2-5.2-2.1-7.2-0.2c-1.1,1.1-1.7,2.6-1.6,4.1l6.9,90.2c0.2,2.8,2.7,4.9,5.5,4.7c1.3-0.1,2.6-0.7,3.4-1.7l14-15.8
	C807.9,1006.7,808.7,1006.3,809.5,1006.3L809.5,1006.3z"/>
<path class="st1" d="M1263.9,805.3c-4,0-8-0.3-12-0.7c-1.4-0.1-2.4-1.4-2.2-2.8s1.4-2.4,2.8-2.2l0,0c3.8,0.4,7.6,0.6,11.4,0.7
	c1.4,0,2.5,1.1,2.5,2.5S1265.3,805.3,1263.9,805.3z M1275.6,804.7c-1.4,0.1-2.6-1-2.7-2.3s1-2.6,2.3-2.7c3.7-0.5,7.5-1.2,11.1-2.2
	c1.3-0.4,2.7,0.4,3.1,1.7c0.4,1.3-0.4,2.7-1.7,3.1c-3.9,1.1-7.8,1.8-11.8,2.3L1275.6,804.7z M1240.6,802.9c-0.1,0-0.3,0-0.4,0
	c-3.9-0.7-7.7-1.2-11.4-1.6c-1.4-0.2-2.4-1.4-2.2-2.8s1.4-2.4,2.8-2.2l0,0c3.8,0.4,7.8,1,11.8,1.7c1.4,0.3,2.2,1.6,2,2.9
	C1242.7,802,1241.8,802.8,1240.6,802.9L1240.6,802.9z M1205.6,800.4c-1.4,0-2.5-1.1-2.6-2.4c0-1.4,1.1-2.5,2.4-2.6
	c3.9-0.2,7.9-0.2,11.9,0c1.4,0,2.5,1.2,2.4,2.6c0,0,0,0,0,0c-0.1,1.4-1.2,2.4-2.6,2.4c-3.9-0.1-7.8-0.1-11.5,0H1205.6z M1298,798.4
	c-1.4,0-2.5-1.1-2.5-2.5c0-1,0.6-1.8,1.4-2.3c3.4-1.6,6.6-3.5,9.7-5.7c1.1-0.8,2.7-0.5,3.5,0.6c0.8,1.1,0.5,2.7-0.6,3.5
	c-3.3,2.4-6.8,4.4-10.5,6.2C1298.7,798.3,1298.4,798.4,1298,798.4z M1317,784.8c-1.4,0-2.5-1.1-2.5-2.5c0-0.7,0.3-1.3,0.7-1.8
	c2.6-2.7,5.1-5.6,7.2-8.7c0.8-1.1,2.3-1.5,3.5-0.7c1.1,0.8,1.5,2.3,0.7,3.5c0,0-0.1,0.1-0.1,0.1c-2.3,3.3-4.9,6.4-7.8,9.3
	C1318.3,784.5,1317.7,784.8,1317,784.8L1317,784.8z M1330.6,765.8c-1.4,0-2.5-1.1-2.5-2.5c0-0.4,0.1-0.8,0.3-1.2
	c1.8-3.4,3.4-6.9,4.7-10.4c0.5-1.3,2-1.9,3.2-1.4c1.3,0.5,1.9,2,1.4,3.2l0,0c-1.5,3.7-3.1,7.4-5,10.9
	C1332.4,765.3,1331.5,765.8,1330.6,765.8L1330.6,765.8z M1339.2,744c-0.2,0-0.5,0-0.7-0.1c-1.3-0.4-2.1-1.8-1.7-3.1c0,0,0,0,0,0
	c1-3.6,1.9-7.4,2.7-11.2c0.3-1.4,1.6-2.2,2.9-2c1.4,0.3,2.2,1.6,2,3c-0.8,4-1.8,7.9-2.8,11.6C1341.3,743.3,1340.3,744,1339.2,744
	L1339.2,744z M1343.9,721h-0.3c-1.4-0.2-2.3-1.4-2.2-2.8c0,0,0,0,0,0c0.5-3.8,0.9-7.7,1.1-11.5c0.1-1.4,1.3-2.4,2.7-2.3
	c1.4,0.1,2.4,1.3,2.3,2.7l0,0c-0.3,4-0.7,8-1.2,11.9C1346.2,720.1,1345.1,721,1343.9,721L1343.9,721z M1345.4,697.6
	c-1.4,0-2.5-1.1-2.5-2.5c0-3-0.1-4.8-0.1-4.8c-0.1-1.4,1-2.6,2.3-2.7c1.4-0.1,2.6,1,2.7,2.4c0,0.1,0.1,1.9,0.1,5.1
	C1347.9,696.4,1346.8,697.6,1345.4,697.6L1345.4,697.6L1345.4,697.6z"/>
<path class="st1" d="M974.1,1146.5c-3,0-6-0.1-9-0.3c-1.4-0.1-2.4-1.3-2.4-2.7c0.1-1.4,1.3-2.4,2.7-2.3c2.9,0.2,5.8,0.3,8.7,0.3h2.5
	h0.3c1.4,0,2.5,1.1,2.5,2.5c0,1.4-1.1,2.5-2.5,2.5h-0.3C975.8,1146.4,974.9,1146.5,974.1,1146.5L974.1,1146.5z M988.6,1145.7
	c-1.4,0.1-2.6-1-2.6-2.4s1-2.6,2.4-2.6c3.8-0.4,7.7-1,11.3-1.7c1.4-0.3,2.7,0.6,3,2c0.3,1.4-0.6,2.7-2,2.9
	c-3.8,0.8-7.8,1.4-11.8,1.8L988.6,1145.7L988.6,1145.7z M953.6,1145h-0.4c-3.9-0.6-7.9-1.3-11.7-2.2c-1.3-0.3-2.2-1.6-1.9-3
	c0.3-1.3,1.6-2.2,3-1.9c0,0,0.1,0,0.1,0c3.7,0.9,7.5,1.6,11.3,2.1c1.3,0.3,2.2,1.6,1.9,3C955.6,1144.1,954.7,1144.9,953.6,1145
	L953.6,1145z M1011.6,1141c-1.4,0-2.5-1.1-2.5-2.5c0-1.1,0.7-2.1,1.8-2.4c3.6-1.1,7.2-2.5,10.7-4c1.3-0.6,2.7,0,3.3,1.3
	c0.6,1.3,0,2.7-1.3,3.3c-3.7,1.6-7.4,3-11.2,4.2C1012.1,1141,1011.8,1141,1011.6,1141L1011.6,1141z M930.8,1139.7
	c-0.3,0-0.5,0-0.8-0.1c-3.8-1.2-7.5-2.6-11.2-4.2c-1.3-0.5-1.9-2-1.3-3.3c0.5-1.3,2-1.9,3.3-1.3l0,0c3.5,1.5,7.1,2.8,10.8,4
	c1.4,0.3,2.2,1.6,1.9,3C933.3,1139,932,1139.9,930.8,1139.7L930.8,1139.7z M1033,1131.7c-1.4,0-2.5-1.1-2.5-2.5
	c0-0.9,0.5-1.7,1.3-2.2c3.3-1.9,6.5-4,9.6-6.2c1.1-0.8,2.7-0.6,3.5,0.5c0.8,1.1,0.6,2.7-0.5,3.5c0,0-0.1,0-0.1,0.1
	c-3.2,2.3-6.6,4.5-10.1,6.5C1033.9,1131.6,1033.4,1131.7,1033,1131.7L1033,1131.7z M909.3,1130.6c-0.4,0-0.8-0.1-1.2-0.3
	c-3.5-1.8-7-3.8-10.3-6c-1.2-0.8-1.5-2.3-0.7-3.5c0.7-1.1,2.2-1.5,3.4-0.8c3.3,2.1,6.6,4,10,5.8c1.2,0.6,1.8,2.1,1.2,3.3
	C911.2,1130.1,910.2,1130.7,909.3,1130.6L909.3,1130.6z M889.4,1118c-0.5,0-1.1-0.2-1.5-0.5c-3.1-2.3-6.3-4.9-9.3-7.5
	c-1.1-0.9-1.2-2.4-0.4-3.5c0.9-1.1,2.4-1.2,3.5-0.4c0,0,0.1,0.1,0.1,0.1c2.9,2.5,5.9,5,9,7.3c1.1,0.8,1.3,2.4,0.5,3.5
	C890.9,1117.6,890.2,1118,889.4,1118z M1051.9,1118c-1.4,0-2.5-1.1-2.5-2.5c0-0.7,0.3-1.4,0.8-1.9c2.8-2.5,5.5-5.2,8.1-8.1
	c0.9-1,2.5-1.2,3.5-0.3c1,0.9,1.2,2.5,0.3,3.5c0,0-0.1,0.1-0.1,0.1c-2.7,3-5.6,5.8-8.5,8.4C1053.1,1117.8,1052.5,1118,1051.9,1118
	L1051.9,1118z M871.7,1102.7c-0.7,0-1.3-0.3-1.8-0.7c-2.8-2.8-5.5-5.7-8.1-8.7c-0.9-1-0.8-2.6,0.2-3.5s2.6-0.8,3.5,0.2
	c2.6,2.9,5.2,5.8,7.9,8.4c1,1,1,2.6,0,3.5C873,1102.4,872.3,1102.7,871.7,1102.7L871.7,1102.7z M1067.7,1100.7
	c-1.4,0-2.5-1.1-2.5-2.5c0-0.5,0.2-1.1,0.5-1.5c2.3-3,4.5-6.2,6.5-9.5c0.8-1.1,2.3-1.4,3.5-0.7c1.1,0.7,1.4,2.2,0.8,3.3
	c-2.1,3.4-4.4,6.7-6.8,9.8C1069.2,1100.4,1068.5,1100.7,1067.7,1100.7L1067.7,1100.7z M856.2,1085.1c-0.8,0-1.5-0.4-2-1
	c-2.4-3.1-4.8-6.4-7-9.6c-0.7-1.2-0.4-2.7,0.8-3.5c1.1-0.7,2.6-0.4,3.4,0.7c2.2,3.2,4.4,6.3,6.8,9.4c0.9,1.1,0.7,2.7-0.4,3.5
	C857.3,1084.9,856.7,1085,856.2,1085.1L856.2,1085.1z M1080.2,1080.9c-1.4,0-2.5-1.1-2.5-2.5c0-0.4,0.1-0.8,0.3-1.2
	c1.8-3.3,3.4-6.8,5-10.4c0.6-1.3,2-1.8,3.3-1.3c1.3,0.6,1.8,2,1.3,3.3c-1.6,3.7-3.3,7.3-5.1,10.8
	C1082,1080.4,1081.1,1080.9,1080.2,1080.9L1080.2,1080.9z M843,1065.6c-0.9,0-1.7-0.5-2.2-1.2c-2.1-3.5-4-7-5.7-10.7
	c-0.4-1.3,0.3-2.7,1.6-3.2c1.1-0.4,2.4,0.1,3,1.2c0,0,1.8,4,5.4,10.2c0.7,1.2,0.2,2.7-1,3.4C843.8,1065.5,843.4,1065.6,843,1065.6z
	 M1089.5,1059.5c-1.4,0-2.5-1.1-2.5-2.5c0-0.3,0-0.6,0.1-0.8c1.3-3.6,2.5-7.3,3.5-11c0.4-1.3,1.8-2.1,3.1-1.7
	c1.3,0.4,2.1,1.8,1.7,3.1c-1.1,3.8-2.3,7.6-3.6,11.3C1091.5,1058.8,1090.6,1059.4,1089.5,1059.5L1089.5,1059.5z M1095.9,1036.9
	c-0.2,0-0.4,0-0.6-0.1c-1.3-0.3-2.2-1.6-1.9-3c0,0,0,0,0,0c0.8-3.7,1.6-7.6,2.2-11.4c0.3-1.4,1.6-2.2,3-1.9c1.3,0.3,2.1,1.5,2,2.8
	c-0.6,3.9-1.4,7.8-2.2,11.6C1098.1,1036.1,1097.2,1036.9,1095.9,1036.9L1095.9,1036.9z M1099.8,1013.8h-0.3
	c-1.4-0.1-2.4-1.4-2.2-2.8c0.4-3.8,0.7-7.7,0.9-11.6c0.1-1.4,1.3-2.4,2.6-2.4s2.4,1.3,2.4,2.6c-0.2,3.9-0.5,7.9-1,11.8
	C1102.1,1012.8,1101,1013.8,1099.8,1013.8L1099.8,1013.8z M1101,990.4c-1.4,0-2.5-1.1-2.5-2.5v-0.3c0-3.8-0.1-7.6-0.3-11.3
	c-0.1-1.4,1-2.6,2.4-2.6s2.6,1,2.6,2.4c0.2,3.8,0.3,7.7,0.3,11.6v0.3C1103.5,989.2,1102.4,990.3,1101,990.4L1101,990.4z M1099.8,967
	c-1.3,0-2.4-1-2.5-2.3c-0.4-3.9-0.7-7.9-0.9-11.8c-0.1-1.4,1-2.6,2.4-2.6s2.6,1,2.6,2.4c0.2,3.8,0.5,7.7,0.8,11.6
	c0.1,1.4-0.9,2.6-2.2,2.7L1099.8,967L1099.8,967z M1098.6,943.5c-1.4,0-2.5-1.1-2.5-2.5c0-0.6,0-1.1,0-1.7c0-3.4,0.1-6.8,0.2-10.2
	c0.1-1.3,1.2-2.4,2.5-2.4h0.1c1.4,0.1,2.5,1.2,2.4,2.6c0,0,0,0,0,0c-0.1,3.3-0.2,6.6-0.2,10v1.7
	C1101.1,942.5,1100,943.6,1098.6,943.5L1098.6,943.5L1098.6,943.5z M1099.6,920.1h-0.2c-1.4-0.1-2.4-1.3-2.3-2.7c0,0,0,0,0,0
	c0.4-4,0.8-7.9,1.4-11.8c0.2-1.4,1.5-2.3,2.8-2.1s2.3,1.5,2.1,2.8c-0.6,3.8-1,7.6-1.4,11.5C1102,919.1,1100.9,920.1,1099.6,920.1
	L1099.6,920.1z"/>
<path class="st1" d="M356.8,1070.3c-24,0-43.4-19.4-43.4-43.3c0-24,19.4-43.4,43.3-43.4c24,0,43.4,19.4,43.4,43.3
	c0,17.6-10.6,33.4-26.8,40.1C368.1,1069.2,362.5,1070.3,356.8,1070.3z M356.7,989.1c-20.9,0-37.8,17-37.8,37.9
	c0,20.9,17,37.8,37.9,37.8c4.9,0,9.8-1,14.4-2.9c19.3-8,28.5-30.1,20.5-49.4C385.9,998.3,372.1,989,356.7,989.1L356.7,989.1z"/>
<path class="st1" d="M369.9,1067.7c-4.3,0-9.2-2.8-14.3-8.2c-5.9-6.2-11.4-15.3-15.7-25.7c-8-19.4-10.7-42.5,0.3-47.1
	c5-2,11.3,0.6,17.7,7.5c5.9,6.2,11.4,15.3,15.7,25.7c8,19.4,10.7,42.5-0.3,47.1C372.3,1067.4,371.1,1067.7,369.9,1067.7z
	 M343.7,991.7c-0.5,0-1,0.1-1.4,0.3c-5.5,2.3-5.5,19.8,2.7,39.8c4,9.7,9.2,18.2,14.6,24c4.6,4.9,9,7.2,11.6,6.2
	c5.5-2.3,5.5-19.8-2.7-39.8c-4-9.7-9.2-18.2-14.6-24C350,994,346.3,991.7,343.7,991.7L343.7,991.7z"/>
<path class="st1" d="M319.3,1045.2c-1.5,0-2.8-1.3-2.8-2.8c0-1.1,0.7-2.1,1.7-2.5l75-31c1.5-0.5,3,0.3,3.5,1.7
	c0.5,1.3-0.1,2.8-1.4,3.4l-75,31C320,1045.1,319.6,1045.2,319.3,1045.2z"/>
<circle class="st3" cx="1163.3" cy="147.9" r="15.2"/>
<circle class="st3" cx="1232.4" cy="147.9" r="15.2"/>
<circle class="st3" cx="1301.5" cy="147.9" r="15.2"/>
<path class="st1" d="M1307.3,1280.5H320.4c-1.5,0.1-2.8-1.1-2.9-2.6c-0.1-1.5,1.1-2.8,2.6-2.9c0.1,0,0.2,0,0.3,0h986.9
	c1.5-0.1,2.8,1.1,2.9,2.6s-1.1,2.8-2.6,2.9C1307.5,1280.5,1307.4,1280.5,1307.3,1280.5z"/>
<path class="st1" d="M1027.3,1318.8H600.5c-1.5,0.1-2.8-1.1-2.9-2.6s1.1-2.8,2.6-2.9c0.1,0,0.2,0,0.3,0h426.8
	c1.5,0.1,2.7,1.4,2.6,2.9C1029.8,1317.6,1028.7,1318.7,1027.3,1318.8z"/>
<path class="st1" d="M551.8,1318.8h-95.9c-1.5,0.1-2.8-1.1-2.9-2.6c-0.1-1.5,1.1-2.8,2.6-2.9c0.1,0,0.2,0,0.3,0h95.9
	c1.5-0.1,2.8,1.1,2.9,2.6s-1.1,2.8-2.6,2.9C552,1318.8,551.9,1318.8,551.8,1318.8z"/>
<path class="st1" d="M1181.3,1318.8h-63.8c-1.5-0.1-2.7-1.4-2.6-2.9c0.1-1.4,1.2-2.5,2.6-2.6h63.8c1.5,0.1,2.7,1.4,2.6,2.9
	C1183.8,1317.6,1182.7,1318.7,1181.3,1318.8z"/>
</svg>
