<?xml version="1.0" encoding="utf-8"?>
<!-- Generator: Adobe Illustrator 24.2.3, SVG Export Plug-In . SVG Version: 6.00 Build 0)  -->
<svg version="1.1" id="Capa_1" xmlns="http://www.w3.org/2000/svg" xmlns:xlink="http://www.w3.org/1999/xlink" x="0px" y="0px"
	 viewBox="0 0 1600 1400" style="enable-background:new 0 0 1600 1400;" xml:space="preserve">
<style type="text/css">
	.st0{fill:#FFFFFF;}
	.st1{fill:#262424;}
	.st2{fill:#2E4057;}
	.st3{fill:#384E6B;}
	.st4{fill:#64748B;}
	.st5{fill:#06B6D4;}
	.st6{fill:#233143;}
	.st7{fill:#FBBF24;}
	.st8{fill:#00BDAB;}
</style>
<path class="st0" d="M1284.7,873l32.7-303.9H1278L1245.2,873H1284.7z"/>
<path class="st1" d="M1284.7,876h-39.4c-1.7,0-3-1.3-3-3c0-0.1,0-0.2,0-0.3l32.8-303.9c0.2-1.5,1.5-2.7,3-2.7h39.4c1.7,0,3,1.3,3,3
	c0,0.1,0,0.2,0,0.3l-32.7,303.9C1287.5,874.9,1286.2,876,1284.7,876z M1248.6,870h33.4l32.1-297.9h-33.4L1248.6,870z"/>
<path class="st0" d="M1267.2,873l32.7-303.9h-39.5L1227.8,873H1267.2z"/>
<path class="st1" d="M1267.2,876h-39.4c-1.7,0-3-1.3-3-3c0-0.1,0-0.2,0-0.3l32.8-303.9c0.2-1.5,1.5-2.7,3-2.7h39.4c1.7,0,3,1.3,3,3
	c0,0.1,0,0.2,0,0.3l-32.7,303.9C1270.1,874.8,1268.7,876,1267.2,876z M1231.1,870h33.4l32.1-297.9h-33.4L1231.1,870z"/>
<path class="st0" d="M1402.1,598H1184c-11.4,0-19.6-9.2-18.4-20.6l19-176c1.2-11.4,11.5-20.6,22.9-20.6h218
	c11.4,0,19.6,9.2,18.4,20.6l-19,176C1423.7,588.8,1413.4,598,1402.1,598L1402.1,598z"/>
<path class="st1" d="M1402.1,601H1184c-11.7,0.2-21.4-9.1-21.6-20.8c0-1.1,0-2.2,0.2-3.2l19-176c1.4-12.9,13-23.3,25.8-23.3h218
	c11.7-0.2,21.4,9.1,21.6,20.8c0,1.1,0,2.2-0.2,3.2l-19,176C1426.5,590.5,1414.9,601,1402.1,601L1402.1,601z M1207.4,383.7
	c-10.2,0.2-18.6,7.9-19.9,18l-19,176c-0.6,4.5,0.8,8.9,3.8,12.3c3,3.3,7.2,5.1,11.7,5h218c10.2-0.2,18.6-7.9,19.9-18l19-176
	c0.6-4.5-0.8-8.9-3.8-12.3c-3-3.3-7.2-5.1-11.7-5H1207.4z"/>
<path class="st2" d="M1355.2,598h-218c-11.4,0-19.6-9.2-18.4-20.6l19-176c1.2-11.4,11.5-20.6,22.9-20.6h218
	c11.4,0,19.6,9.2,18.4,20.6l-19,176C1376.9,588.8,1366.6,598,1355.2,598z"/>
<path class="st2" d="M1355.2,601h-218c-11.7,0.2-21.4-9.1-21.6-20.8c0-1.1,0-2.2,0.2-3.2l19-176c1.4-12.9,13-23.3,25.8-23.3h218
	c11.7-0.2,21.4,9.1,21.6,20.8c0,1.1,0,2.2-0.2,3.2l-19,176C1379.7,590.5,1368.1,601,1355.2,601z M1160.6,383.7
	c-10.2,0.2-18.6,7.9-19.9,18l-19,176c-0.6,4.5,0.8,8.9,3.8,12.3c3,3.3,7.2,5.1,11.7,5h218c10.2-0.2,18.6-7.9,19.9-18l19-176
	c0.6-4.5-0.8-8.9-3.8-12.3c-3-3.3-7.2-5.1-11.7-5H1160.6z"/>
<path class="st0" d="M1126.4,943h44.6v100h-44.6V943z"/>
<path class="st1" d="M1171,1046h-44.6c-1.7,0-3-1.3-3-3V943c0-1.7,1.3-3,3-3h44.6c1.7,0,3,1.3,3,3v100
	C1174,1044.7,1172.7,1046,1171,1046z M1129.4,1040h38.6v-94h-38.6V1040z"/>
<path class="st2" d="M1078,913h141.4l0,0c0,21-17,38-38,38l0,0H1116C1095,951,1078,934,1078,913L1078,913L1078,913z"/>
<path class="st2" d="M1126.5,1030.2h44.4c7.6,0,13.8,6.2,13.8,13.8l0,0v43.6l0,0h-72l0,0v-43.6
	C1112.7,1036.3,1118.8,1030.2,1126.5,1030.2L1126.5,1030.2L1126.5,1030.2z"/>
<path class="st0" d="M1148.7,1087.5v48.5l-169.9,75.9H946c0-12.4,6.4-23.9,16.8-30.4l149.9-93.9L1148.7,1087.5L1148.7,1087.5z"/>
<path class="st1" d="M978.8,1214.9H946c-1.7,0-3-1.3-3-3c0-13.4,6.9-25.9,18.2-33l149.9-93.9c0.5-0.3,1-0.5,1.6-0.5h36
	c1.7,0,3,1.3,3,3v48.5c0,1.2-0.7,2.3-1.8,2.7L980,1214.6C979.6,1214.8,979.2,1214.9,978.8,1214.9L978.8,1214.9z M949.1,1208.9h29
	l167.6-74.9v-43.5h-32.1L964.4,1184C955.7,1189.4,950,1198.6,949.1,1208.9L949.1,1208.9z"/>
<circle class="st1" cx="960.7" cy="1253.8" r="28.2"/>
<circle class="st0" cx="960.7" cy="1253.8" r="9.2"/>
<path class="st0" d="M1148.7,1087.5v48.5l169.9,75.9h32.8c0-12.4-6.4-23.9-16.8-30.4l-149.9-93.9L1148.7,1087.5L1148.7,1087.5z"/>
<path class="st1" d="M1351.4,1214.9h-32.8c-0.4,0-0.8-0.1-1.2-0.3l-169.9-75.9c-1.1-0.5-1.8-1.6-1.8-2.7v-48.5c0-1.7,1.3-3,3-3h36
	c0.6,0,1.1,0.2,1.6,0.5l149.9,93.9c11.4,7.1,18.3,19.6,18.2,33C1354.4,1213.6,1353.1,1214.9,1351.4,1214.9L1351.4,1214.9z
	 M1319.2,1208.9h29c-0.9-10.2-6.5-19.4-15.2-24.9l-149.1-93.5h-32.2v43.5L1319.2,1208.9z"/>
<circle class="st3" cx="1336.7" cy="1253.8" r="28.2"/>
<circle class="st0" cx="1336.7" cy="1253.8" r="9.2"/>
<path class="st0" d="M1167.4,1211.9H1130l-17.3-124.4h72L1167.4,1211.9z"/>
<path class="st1" d="M1167.4,1214.9H1130c-1.5,0-2.8-1.1-3-2.6l-17.3-124.4c-0.2-1.6,0.9-3.2,2.6-3.4c0.1,0,0.3,0,0.4,0h72
	c1.7,0,3,1.3,3,3c0,0.1,0,0.3,0,0.4l-17.3,124.4C1170.2,1213.8,1168.9,1214.9,1167.4,1214.9L1167.4,1214.9z M1132.6,1208.9h32.2
	l16.4-118.4h-65.1L1132.6,1208.9z"/>
<path class="st3" d="M1138.2,1225.7h23.2c5.3,0,9.7,4.3,9.7,9.7v37c0,5.3-4.3,9.7-9.7,9.7h-23.2c-5.3,0-9.7-4.3-9.7-9.7v-37
	C1128.5,1230,1132.8,1225.7,1138.2,1225.7z"/>
<path class="st0" d="M985.7,857h173c15.5,0,28,12.5,28,28l0,0c0,15.5-12.5,28-28,28h-173c-15.5,0-28-12.5-28-28l0,0
	C957.7,869.5,970.2,857,985.7,857z"/>
<path class="st1" d="M1158.7,916h-173c-17.1,0-31-13.9-31-31s13.9-31,31-31h173c17.1,0,31,13.9,31,31S1175.8,916,1158.7,916z
	 M985.7,860c-13.8,0-25,11.2-25,25s11.2,25,25,25h173c13.8,0,25-11.2,25-25s-11.2-25-25-25H985.7z"/>
<path class="st0" d="M1162,857h149.7c15.5,0,28,12.5,28,28l0,0c0,15.5-12.5,28-28,28H1162c-15.5,0-28-12.5-28-28l0,0
	C1134,869.5,1146.5,857,1162,857z"/>
<path class="st1" d="M1311.7,916H1162c-17.1,0-31-13.9-31-31s13.9-31,31-31h149.7c17.1,0,31,13.9,31,31S1328.9,916,1311.7,916z
	 M1162,860c-13.8,0-25,11.2-25,25s11.2,25,25,25h149.7c13.8,0,25-11.2,25-25s-11.2-25-25-25H1162z"/>
<path class="st0" d="M646.9,569v16H515.2v-16l24.5-57.1h96.1L611.2,569H646.9z"/>
<path class="st1" d="M646.9,588H515.2c-1.7,0-3-1.3-3-3v-16c0-0.4,0.1-0.8,0.2-1.2l24.5-57.1c0.5-1.1,1.6-1.8,2.8-1.8h96.1
	c1.7,0,3,1.3,3,3c0,0.4-0.1,0.8-0.2,1.2l-22.7,53h31.1c1.7,0,3,1.3,3,3v16C649.9,586.7,648.5,588,646.9,588z M518.2,582h125.7v-10
	h-32.7c-1.7,0-3-1.3-3-3c0-0.4,0.1-0.8,0.2-1.2l22.7-53h-89.5l-23.5,54.8V582z"/>
<path class="st0" d="M567.4,569h79.5v16h-79.5V569z"/>
<path class="st1" d="M646.9,588h-79.5c-1.7,0-3-1.3-3-3v-16c0-1.7,1.3-3,3-3h79.5c1.7,0,3,1.3,3,3v16
	C649.9,586.7,648.5,588,646.9,588z M570.4,582h73.5v-10h-73.5V582z"/>
<path class="st0" d="M567.4,569v16h-52.2v-16l24.5-57.1h16.6L531.7,569H567.4z"/>
<path class="st1" d="M567.4,588h-52.2c-1.7,0-3-1.3-3-3v-16c0-0.4,0.1-0.8,0.2-1.2l24.5-57.1c0.5-1.1,1.6-1.8,2.8-1.8h16.6
	c1.7,0,3,1.4,3,3c0,0.4-0.1,0.8-0.2,1.1l-22.7,53h31.1c1.7,0,3,1.3,3,3v16C570.4,586.7,569.1,588,567.4,588z M518.2,582h46.2v-10
	h-32.7c-1.7,0-3-1.3-3-3c0-0.4,0.1-0.8,0.2-1.2l22.7-53h-10l-23.5,54.8L518.2,582z"/>
<path class="st2" d="M769.6,531H375.9c-6-0.1-11-4.7-11.8-10.7l-25.6-246c-0.7-5.2,3-9.9,8.1-10.6c0.5-0.1,1-0.1,1.4-0.1h393.7
	c6,0.1,11,4.7,11.8,10.7l25.6,246c0.7,5.2-3,9.9-8.1,10.6C770.5,531,770.1,531,769.6,531L769.6,531z"/>
<path class="st2" d="M786.8,531H393.1c-6-0.1-11-4.7-11.8-10.7l-25.6-246c-0.7-5.2,3-9.9,8.1-10.6c0.5-0.1,1-0.1,1.4-0.1h393.7
	c6,0.1,11,4.7,11.8,10.7l25.6,246c0.7,5.2-3,9.9-8.1,10.6C787.7,531,787.2,531,786.8,531L786.8,531z"/>
<path class="st0" d="M774.2,511.9H401.7c-3.2-0.1-5.8-2.4-6.2-5.6l-22.7-217.9c-0.4-2.7,1.6-5.2,4.3-5.5c0.2,0,0.5,0,0.7,0h372.5
	c3.2,0.1,5.8,2.4,6.2,5.6l22.7,217.9c0.4,2.7-1.6,5.2-4.3,5.5C774.7,511.8,774.4,511.9,774.2,511.9L774.2,511.9z"/>
<path class="st1" d="M774.2,514.8H401.7c-4.7,0-8.6-3.6-9.1-8.3l-22.7-217.9c-0.5-4.4,2.6-8.3,6.9-8.8c0.4,0,0.7-0.1,1.1-0.1h372.5
	c4.7,0,8.6,3.6,9.2,8.3L782.2,506c0.5,4.4-2.6,8.3-7,8.8C774.8,514.8,774.5,514.9,774.2,514.8L774.2,514.8z M377.8,285.8
	c-0.6,0-1.1,0.2-1.5,0.6c-0.4,0.5-0.6,1-0.5,1.6L398.5,506c0.2,1.6,1.6,2.8,3.2,2.9h372.5c0.6,0,1.1-0.2,1.5-0.6
	c0.4-0.5,0.6-1,0.5-1.6l-22.7-217.9c-0.2-1.6-1.6-2.8-3.2-2.9L377.8,285.8L377.8,285.8z"/>
<path class="st4" d="M634.4,461h-213c-3.2-0.1-5.8-2.4-6.2-5.6l-13.6-130.8c-0.4-2.7,1.6-5.2,4.3-5.5c0.2,0,0.5,0,0.7,0h213
	c3.2,0.1,5.8,2.4,6.2,5.6l13.6,130.9c0.3,2.7-1.6,5.2-4.3,5.5C634.9,461,634.7,461,634.4,461L634.4,461z"/>
<path class="st0" d="M627.1,448.4H426.1l-12.2-116.8H615L627.1,448.4z"/>
<path class="st1" d="M627.1,451.4H426.1c-1.5,0-2.8-1.2-3-2.7l-12.1-116.8c-0.2-1.6,1-3.1,2.7-3.3c0.1,0,0.2,0,0.3,0H615
	c1.5,0,2.8,1.2,3,2.7l12.2,116.8c0.2,1.6-1,3.1-2.7,3.3C627.4,451.4,627.2,451.4,627.1,451.4z M428.8,445.4h195l-11.5-110.8h-195
	L428.8,445.4z"/>
<path class="st5" d="M705.5,381.7c0,0,26.3,9.8,41.8,130.2h-32L705.5,381.7z"/>
<path class="st1" d="M644.8,322.2c0,0-5.7,18.6,5.1,39.7h38.4c0,0,0.5-20.2-3.6-34.9S644.8,322.2,644.8,322.2z"/>
<path class="st0" d="M595.4,418l-20.7-36.7c-0.6-1-1.8-1.5-3-1.2c-1.1,0.4-1.7,1.7-1.3,2.8c0,0,0,0,0,0l3.5,10.4l-5.2,6
	c-3,3.4-2.4,8.8,1.3,12.2l18.4,13.5L595.4,418z"/>
<path class="st1" d="M588.5,428c-0.6,0-1.3-0.2-1.8-0.6L568.3,414l-0.3-0.2c-4.9-4.5-5.5-11.7-1.5-16.4l4.1-4.7l-3-8.8
	c-1-2.7,0.4-5.6,3.1-6.6c0,0,0,0,0,0c2.5-0.8,5.2,0.2,6.6,2.4l0,0.1l20.7,36.7c0.6,1.2,0.5,2.6-0.5,3.6l-6.9,7
	C590.1,427.7,589.3,428.1,588.5,428L588.5,428z M572,409.2l16.1,11.8l3.5-3.6l-15.8-28l1,2.8c0.3,1,0.1,2.1-0.6,2.9l-5.2,6
	C569.3,403.4,569.7,407,572,409.2z"/>
<path class="st5" d="M635.7,381.7c-7,6.3-15.3,21.1-25,45.5l-14.6-15.5l-14.2,12.8c0,0,19.3,53.5,35.8,53.5s35.3-37.8,35.3-37.8
	L635.7,381.7z"/>
<path class="st1" d="M613.3,465c-1.3,0-2.5-0.9-2.9-2.2c-2.8-10.3-3.6-21-2.4-31.6c0.2-1.6,1.8-2.8,3.4-2.5c1.6,0.2,2.8,1.8,2.5,3.4
	c-1,9.8-0.3,19.6,2.3,29.1c0.4,1.6-0.5,3.2-2.1,3.7C613.9,465,613.6,465,613.3,465z"/>
<path class="st5" d="M722.8,511.9h-77.4c-10.9-63.3-9.7-130.2-9.7-130.2c12.5-9.5,33.5-13.3,33.5-13.3s21.8,3.8,36.3,13.3
	C705.5,381.7,720.6,448.5,722.8,511.9L722.8,511.9z"/>
<path class="st1" d="M638.5,458.5c-1.6,0-2.9-1.2-3-2.8c-2.4-28.9-2.8-53.6-2.8-65.7c0-1.7,1.3-3,3-3s3,1.3,3,3
	c0,12.1,0.5,36.6,2.8,65.3c0.1,1.7-1.1,3.1-2.8,3.2H638.5L638.5,458.5z"/>
<path class="st1" d="M722.3,504.4c-1.6,0-2.9-1.2-3-2.8c-2.6-46.5-11.4-93.1-15.1-110.9c-0.3-1.6,0.7-3.2,2.3-3.5
	c1.6-0.3,3.2,0.7,3.5,2.3l0,0c3.7,18,12.5,64.9,15.2,111.8c0.1,1.7-1.2,3.1-2.8,3.2H722.3z"/>
<path class="st2" d="M670.5,381.2c9.4,0,13.5,5,13.5,5c1.7-13.4-7.4-22.3-15.2-22.3s-15.1,8.9-10.6,22.3
	C658.1,386.2,661.2,381.2,670.5,381.2z"/>
<path class="st0" d="M672,352.9l1.8,16.9l-3.9,4.4l-4.8-4.4l-1.8-16.9H672z"/>
<path class="st1" d="M669.8,377.2c-0.7,0-1.5-0.3-2-0.8L663,372c-0.6-0.5-0.9-1.2-1-1.9l-1.8-16.9c-0.2-1.6,1-3.1,2.7-3.3
	c0.1,0,0.2,0,0.3,0h8.8c1.5,0,2.8,1.2,3,2.7l1.8,16.9c0.1,0.8-0.2,1.7-0.8,2.3l-4,4.4c-0.5,0.6-1.3,1-2.1,1H669.8z M667.8,368.4
	l1.8,1.6l1-1.1l-1.3-12.9h-2.7L667.8,368.4z"/>
<path class="st0" d="M668.1,357.7c-7.8-0.2-14.4-6.1-15.3-13.9l-0.9-9c-0.9-6.7,3.9-12.9,10.6-13.8c0.6-0.1,1.2-0.1,1.8-0.1
	c7.8,0.2,14.4,6.1,15.3,13.9l0.9,9c0.9,6.7-3.9,12.9-10.6,13.8C669.3,357.7,668.7,357.7,668.1,357.7z"/>
<path class="st1" d="M668.1,360.7c-9.4-0.2-17.2-7.3-18.3-16.6l-0.9-9c-1.1-8.4,4.9-16,13.2-17.1c0.7-0.1,1.5-0.1,2.2-0.1
	c9.4,0.2,17.2,7.3,18.3,16.6l0.9,9c1.1,8.4-4.9,16-13.2,17.1C669.5,360.7,668.8,360.7,668.1,360.7z M664.3,323.9
	c-2.7-0.1-5.3,1-7.1,3c-1.8,2.1-2.7,4.8-2.3,7.5l0.9,9c0.8,6.3,6,11,12.3,11.2c2.7,0.1,5.3-1,7.1-3c1.8-2.1,2.7-4.8,2.3-7.5l-0.9-9
	C675.8,328.8,670.6,324.1,664.3,323.9z"/>
<path class="st1" d="M648.2,336.4c0,0,21.2,5.6,27.2-10.4c0,0-2,14.1,4.6,14.1c0,0,5.2-3.6,4.5-13s-12.7-23.9-29.1-16.8
	C636.4,318.6,648.2,336.4,648.2,336.4L648.2,336.4z"/>
<path class="st4" d="M736.4,677.8h24.2V1282h-24.2V677.8z"/>
<path class="st4" d="M866.8,677.8H891V1282h-24.2V677.8z"/>
<path class="st4" d="M866.8,677.8V1282h-48.4v-89h-82v89H688V677.8h48.4v466.7h82V677.8H866.8z"/>
<path class="st1" d="M736.4,1280c-1.4,0-2.5-1.1-2.5-2.5V1193c0-1.4,1.1-2.5,2.5-2.5s2.5,1.1,2.5,2.5v84.5
	C738.9,1278.9,737.8,1280,736.4,1280z"/>
<path class="st3" d="M866.8,1278c-1.4,0-2.5-1.1-2.5-2.5V677.8c0-1.4,1.1-2.5,2.5-2.5s2.5,1.1,2.5,2.5v597.7
	C869.3,1276.9,868.2,1278,866.8,1278z"/>
<path class="st4" d="M736.4,1147.1c-1.4,0-2.5-1.1-2.5-2.5V677.8c0-1.4,1.1-2.5,2.5-2.5s2.5,1.1,2.5,2.5v466.7
	C738.9,1146,737.8,1147.1,736.4,1147.1z"/>
<path class="st4" d="M493,1144.6h325.4v48.4H493L493,1144.6z"/>
<path class="st1" d="M756.2,1195.5H694c-1.4,0-2.5-1.1-2.5-2.5s1.1-2.5,2.5-2.5h62.2c1.4,0,2.5,1.1,2.5,2.5
	S757.6,1195.5,756.2,1195.5z"/>
<path class="st1" d="M818.4,1191.2c-1.4,0-2.5-1.1-2.5-2.5v-39c0-1.4,1.1-2.5,2.5-2.5s2.5,1.1,2.5,2.5v39
	C820.9,1190.1,819.8,1191.2,818.4,1191.2z"/>
<path class="st1" d="M756.5,1147.1h-62c-1.4,0-2.5-1.1-2.5-2.5s1.1-2.5,2.5-2.5h62c1.4,0,2.5,1.1,2.5,2.5S757.8,1147.1,756.5,1147.1
	z"/>
<path class="st4" d="M411,677.8h24.2V1282H411V677.8z"/>
<path class="st4" d="M541.4,677.8h24.2V1282h-24.2V677.8z"/>
<path class="st1" d="M565.6,1191.2c-1.4,0-2.5-1.1-2.5-2.5v-38.9c0-1.4,1.1-2.5,2.5-2.5s2.5,1.1,2.5,2.5v38.9
	C568.1,1190.1,567,1191.2,565.6,1191.2z"/>
<path class="st4" d="M541.4,677.8V1282H493v-89h-82v89h-48.4V677.8H411v466.7h82V677.8H541.4z"/>
<path class="st6" d="M411,1278c-1.4,0-2.5-1.1-2.5-2.5V1193c0-1.4,1.1-2.5,2.5-2.5h20.5c1.4,0,2.5,1.1,2.5,2.5s-1.1,2.5-2.5,2.5h-18
	v80C413.5,1276.9,412.4,1278,411,1278z"/>
<path class="st6" d="M541.4,1280c-1.4,0-2.5-1.1-2.5-2.5V680.3H493c-1.4,0-2.5-1.1-2.5-2.5s1.1-2.5,2.5-2.5h48.4
	c1.4,0,2.5,1.1,2.5,2.5v599.7C543.9,1278.9,542.8,1280,541.4,1280L541.4,1280z"/>
<path class="st6" d="M431.5,1147.1H411c-1.4,0-2.5-1.1-2.5-2.5V677.8c0-1.4,1.1-2.5,2.5-2.5s2.5,1.1,2.5,2.5v464.2h18
	c1.4,0,2.5,1.1,2.5,2.5S432.9,1147.1,431.5,1147.1z"/>
<path class="st2" d="M330.6,585h200.5v53.9H330.6V585z"/>
<path class="st2" d="M923,638.9H531.1V585H923V638.9z"/>
<path class="st1" d="M531.1,641.4c-1.4,0-2.5-1.1-2.5-2.5v-49.5c0-1.4,1.1-2.5,2.5-2.5s2.5,1.1,2.5,2.5v49.5
	C533.6,640.3,532.5,641.4,531.1,641.4z"/>
<path class="st0" d="M362.6,638.9h178.8v38.9H362.6V638.9z"/>
<path class="st1" d="M541.4,680.8H362.6c-1.7,0-3-1.3-3-3v-38.9c0-1.7,1.3-3,3-3h178.8c1.7,0,3,1.3,3,3v38.9
	C544.4,679.5,543.1,680.8,541.4,680.8z M365.6,674.8h172.8v-32.9H365.6L365.6,674.8L365.6,674.8z"/>
<path class="st0" d="M891,677.9H541.4v-38.9H891L891,677.9z"/>
<path class="st1" d="M891,680.8H541.4c-1.7,0-3-1.3-3-3v-38.9c0-1.7,1.3-3,3-3H891c1.7,0,3,1.3,3,3v38.9
	C894,679.5,892.7,680.8,891,680.8z M544.4,674.8H888v-32.9H544.4V674.8L544.4,674.8z"/>
<path class="st0" d="M750.9,1093.8l-7.3,78.1l30.6,1.3l14.6-78.2L750.9,1093.8z"/>
<path class="st1" d="M774.1,1176.3H774l-30.6-1.4c-1.7-0.1-2.9-1.5-2.9-3.1c0,0,0-0.1,0-0.1l7.3-78.1c0.1-1.6,1.5-2.8,3.1-2.7
	l37.9,1.2c1.7,0.1,3,1.4,2.9,3.1c0,0.2,0,0.3,0,0.5l-14.6,78.2C776.8,1175.2,775.6,1176.3,774.1,1176.3z M746.9,1169.1l24.8,1.1
	l13.5-72.2l-31.5-1L746.9,1169.1z"/>
<path class="st7" d="M621.8,1268.4v13.6h168.3c0,0,0.5-7.1,1.1-19.1c1-23.5,2.3-63-0.9-106.7l-53.7-8.6c0,0-46.1,48-87.1,85.3
	c-4.3,3.9-8.7,7.7-13.5,11.2C627,1251,621.8,1259.5,621.8,1268.4L621.8,1268.4z"/>
<path class="st1" d="M701.3,1234.4c-1.7,0-3-1.3-3-3c0-0.8,0.3-1.5,0.8-2.1c35.9-37.2,52-68,52.2-68.3c0.8-1.5,2.6-2,4.1-1.2
	c1.4,0.8,1.9,2.5,1.3,3.9c-0.7,1.3-16.6,31.8-53.2,69.7C702.9,1234.1,702.1,1234.4,701.3,1234.4L701.3,1234.4z"/>
<ellipse class="st0" cx="763.5" cy="1219.7" rx="14.9" ry="16.6"/>
<path class="st2" d="M763.5,1239.3c-9.9,0-17.9-8.8-17.9-19.6s8-19.6,17.9-19.6s17.9,8.8,17.9,19.6S773.4,1239.3,763.5,1239.3z
	 M763.5,1206c-6.6,0-11.9,6.1-11.9,13.6s5.4,13.6,11.9,13.6s11.9-6.1,11.9-13.6S770.1,1206,763.5,1206L763.5,1206z"/>
<path class="st0" d="M621.8,1268.4v13.6h168.3c0,0,0.5-7.1,1.1-19.1h-88.8c0,0-5.7-39.6-52.9-30c-4.3,3.9-8.7,7.7-13.5,11.2
	C627,1251,621.8,1259.5,621.8,1268.4L621.8,1268.4z"/>
<path class="st1" d="M790.1,1285H621.8c-1.7,0-3-1.3-3-3v-13.6c0-9.6,5.5-19.1,15.4-26.6c4.4-3.4,8.9-7.1,13.3-11.1
	c0.4-0.4,0.9-0.6,1.4-0.7c16.3-3.3,29.7-1.3,39.8,5.8c10.9,7.7,14.8,19.1,16.1,24.1h86.4c1.7,0,3,1.3,3,3c0,0,0,0.1,0,0.1
	c-0.5,11.9-1.1,19.1-1.1,19.2C793,1283.8,791.7,1285,790.1,1285L790.1,1285z M624.8,1279h162.5c0.2-2.7,0.5-7.1,0.7-13.1h-85.7
	c-1.5,0-2.8-1.1-3-2.6c0-0.1-2.2-14.3-14.2-22.7c-8.6-6-20.1-7.7-34.3-5c-4.3,3.9-8.7,7.5-13,10.8c-8.4,6.4-13,14.1-13,21.8
	L624.8,1279L624.8,1279z"/>
<path class="st2" d="M1104.1,713.8c0,0-17.4,99.1-24.2,109.2c-21.5,31.9-239.3,88.4-239.3,88.4l-29.4,214.2l-88-9.6
	c0,0-2.8-132.5,1.4-212.9c1.6-31.3,4.3-54.8,8.6-59.4c3.5-3.8,17.5-13,36.9-24.8c66-40.2,195.2-111.3,195.2-111.3
	s26.8-70.8,74.4-50.3C1083.9,676.4,1109.6,680.7,1104.1,713.8z"/>
<path class="st0" d="M777.3,872.9c-10.1,23.2-33,35.9-52.7,30.2c1.6-31.3,4.3-54.8,8.6-59.4c3.5-3.8,17.5-13,36.9-24.8
	C782.5,831.2,786,852.9,777.3,872.9z"/>
<path class="st1" d="M770.9,1086.8h-0.3c-1.4-0.2-2.3-1.5-2.1-2.8L795,893.7c0.1-0.9,0.7-1.7,1.5-2l234.6-97.2l11.5-69.6
	c0.3-1.4,1.6-2.2,3-1.9c1.3,0.3,2.1,1.5,2,2.8l-11.7,70.9c-0.1,0.9-0.7,1.6-1.5,1.9l-234.6,97.1l-26.4,188.8
	C773.2,1085.9,772.1,1086.8,770.9,1086.8L770.9,1086.8z"/>
<path class="st1" d="M798.2,1106.2h-0.3l-61.6-6.5c-1.4-0.1-2.4-1.4-2.2-2.8s1.4-2.4,2.8-2.2l61.6,6.5c1.4,0.1,2.4,1.2,2.4,2.6
	S799.6,1106.3,798.2,1106.2L798.2,1106.2z"/>
<path class="st0" d="M953.5,1100.3l8.8,77.9l30.2-4.9l-1.7-79.5L953.5,1100.3z"/>
<path class="st1" d="M962.3,1181.2c-1.5,0-2.8-1.1-3-2.7l-8.8-77.9c-0.2-1.6,0.9-3,2.5-3.3l37.3-6.6c1.6-0.3,3.2,0.8,3.5,2.4
	c0,0.2,0,0.3,0,0.5l1.7,79.5c0,1.5-1.1,2.8-2.5,3l-30.2,4.9C962.6,1181.2,962.4,1181.2,962.3,1181.2L962.3,1181.2z M956.8,1102.8
	l8.2,72l24.5-4l-1.6-73.4L956.8,1102.8z"/>
<path class="st7" d="M840.2,1268.4v13.6h168.3c0,0,0.5-7.1,1.1-19.1c1-23.5,2.3-63-0.9-106.7l-53.7-8.6c0,0-46.1,48-87.1,85.3
	c-4.3,3.9-8.7,7.7-13.5,11.2C845.3,1251,840.2,1259.5,840.2,1268.4z"/>
<path class="st1" d="M919.7,1234.4c-1.7,0-3-1.3-3-3c0-0.8,0.3-1.5,0.8-2.1c36-37.3,52-68,52.2-68.3c0.7-1.5,2.5-2.1,4-1.4
	c1.5,0.7,2.1,2.5,1.4,4c0,0.1-0.1,0.1-0.1,0.1c-0.7,1.3-16.6,31.8-53.2,69.7C921.3,1234.1,920.5,1234.4,919.7,1234.4L919.7,1234.4z"
	/>
<ellipse class="st0" cx="981.8" cy="1219.7" rx="14.9" ry="16.6"/>
<path class="st1" d="M981.8,1239.3c-9.9,0-17.9-8.8-17.9-19.6s8-19.6,17.9-19.6s17.9,8.8,17.9,19.6S991.7,1239.3,981.8,1239.3z
	 M981.8,1206c-6.6,0-11.9,6.1-11.9,13.6s5.4,13.6,11.9,13.6s11.9-6.1,11.9-13.6S988.4,1206,981.8,1206L981.8,1206z"/>
<path class="st0" d="M840.2,1268.4v13.6h168.3c0,0,0.5-7.1,1.1-19.1h-88.8c0,0-5.7-39.6-52.9-30c-4.3,3.9-8.7,7.7-13.5,11.2
	C845.3,1251,840.2,1259.5,840.2,1268.4L840.2,1268.4z"/>
<path class="st1" d="M1008.5,1285H840.2c-1.7,0-3-1.3-3-3v-13.6c0-9.6,5.5-19.1,15.4-26.6c4.4-3.4,8.9-7.1,13.3-11.1
	c0.4-0.4,0.9-0.6,1.4-0.7c16.3-3.3,29.7-1.3,39.8,5.8c10.9,7.7,14.8,19.1,16.1,24.1h86.4c1.7,0,3,1.3,3,3c0,0,0,0.1,0,0.1
	c-0.5,11.9-1.1,19.1-1.1,19.2C1011.3,1283.8,1010,1285,1008.5,1285L1008.5,1285z M843.2,1279h162.5c0.2-2.7,0.5-7.1,0.7-13.1h-85.7
	c-1.5,0-2.8-1.1-3-2.6c0-0.1-2.2-14.3-14.2-22.7c-8.6-6-20.1-7.7-34.3-5c-4.3,3.9-8.7,7.5-13,10.8c-8.4,6.4-13,14.1-13,21.8
	L843.2,1279L843.2,1279z"/>
<path class="st2" d="M1239.8,713.8c0,0-4.5,99.1-11.3,109.2c-21.5,31.9-239.3,88.4-239.3,88.4l21.3,211.6l-87.7-0.5
	c0,0-28.7-136.6-39.5-217.3c-4.4-32.4-5.9-56.8-1.5-61.6c3.7-4,18.8-13.9,39.7-26.5c66.7-40.4,192.4-109.6,192.4-109.6
	s26.2-50.3,74.4-50.3S1245.3,680.7,1239.8,713.8L1239.8,713.8z"/>
<path class="st0" d="M932.1,874.2c-9.5,21.7-30.2,34.3-49,31c-4.4-32.4-5.9-56.8-1.5-61.6c3.7-4,18.8-13.9,39.7-26.5
	C936.6,828.7,941.6,852.5,932.1,874.2z"/>
<path class="st1" d="M881.4,894c-1.3,0-2.3-1-2.5-2.2c-4.5-38.4-1.8-46.8,0.9-49.8c15.4-16.7,216.6-127.7,232.1-136.2
	c5.3-9.2,11.7-17.6,19.2-25.1c16.9-16.9,36.6-25.9,57-25.9c1.4,0,2.5,1.1,2.5,2.5s-1.1,2.5-2.5,2.5c-46.2,0-71.9,48.4-72.2,48.9
	c-0.2,0.4-0.6,0.8-1,1c-2.1,1.3-216.3,119.3-231.4,135.6c-1.3,1.4-3.9,8.8,0.4,45.8c0.2,1.4-0.8,2.6-2.2,2.8c0,0,0,0,0,0L881.4,894z
	"/>
<path class="st1" d="M1184.7,781.7c-0.2,0-0.4,0-0.6-0.1c-8.5-2-14.5-6.4-17.7-13.1c-7.7-15.9,3.1-39,3.6-40
	c0.6-1.2,2.1-1.8,3.3-1.2c1.2,0.6,1.8,2.1,1.2,3.3c-0.1,0.2-10.2,21.9-3.6,35.7c2.5,5.3,7.3,8.8,14.3,10.4c1.3,0.3,2.2,1.6,1.9,3
	C1186.9,780.9,1185.9,781.7,1184.7,781.7L1184.7,781.7z"/>
<path class="st1" d="M970.3,1086.8c-1.3,0-2.3-0.9-2.5-2.2l-24.3-190.2c-0.1-1.1,0.5-2.2,1.5-2.6l234.6-97.2l11.5-69.6
	c0.3-1.4,1.6-2.2,3-1.9c1.3,0.3,2.1,1.5,2,2.8l-11.7,70.9c-0.1,0.9-0.7,1.6-1.5,1.9l-234.2,97l24.1,188.3c0.2,1.4-0.8,2.6-2.2,2.8
	c0,0,0,0,0,0L970.3,1086.8z"/>
<path class="st1" d="M997.7,1106.2h-61.6c-1.4,0-2.5-1.1-2.5-2.5s1.1-2.5,2.5-2.5h61.6c1.4,0,2.5,1.1,2.5,2.5
	S999,1106.2,997.7,1106.2z"/>
<path class="st0" d="M670.9,579.9c1.4,2.1,4.1,2.9,6.4,1.9l51.8-21.7c2.1-0.9,4.5,0,5.5,2c1.1,2.1,0.3,4.7-1.8,5.9
	c-0.1,0.1-0.3,0.1-0.4,0.2l-16.9,6.8c-2.9,1.2-4.6,4.1-4.2,7.2c0.4,3.3,3.1,5.8,6.5,6l26,1.3c8.1,0.4,16.1-2.2,22.4-7.3l7.8-6.3
	l19.1-0.8l11.1-31.2l-25.9-2.6L741,527.9c-5.7-2.1-12.1-1-16.8,2.8l-52.3,42.2C669.8,574.6,669.4,577.7,670.9,579.9L670.9,579.9z"/>
<path class="st1" d="M745.2,592.5c-0.6,0-1.2,0-1.8,0l-26-1.3c-5.4-0.2-9.6-4.8-9.4-10.2c0.2-3.9,2.6-7.3,6.3-8.8l16.9-6.8
	c0.7-0.3,1-1.1,0.7-1.7s-1.1-1-1.7-0.7l-51.8,21.7c-3.6,1.5-7.8,0.3-10-3c-2.4-3.5-1.7-8.3,1.7-11l52.3-42.2
	c5.6-4.5,13-5.7,19.8-3.3l36.7,13.3l25.5,2.6c1.6,0.2,2.9,1.6,2.7,3.3c0,0.2-0.1,0.5-0.2,0.7l-11.1,31.2c-0.4,1.2-1.5,1.9-2.7,2
	l-18.1,0.7l-7.1,5.7C761.4,589.7,753.5,592.5,745.2,592.5L745.2,592.5z M730.7,556.8c4.1,0,7.4,3.3,7.4,7.3c0,3-1.8,5.8-4.7,6.9
	l-16.9,6.8c-2,0.8-2.9,3-2.1,5c0.6,1.4,1.9,2.3,3.4,2.4l26,1.3c7.4,0.4,14.6-2,20.4-6.6l7.8-6.3c0.5-0.4,1.1-0.6,1.8-0.7l17.1-0.7
	l9.2-25.7l-22.1-2.2c-0.2,0-0.5-0.1-0.7-0.2L740,530.7c-4.7-1.7-10-0.8-13.9,2.3l-52.3,42.2c-1,0.8-1.1,2.2-0.4,3.1
	c0.6,0.8,1.7,1.1,2.7,0.7l51.8-21.7C728.8,557,729.7,556.8,730.7,556.8L730.7,556.8z"/>
<path class="st8" d="M1081.2,467.5c0,0-59.5,53.1-105.4,92.4c-3.7,3.2-7.3,6.2-10.8,9.2c-12.1,10.3-27.5,15.9-43.3,15.9h-128
	c-15-13.3-19.4-30.2-9.7-51.8L899.7,501l130.9-144.5L1081.2,467.5z"/>
<path class="st0" d="M975.8,559.9c-3.7,3.2-7.3,6.2-10.8,9.2c-12.1,10.3-27.5,15.9-43.3,15.9h-8c-0.5-1.4-0.8-2.9-1.1-4.3
	c-2.7-16.5,10-32.3,28.4-35.4C955.6,542.8,969.3,549.1,975.8,559.9L975.8,559.9z"/>
<circle class="st0" cx="800" cy="573.6" r="6.7"/>
<path class="st1" d="M800,583.3c-5.4,0-9.7-4.4-9.7-9.8s4.4-9.7,9.8-9.7s9.7,4.4,9.7,9.8c0,3.7-2.1,7-5.4,8.7
	C803,583,801.5,583.3,800,583.3z M800,569.9c-2,0-3.7,1.7-3.7,3.7c0,2,1.7,3.7,3.7,3.7c2,0,3.7-1.7,3.7-3.7c0-0.6-0.1-1.2-0.4-1.7
	C802.7,570.6,801.4,569.9,800,569.9z"/>
<path class="st1" d="M820.3,583.3c-1,0-1.9-0.5-2.5-1.3c-15.8-23.4-10.7-50.5-10.5-51.6c0.4-1.6,2-2.6,3.6-2.2
	c1.5,0.4,2.5,1.8,2.3,3.4c-0.1,0.3-4.8,25.8,9.5,47.1c0.9,1.4,0.6,3.2-0.8,4.2C821.5,583.1,820.9,583.3,820.3,583.3z"/>
<path class="st8" d="M1281.1,380.7c0,0-78.5-52.2-136.3-51.1s-114.1,26.9-114.1,26.9c-47,98.1-72.9,349.2-72.9,349.2
	s62,23.9,235.5,33.7l7.3-43.7c0.6-3.4,3.7-5.7,7.1-5.2c3.5,0.4,6,3.6,5.5,7.1c0,0,0,0,0,0.1l-5.8,43.6c15.4,1.7,30.9,2.4,46.3,2
	C1279.4,559,1281.1,380.7,1281.1,380.7L1281.1,380.7z"/>
<path class="st1" d="M979.7,551.5c-1.4,0-2.5-1.1-2.5-2.5c0-0.2,0-0.3,0.1-0.5l13.7-70.5c8.9-44.7,21.1-85.9,34.4-116
	c0.5-1.3,1.9-2,3.2-1.5s2,1.9,1.5,3.2c0,0.1-0.1,0.2-0.1,0.3c-13.2,29.8-25.3,70.6-34,115l-13.7,70.6
	C981.9,550.7,980.9,551.5,979.7,551.5L979.7,551.5z"/>
<path class="st0" d="M1205.7,357.6c-11.2,23.8-31,33-43.3,36.4c-2.6-17.3-10.5-39.3-10.5-39.3c-10,12.9-15.7,30.2-17.2,38.2
	c-30.8-9.6-33.4-39.6-33.4-39.6c4.8-29.8,31.3-51.6,53.4-50.1C1203.5,306.5,1205.7,357.6,1205.7,357.6L1205.7,357.6z"/>
<path class="st1" d="M1162.4,397c-1.5,0-2.8-1.1-3-2.6c-1.7-11.7-6-25.6-8.5-33.2c-6.3,9.9-10.8,20.8-13.3,32.2
	c-0.3,1.6-1.9,2.7-3.5,2.4c-0.1,0-0.2,0-0.3-0.1c-32.4-10-35.5-41.9-35.5-42.2c0-0.2,0-0.5,0-0.7c5.2-32.9,34-54.1,56.5-52.6
	c26.6,1.8,39.9,17.3,46.3,30c4.2,8.5,6.8,17.7,7.6,27.2c0,0.5-0.1,1-0.3,1.4c-8.7,18.7-25.3,32.6-45.2,38
	C1162.9,396.9,1162.7,397,1162.4,397z M1151.9,351.7c1.3,0,2.4,0.8,2.8,2c0.3,0.9,7.1,19.7,10.1,36.4c16.6-5.4,30.3-17.3,37.9-33.1
	c-0.8-8.4-3.2-16.6-6.9-24.2c-8.3-16.4-22.2-25.3-41.3-26.6c-19.8-1.3-45.4,18.6-50.1,47.2c0.4,3.2,3.9,26.3,28.2,35.6
	c2.2-8.7,7.6-24,17-36.1C1150.1,352.2,1150.9,351.7,1151.9,351.7L1151.9,351.7z"/>
<path class="st2" d="M1330.3,845h-186.9v-37c0-45.8,37.2-83,83-83h103.9V845z M1341.3,885c16,0,29-13,29-29V714c0-16-13-29-29-29
	l0,0h-114.9c-67.9,0-123,55.1-123,123l0,0v48c0,16,13,29,29,29H1341.3z"/>
<path class="st8" d="M1323.8,637.6c-4,23.7-10,42.3-19,47c-3.2,4.2-10.1,9.5-19.2,15.3c-38.3,24.4-115.2,57.6-115.2,57.6
	c-36.7-8-36.5-47.5-36.5-47.5l98.2-101c0,0,21.3-162.4,24.8-186.8s24.2-41.5,24.2-41.5c32.7,20.8,43.6,60.4,48.3,129.3
	C1331.2,537,1330.8,595.5,1323.8,637.6z"/>
<path class="st1" d="M1170.5,760c-0.2,0-0.4,0-0.5-0.1c-38.2-8.3-38.5-49.5-38.5-50c0-0.6,0.3-1.3,0.7-1.7l97.6-100.4
	c1.6-12.5,21.3-162.8,24.7-186c2.2-15.2,10.7-27.7,17.5-35.5c0.9-1,2.5-1.1,3.5-0.1c1,0.9,1.1,2.4,0.2,3.4
	c-6.3,7.3-14.3,18.9-16.3,32.9c-3.4,24-24.6,185.1-24.8,186.7c-0.1,0.5-0.3,1-0.7,1.4L1136.5,711c0.2,6,2.9,36.7,33.7,43.9
	c5.6-2.5,42.1-18.4,75.4-35.5c1.2-0.6,2.7-0.1,3.4,1.1c0.6,1.2,0.1,2.7-1.1,3.4c-36.2,18.5-76.1,35.8-76.5,35.9
	C1171.2,759.9,1170.8,760,1170.5,760L1170.5,760z"/>
<path class="st0" d="M1141.3,714.7c0,0,26.4,9.9,29.7,34.8l-22,32.5l-5.9,26.3c-0.6,2.8-2.9,4.8-5.7,5.2l-30.2,4.2
	c-3.7,0.5-7.2-2.1-7.7-5.8c0-0.3-0.1-0.6-0.1-0.9v-33.5l-8,31.6c-0.9,3.6-4.6,5.8-8.3,4.9c-0.4-0.1-0.9-0.3-1.3-0.5
	c-2.3-1.1-3.8-3.5-3.8-6.1l-0.1-44.3c0-5.4,2.8-10.4,7.3-13.3L1141.3,714.7z"/>
<path class="st1" d="M1106.3,820.8c-5.4,0-9.8-4.4-9.8-9.8c0,0,0,0,0,0v-9.4l-2,8.1c-1.3,5.2-6.7,8.4-11.9,7.1
	c-0.6-0.2-1.3-0.4-1.9-0.7c-3.4-1.6-5.5-5-5.5-8.8l-0.2-44.3c0-6.4,3.3-12.4,8.7-15.8l56-35.1c0.8-0.5,1.8-0.6,2.7-0.3
	c1.2,0.4,28.1,10.8,31.6,37.2c0.1,0.7-0.1,1.5-0.5,2.1l-21.7,32L1146,809c-0.9,4-4.2,7-8.2,7.5l-30.2,4.2
	C1107.2,820.8,1106.8,820.8,1106.3,820.8L1106.3,820.8z M1099.5,774.5h0.4c1.5,0.2,2.6,1.5,2.6,3V811c0,2.1,1.7,3.8,3.8,3.8
	c0.2,0,0.3,0,0.5,0l30.2-4.2c1.6-0.2,2.8-1.4,3.2-2.9l5.9-26.3c0.1-0.4,0.2-0.7,0.4-1l21.3-31.5c-3.2-19.1-21.2-28.5-26.3-30.8
	l-54.7,34.3c-3.7,2.3-5.9,6.4-5.9,10.7l0.1,44.3c0,2.1,1.7,3.8,3.8,3.8c0.5,0,1.1-0.1,1.6-0.4c1-0.5,1.8-1.4,2.1-2.5l8-31.6
	C1097,775.5,1098.1,774.5,1099.5,774.5L1099.5,774.5z"/>
<path class="st0" d="M1323.8,637.6c-4,23.7-10,42.3-19,47c-3.2,4.2-10.1,9.5-19.2,15.3c-0.8-0.7-1.6-1.5-2.4-2.3
	c-13.4-13.9-12.4-36.7,2.4-51C1296.3,636.2,1311.3,633.2,1323.8,637.6z"/>
<path class="st1" d="M1195.8,736.5c-1.3,0-2.3-1-2.5-2.2c-3.1-29.2-29.5-36.1-29.8-36.2c-1.3-0.4-2.1-1.8-1.7-3.1
	c0.4-1.3,1.6-2,2.9-1.8c0.3,0.1,30.1,7.8,33.6,40.5c0.1,1.4-0.8,2.6-2.2,2.8L1195.8,736.5L1195.8,736.5z"/>
<circle class="st0" cx="1181.8" cy="736.8" r="6"/>
<path class="st1" d="M1181.8,745.8c-5,0-9-4-9-9s4-9,9-9s9,4,9,9S1186.7,745.8,1181.8,745.8z M1181.8,733.8c-1.7,0-3,1.3-3,3
	s1.3,3,3,3s3-1.3,3-3S1183.4,733.8,1181.8,733.8z"/>
<path class="st0" d="M1185.2,243.7l-1.8,30l-3,51.4c-17.7,11.5-34.5,12.3-50.4-0.5l3.2-23.8l4.8-36L1185.2,243.7z"/>
<path class="st1" d="M1154.4,337c-9.2,0-17.9-3.3-26.2-10c-0.8-0.7-1.2-1.7-1.1-2.7l7.9-59.9c0.1-1,0.8-1.9,1.8-2.4L1184,241
	c1.5-0.7,3.3,0,4,1.5c0.2,0.4,0.3,0.9,0.3,1.4l-4.8,81.4c-0.1,1-0.6,1.8-1.4,2.3C1172.5,333.9,1163.3,337,1154.4,337L1154.4,337z
	 M1133.3,323.4c13.5,10.1,28,10.2,44.3,0l4.4-74.9l-41.2,18.4L1133.3,323.4z"/>
<path class="st1" d="M1168.9,251c-0.7,13.6-0.9,59.8-37.5,63.7l6.6-49.9L1168.9,251z"/>
<path class="st0" d="M1093.9,244.5c2.5,24.7,9.7,54.3,39.3,49.7c35.3-5.5,58.1-30.4,58.4-64s-15.2-52.5-55.4-48.7
	c-3.4,0.3-6.8,0.9-10.1,1.8c-23.1,6.2-34.8,25.4-33.3,47.9C1093.2,235.3,1093.5,239.8,1093.9,244.5L1093.9,244.5z"/>
<path class="st1" d="M1127.4,297.7c-6.7,0.2-13.2-2-18.5-6.2c-14.8-11.9-17.6-37.2-19-60c-0.9-13.8,2.8-26,10.6-35.5
	c8.2-10,20.5-16,35.6-17.4c1.7-0.2,3.1,1.1,3.3,2.7c0.2,1.7-1.1,3.1-2.7,3.3c-26.4,2.5-42.4,20.8-40.8,46.5
	c1,15.6,2.8,44.6,16.8,55.7c5.3,4.3,11.9,5.7,20.2,4.4c13.2-2,24.5-6.8,33.7-14.1c1.3-1,3.2-0.8,4.2,0.5s0.8,3.2-0.5,4.2
	c-9.9,7.9-22.5,13.2-36.5,15.4C1131.7,297.5,1129.5,297.7,1127.4,297.7z"/>
<path class="st1" d="M1202.2,236.5c-3.4,4.9-7.2,9.5-11.4,13.8l-17.8,1.1l-3.8-12.6c0,0-11.3-0.5-13.6-8.1c-0.1-0.2-0.1-0.4-0.2-0.5
	c-0.6-2.5-2.9-13.6-1.2-30.9c0,0-27.1,12-41.9,13.5c-5.3,0.6-11.5-1.5-17.3-4.3c-11.6-5.7-21.7-24.6-19.7-37.3v-0.2
	c3.2-18.7,12.9-5.7,12.9-5.7s2.8-15,12.2-16.1s15.4,12.8,15.4,12.8c18.1-4.2,36.8-5,55.2-2.3c36.4,5.6,27.3,30.6,27.3,30.6
	S1225.2,198.8,1202.2,236.5L1202.2,236.5z"/>
<path class="st0" d="M1176.9,249.5c-1.5-14,8.3-27.1,22.3-28.7c3-0.4,6-0.1,8.9,0.6c17.4,4.7,12.8,45.1-29.7,42.1L1176.9,249.5z"/>
<g>
	<path class="st2" d="M1182.8,266.7c-1.5,0-3.1-0.1-4.7-0.2c-1.7-0.1-2.9-1.6-2.8-3.2s1.6-2.9,3.2-2.8c23.4,1.7,33.9-10.2,35.7-21
		c1.2-7.4-1.7-13.7-7-15.2c-2.5-0.7-5.2-0.9-7.8-0.6c-12.2,1.4-21.1,12.8-19.7,25.4c0.2,1.7-1,3.1-2.7,3.3s-3.1-1-3.3-2.7l0,0
		c-1.7-15.9,9.5-30.2,25-32c3.3-0.4,6.7-0.2,10,0.7c8.3,2.2,13.1,11.5,11.3,22C1217.9,253.9,1205.5,266.7,1182.8,266.7L1182.8,266.7
		z"/>
	<path class="st2" d="M417.9,1285h917.3c1.7,0,3-1.3,3-3s-1.3-3-3-3H417.9c-1.7,0-3,1.3-3,3S416.2,1285,417.9,1285"/>
	<path class="st2" d="M390.1,1279h-48.6c-1.7,0-3,1.3-3,3s1.3,3,3,3h48.6c1.7,0,3-1.3,3-3S391.7,1279,390.1,1279"/>
	<path class="st2" d="M1380.2,1279h-24.3c-1.7,0-3,1.3-3,3s1.3,3,3,3h24.3c1.7,0,3-1.3,3-3S1381.9,1279,1380.2,1279"/>
	<path class="st2" d="M670.3,1324.6h412.5c1.7,0,3-1.3,3-3s-1.3-3-3-3H670.3c-1.7,0-3,1.3-3,3S668.6,1324.6,670.3,1324.6"/>
	<path class="st2" d="M531.1,1324.6h86.8c1.7,0,3-1.3,3-3s-1.3-3-3-3h-86.8c-1.7,0-3,1.3-3,3S529.4,1324.6,531.1,1324.6"/>
	<path class="st2" d="M1144.4,1324.6h28.6c1.7,0,3-1.3,3-3s-1.3-3-3-3h-28.5c-1.7,0-3,1.3-3,3S1142.8,1324.6,1144.4,1324.6"/>
	<path class="st2" d="M883.7,364.4c-0.9,0-1.7-0.4-2.1-1.2l-6.4-10.1c-0.7-1.2-0.3-2.7,0.8-3.4c1.1-0.7,2.6-0.4,3.4,0.8l6.4,10.1
		c0.7,1.2,0.4,2.7-0.8,3.5C884.7,364.2,884.2,364.4,883.7,364.4z M893.7,358.4c-1.4,0-2.5-1.1-2.5-2.5c0-0.9,0.4-1.7,1.2-2.1
		l10.1-6.4c1.2-0.8,2.7-0.4,3.5,0.7s0.4,2.7-0.7,3.5c0,0-0.1,0-0.1,0.1l-10.1,6.4C894.7,358.2,894.2,358.3,893.7,358.4L893.7,358.4z
		 M914,345.5c-1.4,0-2.5-1.1-2.5-2.5c0-0.9,0.4-1.7,1.2-2.1l10.1-6.4c1.2-0.8,2.7-0.4,3.5,0.7s0.4,2.7-0.7,3.5c0,0-0.1,0-0.1,0.1
		l-10.1,6.4C914.9,345.3,914.5,345.5,914,345.5L914,345.5z M870.8,344.1c-0.9,0-1.7-0.4-2.1-1.2l-6.4-10.1c-0.7-1.2-0.3-2.7,0.8-3.4
		c1.1-0.7,2.6-0.4,3.4,0.8l6.5,10.1c0.7,1.2,0.4,2.7-0.8,3.5C871.8,344,871.4,344.1,870.8,344.1L870.8,344.1z M934.3,332.6
		c-1.4,0-2.5-1.1-2.5-2.5c0-0.9,0.4-1.7,1.2-2.1l10.1-6.4c1.2-0.8,2.7-0.4,3.5,0.7s0.4,2.7-0.7,3.5c0,0-0.1,0-0.1,0.1l-10.1,6.4
		C935.2,332.5,934.8,332.6,934.3,332.6L934.3,332.6z M858,323.8c-0.9,0-1.7-0.4-2.1-1.2l-6.4-10.1c-0.8-1.2-0.4-2.7,0.7-3.5
		c1.2-0.8,2.7-0.4,3.5,0.7c0,0,0,0.1,0.1,0.1l6.4,10.1c0.7,1.2,0.4,2.7-0.8,3.5C858.9,323.7,858.5,323.8,858,323.8z"/>
	<path class="st2" d="M944.4,326.2c-0.9,0-1.7-0.4-2.1-1.2l-37.1-58.4l-58.4,37.1c-1.2,0.8-2.7,0.4-3.5-0.7s-0.4-2.7,0.7-3.5
		c0,0,0.1,0,0.1-0.1l60.5-38.5c1.2-0.7,2.7-0.4,3.5,0.8l38.5,60.5c0.8,1.2,0.4,2.7-0.7,3.5C945.4,326,944.9,326.2,944.4,326.2
		L944.4,326.2z"/>
	<path class="st2" d="M875.5,402.5c-0.9,0-1.7-0.4-2.1-1.2l-38.5-60.5c-0.7-1.2-0.4-2.7,0.8-3.5l60.5-38.4c1.2-0.7,2.7-0.4,3.5,0.8
		l38.5,60.5c0.7,1.2,0.4,2.7-0.8,3.5l-60.5,38.5C876.4,402.4,875.9,402.6,875.5,402.5L875.5,402.5z M840.5,340.3l35.8,56.3
		l56.3-35.8l-35.8-56.3L840.5,340.3z"/>
	<path class="st2" d="M837,342c-1.4,0-2.5-1.1-2.5-2.5c0-0.2,0-0.3,0.1-0.5l8.4-37.9c0.3-1.3,1.6-2.2,3-1.9c1.3,0.3,2.2,1.6,1.9,3
		l-8.5,37.9C839.2,341.2,838.2,342,837,342z"/>
	<path class="st2" d="M897.5,303.6c-1.4,0-2.5-1.1-2.5-2.5c0-0.2,0-0.3,0.1-0.5l8.5-37.9c0.3-1.3,1.6-2.2,3-1.9
		c1.3,0.3,2.2,1.6,1.9,3l-8.5,37.9C899.7,302.8,898.7,303.6,897.5,303.6z"/>
	<path class="st2" d="M936,364.1c-1.4,0-2.5-1.1-2.5-2.5c0-0.2,0-0.3,0.1-0.5l8.4-38c0.3-1.3,1.6-2.2,3-1.9c1.3,0.3,2.2,1.6,1.9,3
		l-8.5,37.9C938.2,363.3,937.2,364.1,936,364.1z"/>
	<path class="st2" d="M876.1,399.8c-1.4,0-2.5-1.1-2.5-2.5c0-0.2,0-0.3,0.1-0.5l2.6-11.8c0.3-1.3,1.6-2.2,3-1.9
		c1.3,0.3,2.2,1.6,1.9,3l-2.6,11.7C878.3,398.9,877.2,399.7,876.1,399.8z M881.3,376.3c-1.4,0-2.5-1.1-2.5-2.5c0-0.2,0-0.3,0.1-0.5
		l2.6-11.7c0.3-1.3,1.6-2.2,3-1.9c1.3,0.3,2.2,1.6,1.9,3l-2.6,11.7C883.5,375.5,882.5,376.3,881.3,376.3L881.3,376.3z"/>
	<path class="st2" d="M710.8,207.7h-0.4l-82.9-12.3c-1.4-0.2-2.3-1.5-2.1-2.8c0.1-0.7,0.5-1.2,1-1.6l95.2-70.6
		c1.1-0.8,2.7-0.6,3.5,0.4c0.4,0.5,0.6,1.2,0.5,1.9l-12.3,82.9C713.1,206.8,712,207.7,710.8,207.7L710.8,207.7z M634.2,191.4
		l74.5,11l11-74.5L634.2,191.4z"/>
	<path class="st2" d="M698.3,190.9c-0.8,0-1.5-0.4-2-1l-3.6-4.9c-0.8-1.1-0.6-2.7,0.5-3.5s2.7-0.6,3.5,0.5l3.6,4.8
		c0.9,1.1,0.7,2.7-0.4,3.5C699.4,190.7,698.9,190.9,698.3,190.9z"/>
	<path class="st2" d="M686.9,175.6c-0.8,0-1.5-0.4-2-1l-7.8-10.5c-0.8-1.1-0.6-2.7,0.5-3.5s2.7-0.6,3.5,0.5l7.8,10.5
		c0.8,1.1,0.6,2.7-0.5,3.5C688,175.4,687.5,175.6,686.9,175.6z M671.4,154.6c-0.8,0-1.5-0.4-2-1l-7.8-10.5c-0.8-1.1-0.6-2.7,0.5-3.5
		s2.7-0.6,3.5,0.5l7.8,10.5c0.8,1.1,0.6,2.7-0.5,3.5C672.4,154.4,671.9,154.6,671.4,154.6L671.4,154.6z M655.8,133.6
		c-0.8,0-1.5-0.4-2-1l-7.8-10.5c-0.8-1.1-0.6-2.7,0.5-3.5c1.1-0.8,2.7-0.6,3.5,0.5l7.8,10.5c0.8,1.1,0.6,2.7-0.5,3.5
		C656.9,133.4,656.3,133.6,655.8,133.6L655.8,133.6z"/>
	<path class="st2" d="M640.2,112.6c-0.8,0-1.5-0.4-2-1l-3.6-4.8c-0.8-1.1-0.6-2.7,0.5-3.5s2.7-0.6,3.5,0.5l3.6,4.8
		c0.8,1.1,0.6,2.7-0.5,3.5C641.3,112.4,640.8,112.6,640.2,112.6z"/>
	<path class="st2" d="M710.8,207.7h-0.4l-20.8-3.1c-1.4-0.2-2.3-1.5-2.1-2.8c0,0,0,0,0,0c1.9-12.8,13.8-21.7,26.7-19.8
		c1.4,0.2,2.3,1.5,2.1,2.8c0,0,0,0,0,0l-3.1,20.8C713.1,206.8,712,207.7,710.8,207.7z M693,200.1l15.6,2.3l2.4-15.6h-0.2
		C702.6,186.8,695.3,192.2,693,200.1L693,200.1z"/>
	<path class="st2" d="M383.5,175.1c-0.3,0-0.5,0-0.8-0.1l-67.4-22.3c-1.3-0.4-2-1.8-1.6-3.2s1.8-2,3.2-1.6l67.4,22.3
		c1.3,0.4,2,1.8,1.6,3.1C385.6,174.4,384.6,175.1,383.5,175.1z"/>
	<path class="st2" d="M365.5,208.9l-4-11.6l-9.7,7.1l-6-2l14.1-10l-5.6-16.4l7.4,2.4l3.9,11.5l9-7.2l6,2l-13.5,9.7l5.7,16.9
		L365.5,208.9z"/>
	<path class="st2" d="M339.4,200.7c-0.3,0-0.5,0-0.8-0.1l-32.9-10.9c-1.3-0.4-2-1.8-1.6-3.2c0.2-0.5,0.4-0.9,0.8-1.2l24.6-19.1
		c1.1-0.8,2.7-0.6,3.5,0.4c0.2,0.3,0.3,0.6,0.4,0.9l8.3,30c0.4,1.3-0.4,2.7-1.8,3.1C339.8,200.7,339.6,200.7,339.4,200.7
		L339.4,200.7z M311.7,186.4l12,4l12,4l-6.1-21.9L311.7,186.4z"/>
	<path class="st2" d="M355.7,151.5c-0.3,0-0.5,0-0.8-0.1l-16.5-5.4l-16.4-5.4c-1.3-0.4-2-1.8-1.6-3.2c0.2-0.5,0.4-0.9,0.8-1.2
		l24.6-19.1c1.1-0.8,2.7-0.6,3.5,0.4c0.2,0.3,0.3,0.6,0.4,0.9l8.3,30c0.4,1.3-0.4,2.7-1.7,3.1C356.1,151.4,355.9,151.5,355.7,151.5z
		 M340,141.2l12,4l-6.1-21.9L328,137.2L340,141.2z"/>
	<path class="st2" d="M377.1,141.1l-3.3-1.1l1.3-4l3.3,1.1l2.7-8.2c0.9-2.8,2.3-4.8,4.1-5.9c2-1.1,4.3-1.2,6.4-0.4
		c0.7,0.2,1.5,0.6,2.1,1c0.7,0.4,1.3,1,1.8,1.6l-2.9,2.6c-0.3-0.7-1-1.2-1.7-1.4c-1-0.4-2.2-0.3-3.1,0.3c-1.1,1-1.9,2.2-2.2,3.7
		l-2.7,8.1l6.2,2.2l-1.3,4l-6.2-2.1l-5.2,15.6l-4.3-1.5L377.1,141.1z"/>
	<path class="st2" d="M197.4,497.6c-0.8,0-1.5-0.4-2-1c-0.6-0.9-16.1-21.2-25.8-54.9s-7.3-59.2-7.2-60.3c0.1-1.4,1.4-2.4,2.7-2.3
		s2.4,1.4,2.3,2.7c0,0.2-2.4,25.7,7,58.4s24.8,53.1,25,53.3c0.9,1.1,0.7,2.7-0.4,3.5C198.5,497.4,198,497.6,197.4,497.6z"/>
	<path class="st2" d="M244.5,484.1h-0.2c-1.4-0.1-2.4-1.4-2.3-2.7c0,0,0,0,0,0c0-0.2,2.4-25.7-7-58.4s-24.8-53.1-25-53.3
		c-0.8-1.1-0.6-2.7,0.5-3.5s2.7-0.6,3.5,0.5c0.6,0.9,16.1,21.2,25.8,54.9s7.3,59.2,7.2,60.3C246.9,483.2,245.8,484.2,244.5,484.1z"
		/>
	<path class="st2" d="M204.2,376.4l-5.9,44.5l-5.9,1.7l2.2-15.5l-19.8-22.2l6.8-1.9l14.1,16.5l3-21.4L204.2,376.4z"/>
	<path class="st2" d="M222.6,475l-9.9-7.4l-4,11.3l-6.1,1.8l6-16.2l-13.9-10.4l7.5-2.1l9.7,7.3l3.3-11l6.1-1.7l-5.6,15.6l14.2,10.9
		L222.6,475z"/>
	<path class="st2" d="M183.4,440.3c-1.4,0-2.5-1.1-2.5-2.5c0-1.1,0.7-2.1,1.8-2.4l44.9-12.9c1.3-0.4,2.7,0.4,3.1,1.7
		s-0.4,2.7-1.7,3.1l-44.9,12.9C183.9,440.2,183.7,440.3,183.4,440.3z"/>
</g>
<path class="st2" d="M182.5,694.6l-4.4-10.5l-8.5,7.1l-5.7-1.5l12.4-10.1l-6.2-14.8l7,1.8l4.3,10.4l7.8-7.2l5.6,1.5l-11.9,9.8
	l6.3,15.3L182.5,694.6z"/>
<path class="st2" d="M233.5,682.8l-1.3,4.9l-30.8-8l1.3-4.9L233.5,682.8z M230.4,694.5l-1.3,4.9l-30.8-8l1.3-4.9L230.4,694.5z"/>
<path class="st2" d="M253.6,713.2l-4.4-10.5l-8.5,7.1l-5.7-1.5l12.4-10.1l-6.2-14.8l7,1.8l4.3,10.4l7.8-7.2l5.6,1.5l-11.8,9.8
	l6.3,15.3L253.6,713.2z"/>
<path class="st2" d="M270.6,696.9c1.7-1.7,3.8-2.9,6.2-3.5c2.5-0.6,5.1-0.6,7.6,0.1c2.5,0.6,4.7,1.8,6.6,3.6c1.7,1.6,3,3.7,3.6,6
	c0.6,2.3,0.6,4.8,0,7.2c-0.6,2.4-1.8,4.5-3.5,6.3c-1.7,1.7-3.8,2.9-6.1,3.5c-2.5,0.6-5.1,0.6-7.6-0.1c-2.5-0.6-4.7-1.8-6.6-3.5
	c-1.8-1.6-3-3.6-3.7-5.9c-0.7-2.4-0.7-5,0-7.4C267.7,700.8,268.9,698.6,270.6,696.9L270.6,696.9z M272.6,709.3
	c0.3,1.5,1,2.8,2.1,3.9c2.7,2.8,6.9,3.3,10.2,1.2c2-1.3,3.4-3.3,3.9-5.5c0.7-2.3,0.4-4.7-0.7-6.8c-1-2-2.9-3.5-5.1-4
	c-1.4-0.4-3-0.4-4.4,0.1c-1.4,0.5-2.7,1.3-3.7,2.4C272.8,703,272,706.2,272.6,709.3L272.6,709.3z"/>
</svg>
