<svg viewBox="0 0 1600 1400" xmlns="http://www.w3.org/2000/svg"><path d="m1158.42 864h-95.84l-69.87-156h10.29l41.65 93 2.38 5.31a6.5 6.5 0 0 0 5.93 3.84h10.12a6.49 6.49 0 0 0 5.92-9.15l-41.65-93h61.22z" fill="#fff"/><path d="m1158.42 866.5h-95.84a2.5 2.5 0 0 1 -2.28-1.48l-69.87-156.02a2.5 2.5 0 0 1 2.28-3.52h10.29a2.5 2.5 0 0 1 2.28 1.48l44 98.32a4 4 0 0 0 3.65 2.36h10.12a4 4 0 0 0 3.64-5.63l-41.69-93.01a2.5 2.5 0 0 1 2.28-3.52h61.22a2.5 2.5 0 0 1 2.28 1.48l69.87 156a2.5 2.5 0 0 1 -2.23 3.54zm-94.22-5h90.36l-67.63-151h-55.74l40.07 89.5a9 9 0 0 1 -8.2 12.67h-10.12a9 9 0 0 1 -8.21-5.32l-43.37-96.84h-4.79z" fill="#262424"/><path d="m1133.76 864h-95.85l-69.86-156h34.93l1.12 2.5h24.35l-1.12-2.5h36.56z" fill="#fff"/><path d="m1136 863-69.87-156a2.49 2.49 0 0 0 -2.28-1.48h-95.85a2.5 2.5 0 0 0 -2.28 3.52l69.86 156a2.49 2.49 0 0 0 2.28 1.48h95.85a2.5 2.5 0 0 0 2.29-3.52zm-96.51-1.48-67.62-151h90.36l67.63 151z" fill="#262424"/><rect fill="#fff" height="29.33" rx="14.67" width="335.33" x="861.58" y="858.33"/><path d="m1182.25 890.17h-306a17.17 17.17 0 0 1 0-34.33h306a17.17 17.17 0 0 1 0 34.33zm-306-29.33a12.17 12.17 0 0 0 0 24.33h306a12.17 12.17 0 0 0 0-24.33z" fill="#262424"/><rect fill="#fff" height="29.33" rx="14.67" width="175.5" x="1021.41" y="858.33"/><path d="m1182.25 890.17h-146.17a17.17 17.17 0 0 1 0-34.33h146.17a17.17 17.17 0 0 1 0 34.33zm-146.17-29.33a12.17 12.17 0 0 0 0 24.33h146.17a12.17 12.17 0 0 0 0-24.33z" fill="#262424"/><rect fill="#fff" height="524.97" rx="21.91" width="760.46" x="642.82" y="188.62"/><path d="m1381.37 716.09h-716.64a24.44 24.44 0 0 1 -24.41-24.41v-481.15a24.44 24.44 0 0 1 24.41-24.41h716.64a24.44 24.44 0 0 1 24.41 24.41v481.15a24.44 24.44 0 0 1 -24.41 24.41zm-716.64-525a19.43 19.43 0 0 0 -19.41 19.41v481.18a19.44 19.44 0 0 0 19.41 19.41h716.64a19.44 19.44 0 0 0 19.41-19.41v-481.15a19.44 19.44 0 0 0 -19.41-19.41h-716.64z" fill="#262424"/><rect fill="#fff" height="524.97" rx="21.91" width="760.46" x="621.17" y="188.62"/><path d="m1359.72 716.09h-716.64a24.44 24.44 0 0 1 -24.41-24.41v-481.15a24.44 24.44 0 0 1 24.41-24.41h716.64a24.44 24.44 0 0 1 24.41 24.41v481.15a24.44 24.44 0 0 1 -24.41 24.41zm-716.64-525a19.43 19.43 0 0 0 -19.41 19.41v481.18a19.44 19.44 0 0 0 19.41 19.41h716.64a19.44 19.44 0 0 0 19.41-19.41v-481.15a19.44 19.44 0 0 0 -19.41-19.41h-716.64z" fill="#262424"/><rect fill="#fff" height="474.97" rx="5.91" width="710.46" x="646.17" y="213.62"/><path d="m1350.72 691.09h-698.64a8.42 8.42 0 0 1 -8.41-8.41v-463.15a8.42 8.42 0 0 1 8.41-8.41h698.64a8.42 8.42 0 0 1 8.41 8.41v463.15a8.42 8.42 0 0 1 -8.41 8.41zm-698.64-475a3.41 3.41 0 0 0 -3.41 3.41v463.18a3.41 3.41 0 0 0 3.41 3.41h698.64a3.41 3.41 0 0 0 3.41-3.41v-463.15a3.41 3.41 0 0 0 -3.41-3.41h-698.64z" fill="#262424"/><path d="m1356.63 619v63.68a5.92 5.92 0 0 1 -5.91 5.91h-698.64a5.92 5.92 0 0 1 -5.91-5.91v-63.68z" fill="#fff"/><path d="m1350.72 691.09h-698.64a8.42 8.42 0 0 1 -8.41-8.41v-63.68a2.5 2.5 0 0 1 2.5-2.5h710.46a2.5 2.5 0 0 1 2.5 2.5v63.68a8.42 8.42 0 0 1 -8.41 8.41zm-702-69.59v61.18a3.41 3.41 0 0 0 3.41 3.41h698.64a3.41 3.41 0 0 0 3.41-3.41v-61.18h-705.51z" fill="#262424"/><path d="m1356.63 219.53v25.47h-710.46v-25.47a5.91 5.91 0 0 1 5.91-5.91h698.64a5.91 5.91 0 0 1 5.91 5.91z" fill="#fff"/><path d="m1356.63 247.5h-710.46a2.5 2.5 0 0 1 -2.5-2.5v-25.47a8.42 8.42 0 0 1 8.41-8.41h698.64a8.42 8.42 0 0 1 8.41 8.41v25.47a2.5 2.5 0 0 1 -2.5 2.5zm-708-5h705.46v-23a3.41 3.41 0 0 0 -3.41-3.41h-698.6a3.41 3.41 0 0 0 -3.41 3.41v23z" fill="#262424"/><path d="m1356.63 245v437.68a5.92 5.92 0 0 1 -5.91 5.91h-200.08v-443.59h206z" fill="#fff"/><path d="m1350.72 691.09h-200.08a2.5 2.5 0 0 1 -2.5-2.5v-443.59a2.5 2.5 0 0 1 2.5-2.5h206a2.5 2.5 0 0 1 2.5 2.5v437.68a8.42 8.42 0 0 1 -8.42 8.41zm-197.58-5h197.58a3.41 3.41 0 0 0 3.41-3.41v-435.18h-201v438.59z" fill="#262424"/><rect fill="#de9244" height="253.33" rx="9" width="142.67" x="1182.3" y="269.67"/><rect fill="#88c0c2" height="18" rx="9" width="142.67" x="1182.3" y="583.58"/><rect fill="#88c0c2" height="18" rx="9" width="142.67" x="1182.3" y="616.42"/><path d="m646.17 609h504.47v20h-504.47z" fill="#fff"/><path d="m1150.64 631.5h-504.47a2.5 2.5 0 0 1 -2.5-2.5v-20a2.5 2.5 0 0 1 2.5-2.5h504.47a2.5 2.5 0 0 1 2.5 2.5v20a2.5 2.5 0 0 1 -2.5 2.5zm-502-5h499.47v-15h-499.44v15z" fill="#262424"/><path d="m851.58 604.5h93.66a2.88 2.88 0 0 1 2.88 2.88v23.25a2.88 2.88 0 0 1 -2.87 2.88h-93.67a2.87 2.87 0 0 1 -2.87-2.87v-23.26a2.88 2.88 0 0 1 2.87-2.88z" fill="#88c0c2"/><path d="m1042.53 545h-76.02l-33.33-54.58h-69.56l-33.33 54.58h-76.02l106.12-173.77 38.01-62.23 38.01 62.23-38.01 62.24h76.02l34.78 56.95z" fill="#88c0c2"/><path d="m334.38 1137.38-40.62 65.64-18.26-30.81 30.59-57.55z" fill="#fff"/><path d="m293.76 1205.52a2.5 2.5 0 0 1 -2.13-1.23l-18.26-30.82a2.5 2.5 0 0 1 -.06-2.45l30.59-57.55a2.5 2.5 0 0 1 3.77-.78l28.3 22.72a2.5 2.5 0 0 1 .56 3.26l-40.62 65.64a2.5 2.5 0 0 1 -2.15 1.21zm-15.39-33.38 15.44 26.06 37.29-60.25-24.22-19.45z" fill="#262424"/><path d="m398.05 1233.45c-3.8-3.46-12.89-9.63-16.32-13.38a466 466 0 0 1 -51.08-67.07l-57.43 3.76c-1.79 38.24-1 74.12-.27 94.89.42 11.57.86 18.45.86 18.45h135.69v-13.18c0-8.57-4.14-16.81-11.45-23.47z" fill="#88c0c2"/><ellipse cx="289.26" cy="1209.75" fill="#fff" rx="8.91" ry="16.1"/><path d="m409.5 1256.92v13.18h-135.69s-.44-6.88-.87-18.45h116.39s.61-14.93-3-27.52c4 3.28 9.16 6.94 11.77 9.32 7.26 6.66 11.4 14.9 11.4 23.47z" fill="#fff"/><path d="m409.5 1272.6h-135.69a2.5 2.5 0 0 1 -2.5-2.34c0-.07-.45-7-.87-18.52a2.5 2.5 0 0 1 2.5-2.59h113.93c0-4.64-.33-15.2-3-24.32a2.5 2.5 0 0 1 4-2.64c1.61 1.31 3.41 2.69 5.15 4 2.62 2 5.1 3.91 6.73 5.4 7.91 7.21 12.27 16.2 12.27 25.32v13.18a2.5 2.5 0 0 1 -2.52 2.51zm-133.33-5h130.83v-10.68c0-7.7-3.78-15.37-10.63-21.62-1.41-1.29-3.66-3-6.06-4.86a109.16 109.16 0 0 1 1.53 21.32 2.5 2.5 0 0 1 -2.5 2.4h-113.8c.24 6.21.46 10.84.63 13.44z" fill="#262424"/><path d="m459 1037.26q-1.39 1.6-2.93 3.12l-113.19 112.62-58.55-27.33 75.34-133.34s-96-136-101.34-162.66-14.66-159.34 50.67-159.34 76.33 87.34 76.33 87.34l81.53 203.93 3.66 9.16a64.44 64.44 0 0 1 -11.52 66.5z" fill="#88c0c2"/><path d="m330.33 771.25v39.75a12.23 12.23 0 0 1 -6.06 10.56l-23.44 13.71-23.44-13.71a12.23 12.23 0 0 1 -6.06-10.56v-39.75z" fill="#fff"/><path d="m340.81 1118.5a2.5 2.5 0 0 1 -2-4l88.7-119.1-72.33-185a2.5 2.5 0 0 1 4.66-1.82l72.83 186.28a2.5 2.5 0 0 1 -.32 2.4l-89.53 120.22a2.5 2.5 0 0 1 -2.01 1.02z" fill="#262424"/><path d="m345.83 1140.83a2.49 2.49 0 0 1 -1.07-.24l-48.86-23.08a2.5 2.5 0 0 1 2.1-4.51l48.86 23.08a2.5 2.5 0 0 1 -1.03 4.75z" fill="#262424"/><path d="m422.34 998.28h-.15l-55.3-3.28a2.5 2.5 0 0 1 .29-5l55.3 3.24a2.5 2.5 0 0 1 -.14 5.04z" fill="#262424"/><path d="m459 1037.26c-10.29-7-17.26-20.45-17.26-35.93 0-19.13 10.66-35.21 25.07-39.73l3.66 9.16a64.44 64.44 0 0 1 -11.47 66.5z" fill="#fff"/><path d="m813.02 1110.5 53.31 55.83-34.33 10-48-44.08z" fill="#fff"/><path d="m832 1178.83a2.5 2.5 0 0 1 -1.69-.66l-48-44.08a2.5 2.5 0 0 1 .19-3.84l29-21.75a2.5 2.5 0 0 1 3.31.27l53.31 55.83a2.5 2.5 0 0 1 -1.11 4.13l-34.33 10a2.49 2.49 0 0 1 -.68.1zm-44.09-46.39 44.74 41.09 29-8.46-48.93-51.25z" fill="#262424"/><path d="m931.44 1233.45c-3.8-3.46-12.89-9.63-16.32-13.38-26.56-29-48.14-62.22-55.61-74.17l-52.91 10.86c-1.79 38.24-1 74.12-.27 94.89.42 11.57.86 18.45.86 18.45h135.7v-13.18c0-8.57-4.15-16.81-11.45-23.47z" fill="#88c0c2"/><ellipse cx="822.64" cy="1209.75" fill="#fff" rx="8.91" ry="16.1"/><path d="m942.89 1256.92v13.18h-135.7s0-.43-.07-1.26c-.07-1-.16-2.68-.26-4.88 0-.44 0-.9-.07-1.39s0-1-.07-1.51c-.12-2.63-.26-5.79-.39-9.41h116.39s.61-14.92-3-27.51c.18.15.36.3.55.44l.22.17c1.63 1.31 3.39 2.65 5.07 3.93l.59.45 1.12.87c1.66 1.29 3.15 2.48 4.22 3.45a41.8 41.8 0 0 1 3.77 3.9 32.73 32.73 0 0 1 6.72 12.45c.07.26.14.51.2.78q.18.78.33 1.56a26.47 26.47 0 0 1 .38 4.78z" fill="#fff"/><path d="m942.89 1272.6h-135.7a2.5 2.5 0 0 1 -2.49-2.32s0-.45-.07-1.32-.16-2.66-.26-4.89v-.22c0-.36 0-.74-.06-1.13v-.31c0-.39 0-.8-.06-1.21-.12-2.67-.26-5.84-.39-9.47a2.5 2.5 0 0 1 2.5-2.59h113.89c0-4.64-.33-15.19-3-24.31a2.5 2.5 0 0 1 4-2.62l.44.35c.08.06.23.17.36.28 1.53 1.23 3.25 2.54 4.92 3.81l.61.46 1.13.88c2.11 1.64 3.42 2.71 4.39 3.59a44.64 44.64 0 0 1 4 4.14 35.1 35.1 0 0 1 7.22 13.41v.12c.07.26.14.51.2.78.12.53.24 1.08.34 1.63a29.06 29.06 0 0 1 .47 5.25v13.18a2.5 2.5 0 0 1 -2.44 2.51zm-133.34-5h130.84v-10.68a24.05 24.05 0 0 0 -.39-4.33c-.09-.47-.19-1-.31-1.45 0-.21-.1-.39-.14-.57v-.12a30.12 30.12 0 0 0 -6.25-11.45 39.44 39.44 0 0 0 -3.54-3.67c-1.1-1-2.75-2.3-4.07-3.32l-1.13-.88-.59-.45-.27-.21a109.08 109.08 0 0 1 1.53 21.32 2.5 2.5 0 0 1 -2.5 2.4h-113.8c.1 2.54.2 4.82.29 6.8 0 .41 0 .85.06 1.26v.25c0 .38 0 .78.06 1.16v.22c.09 1.49.15 2.75.21 3.72z" fill="#262424"/><path d="m821 1107-44.67 39.33s-128-74-145.33-87.33-50-57.33-50-57.33-184-126-215.33-158.67c-17.45-18.19-22.08-53.88-22.76-81.94-1.19-49.08 37.9-90 87-90.71h2.43c78.67 0 84 105.34 84 105.34l130.5 141.92 54.42 59.18z" fill="#88c0c2"/><path d="m435.16 901a2.49 2.49 0 0 1 -1.48-.49c-37-27.28-60.5-46-69.81-55.75-17.8-18.55-22.54-54.46-23.39-81.32a2.5 2.5 0 1 1 5-.16c.82 26 5.3 60.61 22 78 9.12 9.51 32.39 28.08 69.17 55.18a2.5 2.5 0 0 1 -1.49 4.54z" fill="#262424"/><path d="m701.25 976.77c-.25.27-.51.53-.77.79-11.48 11.17-33.38 7.3-48.92-8.66s-18.84-37.95-7.37-49.13a20.93 20.93 0 0 1 2.64-2.18z" fill="#fff"/><path d="m778 1113a2.49 2.49 0 0 1 -1.47-.48l-81.42-59.31a253.1 253.1 0 0 1 -59.45-61l-5.24-7.59-167.83-163.16a2.5 2.5 0 0 1 -.76-1.79v-40.67a2.5 2.5 0 0 1 5 0v39.61l167.24 162.6a2.52 2.52 0 0 1 .31.37l5.38 7.79a248.13 248.13 0 0 0 58.24 59.8l81.42 59.31a2.5 2.5 0 0 1 -1.42 4.52z" fill="#262424"/><path d="m769.5 1134.75a2.5 2.5 0 0 1 -1.68-4.36l36-32.5a2.5 2.5 0 1 1 3.35 3.71l-36 32.5a2.49 2.49 0 0 1 -1.67.65z" fill="#262424"/><path d="m439 771.25v39.75a12.23 12.23 0 0 1 -6.06 10.56l-23.44 13.69-23.44-13.71a12.23 12.23 0 0 1 -6.06-10.54v-39.75z" fill="#fff"/><path d="m113.5 649.25-25.25 53.75 59.5 18.25 2-63z" fill="#fff"/><path d="m147.75 723.75a2.48 2.48 0 0 1 -.73-.11l-59.5-18.25a2.5 2.5 0 0 1 -1.52-3.45l25.25-53.75a2.5 2.5 0 0 1 2.87-1.36l36.25 9a2.5 2.5 0 0 1 1.9 2.51l-2 63a2.5 2.5 0 0 1 -2.52 2.41zm-56-22.29 53.62 16.45 1.83-57.71-32.3-8z" fill="#262424"/><path d="m131 682.81-19.53-6a12.25 12.25 0 0 0 -14.46 6l-9.56 18.13a12.25 12.25 0 0 0 -.63 10 12.25 12.25 0 0 0 7.6 7.31l24.58 8.15a12.25 12.25 0 0 0 13.19-3.68l2.89-3.39a12.25 12.25 0 0 0 2.87-6.8l1.58-16.87a12.25 12.25 0 0 0 -8.53-12.85z" fill="#fff"/><path d="m122.93 729.53a14.82 14.82 0 0 1 -4.68-.76l-24.62-8.18a14.75 14.75 0 0 1 -8.4-20.88l9.56-18.13a14.76 14.76 0 0 1 17.41-7.21l19.53 6a14.82 14.82 0 0 1 10.32 15.47l-1.58 16.87a14.68 14.68 0 0 1 -3.46 8.18l-2.89 3.39a14.69 14.69 0 0 1 -11.19 5.25zm-15.08-50.82a9.76 9.76 0 0 0 -8.63 5.2l-9.56 18.09a9.75 9.75 0 0 0 5.55 13.8l24.62 8.2a9.71 9.71 0 0 0 10.5-2.93l2.89-3.39a9.7 9.7 0 0 0 2.28-5.41l1.58-16.87a9.79 9.79 0 0 0 -6.82-10.23l-19.53-6a9.73 9.73 0 0 0 -2.88-.46z" fill="#262424"/><path d="m145.45 688.31a8.6 8.6 0 0 1 6.67 7.9l.88 16.33a17.13 17.13 0 0 1 -5.3 13.46l-3.78 3.57a8.6 8.6 0 0 1 -8.72 1.87l-1-.35a8.6 8.6 0 0 1 -5-4.49l-1.12-2.39a17.13 17.13 0 0 1 0-14.38l7.66-16.69a8.6 8.6 0 0 1 9.71-4.83z" fill="#fff"/><path d="m138 734.4a11.13 11.13 0 0 1 -3.65-.62l-1-.35a11.16 11.16 0 0 1 -6.43-5.8l-1.12-2.39a19.6 19.6 0 0 1 -.05-16.48l7.66-16.69a11.14 11.14 0 0 1 12.59-6.2 11.16 11.16 0 0 1 8.61 10.19l.93 16.33a19.59 19.59 0 0 1 -6.12 15.39l-3.78 3.57a11.07 11.07 0 0 1 -7.64 3.05zm5.51-43.8a6.13 6.13 0 0 0 -5.56 3.56l-7.66 16.69a14.6 14.6 0 0 0 0 12.28l1.12 2.4a6.14 6.14 0 0 0 3.53 3.19l1 .35a6.08 6.08 0 0 0 6.19-1.33l3.78-3.57a14.59 14.59 0 0 0 4.56-11.47l-.93-16.33a6.13 6.13 0 0 0 -4.73-5.6 6 6 0 0 0 -1.27-.18z" fill="#262424"/><path d="m149.75 658.25 8.37 38a10.07 10.07 0 0 1 -3.1 9.65 10.07 10.07 0 0 1 -10 2l-24.19-8.26a6.93 6.93 0 0 1 -4.47-8.31 6.93 6.93 0 0 1 6.82-5.18l10.43.16-7-12.55a6.93 6.93 0 0 1 .3-7.22l8.27-12.36z" fill="#fff"/><path d="m148.28 711a12.56 12.56 0 0 1 -4.06-.67l-24.22-8.26a9.47 9.47 0 0 1 -6-11.31 9.36 9.36 0 0 1 9.28-7.05l6.11.1-4.9-8.81a9.4 9.4 0 0 1 .41-9.82l8.27-12.36a2.5 2.5 0 0 1 2.74-1l14.5 4a2.5 2.5 0 0 1 1.78 1.87l8.37 38a12.56 12.56 0 0 1 -12.28 15.31zm-25.2-22.29a4.43 4.43 0 0 0 -1.43 8.63l24.19 8.26a7.57 7.57 0 0 0 9.84-8.79l-8-36.55-11.31-3.12-7.31 10.86a4.42 4.42 0 0 0 -.19 4.61l7 12.55a2.5 2.5 0 0 1 -2.23 3.71l-10.43-.16h-.07z" fill="#262424"/><path d="m373 488.33c-1.33 58.67-151.33 89.34-151.33 89.34s-44 51.33-70 84.66l-43.34-9.33s15.49-56.35 33-108.24c4.29-12.71 8.69-25.15 13-36.43 0 0 12.75-8.34 33.12-19.33 33.94-18.32 89-44 141.55-50.67 0 0 45.33-8.66 44 50z" fill="#de9244"/><circle cx="121.82" cy="643.67" fill="#fff" r="4.67"/><path d="m121.82 650.84a7.17 7.17 0 1 1 7.17-7.17 7.18 7.18 0 0 1 -7.17 7.17zm0-9.34a2.17 2.17 0 1 0 2.17 2.17 2.17 2.17 0 0 0 -2.17-2.17z" fill="#262424"/><path d="m177.24 531.87c-10.76 10.76-24.76 15.35-35.93 12.89 4.29-12.71 8.69-25.15 13-36.43 0 0 12.75-8.34 33.12-19.33 6.9 11.74 2.96 29.72-10.19 42.87z" fill="#fff"/><path d="m217.25 577.25a2.49 2.49 0 0 1 -1.64-.62l-37.75-33a2.5 2.5 0 0 1 3.29-3.76l37.75 33a2.5 2.5 0 0 1 -1.65 4.38z" fill="#262424"/><path d="m158.34 642.83a2.5 2.5 0 0 1 -.6-.07l-39.33-9.67a2.5 2.5 0 0 1 1.19-4.86l39.33 9.67a2.5 2.5 0 0 1 -.59 4.93z" fill="#262424"/><path d="m424 389.17s13.33 19.17 33 19.17 34.33-80.83-.67-87.67-57.33 33-32.33 68.5z" fill="#fff"/><path d="m457 410.83c-20.71 0-34.44-19.36-35-20.24-13.15-18.67-14.83-40.28-4.38-56.4 8.52-13.14 23.19-19.12 39.25-16 20 3.9 24.83 28.6 22.72 50.41-2.03 20.48-10.59 42.23-22.59 42.23zm-31-23.09c.13.18 12.86 18.1 30.95 18.1 7.41 0 15.62-17.61 17.56-37.69 1.9-19.63-2-41.76-18.71-45-14-2.73-26.72 2.43-34.09 13.8s-10 30.52 4.28 50.81z" fill="#262424"/><path d="m404.75 433.5 6.25-40 26.78 7.3-.78 32.7z" fill="#fff"/><path d="m437 436h-32.25a2.5 2.5 0 0 1 -2.47-2.89l6.25-40a2.5 2.5 0 0 1 3.13-2l26.78 7.3a2.5 2.5 0 0 1 1.84 2.47l-.78 32.7a2.5 2.5 0 0 1 -2.5 2.42zm-29.33-5h26.89l.68-28.3-22.24-6.05z" fill="#262424"/><path d="m465.67 367.5s-3.67-16.17-15-12.17-10.67 22.17-2.5 27.33l-10.39 18.14h-27.92s-22.53-30.14-25.19-49.14 15.67-20.5 15.67-20.5 3.33-16.33 16.66-19.16 50 4.83 50 4.83 7.13-11.33 13.13-11.21 5.87 12.63 5.87 12.63 7.88-10.25 12.75-7.12-3.37 45.25-28 37.5c0 0 3.33 17.25-5.08 18.87z" fill="#262424"/><path d="m380.75 435.25s7.75-20 37.75-20 40.5 25.25 40.5 25.25h-78.25z" fill="#fff"/><path d="m459 443h-78.25a2.5 2.5 0 0 1 -2.5-2.5v-5.25a2.5 2.5 0 0 1 .17-.9c.34-.88 8.73-21.6 40.08-21.6s42.7 26.52 42.81 26.79a2.5 2.5 0 0 1 -2.31 3.46zm-75.75-5h71.63c-4-6.6-14.76-20.25-36.38-20.25-25.83 0-34 15.26-35.25 18z" fill="#262424"/><path d="m531.67 776.33a279.63 279.63 0 0 1 -38.34 10.29v-39.85a9.11 9.11 0 0 0 -18.21 0v42.87c-115.82 15.89-234.44-29.31-234.44-29.31 29-206.66 88.32-322 88.32-322 56.3-13.27 206.67 0 206.67 0 2.66 132.67-4 338-4 338z" fill="#de9244"/><path d="m287.52 549.65a2.5 2.5 0 0 1 -2.39-3.24c16.2-52.18 30.85-86.29 38.15-102a2.5 2.5 0 0 1 4.53 2.11c-5.83 12.54-21.2 47.52-37.91 101.35a2.5 2.5 0 0 1 -2.38 1.78z" fill="#262424"/><path d="m349.67 752.83h-.09a2.5 2.5 0 0 1 -2.41-2.58c5.95-170.46 54.76-296.24 55.26-297.5a2.5 2.5 0 0 1 4.65 1.83c-.49 1.24-49 126.29-54.91 295.84a2.5 2.5 0 0 1 -2.5 2.41z" fill="#262424"/><path d="m499.49 769.47a2.5 2.5 0 0 1 -.35-5c7.41-1.06 14.95-2.27 22.41-3.62a2.5 2.5 0 0 1 .89 4.92c-7.53 1.36-15.13 2.59-22.6 3.65z" fill="#262424"/><path d="m419.87 775.24c-45.88 0-82.66-5.87-107.68-11.63-36.12-8.31-55.72-17.91-56.54-18.31a2.5 2.5 0 0 1 2.22-4.48c.78.39 80 38.65 209.65 27.32a2.5 2.5 0 1 1 .44 5c-16.96 1.46-33.02 2.1-48.09 2.1z" fill="#262424"/><path d="m1394 486.5h13a7.08 7.08 0 0 1 7.08 7.08v6.84a7.08 7.08 0 0 1 -7.08 7.08h-13a0 0 0 0 1 0 0v-21a0 0 0 0 1 0 0z" fill="#fff"/><path d="m1407 510h-13a2.5 2.5 0 0 1 -2.5-2.5v-21a2.5 2.5 0 0 1 2.5-2.5h13a9.59 9.59 0 0 1 9.58 9.58v6.84a9.59 9.59 0 0 1 -9.58 9.58zm-10.5-5h10.5a4.58 4.58 0 0 0 4.58-4.58v-6.84a4.58 4.58 0 0 0 -4.58-4.58h-10.5z" fill="#262424"/><path d="m1473.76 566.26v52.2a299 299 0 0 1 -87.57 211.4 422.1 422.1 0 0 1 -298.49 123.64 121.19 121.19 0 0 1 -116.7-153.87l123.27-440.3a438.42 438.42 0 0 0 16.24-118.25c0-87.26-71-158.25-158.25-158.25s-158.26 70.99-158.26 158.25v26.17h-5v-26.17c0-90 73.24-163.25 163.25-163.25s163.25 73.24 163.25 163.25a443.6 443.6 0 0 1 -16.43 119.6l-123.27 440.32a116.21 116.21 0 0 0 111.9 147.5c111.42 0 216.17-43.39 295-122.18a292 292 0 0 0 86.1-207.86v-52.2a69.15 69.15 0 0 0 -53.87-67.14 2.5 2.5 0 1 1 1.07-4.89 73.79 73.79 0 0 1 57.76 72.03z" fill="#262424"/><path d="m797.83 269.75h-12.66v2.06a40 40 0 0 0 -27.36 38v65.46a40 40 0 0 0 27.36 38v2.06h12.66a40 40 0 0 0 40-40v-65.56a40 40 0 0 0 -40-40.02z" fill="#fff"/><path d="m797.83 417.75h-12.66a2.5 2.5 0 0 1 -2.5-2.5v-.25a42.46 42.46 0 0 1 -27.36-39.73v-65.5a42.46 42.46 0 0 1 27.36-39.77v-.3a2.5 2.5 0 0 1 2.5-2.5h12.66a42.57 42.57 0 0 1 42.52 42.52v65.46a42.57 42.57 0 0 1 -42.52 42.57zm-10.2-5h10.2a37.56 37.56 0 0 0 37.52-37.52v-65.46a37.56 37.56 0 0 0 -37.52-37.52h-10.2a2.5 2.5 0 0 1 -1.67 1.93 37.47 37.47 0 0 0 -25.65 35.59v65.46a37.47 37.47 0 0 0 25.69 35.59 2.5 2.5 0 0 1 1.63 1.93z" fill="#262424"/><rect fill="#de9244" height="150.5" rx="40.02" width="82.79" x="743.77" y="267.25"/><path d="m756.25 408.5-10-26.57a47 47 0 0 1 -3.43-23.93l2-17.33a4.19 4.19 0 0 1 5.06-3.61 4.19 4.19 0 0 1 3.18 3.11l5 20.93 5.65-24 9.94-27.3a5.34 5.34 0 0 1 6.55-3.28 5.34 5.34 0 0 1 3.73 6l-4.75 29.32a3 3 0 0 0 2 3.32 3 3 0 0 0 3.69-1.81l8.77-23.89a5.8 5.8 0 0 1 9.51-2.14l14.1 13.85a12.36 12.36 0 0 1 3.4 11.5l-6.43 27.62a45.55 45.55 0 0 1 -5.53 13.47l-27 44.54z" fill="#fff"/><path d="m781.76 430.79a2.5 2.5 0 0 1 -1.53-.52l-25.51-19.79a2.5 2.5 0 0 1 -.81-1.1l-9.91-26.52a49.56 49.56 0 0 1 -3.63-25.11l2-17.33a6.69 6.69 0 0 1 13.15-.79l2.58 10.71 3.24-13.77a2.51 2.51 0 0 1 .08-.28l9.94-27.3a7.84 7.84 0 0 1 15.1 3.93l-4.75 29.32a.48.48 0 0 0 .92.24l8.77-23.89a8.3 8.3 0 0 1 13.6-3.06l14.1 13.85a14.77 14.77 0 0 1 4.09 13.82l-6.44 27.64a48 48 0 0 1 -5.83 14.21l-27 44.53a2.5 2.5 0 0 1 -2.16 1.21zm-23.42-23.79 22.74 17.64 25.55-42.14a43 43 0 0 0 5.23-12.74l6.43-27.62a9.79 9.79 0 0 0 -2.72-9.15l-14.1-13.85a3.3 3.3 0 0 0 -5.41 1.22l-8.76 23.84a5.48 5.48 0 0 1 -10.55-2.76l4.75-29.32a2.84 2.84 0 0 0 -5.5-1.42l-9.89 27.17-5.61 23.85a2.5 2.5 0 0 1 -2.43 1.93 2.5 2.5 0 0 1 -2.43-1.92l-5-20.93a1.69 1.69 0 0 0 -2.62-1 1.67 1.67 0 0 0 -.7 1.18l-2 17.33a44.55 44.55 0 0 0 3.28 22.62v.1z" fill="#262424"/><path d="m492.08 479.73c5.86-17.74 20.57-37.83 43.78-41.39 36 4.94 123 19.55 123 19.55s57.08-36.24 91.68-60.52l38.72 25.93s-31.28 45-63.16 89.53c-7.82 10.9-15.66 21.51-23.1 31 0 0-14.63 4.25-37.32 8.81-37.81 7.6-98 16.06-150.18 7.1-.01.06-41.83-24.3-23.42-80.01z" fill="#de9244"/><path d="m515.49 562.3a2.49 2.49 0 0 1 -1.26-.34 63 63 0 0 1 -19.47-20c-7.72-12.36-14.87-33.33-5.05-63 6.06-18.35 18.76-33.19 34-39.7a2.5 2.5 0 1 1 2 4.6c-13.91 6-25.56 19.66-31.18 36.67-17.57 53.17 21.89 76.89 22.29 77.12a2.5 2.5 0 0 1 -1.33 4.65z" fill="#262424"/><circle cx="773.62" cy="428.29" fill="#fff" r="4.67" transform="matrix(.29220479 -.95635577 .95635577 .29220479 138 1043.03)"/><path d="m773.63 435.47a7.2 7.2 0 0 1 -2.1-.32 7.17 7.17 0 0 1 -4.76-9 7.17 7.17 0 1 1 6.86 9.32zm-2.09-7.81a2.17 2.17 0 1 0 1.06-1.28 2.16 2.16 0 0 0 -1.06 1.28z" fill="#262424"/><path d="m688 514.68c13.43-7.15 28.16-7.45 38.13-1.83-7.82 10.9-15.66 21.51-23.1 31 0 0-14.63 4.25-37.32 8.81-3.19-13.21 5.83-29.25 22.29-37.98z" fill="#fff"/><g fill="#262424"><path d="m688.69 507.07a2.5 2.5 0 0 1 -2.13-1.18l-26.46-42.59a2.5 2.5 0 0 1 4.25-2.64l26.46 42.59a2.5 2.5 0 0 1 -2.12 3.82z"/><path d="m772.52 444.05a2.49 2.49 0 0 1 -1.46-.47l-34.79-25.08a2.5 2.5 0 1 1 2.92-4.06l34.81 25.09a2.5 2.5 0 0 1 -1.48 4.52z"/><path d="m464.33 822.17a2.5 2.5 0 0 1 -.95-4.81 22.65 22.65 0 0 0 14.11-21v-19.86a2.5 2.5 0 0 1 5 0v19.82a27.63 27.63 0 0 1 -17.21 25.68 2.5 2.5 0 0 1 -.95.17z"/><path d="m254.56 283.63a2.5 2.5 0 0 1 -2.5-2.5v-16.88a2.5 2.5 0 0 1 5 0v16.88a2.5 2.5 0 0 1 -2.5 2.5z"/><path d="m280 292.21h-16.86a2.5 2.5 0 0 1 0-5h16.86a2.5 2.5 0 0 1 0 5z"/><path d="m254.56 317.67a2.5 2.5 0 0 1 -2.5-2.5v-16.88a2.5 2.5 0 0 1 5 0v16.88a2.5 2.5 0 0 1 -2.5 2.5z"/><path d="m246 292.21h-16.9a2.5 2.5 0 0 1 0-5h16.9a2.5 2.5 0 0 1 0 5z"/><path d="m890.32 1024.67a2.5 2.5 0 0 1 -2.5-2.5v-16.88a2.5 2.5 0 0 1 5 0v16.88a2.5 2.5 0 0 1 -2.5 2.5z"/><path d="m915.78 1033.25h-16.88a2.5 2.5 0 0 1 0-5h16.88a2.5 2.5 0 0 1 0 5z"/><path d="m890.32 1058.71a2.5 2.5 0 0 1 -2.5-2.5v-16.88a2.5 2.5 0 0 1 5 0v16.88a2.5 2.5 0 0 1 -2.5 2.5z"/><path d="m881.74 1033.25h-16.88a2.5 2.5 0 0 1 0-5h16.88a2.5 2.5 0 0 1 0 5z"/></g><circle cx="1293.43" cy="1073.09" fill="#dd9144" r="16.41"/><circle cx="226.91" cy="1036.25" fill="#dd9144" r="13.65"/></svg>