<?xml version="1.0" encoding="utf-8"?>
<!-- Generator: Adobe Illustrator 24.2.3, SVG Export Plug-In . SVG Version: 6.00 Build 0)  -->
<svg version="1.1" id="Capa_1" xmlns="http://www.w3.org/2000/svg" xmlns:xlink="http://www.w3.org/1999/xlink" x="0px" y="0px"
	 viewBox="0 0 1600 1400" style="enable-background:new 0 0 1600 1400;" xml:space="preserve">
<style type="text/css">
	.st0{fill:#FFFFFF;}
	.st1{fill:#262424;}
	.st2{fill:#00BDAB;}
	.st3{fill:#2E4057;}
	.st4{fill:#FBBF24;}
</style>
<path class="st0" d="M1158.4,864h-95.8l-69.9-156h10.3l41.6,93l2.4,5.3c1,2.3,3.4,3.8,5.9,3.8h10.1c3.6,0,6.5-2.9,6.5-6.5
	c0-0.9-0.2-1.8-0.6-2.7l-41.7-93h61.2L1158.4,864z"/>
<path class="st1" d="M1158.4,866.5h-95.8c-1,0-1.9-0.6-2.3-1.5l-69.9-156c-0.6-1.3,0-2.7,1.3-3.3c0.3-0.1,0.7-0.2,1-0.2h10.3
	c1,0,1.9,0.6,2.3,1.5l44,98.3c0.6,1.4,2.1,2.4,3.7,2.4h10.1c2.2,0,4-1.8,4-4c0-0.6-0.1-1.1-0.3-1.6l-41.7-93c-0.6-1.3,0-2.7,1.3-3.3
	c0.3-0.1,0.7-0.2,1-0.2h61.2c1,0,1.9,0.6,2.3,1.5l69.9,156c0.6,1.3,0,2.7-1.2,3.3C1159.1,866.4,1158.8,866.5,1158.4,866.5
	L1158.4,866.5z M1064.2,861.5h90.4l-67.6-151h-55.7l40.1,89.5c2,4.5,0,9.9-4.5,11.9c-1.1,0.5-2.4,0.8-3.7,0.8h-10.1
	c-3.5,0-6.8-2.1-8.2-5.3l-43.4-96.8h-4.8L1064.2,861.5z"/>
<path class="st0" d="M1133.8,864h-95.8l-69.9-156h34.9l1.1,2.5h24.4l-1.1-2.5h36.6L1133.8,864z"/>
<path class="st1" d="M1136,863l-69.9-156c-0.4-0.9-1.3-1.5-2.3-1.5H968c-1.4,0-2.5,1.1-2.5,2.5c0,0.4,0.1,0.7,0.2,1l69.9,156
	c0.4,0.9,1.3,1.5,2.3,1.5h95.8c1.4,0,2.5-1.1,2.5-2.5C1136.2,863.7,1136.1,863.3,1136,863z M1039.5,861.5l-67.6-151h90.4l67.6,151
	H1039.5z"/>
<path class="st0" d="M876.2,858.3h306c8.1,0,14.7,6.6,14.7,14.7v0c0,8.1-6.6,14.7-14.7,14.7h-306c-8.1,0-14.7-6.6-14.7-14.7v0
	C861.6,864.9,868.1,858.3,876.2,858.3z"/>
<path class="st1" d="M1182.2,890.2h-306c-9.5-0.2-17-8.1-16.8-17.6c0.2-9.2,7.6-16.5,16.8-16.8h306c9.5,0.2,17,8.1,16.8,17.6
	C1198.8,882.6,1191.4,889.9,1182.2,890.2z M876.2,860.8c-6.7,0.2-12,5.8-11.8,12.5c0.2,6.4,5.4,11.6,11.8,11.8h306
	c6.7-0.2,12-5.8,11.8-12.5c-0.2-6.4-5.4-11.6-11.8-11.8H876.2z"/>
<path class="st0" d="M1036.1,858.3h146.2c8.1,0,14.7,6.6,14.7,14.7v0c0,8.1-6.6,14.7-14.7,14.7h-146.2c-8.1,0-14.7-6.6-14.7-14.7v0
	C1021.4,864.9,1028,858.3,1036.1,858.3z"/>
<path class="st1" d="M1182.2,890.2h-146.2c-9.5-0.2-17-8.1-16.8-17.6c0.2-9.2,7.6-16.5,16.8-16.8h146.2c9.5,0.2,17,8.1,16.8,17.6
	C1198.8,882.6,1191.4,889.9,1182.2,890.2z M1036.1,860.8c-6.7,0.2-12,5.8-11.8,12.5c0.2,6.4,5.4,11.6,11.8,11.8h146.2
	c6.7-0.2,12-5.8,11.8-12.5c-0.2-6.4-5.4-11.6-11.8-11.8H1036.1z"/>
<path class="st0" d="M664.7,188.6h716.6c12.1,0,21.9,9.8,21.9,21.9v481.1c0,12.1-9.8,21.9-21.9,21.9H664.7
	c-12.1,0-21.9-9.8-21.9-21.9V210.5C642.8,198.4,652.6,188.6,664.7,188.6z"/>
<path class="st1" d="M1381.4,716.1H664.7c-13.5,0-24.4-10.9-24.4-24.4V210.5c0-13.5,10.9-24.4,24.4-24.4h716.6
	c13.5,0,24.4,10.9,24.4,24.4v481.1C1405.8,705.2,1394.8,716.1,1381.4,716.1z M664.7,191.1c-10.7,0-19.4,8.7-19.4,19.4v481.2
	c0,10.7,8.7,19.4,19.4,19.4h716.6c10.7,0,19.4-8.7,19.4-19.4V210.5c0-10.7-8.7-19.4-19.4-19.4L664.7,191.1L664.7,191.1z"/>
<path class="st0" d="M643.1,188.6h716.6c12.1,0,21.9,9.8,21.9,21.9v481.1c0,12.1-9.8,21.9-21.9,21.9H643.1
	c-12.1,0-21.9-9.8-21.9-21.9V210.5C621.2,198.4,631,188.6,643.1,188.6z"/>
<path class="st1" d="M1359.7,716.1H643.1c-13.5,0-24.4-10.9-24.4-24.4V210.5c0-13.5,10.9-24.4,24.4-24.4h716.6
	c13.5,0,24.4,10.9,24.4,24.4v481.1C1384.1,705.2,1373.2,716.1,1359.7,716.1z M643.1,191.1c-10.7,0-19.4,8.7-19.4,19.4v481.2
	c0,10.7,8.7,19.4,19.4,19.4h716.6c10.7,0,19.4-8.7,19.4-19.4V210.5c0-10.7-8.7-19.4-19.4-19.4L643.1,191.1L643.1,191.1z"/>
<path class="st0" d="M652.1,213.6h698.6c3.3,0,5.9,2.6,5.9,5.9v463.1c0,3.3-2.6,5.9-5.9,5.9H652.1c-3.3,0-5.9-2.6-5.9-5.9V219.5
	C646.2,216.3,648.8,213.6,652.1,213.6z"/>
<path class="st1" d="M1350.7,691.1H652.1c-4.6,0-8.4-3.8-8.4-8.4V219.5c0-4.6,3.8-8.4,8.4-8.4h698.6c4.6,0,8.4,3.8,8.4,8.4v463.1
	C1359.1,687.3,1355.4,691.1,1350.7,691.1z M652.1,216.1c-1.9,0-3.4,1.5-3.4,3.4v463.2c0,1.9,1.5,3.4,3.4,3.4h698.6
	c1.9,0,3.4-1.5,3.4-3.4l0,0V219.5c0-1.9-1.5-3.4-3.4-3.4l0,0L652.1,216.1L652.1,216.1z"/>
<path class="st0" d="M1356.6,619v63.7c0,3.3-2.6,5.9-5.9,5.9H652.1c-3.3,0-5.9-2.6-5.9-5.9V619H1356.6z"/>
<path class="st1" d="M1350.7,691.1H652.1c-4.6,0-8.4-3.8-8.4-8.4V619c0-1.4,1.1-2.5,2.5-2.5h710.5c1.4,0,2.5,1.1,2.5,2.5v63.7
	C1359.1,687.3,1355.4,691.1,1350.7,691.1z M648.7,621.5v61.2c0,1.9,1.5,3.4,3.4,3.4h698.6c1.9,0,3.4-1.5,3.4-3.4l0,0v-61.2H648.7
	L648.7,621.5z"/>
<path class="st0" d="M1356.6,219.5V245H646.2v-25.5c0-3.3,2.6-5.9,5.9-5.9h698.6C1354,213.6,1356.6,216.3,1356.6,219.5
	C1356.6,219.5,1356.6,219.5,1356.6,219.5z"/>
<path class="st1" d="M1356.6,247.5H646.2c-1.4,0-2.5-1.1-2.5-2.5v-25.5c0-4.6,3.8-8.4,8.4-8.4h698.6c4.6,0,8.4,3.8,8.4,8.4V245
	C1359.1,246.4,1358,247.5,1356.6,247.5z M648.6,242.5h705.5v-23c0-1.9-1.5-3.4-3.4-3.4l0,0H652.1c-1.9,0-3.4,1.5-3.4,3.4
	L648.6,242.5L648.6,242.5z"/>
<path class="st0" d="M1356.6,245v437.7c0,3.3-2.6,5.9-5.9,5.9h-200.1V245L1356.6,245L1356.6,245z"/>
<path class="st1" d="M1350.7,691.1h-200.1c-1.4,0-2.5-1.1-2.5-2.5V245c0-1.4,1.1-2.5,2.5-2.5h206c1.4,0,2.5,1.1,2.5,2.5v437.7
	C1359.1,687.3,1355.4,691.1,1350.7,691.1z M1153.1,686.1h197.6c1.9,0,3.4-1.5,3.4-3.4l0,0V247.5h-201L1153.1,686.1L1153.1,686.1z"/>
<path class="st2" d="M1191.3,269.7H1316c5,0,9,4,9,9V514c0,5-4,9-9,9h-124.7c-5,0-9-4-9-9V278.7
	C1182.3,273.7,1186.3,269.7,1191.3,269.7z"/>
<path class="st3" d="M1191.3,583.6H1316c5,0,9,4,9,9l0,0c0,5-4,9-9,9h-124.7c-5,0-9-4-9-9l0,0
	C1182.3,587.6,1186.3,583.6,1191.3,583.6z"/>
<path class="st3" d="M1191.3,616.4H1316c5,0,9,4,9,9l0,0c0,5-4,9-9,9h-124.7c-5,0-9-4-9-9l0,0
	C1182.3,620.4,1186.3,616.4,1191.3,616.4z"/>
<path class="st0" d="M646.2,609h504.5v20H646.2L646.2,609z"/>
<path class="st1" d="M1150.6,631.5H646.2c-1.4,0-2.5-1.1-2.5-2.5v-20c0-1.4,1.1-2.5,2.5-2.5h504.5c1.4,0,2.5,1.1,2.5,2.5v20
	C1153.1,630.4,1152,631.5,1150.6,631.5z M648.6,626.5h499.5v-15H648.7L648.6,626.5L648.6,626.5z"/>
<path class="st3" d="M851.6,604.5h93.7c1.6,0,2.9,1.3,2.9,2.9l0,0v23.2c0,1.6-1.3,2.9-2.9,2.9h-93.7c-1.6,0-2.9-1.3-2.9-2.9v-23.3
	C848.7,605.8,850,604.5,851.6,604.5z"/>
<path class="st4" d="M1042.5,545h-76l-33.3-54.6h-69.6L830.3,545h-76l106.1-173.8l38-62.2l38,62.2l-38,62.2h76l34.8,57L1042.5,545z"
	/>
<path class="st0" d="M334.4,1137.4l-40.6,65.6l-18.3-30.8l30.6-57.6L334.4,1137.4z"/>
<path class="st1" d="M293.8,1205.5c-0.9,0-1.7-0.5-2.1-1.2l-18.3-30.8c-0.4-0.8-0.5-1.7-0.1-2.4l30.6-57.6c0.6-1.2,2.2-1.7,3.4-1
	c0.1,0.1,0.3,0.2,0.4,0.3l28.3,22.7c1,0.8,1.2,2.2,0.6,3.3l-40.6,65.6C295.5,1205.1,294.6,1205.5,293.8,1205.5L293.8,1205.5z
	 M278.4,1172.1l15.4,26.1l37.3-60.2l-24.2-19.4L278.4,1172.1z"/>
<path class="st3" d="M398,1233.4c-3.8-3.5-12.9-9.6-16.3-13.4c-19-20.8-36.1-43.2-51.1-67.1l-57.4,3.8c-1.8,38.2-1,74.1-0.3,94.9
	c0.4,11.6,0.9,18.4,0.9,18.4h135.7v-13.2C409.5,1248.3,405.4,1240.1,398,1233.4L398,1233.4z"/>
<ellipse class="st0" cx="289.3" cy="1209.8" rx="8.9" ry="16.1"/>
<path class="st0" d="M409.5,1256.9v13.2H273.8c0,0-0.4-6.9-0.9-18.4h116.4c0,0,0.6-14.9-3-27.5c4,3.3,9.2,6.9,11.8,9.3
	C405.4,1240.1,409.5,1248.4,409.5,1256.9z"/>
<path class="st1" d="M409.5,1272.6H273.8c-1.3,0-2.4-1-2.5-2.3c0-0.1-0.5-7-0.9-18.5c0-1.4,1-2.5,2.4-2.6c0,0,0.1,0,0.1,0h113.9
	c0-4.6-0.3-15.2-3-24.3c-0.4-1.3,0.3-2.7,1.7-3.1c0.8-0.2,1.7-0.1,2.3,0.5c1.6,1.3,3.4,2.7,5.1,4c2.6,2,5.1,3.9,6.7,5.4
	c7.9,7.2,12.3,16.2,12.3,25.3v13.2C412,1271.5,410.9,1272.6,409.5,1272.6C409.5,1272.6,409.5,1272.6,409.5,1272.6L409.5,1272.6z
	 M276.2,1267.6H407v-10.7c0-7.7-3.8-15.4-10.6-21.6c-1.4-1.3-3.7-3-6.1-4.9c1.2,7,1.7,14.2,1.5,21.3c-0.1,1.3-1.2,2.4-2.5,2.4H275.5
	C275.8,1260.4,276,1265,276.2,1267.6L276.2,1267.6z"/>
<path class="st3" d="M459,1037.3c-0.9,1.1-1.9,2.1-2.9,3.1L342.9,1153l-58.5-27.3l75.3-133.3c0,0-96-136-101.3-162.7
	S243.7,670.3,309,670.3s76.3,87.3,76.3,87.3l81.5,203.9l3.7,9.2C479.5,993.3,475.1,1019,459,1037.3L459,1037.3z"/>
<path class="st0" d="M330.3,771.2V811c0,4.3-2.3,8.4-6.1,10.6l-23.4,13.7l-23.4-13.7c-3.8-2.2-6.1-6.2-6.1-10.6v-39.8H330.3z"/>
<path class="st1" d="M340.8,1118.5c-1.4,0-2.5-1.1-2.5-2.5c0-0.5,0.2-1.1,0.5-1.5l88.7-119.1l-72.3-185c-0.5-1.3,0.1-2.7,1.4-3.2
	c1.3-0.5,2.7,0.1,3.2,1.4l72.8,186.3c0.3,0.8,0.2,1.7-0.3,2.4l-89.5,120.2C342.3,1118.1,341.6,1118.5,340.8,1118.5L340.8,1118.5z"/>
<path class="st1" d="M345.8,1140.8c-0.4,0-0.7-0.1-1.1-0.2l-48.9-23.1c-1.2-0.7-1.6-2.2-0.9-3.4c0.6-1,1.9-1.5,3-1.1l48.9,23.1
	c1.2,0.6,1.8,2.1,1.2,3.3C347.6,1140.3,346.8,1140.8,345.8,1140.8z"/>
<path class="st1" d="M422.3,998.3h-0.1l-55.3-3.3c-1.4-0.1-2.4-1.3-2.4-2.6c0.1-1.4,1.3-2.4,2.6-2.4l0,0l55.3,3.2
	c1.4,0,2.5,1.2,2.4,2.6C424.9,997.2,423.7,998.3,422.3,998.3L422.3,998.3L422.3,998.3z"/>
<path class="st0" d="M459,1037.3c-10.3-7-17.3-20.5-17.3-35.9c0-19.1,10.7-35.2,25.1-39.7l3.7,9.2
	C479.5,993.3,475.1,1019,459,1037.3z"/>
<path class="st0" d="M813,1110.5l53.3,55.8l-34.3,10l-48-44.1L813,1110.5z"/>
<path class="st1" d="M832,1178.8c-0.6,0-1.2-0.2-1.7-0.7l-48-44.1c-1-0.9-1.1-2.5-0.1-3.5c0.1-0.1,0.2-0.2,0.3-0.3l29-21.8
	c1-0.8,2.4-0.6,3.3,0.3l53.3,55.8c1,1,0.9,2.6-0.1,3.5c-0.3,0.3-0.6,0.5-1,0.6l-34.3,10C832.5,1178.8,832.2,1178.8,832,1178.8z
	 M787.9,1132.4l44.7,41.1l29-8.5l-48.9-51.2L787.9,1132.4z"/>
<path class="st3" d="M931.4,1233.4c-3.8-3.5-12.9-9.6-16.3-13.4c-26.6-29-48.1-62.2-55.6-74.2l-52.9,10.9c-1.8,38.2-1,74.1-0.3,94.9
	c0.4,11.6,0.9,18.4,0.9,18.4h135.7v-13.2C942.9,1248.3,938.7,1240.1,931.4,1233.4L931.4,1233.4z"/>
<ellipse class="st0" cx="822.6" cy="1209.8" rx="8.9" ry="16.1"/>
<path class="st0" d="M942.9,1256.9v13.2H807.2c0,0,0-0.4-0.1-1.3c-0.1-1-0.2-2.7-0.3-4.9c0-0.4,0-0.9-0.1-1.4s0-1-0.1-1.5
	c-0.1-2.6-0.3-5.8-0.4-9.4h116.4c0,0,0.6-14.9-3-27.5c0.2,0.2,0.4,0.3,0.5,0.4l0.2,0.2c1.6,1.3,3.4,2.7,5.1,3.9l0.6,0.4l1.1,0.9
	c1.7,1.3,3.2,2.5,4.2,3.4c1.3,1.2,2.6,2.5,3.8,3.9c3.1,3.6,5.4,7.9,6.7,12.4c0.1,0.3,0.1,0.5,0.2,0.8c0.1,0.5,0.2,1,0.3,1.6
	C942.8,1253.7,942.9,1255.3,942.9,1256.9L942.9,1256.9z"/>
<path class="st1" d="M942.9,1272.6H807.2c-1.3,0-2.4-1-2.5-2.3c0,0,0-0.4-0.1-1.3s-0.2-2.7-0.3-4.9v-0.2c0-0.4,0-0.7-0.1-1.1v-0.3
	c0-0.4,0-0.8-0.1-1.2c-0.1-2.7-0.3-5.8-0.4-9.5c0-1.4,1-2.5,2.4-2.6c0,0,0.1,0,0.1,0h113.9c0-4.6-0.3-15.2-3-24.3
	c-0.4-1.3,0.4-2.7,1.7-3.1c0.8-0.2,1.7-0.1,2.3,0.5l0.4,0.3c0.1,0.1,0.2,0.2,0.4,0.3c1.5,1.2,3.2,2.5,4.9,3.8l0.6,0.5l1.1,0.9
	c2.1,1.6,3.4,2.7,4.4,3.6c1.4,1.3,2.8,2.7,4,4.1c3.4,3.9,5.8,8.5,7.2,13.4v0.1c0.1,0.3,0.1,0.5,0.2,0.8c0.1,0.5,0.2,1.1,0.3,1.6
	c0.3,1.7,0.5,3.5,0.5,5.2v13.2C945.3,1271.5,944.3,1272.6,942.9,1272.6L942.9,1272.6z M809.6,1267.6h130.8v-10.7
	c0-1.5-0.1-2.9-0.4-4.3c-0.1-0.5-0.2-1-0.3-1.4c0-0.2-0.1-0.4-0.1-0.6v-0.1c-1.2-4.2-3.4-8.1-6.2-11.4c-1.1-1.3-2.3-2.5-3.5-3.7
	c-1.1-1-2.8-2.3-4.1-3.3l-1.1-0.9l-0.6-0.4l-0.3-0.2c1.2,7,1.7,14.2,1.5,21.3c-0.1,1.3-1.2,2.4-2.5,2.4H808.9
	c0.1,2.5,0.2,4.8,0.3,6.8c0,0.4,0,0.8,0.1,1.3v0.2c0,0.4,0,0.8,0.1,1.2v0.2C809.4,1265.4,809.5,1266.6,809.6,1267.6L809.6,1267.6z"
	/>
<path class="st3" d="M821,1107l-44.7,39.3c0,0-128-74-145.3-87.3s-50-57.3-50-57.3S397,875.7,365.7,843
	c-17.5-18.2-22.1-53.9-22.8-81.9c-1.2-49.1,37.9-90,87-90.7h2.4c78.7,0,84,105.3,84,105.3l130.5,141.9l54.4,59.2L821,1107z"/>
<path class="st1" d="M435.2,901c-0.5,0-1.1-0.2-1.5-0.5c-37-27.3-60.5-46-69.8-55.8c-17.8-18.5-22.5-54.5-23.4-81.3
	c0-1.4,1-2.5,2.4-2.6c1.4,0,2.5,1,2.6,2.4c0.8,26,5.3,60.6,22,78c9.1,9.5,32.4,28.1,69.2,55.2c1.1,0.8,1.4,2.4,0.6,3.5
	C436.8,900.6,436,901,435.2,901L435.2,901z"/>
<path class="st0" d="M701.2,976.8c-0.2,0.3-0.5,0.5-0.8,0.8c-11.5,11.2-33.4,7.3-48.9-8.7s-18.8-38-7.4-49.1
	c0.8-0.8,1.7-1.5,2.6-2.2L701.2,976.8z"/>
<path class="st1" d="M778,1113c-0.5,0-1-0.2-1.5-0.5l-81.4-59.3c-23.1-16.8-43.2-37.5-59.5-61l-5.2-7.6L462.6,821.5
	c-0.5-0.5-0.8-1.1-0.8-1.8V779c0-1.4,1.1-2.5,2.5-2.5s2.5,1.1,2.5,2.5v39.6l167.2,162.6c0.1,0.1,0.2,0.2,0.3,0.4l5.4,7.8
	c15.9,23.1,35.6,43.3,58.2,59.8l81.4,59.3c1.1,0.8,1.4,2.4,0.5,3.5C779.5,1112.6,778.8,1113,778,1113z"/>
<path class="st1" d="M769.5,1134.8c-1.4,0-2.5-1.1-2.5-2.5c0-0.7,0.3-1.4,0.8-1.9l36-32.5c1-0.9,2.6-0.9,3.5,0.1
	c0.9,1,0.9,2.6-0.1,3.5c0,0-0.1,0.1-0.1,0.1l-36,32.5C770.7,1134.5,770.1,1134.7,769.5,1134.8z"/>
<path class="st0" d="M439,771.2V811c0,4.3-2.3,8.4-6.1,10.6l-23.4,13.7l-23.4-13.7c-3.7-2.2-6.1-6.2-6.1-10.5v-39.8H439z"/>
<path class="st0" d="M113.5,649.2L88.2,703l59.5,18.2l2-63L113.5,649.2z"/>
<path class="st1" d="M147.8,723.8c-0.2,0-0.5,0-0.7-0.1l-59.5-18.2c-1.3-0.4-2.1-1.8-1.6-3.1c0-0.1,0.1-0.2,0.1-0.3l25.2-53.8
	c0.5-1.1,1.7-1.7,2.9-1.4l36.2,9c1.1,0.3,1.9,1.3,1.9,2.5l-2,63C150.2,722.7,149.1,723.8,147.8,723.8z M91.8,701.5l53.6,16.5
	l1.8-57.7l-32.3-8L91.8,701.5z"/>
<path class="st0" d="M131,682.8l-19.5-6c-5.6-1.7-11.7,0.8-14.5,6l-9.6,18.1c-1.6,3.1-1.9,6.7-0.6,10c1.3,3.5,4.1,6.1,7.6,7.3
	l24.6,8.2c4.7,1.6,10,0.1,13.2-3.7l2.9-3.4c1.6-1.9,2.6-4.3,2.9-6.8l1.6-16.9C140.1,689.9,136.5,684.5,131,682.8L131,682.8z"/>
<path class="st1" d="M122.9,729.5c-1.6,0-3.2-0.3-4.7-0.8l-24.6-8.2c-7.7-2.6-11.9-10.9-9.4-18.6c0.3-0.8,0.6-1.5,1-2.2l9.6-18.1
	c3.3-6.3,10.6-9.3,17.4-7.2l19.5,6c6.6,2.1,10.9,8.5,10.3,15.5l-1.6,16.9c-0.3,3-1.5,5.9-3.5,8.2l-2.9,3.4
	C131.3,727.6,127.3,729.5,122.9,729.5L122.9,729.5z M107.8,678.7c-3.6,0-6.9,2-8.6,5.2L89.7,702c-2.5,4.8-0.7,10.7,4.1,13.2
	c0.5,0.2,1,0.5,1.5,0.6l24.6,8.2c3.8,1.3,7.9,0.1,10.5-2.9l2.9-3.4c1.3-1.5,2.1-3.4,2.3-5.4l1.6-16.9c0.4-4.6-2.4-8.9-6.8-10.2
	l-19.5-6C109.8,678.9,108.8,678.7,107.8,678.7L107.8,678.7z"/>
<path class="st0" d="M145.4,688.3c3.7,0.9,6.5,4.1,6.7,7.9l0.9,16.3c0.3,5-1.6,10-5.3,13.5l-3.8,3.6c-2.3,2.2-5.7,2.9-8.7,1.9
	l-1-0.3c-2.2-0.8-4-2.4-5-4.5l-1.1-2.4c-2.1-4.6-2.1-9.8,0-14.4l7.7-16.7C137.4,689.4,141.5,687.4,145.4,688.3L145.4,688.3z"/>
<path class="st1" d="M138,734.4c-1.2,0-2.5-0.2-3.6-0.6l-1-0.3c-2.8-1-5.2-3.1-6.4-5.8l-1.1-2.4c-2.4-5.2-2.5-11.2-0.1-16.5
	l7.7-16.7c2.2-4.8,7.5-7.4,12.6-6.2c4.8,1.1,8.3,5.3,8.6,10.2l0.9,16.3c0.3,5.8-1.9,11.4-6.1,15.4l-3.8,3.6
	C143.6,733.3,140.8,734.4,138,734.4L138,734.4z M143.5,690.6c-2.4,0-4.6,1.4-5.6,3.6l-7.7,16.7c-1.8,3.9-1.8,8.4,0,12.3l1.1,2.4
	c0.7,1.5,2,2.6,3.5,3.2l1,0.3c2.1,0.8,4.5,0.2,6.2-1.3l3.8-3.6c3.1-3,4.8-7.2,4.6-11.5l-0.9-16.3c-0.2-2.7-2.1-5-4.7-5.6
	C144.4,690.7,144,690.6,143.5,690.6L143.5,690.6z"/>
<path class="st0" d="M149.8,658.2l8.4,38c0.8,3.5-0.4,7.2-3.1,9.7c-2.7,2.4-6.6,3.2-10,2l-24.2-8.3c-3.4-1.2-5.4-4.8-4.5-8.3
	c0.8-3.1,3.6-5.2,6.8-5.2l10.4,0.2l-7-12.5c-1.3-2.3-1.1-5.1,0.3-7.2l8.3-12.4L149.8,658.2z"/>
<path class="st1" d="M148.3,711c-1.4,0-2.8-0.2-4.1-0.7l-24.2-8.3c-4.6-1.6-7.2-6.6-6-11.3c1.1-4.2,4.9-7.1,9.3-7l6.1,0.1l-4.9-8.8
	c-1.7-3.1-1.6-6.9,0.4-9.8l8.3-12.4c0.6-0.9,1.7-1.3,2.7-1l14.5,4c0.9,0.2,1.6,1,1.8,1.9l8.4,38c1.5,6.8-2.7,13.5-9.5,15
	C150.1,710.9,149.2,711,148.3,711z M123.1,688.7c-2.4,0-4.4,2-4.5,4.4c0,1.9,1.2,3.6,3,4.2l24.2,8.3c4,1.4,8.3-0.8,9.6-4.7
	c0.4-1.3,0.5-2.7,0.2-4.1l-8-36.5l-11.3-3.1l-7.3,10.9c-0.9,1.4-1,3.2-0.2,4.6l7,12.5c0.7,1.2,0.2,2.7-1,3.4
	c-0.4,0.2-0.8,0.3-1.3,0.3l-10.4-0.2L123.1,688.7L123.1,688.7z"/>
<path class="st2" d="M373,488.3c-1.3,58.7-151.3,89.3-151.3,89.3s-44,51.3-70,84.7l-43.3-9.3c0,0,15.5-56.3,33-108.2
	c4.3-12.7,8.7-25.2,13-36.4c0,0,12.8-8.3,33.1-19.3c33.9-18.3,89-44,141.6-50.7C329,438.3,374.3,429.7,373,488.3L373,488.3z"/>
<circle class="st0" cx="121.8" cy="643.7" r="4.7"/>
<path class="st1" d="M121.8,650.8c-4,0-7.2-3.2-7.2-7.2c0-4,3.2-7.2,7.2-7.2c4,0,7.2,3.2,7.2,7.2l0,0
	C129,647.6,125.8,650.8,121.8,650.8z M121.8,641.5c-1.2,0-2.2,1-2.2,2.2c0,1.2,1,2.2,2.2,2.2c1.2,0,2.2-1,2.2-2.2l0,0
	C124,642.5,123,641.5,121.8,641.5z"/>
<path class="st0" d="M177.2,531.9c-10.8,10.8-24.8,15.3-35.9,12.9c4.3-12.7,8.7-25.2,13-36.4c0,0,12.8-8.3,33.1-19.3
	C194.3,500.7,190.4,518.7,177.2,531.9L177.2,531.9z"/>
<path class="st1" d="M217.2,577.2c-0.6,0-1.2-0.2-1.6-0.6l-37.8-33c-1-0.9-1-2.5-0.1-3.5c0.9-0.9,2.4-1,3.4-0.2l37.8,33
	c1,0.9,1.1,2.5,0.2,3.5C218.7,576.9,218,577.3,217.2,577.2z"/>
<path class="st1" d="M158.3,642.8c-0.2,0-0.4,0-0.6-0.1l-39.3-9.7c-1.3-0.3-2.2-1.7-1.8-3c0.3-1.3,1.7-2.2,3-1.8l39.3,9.7
	c1.3,0.3,2.2,1.7,1.8,3C160.5,642,159.5,642.8,158.3,642.8z"/>
<path class="st0" d="M424,389.2c0,0,13.3,19.2,33,19.2s34.3-80.8-0.7-87.7S399,353.7,424,389.2L424,389.2z"/>
<path class="st1" d="M457,410.8c-20.7,0-34.4-19.4-35-20.2c-13.1-18.7-14.8-40.3-4.4-56.4c8.5-13.1,23.2-19.1,39.2-16
	c20,3.9,24.8,28.6,22.7,50.4C477.6,389.1,469,410.8,457,410.8L457,410.8z M426,387.7c0.1,0.2,12.9,18.1,31,18.1
	c7.4,0,15.6-17.6,17.6-37.7c1.9-19.6-2-41.8-18.7-45c-14-2.7-26.7,2.4-34.1,13.8S411.7,367.5,426,387.7L426,387.7z"/>
<path class="st0" d="M404.8,433.5l6.2-40l26.8,7.3l-0.8,32.7H404.8z"/>
<path class="st1" d="M437,436h-32.2c-1.4,0-2.5-1.1-2.5-2.5c0-0.1,0-0.3,0-0.4l6.2-40c0.2-1.4,1.5-2.3,2.9-2.1c0.1,0,0.2,0,0.3,0.1
	l26.8,7.3c1.1,0.3,1.9,1.3,1.8,2.5l-0.8,32.7C439.5,434.9,438.4,436,437,436z M407.7,431h26.9l0.7-28.3l-22.2-6L407.7,431z"/>
<path class="st1" d="M465.7,367.5c0,0-3.7-16.2-15-12.2s-10.7,22.2-2.5,27.3l-10.4,18.1h-27.9c0,0-22.5-30.1-25.2-49.1
	s15.7-20.5,15.7-20.5s3.3-16.3,16.7-19.2s50,4.8,50,4.8s7.1-11.3,13.1-11.2s5.9,12.6,5.9,12.6s7.9-10.2,12.8-7.1s-3.4,45.2-28,37.5
	C470.8,348.6,474.1,365.9,465.7,367.5L465.7,367.5z"/>
<path class="st0" d="M380.8,435.2c0,0,7.8-20,37.8-20s40.5,25.2,40.5,25.2h-78.2V435.2z"/>
<path class="st1" d="M459,443h-78.2c-1.4,0-2.5-1.1-2.5-2.5v-5.2c0-0.3,0.1-0.6,0.2-0.9c0.3-0.9,8.7-21.6,40.1-21.6
	s42.7,26.5,42.8,26.8c0.5,1.3-0.1,2.7-1.3,3.3C459.7,442.9,459.3,443,459,443z M383.2,438h71.6c-4-6.6-14.8-20.2-36.4-20.2
	c-25.8,0-34,15.3-35.2,18V438z"/>
<path class="st2" d="M531.7,776.3c-12.5,4.3-25.3,7.8-38.3,10.3v-39.8c-0.2-5-4.4-9-9.4-8.8c-4.8,0.2-8.6,4-8.8,8.8v42.9
	c-115.8,15.9-234.4-29.3-234.4-29.3c29-206.7,88.3-322,88.3-322c56.3-13.3,206.7,0,206.7,0C538.3,571,531.7,776.3,531.7,776.3z"/>
<path class="st1" d="M287.5,549.7c-1.4,0-2.5-1.1-2.5-2.5c0-0.3,0-0.5,0.1-0.7c16.2-52.2,30.9-86.3,38.1-102
	c0.6-1.2,2.1-1.7,3.4-1.1c1.2,0.6,1.7,2,1.2,3.2c-5.8,12.5-21.2,47.5-37.9,101.3C289.6,548.9,288.6,549.6,287.5,549.7L287.5,549.7z"
	/>
<path class="st1" d="M349.7,752.8L349.7,752.8c-1.5,0-2.5-1.2-2.5-2.6c6-170.5,54.8-296.2,55.3-297.5c0.5-1.3,2-1.8,3.3-1.3
	c1.2,0.5,1.8,1.9,1.4,3.1c-0.5,1.2-49,126.3-54.9,295.8C352.1,751.8,351,752.8,349.7,752.8L349.7,752.8z"/>
<path class="st1" d="M499.5,769.5c-1.4,0.1-2.6-0.9-2.7-2.3c-0.1-1.4,0.9-2.6,2.3-2.7c7.4-1.1,14.9-2.3,22.4-3.6
	c1.4-0.2,2.7,0.7,2.9,2c0.2,1.3-0.7,2.6-2,2.9c-7.5,1.4-15.1,2.6-22.6,3.7L499.5,769.5z"/>
<path class="st1" d="M419.9,775.2c-45.9,0-82.7-5.9-107.7-11.6c-36.1-8.3-55.7-17.9-56.5-18.3c-1.2-0.6-1.7-2.1-1.1-3.4
	c0.6-1.2,2.1-1.7,3.3-1.1c0.8,0.4,80,38.7,209.6,27.3c1.4-0.1,2.6,0.9,2.7,2.3c0.1,1.4-0.9,2.6-2.3,2.7
	C451,774.6,434.9,775.2,419.9,775.2z"/>
<path class="st0" d="M1394,486.5h13c3.9,0,7.1,3.2,7.1,7.1v6.8c0,3.9-3.2,7.1-7.1,7.1h-13l0,0V486.5L1394,486.5L1394,486.5z"/>
<path class="st1" d="M1407,510h-13c-1.4,0-2.5-1.1-2.5-2.5v-21c0-1.4,1.1-2.5,2.5-2.5h13c5.3,0,9.6,4.3,9.6,9.6v6.8
	C1416.6,505.7,1412.3,510,1407,510L1407,510z M1396.5,505h10.5c2.5,0,4.6-2.1,4.6-4.6v-6.8c0-2.5-2.1-4.6-4.6-4.6h-10.5V505z"/>
<path class="st1" d="M1473.8,566.3v52.2c0,79.3-31.5,155.3-87.6,211.4c-79.2,79.2-186.5,123.6-298.5,123.6
	c-66.9,0-121.2-54.3-121.2-121.2c0-11,1.5-22,4.5-32.7l123.3-440.3c10.8-38.5,16.2-78.3,16.2-118.2c0-87.3-71-158.2-158.2-158.2
	S794,153.8,794,241.1v26.2h-5v-26.2c0-90,73.2-163.2,163.2-163.2s163.2,73.2,163.2,163.2c0,40.4-5.5,80.7-16.4,119.6L975.8,801
	c-17.3,61.8,18.8,125.9,80.6,143.2c10.2,2.8,20.7,4.3,31.3,4.3c111.4,0,216.2-43.4,295-122.2c55.3-55,86.3-129.9,86.1-207.9v-52.2
	c-0.1-32.2-22.5-60-53.9-67.1c-1.4-0.3-2.2-1.6-1.9-3s1.6-2.2,3-1.9C1449.8,501.7,1473.8,531.7,1473.8,566.3L1473.8,566.3z"/>
<path class="st0" d="M797.8,269.8h-12.7v2.1c-16.4,5.4-27.4,20.8-27.4,38v65.5c0,17.2,11,32.6,27.4,38v2.1h12.7
	c22.1,0,40-17.9,40-40v-65.6C837.8,287.7,819.9,269.8,797.8,269.8C797.8,269.8,797.8,269.8,797.8,269.8z"/>
<path class="st1" d="M797.8,417.8h-12.7c-1.4,0-2.5-1.1-2.5-2.5V415c-16.5-6.3-27.4-22.1-27.4-39.7v-65.5
	c0-17.7,10.9-33.5,27.4-39.8v-0.3c0-1.4,1.1-2.5,2.5-2.5h12.7c23.5,0,42.5,19,42.5,42.5v65.5C840.4,398.7,821.3,417.7,797.8,417.8z
	 M787.6,412.8h10.2c20.7,0,37.5-16.8,37.5-37.5v-65.5c0-20.7-16.8-37.5-37.5-37.5h-10.2c-0.2,0.9-0.8,1.6-1.7,1.9
	c-15.3,5.1-25.7,19.4-25.7,35.6v65.5c0,16.2,10.3,30.5,25.7,35.6C786.9,411.1,787.5,411.9,787.6,412.8z"/>
<path class="st2" d="M783.8,267.2h2.7c22.1,0,40,17.9,40,40v70.5c0,22.1-17.9,40-40,40h-2.7c-22.1,0-40-17.9-40-40v-70.5
	C743.8,285.2,761.7,267.2,783.8,267.2z"/>
<path class="st0" d="M756.2,408.5l-10-26.6c-3.2-7.5-4.4-15.8-3.4-23.9l2-17.3c0.3-2.3,2.3-3.9,4.6-3.7c0.1,0,0.3,0,0.4,0.1
	c1.6,0.3,2.8,1.5,3.2,3.1l5,20.9l5.7-24l9.9-27.3c1-2.7,3.8-4.1,6.5-3.3c2.6,0.8,4.2,3.3,3.7,6l-4.8,29.3c-0.2,1.4,0.6,2.9,2,3.3
	c1.5,0.5,3.1-0.3,3.7-1.8l8.8-23.9c1.1-3,4.4-4.6,7.4-3.4c0.8,0.3,1.5,0.7,2.1,1.3l14.1,13.9c3,3,4.3,7.3,3.4,11.5l-6.4,27.6
	c-1.1,4.8-3,9.3-5.5,13.5l-27,44.5L756.2,408.5z"/>
<path class="st1" d="M781.8,430.8c-0.6,0-1.1-0.2-1.5-0.5l-25.5-19.8c-0.4-0.3-0.6-0.7-0.8-1.1l-9.9-26.5
	c-3.4-7.9-4.6-16.6-3.6-25.1l2-17.3c0.4-3.7,3.7-6.3,7.4-5.9c2.8,0.3,5.1,2.4,5.7,5.1l2.6,10.7l3.2-13.8c0-0.1,0-0.2,0.1-0.3
	l9.9-27.3c1.5-4.1,6-6.1,10.1-4.6c3.5,1.3,5.6,4.9,5,8.6l-4.8,29.3c0,0.3,0.2,0.5,0.4,0.5c0.2,0,0.4-0.1,0.5-0.3l8.8-23.9
	c1.6-4.3,6.4-6.5,10.7-4.9c1.1,0.4,2.1,1,2.9,1.9l14.1,13.9c3.7,3.6,5.2,8.8,4.1,13.8l-6.4,27.6c-1.2,5-3.1,9.8-5.8,14.2l-27,44.5
	C783.5,430.3,782.6,430.8,781.8,430.8z M758.3,407l22.7,17.6l25.5-42.1c2.4-3.9,4.2-8.2,5.2-12.7l6.4-27.6c0.7-3.3-0.3-6.8-2.7-9.1
	l-14.1-13.9c-1.3-1.3-3.4-1.3-4.7,0c-0.3,0.3-0.6,0.7-0.7,1.2l-8.8,23.8c-1.1,2.8-4.2,4.3-7,3.2c-2.4-0.9-3.9-3.4-3.5-6l4.8-29.3
	c0.4-1.5-0.5-3.1-2-3.5c-1.5-0.4-3.1,0.5-3.5,2l-9.9,27.2l-5.6,23.9c-0.3,1.1-1.3,1.9-2.4,1.9c-1.2,0-2.2-0.8-2.4-1.9l-5-20.9
	c-0.2-0.9-1.1-1.5-2-1.3c-0.2,0-0.4,0.1-0.6,0.3c-0.4,0.3-0.6,0.7-0.7,1.2l-2,17.3c-0.9,7.7,0.2,15.5,3.3,22.6v0.1L758.3,407z"/>
<path class="st2" d="M492.1,479.7c5.9-17.7,20.6-37.8,43.8-41.4c36,4.9,123,19.5,123,19.5s57.1-36.2,91.7-60.5l38.7,25.9
	c0,0-31.3,45-63.2,89.5c-7.8,10.9-15.7,21.5-23.1,31c0,0-14.6,4.2-37.3,8.8c-37.8,7.6-98,16.1-150.2,7.1
	C515.5,559.8,473.7,535.4,492.1,479.7L492.1,479.7z"/>
<path class="st1" d="M515.5,562.3c-0.4,0-0.9-0.1-1.3-0.3c-7.9-5.1-14.6-12-19.5-20c-7.7-12.4-14.9-33.3-5-63
	c6.1-18.4,18.8-33.2,34-39.7c1.3-0.6,2.7,0,3.3,1.3c0.6,1.3,0,2.7-1.3,3.3l0,0c-13.9,6-25.6,19.7-31.2,36.7
	c-17.6,53.2,21.9,76.9,22.3,77.1c1.2,0.7,1.6,2.2,0.9,3.4C517.2,561.9,516.4,562.3,515.5,562.3L515.5,562.3z"/>
<ellipse transform="matrix(0.2922 -0.9564 0.9564 0.2922 137.9593 1043.0522)" class="st0" cx="773.7" cy="428.3" rx="4.7" ry="4.7"/>
<path class="st1" d="M773.6,435.5c-0.7,0-1.4-0.1-2.1-0.3c-3.8-1.2-5.9-5.2-4.8-8.9c0,0,0,0,0-0.1c1.2-3.8,5.2-5.9,9-4.7
	c3.8,1.2,5.9,5.2,4.7,9C779.5,433.4,776.8,435.5,773.6,435.5z M771.5,427.7c-0.4,1.1,0.3,2.4,1.4,2.7c1.1,0.4,2.4-0.3,2.7-1.4
	c0.4-1.1-0.3-2.4-1.4-2.7c-0.5-0.2-1.1-0.1-1.7,0.2C772.1,426.6,771.7,427.1,771.5,427.7z"/>
<path class="st0" d="M688,514.7c13.4-7.1,28.2-7.5,38.1-1.8c-7.8,10.9-15.7,21.5-23.1,31c0,0-14.6,4.2-37.3,8.8
	C662.5,539.4,671.5,523.4,688,514.7z"/>
<g>
	<path class="st1" d="M688.7,507.1c-0.9,0-1.7-0.4-2.1-1.2l-26.5-42.6c-0.7-1.2-0.4-2.7,0.8-3.4s2.7-0.4,3.4,0.8l26.5,42.6
		c0.7,1.2,0.4,2.7-0.8,3.4C689.6,506.9,689.2,507.1,688.7,507.1z"/>
	<path class="st1" d="M772.5,444c-0.5,0-1-0.2-1.5-0.5l-34.8-25.1c-1.1-0.8-1.4-2.4-0.6-3.5s2.4-1.4,3.5-0.6l34.8,25.1
		c1.1,0.8,1.4,2.4,0.5,3.5C774.1,443.7,773.3,444.1,772.5,444z"/>
	<path class="st1" d="M464.3,822.2c-1.4,0-2.5-1.1-2.5-2.5c0-1,0.6-1.9,1.5-2.3c8.5-3.5,14.1-11.8,14.1-21v-19.9
		c0-1.4,1.1-2.5,2.5-2.5s2.5,1.1,2.5,2.5v19.8c0,11.3-6.8,21.4-17.2,25.7C465,822.1,464.7,822.2,464.3,822.2L464.3,822.2z"/>
	<path class="st1" d="M254.6,283.6c-1.4,0-2.5-1.1-2.5-2.5v-16.9c0-1.4,1.1-2.5,2.5-2.5s2.5,1.1,2.5,2.5v16.9
		C257.1,282.5,255.9,283.6,254.6,283.6z"/>
	<path class="st1" d="M280,292.2h-16.9c-1.4,0-2.5-1.1-2.5-2.5s1.1-2.5,2.5-2.5H280c1.4,0,2.5,1.1,2.5,2.5S281.4,292.2,280,292.2z"
		/>
	<path class="st1" d="M254.6,317.7c-1.4,0-2.5-1.1-2.5-2.5v-16.9c0-1.4,1.1-2.5,2.5-2.5s2.5,1.1,2.5,2.5v16.9
		C257.1,316.6,255.9,317.7,254.6,317.7z"/>
	<path class="st1" d="M246,292.2h-16.9c-1.4,0-2.5-1.1-2.5-2.5s1.1-2.5,2.5-2.5H246c1.4,0,2.5,1.1,2.5,2.5S247.4,292.2,246,292.2z"
		/>
	<path class="st1" d="M890.3,1024.7c-1.4,0-2.5-1.1-2.5-2.5v-16.9c0-1.4,1.1-2.5,2.5-2.5s2.5,1.1,2.5,2.5l0,0v16.9
		C892.8,1023.6,891.7,1024.7,890.3,1024.7z"/>
	<path class="st1" d="M915.8,1033.2h-16.9c-1.4,0-2.5-1.1-2.5-2.5s1.1-2.5,2.5-2.5h16.9c1.4,0,2.5,1.1,2.5,2.5
		S917.2,1033.2,915.8,1033.2z"/>
	<path class="st1" d="M890.3,1058.7c-1.4,0-2.5-1.1-2.5-2.5v-16.9c0-1.4,1.1-2.5,2.5-2.5s2.5,1.1,2.5,2.5v16.9
		C892.8,1057.6,891.7,1058.7,890.3,1058.7z"/>
	<path class="st1" d="M881.7,1033.2h-16.9c-1.4,0-2.5-1.1-2.5-2.5s1.1-2.5,2.5-2.5h16.9c1.4,0,2.5,1.1,2.5,2.5
		S883.1,1033.2,881.7,1033.2z"/>
</g>
<circle class="st4" cx="1293.4" cy="1073.1" r="16.4"/>
<circle class="st4" cx="226.9" cy="1036.2" r="13.7"/>
</svg>
